<?xml version="1.0" encoding="utf-8" standalone="no"?>
<!DOCTYPE svg PUBLIC "-//W3C//DTD SVG 1.1//EN"
  "http://www.w3.org/Graphics/SVG/1.1/DTD/svg11.dtd">
<!-- Created with matplotlib (http://matplotlib.org/) -->
<svg height="345.6pt" version="1.1" viewBox="0 0 460.8 345.6" width="460.8pt" xmlns="http://www.w3.org/2000/svg" xmlns:xlink="http://www.w3.org/1999/xlink">
 <defs>
  <style type="text/css">
*{stroke-linecap:butt;stroke-linejoin:round;}
  </style>
 </defs>
 <g id="figure_1">
  <g id="patch_1">
   <path d="M 0 345.6 
L 460.8 345.6 
L 460.8 0 
L 0 0 
z
" style="fill:#ffffff;"/>
  </g>
  <g id="axes_1">
   <g id="patch_2">
    <path d="M 57.6 162.432 
L 219.927273 162.432 
L 219.927273 41.472 
L 57.6 41.472 
z
" style="fill:#ffffff;"/>
   </g>
   <g id="matplotlib.axis_1">
    <g id="xtick_1">
     <g id="line2d_1">
      <defs>
       <path d="M 0 0 
L 0 3.5 
" id="m1e471c690e" style="stroke:#000000;stroke-width:0.8;"/>
      </defs>
      <g>
       <use style="stroke:#000000;stroke-width:0.8;" x="64.978512" xlink:href="#m1e471c690e" y="162.432"/>
      </g>
     </g>
     <g id="text_1">
      <!-- 0 -->
      <defs>
       <path d="M 31.78125 66.40625 
Q 24.171875 66.40625 20.328125 58.90625 
Q 16.5 51.421875 16.5 36.375 
Q 16.5 21.390625 20.328125 13.890625 
Q 24.171875 6.390625 31.78125 6.390625 
Q 39.453125 6.390625 43.28125 13.890625 
Q 47.125 21.390625 47.125 36.375 
Q 47.125 51.421875 43.28125 58.90625 
Q 39.453125 66.40625 31.78125 66.40625 
z
M 31.78125 74.21875 
Q 44.046875 74.21875 50.515625 64.515625 
Q 56.984375 54.828125 56.984375 36.375 
Q 56.984375 17.96875 50.515625 8.265625 
Q 44.046875 -1.421875 31.78125 -1.421875 
Q 19.53125 -1.421875 13.0625 8.265625 
Q 6.59375 17.96875 6.59375 36.375 
Q 6.59375 54.828125 13.0625 64.515625 
Q 19.53125 74.21875 31.78125 74.21875 
z
" id="DejaVuSans-30"/>
      </defs>
      <g transform="translate(61.797262 177.030437)scale(0.1 -0.1)">
       <use xlink:href="#DejaVuSans-30"/>
      </g>
     </g>
    </g>
    <g id="xtick_2">
     <g id="line2d_2">
      <g>
       <use style="stroke:#000000;stroke-width:0.8;" x="115.002325" xlink:href="#m1e471c690e" y="162.432"/>
      </g>
     </g>
     <g id="text_2">
      <!-- 20 -->
      <defs>
       <path d="M 19.1875 8.296875 
L 53.609375 8.296875 
L 53.609375 0 
L 7.328125 0 
L 7.328125 8.296875 
Q 12.9375 14.109375 22.625 23.890625 
Q 32.328125 33.6875 34.8125 36.53125 
Q 39.546875 41.84375 41.421875 45.53125 
Q 43.3125 49.21875 43.3125 52.78125 
Q 43.3125 58.59375 39.234375 62.25 
Q 35.15625 65.921875 28.609375 65.921875 
Q 23.96875 65.921875 18.8125 64.3125 
Q 13.671875 62.703125 7.8125 59.421875 
L 7.8125 69.390625 
Q 13.765625 71.78125 18.9375 73 
Q 24.125 74.21875 28.421875 74.21875 
Q 39.75 74.21875 46.484375 68.546875 
Q 53.21875 62.890625 53.21875 53.421875 
Q 53.21875 48.921875 51.53125 44.890625 
Q 49.859375 40.875 45.40625 35.40625 
Q 44.1875 33.984375 37.640625 27.21875 
Q 31.109375 20.453125 19.1875 8.296875 
z
" id="DejaVuSans-32"/>
      </defs>
      <g transform="translate(108.639825 177.030437)scale(0.1 -0.1)">
       <use xlink:href="#DejaVuSans-32"/>
       <use x="63.623047" xlink:href="#DejaVuSans-30"/>
      </g>
     </g>
    </g>
    <g id="xtick_3">
     <g id="line2d_3">
      <g>
       <use style="stroke:#000000;stroke-width:0.8;" x="165.026138" xlink:href="#m1e471c690e" y="162.432"/>
      </g>
     </g>
     <g id="text_3">
      <!-- 40 -->
      <defs>
       <path d="M 37.796875 64.3125 
L 12.890625 25.390625 
L 37.796875 25.390625 
z
M 35.203125 72.90625 
L 47.609375 72.90625 
L 47.609375 25.390625 
L 58.015625 25.390625 
L 58.015625 17.1875 
L 47.609375 17.1875 
L 47.609375 0 
L 37.796875 0 
L 37.796875 17.1875 
L 4.890625 17.1875 
L 4.890625 26.703125 
z
" id="DejaVuSans-34"/>
      </defs>
      <g transform="translate(158.663638 177.030437)scale(0.1 -0.1)">
       <use xlink:href="#DejaVuSans-34"/>
       <use x="63.623047" xlink:href="#DejaVuSans-30"/>
      </g>
     </g>
    </g>
    <g id="xtick_4">
     <g id="line2d_4">
      <g>
       <use style="stroke:#000000;stroke-width:0.8;" x="215.049951" xlink:href="#m1e471c690e" y="162.432"/>
      </g>
     </g>
     <g id="text_4">
      <!-- 60 -->
      <defs>
       <path d="M 33.015625 40.375 
Q 26.375 40.375 22.484375 35.828125 
Q 18.609375 31.296875 18.609375 23.390625 
Q 18.609375 15.53125 22.484375 10.953125 
Q 26.375 6.390625 33.015625 6.390625 
Q 39.65625 6.390625 43.53125 10.953125 
Q 47.40625 15.53125 47.40625 23.390625 
Q 47.40625 31.296875 43.53125 35.828125 
Q 39.65625 40.375 33.015625 40.375 
z
M 52.59375 71.296875 
L 52.59375 62.3125 
Q 48.875 64.0625 45.09375 64.984375 
Q 41.3125 65.921875 37.59375 65.921875 
Q 27.828125 65.921875 22.671875 59.328125 
Q 17.53125 52.734375 16.796875 39.40625 
Q 19.671875 43.65625 24.015625 45.921875 
Q 28.375 48.1875 33.59375 48.1875 
Q 44.578125 48.1875 50.953125 41.515625 
Q 57.328125 34.859375 57.328125 23.390625 
Q 57.328125 12.15625 50.6875 5.359375 
Q 44.046875 -1.421875 33.015625 -1.421875 
Q 20.359375 -1.421875 13.671875 8.265625 
Q 6.984375 17.96875 6.984375 36.375 
Q 6.984375 53.65625 15.1875 63.9375 
Q 23.390625 74.21875 37.203125 74.21875 
Q 40.921875 74.21875 44.703125 73.484375 
Q 48.484375 72.75 52.59375 71.296875 
z
" id="DejaVuSans-36"/>
      </defs>
      <g transform="translate(208.687451 177.030437)scale(0.1 -0.1)">
       <use xlink:href="#DejaVuSans-36"/>
       <use x="63.623047" xlink:href="#DejaVuSans-30"/>
      </g>
     </g>
    </g>
    <g id="text_5">
     <!-- WDT -->
     <defs>
      <path d="M 3.328125 72.90625 
L 13.28125 72.90625 
L 28.609375 11.28125 
L 43.890625 72.90625 
L 54.984375 72.90625 
L 70.3125 11.28125 
L 85.59375 72.90625 
L 95.609375 72.90625 
L 77.296875 0 
L 64.890625 0 
L 49.515625 63.28125 
L 33.984375 0 
L 21.578125 0 
z
" id="DejaVuSans-57"/>
      <path d="M 19.671875 64.796875 
L 19.671875 8.109375 
L 31.59375 8.109375 
Q 46.6875 8.109375 53.6875 14.9375 
Q 60.6875 21.78125 60.6875 36.53125 
Q 60.6875 51.171875 53.6875 57.984375 
Q 46.6875 64.796875 31.59375 64.796875 
z
M 9.8125 72.90625 
L 30.078125 72.90625 
Q 51.265625 72.90625 61.171875 64.09375 
Q 71.09375 55.28125 71.09375 36.53125 
Q 71.09375 17.671875 61.125 8.828125 
Q 51.171875 0 30.078125 0 
L 9.8125 0 
z
" id="DejaVuSans-44"/>
      <path d="M -0.296875 72.90625 
L 61.375 72.90625 
L 61.375 64.59375 
L 35.5 64.59375 
L 35.5 0 
L 25.59375 0 
L 25.59375 64.59375 
L -0.296875 64.59375 
z
" id="DejaVuSans-54"/>
     </defs>
     <g transform="translate(126.91598 190.708562)scale(0.1 -0.1)">
      <use xlink:href="#DejaVuSans-57"/>
      <use x="98.876953" xlink:href="#DejaVuSans-44"/>
      <use x="175.878906" xlink:href="#DejaVuSans-54"/>
     </g>
    </g>
   </g>
   <g id="matplotlib.axis_2">
    <g id="ytick_1">
     <g id="line2d_5">
      <defs>
       <path d="M 0 0 
L -3.5 0 
" id="m635340bb52" style="stroke:#000000;stroke-width:0.8;"/>
      </defs>
      <g>
       <use style="stroke:#000000;stroke-width:0.8;" x="57.6" xlink:href="#m635340bb52" y="156.933818"/>
      </g>
     </g>
     <g id="text_6">
      <!-- 0 -->
      <g transform="translate(44.2375 160.733037)scale(0.1 -0.1)">
       <use xlink:href="#DejaVuSans-30"/>
      </g>
     </g>
    </g>
    <g id="ytick_2">
     <g id="line2d_6">
      <g>
       <use style="stroke:#000000;stroke-width:0.8;" x="57.6" xlink:href="#m635340bb52" y="134.941091"/>
      </g>
     </g>
     <g id="text_7">
      <!-- 2 -->
      <g transform="translate(44.2375 138.74031)scale(0.1 -0.1)">
       <use xlink:href="#DejaVuSans-32"/>
      </g>
     </g>
    </g>
    <g id="ytick_3">
     <g id="line2d_7">
      <g>
       <use style="stroke:#000000;stroke-width:0.8;" x="57.6" xlink:href="#m635340bb52" y="112.948364"/>
      </g>
     </g>
     <g id="text_8">
      <!-- 4 -->
      <g transform="translate(44.2375 116.747582)scale(0.1 -0.1)">
       <use xlink:href="#DejaVuSans-34"/>
      </g>
     </g>
    </g>
    <g id="ytick_4">
     <g id="line2d_8">
      <g>
       <use style="stroke:#000000;stroke-width:0.8;" x="57.6" xlink:href="#m635340bb52" y="90.955636"/>
      </g>
     </g>
     <g id="text_9">
      <!-- 6 -->
      <g transform="translate(44.2375 94.754855)scale(0.1 -0.1)">
       <use xlink:href="#DejaVuSans-36"/>
      </g>
     </g>
    </g>
    <g id="ytick_5">
     <g id="line2d_9">
      <g>
       <use style="stroke:#000000;stroke-width:0.8;" x="57.6" xlink:href="#m635340bb52" y="68.962909"/>
      </g>
     </g>
     <g id="text_10">
      <!-- 8 -->
      <defs>
       <path d="M 31.78125 34.625 
Q 24.75 34.625 20.71875 30.859375 
Q 16.703125 27.09375 16.703125 20.515625 
Q 16.703125 13.921875 20.71875 10.15625 
Q 24.75 6.390625 31.78125 6.390625 
Q 38.8125 6.390625 42.859375 10.171875 
Q 46.921875 13.96875 46.921875 20.515625 
Q 46.921875 27.09375 42.890625 30.859375 
Q 38.875 34.625 31.78125 34.625 
z
M 21.921875 38.8125 
Q 15.578125 40.375 12.03125 44.71875 
Q 8.5 49.078125 8.5 55.328125 
Q 8.5 64.0625 14.71875 69.140625 
Q 20.953125 74.21875 31.78125 74.21875 
Q 42.671875 74.21875 48.875 69.140625 
Q 55.078125 64.0625 55.078125 55.328125 
Q 55.078125 49.078125 51.53125 44.71875 
Q 48 40.375 41.703125 38.8125 
Q 48.828125 37.15625 52.796875 32.3125 
Q 56.78125 27.484375 56.78125 20.515625 
Q 56.78125 9.90625 50.3125 4.234375 
Q 43.84375 -1.421875 31.78125 -1.421875 
Q 19.734375 -1.421875 13.25 4.234375 
Q 6.78125 9.90625 6.78125 20.515625 
Q 6.78125 27.484375 10.78125 32.3125 
Q 14.796875 37.15625 21.921875 38.8125 
z
M 18.3125 54.390625 
Q 18.3125 48.734375 21.84375 45.5625 
Q 25.390625 42.390625 31.78125 42.390625 
Q 38.140625 42.390625 41.71875 45.5625 
Q 45.3125 48.734375 45.3125 54.390625 
Q 45.3125 60.0625 41.71875 63.234375 
Q 38.140625 66.40625 31.78125 66.40625 
Q 25.390625 66.40625 21.84375 63.234375 
Q 18.3125 60.0625 18.3125 54.390625 
z
" id="DejaVuSans-38"/>
      </defs>
      <g transform="translate(44.2375 72.762128)scale(0.1 -0.1)">
       <use xlink:href="#DejaVuSans-38"/>
      </g>
     </g>
    </g>
    <g id="ytick_6">
     <g id="line2d_10">
      <g>
       <use style="stroke:#000000;stroke-width:0.8;" x="57.6" xlink:href="#m635340bb52" y="46.970182"/>
      </g>
     </g>
     <g id="text_11">
      <!-- 10 -->
      <defs>
       <path d="M 12.40625 8.296875 
L 28.515625 8.296875 
L 28.515625 63.921875 
L 10.984375 60.40625 
L 10.984375 69.390625 
L 28.421875 72.90625 
L 38.28125 72.90625 
L 38.28125 8.296875 
L 54.390625 8.296875 
L 54.390625 0 
L 12.40625 0 
z
" id="DejaVuSans-31"/>
      </defs>
      <g transform="translate(37.875 50.769401)scale(0.1 -0.1)">
       <use xlink:href="#DejaVuSans-31"/>
       <use x="63.623047" xlink:href="#DejaVuSans-30"/>
      </g>
     </g>
    </g>
   </g>
   <g id="line2d_11">
    <path clip-path="url(#pf993a7c12c)" d="M 64.978512 145.937455 
L 67.479703 134.941091 
L 69.980894 123.944727 
L 72.482084 156.933818 
L 74.983275 123.944727 
L 77.484466 156.933818 
L 79.985656 145.937455 
L 82.486847 145.937455 
L 84.988038 145.937455 
L 87.489228 134.941091 
L 89.990419 145.937455 
L 92.491609 145.937455 
L 94.9928 145.937455 
L 97.493991 156.933818 
L 99.995181 156.933818 
L 102.496372 134.941091 
L 104.997563 123.944727 
L 107.498753 101.952 
L 109.999944 156.933818 
L 112.501135 145.937455 
L 115.002325 156.933818 
L 117.503516 145.937455 
L 120.004707 156.933818 
L 122.505897 112.948364 
L 125.007088 123.944727 
L 127.508278 101.952 
L 130.009469 134.941091 
L 132.51066 156.933818 
L 135.01185 145.937455 
L 137.513041 134.941091 
L 140.014232 156.933818 
L 142.515422 46.970182 
L 145.016613 156.933818 
L 147.517804 145.937455 
L 150.018994 123.944727 
L 152.520185 145.937455 
L 155.021376 156.933818 
L 157.522566 112.948364 
L 160.023757 145.937455 
L 162.524947 123.944727 
L 165.026138 123.944727 
L 167.527329 46.970182 
L 170.028519 156.933818 
L 172.52971 145.937455 
L 175.030901 145.937455 
L 177.532091 101.952 
L 180.033282 145.937455 
L 182.534473 112.948364 
L 185.035663 145.937455 
L 187.536854 134.941091 
L 190.038045 90.955636 
L 192.539235 101.952 
L 195.040426 145.937455 
L 197.541616 112.948364 
L 200.042807 134.941091 
L 202.543998 112.948364 
L 205.045188 134.941091 
L 207.546379 134.941091 
L 210.04757 101.952 
L 212.54876 145.937455 
" style="fill:none;stroke:#000000;stroke-dasharray:5.55,2.4;stroke-dashoffset:0;stroke-width:1.5;"/>
    <defs>
     <path d="M 0 3 
C 0.795609 3 1.55874 2.683901 2.12132 2.12132 
C 2.683901 1.55874 3 0.795609 3 0 
C 3 -0.795609 2.683901 -1.55874 2.12132 -2.12132 
C 1.55874 -2.683901 0.795609 -3 0 -3 
C -0.795609 -3 -1.55874 -2.683901 -2.12132 -2.12132 
C -2.683901 -1.55874 -3 -0.795609 -3 0 
C -3 0.795609 -2.683901 1.55874 -2.12132 2.12132 
C -1.55874 2.683901 -0.795609 3 0 3 
z
" id="m6ebedbb80d" style="stroke:#000000;"/>
    </defs>
    <g clip-path="url(#pf993a7c12c)">
     <use style="stroke:#000000;" x="64.978512" xlink:href="#m6ebedbb80d" y="145.937455"/>
     <use style="stroke:#000000;" x="67.479703" xlink:href="#m6ebedbb80d" y="134.941091"/>
     <use style="stroke:#000000;" x="69.980894" xlink:href="#m6ebedbb80d" y="123.944727"/>
     <use style="stroke:#000000;" x="72.482084" xlink:href="#m6ebedbb80d" y="156.933818"/>
     <use style="stroke:#000000;" x="74.983275" xlink:href="#m6ebedbb80d" y="123.944727"/>
     <use style="stroke:#000000;" x="77.484466" xlink:href="#m6ebedbb80d" y="156.933818"/>
     <use style="stroke:#000000;" x="79.985656" xlink:href="#m6ebedbb80d" y="145.937455"/>
     <use style="stroke:#000000;" x="82.486847" xlink:href="#m6ebedbb80d" y="145.937455"/>
     <use style="stroke:#000000;" x="84.988038" xlink:href="#m6ebedbb80d" y="145.937455"/>
     <use style="stroke:#000000;" x="87.489228" xlink:href="#m6ebedbb80d" y="134.941091"/>
     <use style="stroke:#000000;" x="89.990419" xlink:href="#m6ebedbb80d" y="145.937455"/>
     <use style="stroke:#000000;" x="92.491609" xlink:href="#m6ebedbb80d" y="145.937455"/>
     <use style="stroke:#000000;" x="94.9928" xlink:href="#m6ebedbb80d" y="145.937455"/>
     <use style="stroke:#000000;" x="97.493991" xlink:href="#m6ebedbb80d" y="156.933818"/>
     <use style="stroke:#000000;" x="99.995181" xlink:href="#m6ebedbb80d" y="156.933818"/>
     <use style="stroke:#000000;" x="102.496372" xlink:href="#m6ebedbb80d" y="134.941091"/>
     <use style="stroke:#000000;" x="104.997563" xlink:href="#m6ebedbb80d" y="123.944727"/>
     <use style="stroke:#000000;" x="107.498753" xlink:href="#m6ebedbb80d" y="101.952"/>
     <use style="stroke:#000000;" x="109.999944" xlink:href="#m6ebedbb80d" y="156.933818"/>
     <use style="stroke:#000000;" x="112.501135" xlink:href="#m6ebedbb80d" y="145.937455"/>
     <use style="stroke:#000000;" x="115.002325" xlink:href="#m6ebedbb80d" y="156.933818"/>
     <use style="stroke:#000000;" x="117.503516" xlink:href="#m6ebedbb80d" y="145.937455"/>
     <use style="stroke:#000000;" x="120.004707" xlink:href="#m6ebedbb80d" y="156.933818"/>
     <use style="stroke:#000000;" x="122.505897" xlink:href="#m6ebedbb80d" y="112.948364"/>
     <use style="stroke:#000000;" x="125.007088" xlink:href="#m6ebedbb80d" y="123.944727"/>
     <use style="stroke:#000000;" x="127.508278" xlink:href="#m6ebedbb80d" y="101.952"/>
     <use style="stroke:#000000;" x="130.009469" xlink:href="#m6ebedbb80d" y="134.941091"/>
     <use style="stroke:#000000;" x="132.51066" xlink:href="#m6ebedbb80d" y="156.933818"/>
     <use style="stroke:#000000;" x="135.01185" xlink:href="#m6ebedbb80d" y="145.937455"/>
     <use style="stroke:#000000;" x="137.513041" xlink:href="#m6ebedbb80d" y="134.941091"/>
     <use style="stroke:#000000;" x="140.014232" xlink:href="#m6ebedbb80d" y="156.933818"/>
     <use style="stroke:#000000;" x="142.515422" xlink:href="#m6ebedbb80d" y="46.970182"/>
     <use style="stroke:#000000;" x="145.016613" xlink:href="#m6ebedbb80d" y="156.933818"/>
     <use style="stroke:#000000;" x="147.517804" xlink:href="#m6ebedbb80d" y="145.937455"/>
     <use style="stroke:#000000;" x="150.018994" xlink:href="#m6ebedbb80d" y="123.944727"/>
     <use style="stroke:#000000;" x="152.520185" xlink:href="#m6ebedbb80d" y="145.937455"/>
     <use style="stroke:#000000;" x="155.021376" xlink:href="#m6ebedbb80d" y="156.933818"/>
     <use style="stroke:#000000;" x="157.522566" xlink:href="#m6ebedbb80d" y="112.948364"/>
     <use style="stroke:#000000;" x="160.023757" xlink:href="#m6ebedbb80d" y="145.937455"/>
     <use style="stroke:#000000;" x="162.524947" xlink:href="#m6ebedbb80d" y="123.944727"/>
     <use style="stroke:#000000;" x="165.026138" xlink:href="#m6ebedbb80d" y="123.944727"/>
     <use style="stroke:#000000;" x="167.527329" xlink:href="#m6ebedbb80d" y="46.970182"/>
     <use style="stroke:#000000;" x="170.028519" xlink:href="#m6ebedbb80d" y="156.933818"/>
     <use style="stroke:#000000;" x="172.52971" xlink:href="#m6ebedbb80d" y="145.937455"/>
     <use style="stroke:#000000;" x="175.030901" xlink:href="#m6ebedbb80d" y="145.937455"/>
     <use style="stroke:#000000;" x="177.532091" xlink:href="#m6ebedbb80d" y="101.952"/>
     <use style="stroke:#000000;" x="180.033282" xlink:href="#m6ebedbb80d" y="145.937455"/>
     <use style="stroke:#000000;" x="182.534473" xlink:href="#m6ebedbb80d" y="112.948364"/>
     <use style="stroke:#000000;" x="185.035663" xlink:href="#m6ebedbb80d" y="145.937455"/>
     <use style="stroke:#000000;" x="187.536854" xlink:href="#m6ebedbb80d" y="134.941091"/>
     <use style="stroke:#000000;" x="190.038045" xlink:href="#m6ebedbb80d" y="90.955636"/>
     <use style="stroke:#000000;" x="192.539235" xlink:href="#m6ebedbb80d" y="101.952"/>
     <use style="stroke:#000000;" x="195.040426" xlink:href="#m6ebedbb80d" y="145.937455"/>
     <use style="stroke:#000000;" x="197.541616" xlink:href="#m6ebedbb80d" y="112.948364"/>
     <use style="stroke:#000000;" x="200.042807" xlink:href="#m6ebedbb80d" y="134.941091"/>
     <use style="stroke:#000000;" x="202.543998" xlink:href="#m6ebedbb80d" y="112.948364"/>
     <use style="stroke:#000000;" x="205.045188" xlink:href="#m6ebedbb80d" y="134.941091"/>
     <use style="stroke:#000000;" x="207.546379" xlink:href="#m6ebedbb80d" y="134.941091"/>
     <use style="stroke:#000000;" x="210.04757" xlink:href="#m6ebedbb80d" y="101.952"/>
     <use style="stroke:#000000;" x="212.54876" xlink:href="#m6ebedbb80d" y="145.937455"/>
    </g>
   </g>
   <g id="patch_3">
    <path d="M 57.6 162.432 
L 57.6 41.472 
" style="fill:none;stroke:#000000;stroke-linecap:square;stroke-linejoin:miter;stroke-width:0.8;"/>
   </g>
   <g id="patch_4">
    <path d="M 219.927273 162.432 
L 219.927273 41.472 
" style="fill:none;stroke:#000000;stroke-linecap:square;stroke-linejoin:miter;stroke-width:0.8;"/>
   </g>
   <g id="patch_5">
    <path d="M 57.6 162.432 
L 219.927273 162.432 
" style="fill:none;stroke:#000000;stroke-linecap:square;stroke-linejoin:miter;stroke-width:0.8;"/>
   </g>
   <g id="patch_6">
    <path d="M 57.6 41.472 
L 219.927273 41.472 
" style="fill:none;stroke:#000000;stroke-linecap:square;stroke-linejoin:miter;stroke-width:0.8;"/>
   </g>
  </g>
  <g id="axes_2">
   <g id="patch_7">
    <path d="M 252.392727 162.432 
L 414.72 162.432 
L 414.72 41.472 
L 252.392727 41.472 
z
" style="fill:#ffffff;"/>
   </g>
   <g id="matplotlib.axis_3">
    <g id="xtick_5">
     <g id="line2d_12">
      <g>
       <use style="stroke:#000000;stroke-width:0.8;" x="259.77124" xlink:href="#m1e471c690e" y="162.432"/>
      </g>
     </g>
     <g id="text_12">
      <!-- 0 -->
      <g transform="translate(256.58999 177.030437)scale(0.1 -0.1)">
       <use xlink:href="#DejaVuSans-30"/>
      </g>
     </g>
    </g>
    <g id="xtick_6">
     <g id="line2d_13">
      <g>
       <use style="stroke:#000000;stroke-width:0.8;" x="309.795053" xlink:href="#m1e471c690e" y="162.432"/>
      </g>
     </g>
     <g id="text_13">
      <!-- 20 -->
      <g transform="translate(303.432553 177.030437)scale(0.1 -0.1)">
       <use xlink:href="#DejaVuSans-32"/>
       <use x="63.623047" xlink:href="#DejaVuSans-30"/>
      </g>
     </g>
    </g>
    <g id="xtick_7">
     <g id="line2d_14">
      <g>
       <use style="stroke:#000000;stroke-width:0.8;" x="359.818865" xlink:href="#m1e471c690e" y="162.432"/>
      </g>
     </g>
     <g id="text_14">
      <!-- 40 -->
      <g transform="translate(353.456365 177.030437)scale(0.1 -0.1)">
       <use xlink:href="#DejaVuSans-34"/>
       <use x="63.623047" xlink:href="#DejaVuSans-30"/>
      </g>
     </g>
    </g>
    <g id="xtick_8">
     <g id="line2d_15">
      <g>
       <use style="stroke:#000000;stroke-width:0.8;" x="409.842678" xlink:href="#m1e471c690e" y="162.432"/>
      </g>
     </g>
     <g id="text_15">
      <!-- 60 -->
      <g transform="translate(403.480178 177.030437)scale(0.1 -0.1)">
       <use xlink:href="#DejaVuSans-36"/>
       <use x="63.623047" xlink:href="#DejaVuSans-30"/>
      </g>
     </g>
    </g>
    <g id="text_16">
     <!-- WP -->
     <defs>
      <path d="M 19.671875 64.796875 
L 19.671875 37.40625 
L 32.078125 37.40625 
Q 38.96875 37.40625 42.71875 40.96875 
Q 46.484375 44.53125 46.484375 51.125 
Q 46.484375 57.671875 42.71875 61.234375 
Q 38.96875 64.796875 32.078125 64.796875 
z
M 9.8125 72.90625 
L 32.078125 72.90625 
Q 44.34375 72.90625 50.609375 67.359375 
Q 56.890625 61.8125 56.890625 51.125 
Q 56.890625 40.328125 50.609375 34.8125 
Q 44.34375 29.296875 32.078125 29.296875 
L 19.671875 29.296875 
L 19.671875 0 
L 9.8125 0 
z
" id="DejaVuSans-50"/>
     </defs>
     <g transform="translate(325.59777 190.708562)scale(0.1 -0.1)">
      <use xlink:href="#DejaVuSans-57"/>
      <use x="98.876953" xlink:href="#DejaVuSans-50"/>
     </g>
    </g>
   </g>
   <g id="matplotlib.axis_4">
    <g id="ytick_7">
     <g id="line2d_16">
      <g>
       <use style="stroke:#000000;stroke-width:0.8;" x="252.392727" xlink:href="#m635340bb52" y="156.933818"/>
      </g>
     </g>
     <g id="text_17">
      <!-- 0 -->
      <g transform="translate(239.030227 160.733037)scale(0.1 -0.1)">
       <use xlink:href="#DejaVuSans-30"/>
      </g>
     </g>
    </g>
    <g id="ytick_8">
     <g id="line2d_17">
      <g>
       <use style="stroke:#000000;stroke-width:0.8;" x="252.392727" xlink:href="#m635340bb52" y="134.941091"/>
      </g>
     </g>
     <g id="text_18">
      <!-- 1 -->
      <g transform="translate(239.030227 138.74031)scale(0.1 -0.1)">
       <use xlink:href="#DejaVuSans-31"/>
      </g>
     </g>
    </g>
    <g id="ytick_9">
     <g id="line2d_18">
      <g>
       <use style="stroke:#000000;stroke-width:0.8;" x="252.392727" xlink:href="#m635340bb52" y="112.948364"/>
      </g>
     </g>
     <g id="text_19">
      <!-- 2 -->
      <g transform="translate(239.030227 116.747582)scale(0.1 -0.1)">
       <use xlink:href="#DejaVuSans-32"/>
      </g>
     </g>
    </g>
    <g id="ytick_10">
     <g id="line2d_19">
      <g>
       <use style="stroke:#000000;stroke-width:0.8;" x="252.392727" xlink:href="#m635340bb52" y="90.955636"/>
      </g>
     </g>
     <g id="text_20">
      <!-- 3 -->
      <defs>
       <path d="M 40.578125 39.3125 
Q 47.65625 37.796875 51.625 33 
Q 55.609375 28.21875 55.609375 21.1875 
Q 55.609375 10.40625 48.1875 4.484375 
Q 40.765625 -1.421875 27.09375 -1.421875 
Q 22.515625 -1.421875 17.65625 -0.515625 
Q 12.796875 0.390625 7.625 2.203125 
L 7.625 11.71875 
Q 11.71875 9.328125 16.59375 8.109375 
Q 21.484375 6.890625 26.8125 6.890625 
Q 36.078125 6.890625 40.9375 10.546875 
Q 45.796875 14.203125 45.796875 21.1875 
Q 45.796875 27.640625 41.28125 31.265625 
Q 36.765625 34.90625 28.71875 34.90625 
L 20.21875 34.90625 
L 20.21875 43.015625 
L 29.109375 43.015625 
Q 36.375 43.015625 40.234375 45.921875 
Q 44.09375 48.828125 44.09375 54.296875 
Q 44.09375 59.90625 40.109375 62.90625 
Q 36.140625 65.921875 28.71875 65.921875 
Q 24.65625 65.921875 20.015625 65.03125 
Q 15.375 64.15625 9.8125 62.3125 
L 9.8125 71.09375 
Q 15.4375 72.65625 20.34375 73.4375 
Q 25.25 74.21875 29.59375 74.21875 
Q 40.828125 74.21875 47.359375 69.109375 
Q 53.90625 64.015625 53.90625 55.328125 
Q 53.90625 49.265625 50.4375 45.09375 
Q 46.96875 40.921875 40.578125 39.3125 
z
" id="DejaVuSans-33"/>
      </defs>
      <g transform="translate(239.030227 94.754855)scale(0.1 -0.1)">
       <use xlink:href="#DejaVuSans-33"/>
      </g>
     </g>
    </g>
    <g id="ytick_11">
     <g id="line2d_20">
      <g>
       <use style="stroke:#000000;stroke-width:0.8;" x="252.392727" xlink:href="#m635340bb52" y="68.962909"/>
      </g>
     </g>
     <g id="text_21">
      <!-- 4 -->
      <g transform="translate(239.030227 72.762128)scale(0.1 -0.1)">
       <use xlink:href="#DejaVuSans-34"/>
      </g>
     </g>
    </g>
    <g id="ytick_12">
     <g id="line2d_21">
      <g>
       <use style="stroke:#000000;stroke-width:0.8;" x="252.392727" xlink:href="#m635340bb52" y="46.970182"/>
      </g>
     </g>
     <g id="text_22">
      <!-- 5 -->
      <defs>
       <path d="M 10.796875 72.90625 
L 49.515625 72.90625 
L 49.515625 64.59375 
L 19.828125 64.59375 
L 19.828125 46.734375 
Q 21.96875 47.46875 24.109375 47.828125 
Q 26.265625 48.1875 28.421875 48.1875 
Q 40.625 48.1875 47.75 41.5 
Q 54.890625 34.8125 54.890625 23.390625 
Q 54.890625 11.625 47.5625 5.09375 
Q 40.234375 -1.421875 26.90625 -1.421875 
Q 22.3125 -1.421875 17.546875 -0.640625 
Q 12.796875 0.140625 7.71875 1.703125 
L 7.71875 11.625 
Q 12.109375 9.234375 16.796875 8.0625 
Q 21.484375 6.890625 26.703125 6.890625 
Q 35.15625 6.890625 40.078125 11.328125 
Q 45.015625 15.765625 45.015625 23.390625 
Q 45.015625 31 40.078125 35.4375 
Q 35.15625 39.890625 26.703125 39.890625 
Q 22.75 39.890625 18.8125 39.015625 
Q 14.890625 38.140625 10.796875 36.28125 
z
" id="DejaVuSans-35"/>
      </defs>
      <g transform="translate(239.030227 50.769401)scale(0.1 -0.1)">
       <use xlink:href="#DejaVuSans-35"/>
      </g>
     </g>
    </g>
   </g>
   <g id="line2d_22">
    <path clip-path="url(#p8a03b67112)" d="M 259.77124 134.941091 
L 262.27243 112.948364 
L 264.773621 156.933818 
L 267.274812 68.962909 
L 269.776002 156.933818 
L 272.277193 156.933818 
L 274.778384 90.955636 
L 277.279574 68.962909 
L 279.780765 156.933818 
L 282.281955 134.941091 
L 284.783146 156.933818 
L 287.284337 134.941091 
L 289.785527 134.941091 
L 292.286718 134.941091 
L 294.787909 112.948364 
L 297.289099 134.941091 
L 299.79029 134.941091 
L 302.291481 134.941091 
L 304.792671 134.941091 
L 307.293862 134.941091 
L 309.795053 112.948364 
L 312.296243 112.948364 
L 314.797434 90.955636 
L 317.298624 112.948364 
L 319.799815 156.933818 
L 322.301006 134.941091 
L 324.802196 156.933818 
L 327.303387 134.941091 
L 329.804578 134.941091 
L 332.305768 68.962909 
L 334.806959 112.948364 
L 337.30815 134.941091 
L 339.80934 90.955636 
L 342.310531 156.933818 
L 344.811722 112.948364 
L 347.312912 90.955636 
L 349.814103 134.941091 
L 352.315293 90.955636 
L 354.816484 90.955636 
L 357.317675 156.933818 
L 359.818865 90.955636 
L 362.320056 156.933818 
L 364.821247 134.941091 
L 367.322437 156.933818 
L 369.823628 134.941091 
L 372.324819 134.941091 
L 374.826009 156.933818 
L 377.3272 112.948364 
L 379.828391 112.948364 
L 382.329581 156.933818 
L 384.830772 112.948364 
L 387.331962 68.962909 
L 389.833153 134.941091 
L 392.334344 134.941091 
L 394.835534 156.933818 
L 397.336725 134.941091 
L 399.837916 112.948364 
L 402.339106 90.955636 
L 404.840297 68.962909 
L 407.341488 46.970182 
" style="fill:none;stroke:#000000;stroke-dasharray:5.55,2.4;stroke-dashoffset:0;stroke-width:1.5;"/>
    <g clip-path="url(#p8a03b67112)">
     <use style="stroke:#000000;" x="259.77124" xlink:href="#m6ebedbb80d" y="134.941091"/>
     <use style="stroke:#000000;" x="262.27243" xlink:href="#m6ebedbb80d" y="112.948364"/>
     <use style="stroke:#000000;" x="264.773621" xlink:href="#m6ebedbb80d" y="156.933818"/>
     <use style="stroke:#000000;" x="267.274812" xlink:href="#m6ebedbb80d" y="68.962909"/>
     <use style="stroke:#000000;" x="269.776002" xlink:href="#m6ebedbb80d" y="156.933818"/>
     <use style="stroke:#000000;" x="272.277193" xlink:href="#m6ebedbb80d" y="156.933818"/>
     <use style="stroke:#000000;" x="274.778384" xlink:href="#m6ebedbb80d" y="90.955636"/>
     <use style="stroke:#000000;" x="277.279574" xlink:href="#m6ebedbb80d" y="68.962909"/>
     <use style="stroke:#000000;" x="279.780765" xlink:href="#m6ebedbb80d" y="156.933818"/>
     <use style="stroke:#000000;" x="282.281955" xlink:href="#m6ebedbb80d" y="134.941091"/>
     <use style="stroke:#000000;" x="284.783146" xlink:href="#m6ebedbb80d" y="156.933818"/>
     <use style="stroke:#000000;" x="287.284337" xlink:href="#m6ebedbb80d" y="134.941091"/>
     <use style="stroke:#000000;" x="289.785527" xlink:href="#m6ebedbb80d" y="134.941091"/>
     <use style="stroke:#000000;" x="292.286718" xlink:href="#m6ebedbb80d" y="134.941091"/>
     <use style="stroke:#000000;" x="294.787909" xlink:href="#m6ebedbb80d" y="112.948364"/>
     <use style="stroke:#000000;" x="297.289099" xlink:href="#m6ebedbb80d" y="134.941091"/>
     <use style="stroke:#000000;" x="299.79029" xlink:href="#m6ebedbb80d" y="134.941091"/>
     <use style="stroke:#000000;" x="302.291481" xlink:href="#m6ebedbb80d" y="134.941091"/>
     <use style="stroke:#000000;" x="304.792671" xlink:href="#m6ebedbb80d" y="134.941091"/>
     <use style="stroke:#000000;" x="307.293862" xlink:href="#m6ebedbb80d" y="134.941091"/>
     <use style="stroke:#000000;" x="309.795053" xlink:href="#m6ebedbb80d" y="112.948364"/>
     <use style="stroke:#000000;" x="312.296243" xlink:href="#m6ebedbb80d" y="112.948364"/>
     <use style="stroke:#000000;" x="314.797434" xlink:href="#m6ebedbb80d" y="90.955636"/>
     <use style="stroke:#000000;" x="317.298624" xlink:href="#m6ebedbb80d" y="112.948364"/>
     <use style="stroke:#000000;" x="319.799815" xlink:href="#m6ebedbb80d" y="156.933818"/>
     <use style="stroke:#000000;" x="322.301006" xlink:href="#m6ebedbb80d" y="134.941091"/>
     <use style="stroke:#000000;" x="324.802196" xlink:href="#m6ebedbb80d" y="156.933818"/>
     <use style="stroke:#000000;" x="327.303387" xlink:href="#m6ebedbb80d" y="134.941091"/>
     <use style="stroke:#000000;" x="329.804578" xlink:href="#m6ebedbb80d" y="134.941091"/>
     <use style="stroke:#000000;" x="332.305768" xlink:href="#m6ebedbb80d" y="68.962909"/>
     <use style="stroke:#000000;" x="334.806959" xlink:href="#m6ebedbb80d" y="112.948364"/>
     <use style="stroke:#000000;" x="337.30815" xlink:href="#m6ebedbb80d" y="134.941091"/>
     <use style="stroke:#000000;" x="339.80934" xlink:href="#m6ebedbb80d" y="90.955636"/>
     <use style="stroke:#000000;" x="342.310531" xlink:href="#m6ebedbb80d" y="156.933818"/>
     <use style="stroke:#000000;" x="344.811722" xlink:href="#m6ebedbb80d" y="112.948364"/>
     <use style="stroke:#000000;" x="347.312912" xlink:href="#m6ebedbb80d" y="90.955636"/>
     <use style="stroke:#000000;" x="349.814103" xlink:href="#m6ebedbb80d" y="134.941091"/>
     <use style="stroke:#000000;" x="352.315293" xlink:href="#m6ebedbb80d" y="90.955636"/>
     <use style="stroke:#000000;" x="354.816484" xlink:href="#m6ebedbb80d" y="90.955636"/>
     <use style="stroke:#000000;" x="357.317675" xlink:href="#m6ebedbb80d" y="156.933818"/>
     <use style="stroke:#000000;" x="359.818865" xlink:href="#m6ebedbb80d" y="90.955636"/>
     <use style="stroke:#000000;" x="362.320056" xlink:href="#m6ebedbb80d" y="156.933818"/>
     <use style="stroke:#000000;" x="364.821247" xlink:href="#m6ebedbb80d" y="134.941091"/>
     <use style="stroke:#000000;" x="367.322437" xlink:href="#m6ebedbb80d" y="156.933818"/>
     <use style="stroke:#000000;" x="369.823628" xlink:href="#m6ebedbb80d" y="134.941091"/>
     <use style="stroke:#000000;" x="372.324819" xlink:href="#m6ebedbb80d" y="134.941091"/>
     <use style="stroke:#000000;" x="374.826009" xlink:href="#m6ebedbb80d" y="156.933818"/>
     <use style="stroke:#000000;" x="377.3272" xlink:href="#m6ebedbb80d" y="112.948364"/>
     <use style="stroke:#000000;" x="379.828391" xlink:href="#m6ebedbb80d" y="112.948364"/>
     <use style="stroke:#000000;" x="382.329581" xlink:href="#m6ebedbb80d" y="156.933818"/>
     <use style="stroke:#000000;" x="384.830772" xlink:href="#m6ebedbb80d" y="112.948364"/>
     <use style="stroke:#000000;" x="387.331962" xlink:href="#m6ebedbb80d" y="68.962909"/>
     <use style="stroke:#000000;" x="389.833153" xlink:href="#m6ebedbb80d" y="134.941091"/>
     <use style="stroke:#000000;" x="392.334344" xlink:href="#m6ebedbb80d" y="134.941091"/>
     <use style="stroke:#000000;" x="394.835534" xlink:href="#m6ebedbb80d" y="156.933818"/>
     <use style="stroke:#000000;" x="397.336725" xlink:href="#m6ebedbb80d" y="134.941091"/>
     <use style="stroke:#000000;" x="399.837916" xlink:href="#m6ebedbb80d" y="112.948364"/>
     <use style="stroke:#000000;" x="402.339106" xlink:href="#m6ebedbb80d" y="90.955636"/>
     <use style="stroke:#000000;" x="404.840297" xlink:href="#m6ebedbb80d" y="68.962909"/>
     <use style="stroke:#000000;" x="407.341488" xlink:href="#m6ebedbb80d" y="46.970182"/>
    </g>
   </g>
   <g id="patch_8">
    <path d="M 252.392727 162.432 
L 252.392727 41.472 
" style="fill:none;stroke:#000000;stroke-linecap:square;stroke-linejoin:miter;stroke-width:0.8;"/>
   </g>
   <g id="patch_9">
    <path d="M 414.72 162.432 
L 414.72 41.472 
" style="fill:none;stroke:#000000;stroke-linecap:square;stroke-linejoin:miter;stroke-width:0.8;"/>
   </g>
   <g id="patch_10">
    <path d="M 252.392727 162.432 
L 414.72 162.432 
" style="fill:none;stroke:#000000;stroke-linecap:square;stroke-linejoin:miter;stroke-width:0.8;"/>
   </g>
   <g id="patch_11">
    <path d="M 252.392727 41.472 
L 414.72 41.472 
" style="fill:none;stroke:#000000;stroke-linecap:square;stroke-linejoin:miter;stroke-width:0.8;"/>
   </g>
  </g>
  <g id="axes_3">
   <g id="patch_12">
    <path d="M 57.6 307.584 
L 219.927273 307.584 
L 219.927273 186.624 
L 57.6 186.624 
z
" style="fill:#ffffff;"/>
   </g>
   <g id="matplotlib.axis_5">
    <g id="xtick_9">
     <g id="line2d_23">
      <g>
       <use style="stroke:#000000;stroke-width:0.8;" x="64.978512" xlink:href="#m1e471c690e" y="307.584"/>
      </g>
     </g>
     <g id="text_23">
      <!-- 0 -->
      <g transform="translate(61.797262 322.182437)scale(0.1 -0.1)">
       <use xlink:href="#DejaVuSans-30"/>
      </g>
     </g>
    </g>
    <g id="xtick_10">
     <g id="line2d_24">
      <g>
       <use style="stroke:#000000;stroke-width:0.8;" x="115.002325" xlink:href="#m1e471c690e" y="307.584"/>
      </g>
     </g>
     <g id="text_24">
      <!-- 20 -->
      <g transform="translate(108.639825 322.182437)scale(0.1 -0.1)">
       <use xlink:href="#DejaVuSans-32"/>
       <use x="63.623047" xlink:href="#DejaVuSans-30"/>
      </g>
     </g>
    </g>
    <g id="xtick_11">
     <g id="line2d_25">
      <g>
       <use style="stroke:#000000;stroke-width:0.8;" x="165.026138" xlink:href="#m1e471c690e" y="307.584"/>
      </g>
     </g>
     <g id="text_25">
      <!-- 40 -->
      <g transform="translate(158.663638 322.182437)scale(0.1 -0.1)">
       <use xlink:href="#DejaVuSans-34"/>
       <use x="63.623047" xlink:href="#DejaVuSans-30"/>
      </g>
     </g>
    </g>
    <g id="xtick_12">
     <g id="line2d_26">
      <g>
       <use style="stroke:#000000;stroke-width:0.8;" x="215.049951" xlink:href="#m1e471c690e" y="307.584"/>
      </g>
     </g>
     <g id="text_26">
      <!-- 60 -->
      <g transform="translate(208.687451 322.182437)scale(0.1 -0.1)">
       <use xlink:href="#DejaVuSans-36"/>
       <use x="63.623047" xlink:href="#DejaVuSans-30"/>
      </g>
     </g>
    </g>
    <g id="text_27">
     <!-- WP$ -->
     <defs>
      <path d="M 33.796875 -14.703125 
L 28.90625 -14.703125 
L 28.859375 0 
Q 23.734375 0.09375 18.609375 1.1875 
Q 13.484375 2.296875 8.296875 4.5 
L 8.296875 13.28125 
Q 13.28125 10.15625 18.375 8.5625 
Q 23.484375 6.984375 28.90625 6.9375 
L 28.90625 29.203125 
Q 18.109375 30.953125 13.203125 35.15625 
Q 8.296875 39.359375 8.296875 46.6875 
Q 8.296875 54.640625 13.625 59.21875 
Q 18.953125 63.8125 28.90625 64.5 
L 28.90625 75.984375 
L 33.796875 75.984375 
L 33.796875 64.65625 
Q 38.328125 64.453125 42.578125 63.6875 
Q 46.828125 62.9375 50.875 61.625 
L 50.875 53.078125 
Q 46.828125 55.125 42.546875 56.25 
Q 38.28125 57.375 33.796875 57.5625 
L 33.796875 36.71875 
Q 44.875 35.015625 50.09375 30.609375 
Q 55.328125 26.21875 55.328125 18.609375 
Q 55.328125 10.359375 49.78125 5.59375 
Q 44.234375 0.828125 33.796875 0.09375 
z
M 28.90625 37.59375 
L 28.90625 57.625 
Q 23.25 56.984375 20.265625 54.390625 
Q 17.28125 51.8125 17.28125 47.515625 
Q 17.28125 43.3125 20.03125 40.96875 
Q 22.796875 38.625 28.90625 37.59375 
z
M 33.796875 28.21875 
L 33.796875 7.078125 
Q 39.984375 7.90625 43.140625 10.59375 
Q 46.296875 13.28125 46.296875 17.671875 
Q 46.296875 21.96875 43.28125 24.5 
Q 40.28125 27.046875 33.796875 28.21875 
z
" id="DejaVuSans-24"/>
     </defs>
     <g transform="translate(127.623793 335.860562)scale(0.1 -0.1)">
      <use xlink:href="#DejaVuSans-57"/>
      <use x="98.876953" xlink:href="#DejaVuSans-50"/>
      <use x="159.179688" xlink:href="#DejaVuSans-24"/>
     </g>
    </g>
   </g>
   <g id="matplotlib.axis_6">
    <g id="ytick_13">
     <g id="line2d_27">
      <g>
       <use style="stroke:#000000;stroke-width:0.8;" x="57.6" xlink:href="#m635340bb52" y="302.085818"/>
      </g>
     </g>
     <g id="text_28">
      <!-- 0.0 -->
      <defs>
       <path d="M 10.6875 12.40625 
L 21 12.40625 
L 21 0 
L 10.6875 0 
z
" id="DejaVuSans-2e"/>
      </defs>
      <g transform="translate(34.696875 305.885037)scale(0.1 -0.1)">
       <use xlink:href="#DejaVuSans-30"/>
       <use x="63.623047" xlink:href="#DejaVuSans-2e"/>
       <use x="95.410156" xlink:href="#DejaVuSans-30"/>
      </g>
     </g>
    </g>
    <g id="ytick_14">
     <g id="line2d_28">
      <g>
       <use style="stroke:#000000;stroke-width:0.8;" x="57.6" xlink:href="#m635340bb52" y="280.093091"/>
      </g>
     </g>
     <g id="text_29">
      <!-- 0.2 -->
      <g transform="translate(34.696875 283.89231)scale(0.1 -0.1)">
       <use xlink:href="#DejaVuSans-30"/>
       <use x="63.623047" xlink:href="#DejaVuSans-2e"/>
       <use x="95.410156" xlink:href="#DejaVuSans-32"/>
      </g>
     </g>
    </g>
    <g id="ytick_15">
     <g id="line2d_29">
      <g>
       <use style="stroke:#000000;stroke-width:0.8;" x="57.6" xlink:href="#m635340bb52" y="258.100364"/>
      </g>
     </g>
     <g id="text_30">
      <!-- 0.4 -->
      <g transform="translate(34.696875 261.899582)scale(0.1 -0.1)">
       <use xlink:href="#DejaVuSans-30"/>
       <use x="63.623047" xlink:href="#DejaVuSans-2e"/>
       <use x="95.410156" xlink:href="#DejaVuSans-34"/>
      </g>
     </g>
    </g>
    <g id="ytick_16">
     <g id="line2d_30">
      <g>
       <use style="stroke:#000000;stroke-width:0.8;" x="57.6" xlink:href="#m635340bb52" y="236.107636"/>
      </g>
     </g>
     <g id="text_31">
      <!-- 0.6 -->
      <g transform="translate(34.696875 239.906855)scale(0.1 -0.1)">
       <use xlink:href="#DejaVuSans-30"/>
       <use x="63.623047" xlink:href="#DejaVuSans-2e"/>
       <use x="95.410156" xlink:href="#DejaVuSans-36"/>
      </g>
     </g>
    </g>
    <g id="ytick_17">
     <g id="line2d_31">
      <g>
       <use style="stroke:#000000;stroke-width:0.8;" x="57.6" xlink:href="#m635340bb52" y="214.114909"/>
      </g>
     </g>
     <g id="text_32">
      <!-- 0.8 -->
      <g transform="translate(34.696875 217.914128)scale(0.1 -0.1)">
       <use xlink:href="#DejaVuSans-30"/>
       <use x="63.623047" xlink:href="#DejaVuSans-2e"/>
       <use x="95.410156" xlink:href="#DejaVuSans-38"/>
      </g>
     </g>
    </g>
    <g id="ytick_18">
     <g id="line2d_32">
      <g>
       <use style="stroke:#000000;stroke-width:0.8;" x="57.6" xlink:href="#m635340bb52" y="192.122182"/>
      </g>
     </g>
     <g id="text_33">
      <!-- 1.0 -->
      <g transform="translate(34.696875 195.921401)scale(0.1 -0.1)">
       <use xlink:href="#DejaVuSans-31"/>
       <use x="63.623047" xlink:href="#DejaVuSans-2e"/>
       <use x="95.410156" xlink:href="#DejaVuSans-30"/>
      </g>
     </g>
    </g>
   </g>
   <g id="line2d_33">
    <path clip-path="url(#pdadccbd945)" d="M 64.978512 302.085818 
L 67.479703 302.085818 
L 69.980894 302.085818 
L 72.482084 302.085818 
L 74.983275 302.085818 
L 77.484466 302.085818 
L 79.985656 192.122182 
L 82.486847 302.085818 
L 84.988038 302.085818 
L 87.489228 302.085818 
L 89.990419 302.085818 
L 92.491609 302.085818 
L 94.9928 302.085818 
L 97.493991 302.085818 
L 99.995181 302.085818 
L 102.496372 302.085818 
L 104.997563 302.085818 
L 107.498753 302.085818 
L 109.999944 302.085818 
L 112.501135 302.085818 
L 115.002325 302.085818 
L 117.503516 302.085818 
L 120.004707 302.085818 
L 122.505897 302.085818 
L 125.007088 302.085818 
L 127.508278 302.085818 
L 130.009469 302.085818 
L 132.51066 302.085818 
L 135.01185 302.085818 
L 137.513041 302.085818 
L 140.014232 302.085818 
L 142.515422 302.085818 
L 145.016613 302.085818 
L 147.517804 302.085818 
L 150.018994 302.085818 
L 152.520185 302.085818 
L 155.021376 302.085818 
L 157.522566 302.085818 
L 160.023757 302.085818 
L 162.524947 302.085818 
L 165.026138 302.085818 
L 167.527329 302.085818 
L 170.028519 302.085818 
L 172.52971 302.085818 
L 175.030901 302.085818 
L 177.532091 302.085818 
L 180.033282 302.085818 
L 182.534473 302.085818 
L 185.035663 302.085818 
L 187.536854 302.085818 
L 190.038045 302.085818 
L 192.539235 302.085818 
L 195.040426 302.085818 
L 197.541616 302.085818 
L 200.042807 302.085818 
L 202.543998 192.122182 
L 205.045188 302.085818 
L 207.546379 302.085818 
L 210.04757 302.085818 
L 212.54876 302.085818 
" style="fill:none;stroke:#000000;stroke-dasharray:5.55,2.4;stroke-dashoffset:0;stroke-width:1.5;"/>
    <g clip-path="url(#pdadccbd945)">
     <use style="stroke:#000000;" x="64.978512" xlink:href="#m6ebedbb80d" y="302.085818"/>
     <use style="stroke:#000000;" x="67.479703" xlink:href="#m6ebedbb80d" y="302.085818"/>
     <use style="stroke:#000000;" x="69.980894" xlink:href="#m6ebedbb80d" y="302.085818"/>
     <use style="stroke:#000000;" x="72.482084" xlink:href="#m6ebedbb80d" y="302.085818"/>
     <use style="stroke:#000000;" x="74.983275" xlink:href="#m6ebedbb80d" y="302.085818"/>
     <use style="stroke:#000000;" x="77.484466" xlink:href="#m6ebedbb80d" y="302.085818"/>
     <use style="stroke:#000000;" x="79.985656" xlink:href="#m6ebedbb80d" y="192.122182"/>
     <use style="stroke:#000000;" x="82.486847" xlink:href="#m6ebedbb80d" y="302.085818"/>
     <use style="stroke:#000000;" x="84.988038" xlink:href="#m6ebedbb80d" y="302.085818"/>
     <use style="stroke:#000000;" x="87.489228" xlink:href="#m6ebedbb80d" y="302.085818"/>
     <use style="stroke:#000000;" x="89.990419" xlink:href="#m6ebedbb80d" y="302.085818"/>
     <use style="stroke:#000000;" x="92.491609" xlink:href="#m6ebedbb80d" y="302.085818"/>
     <use style="stroke:#000000;" x="94.9928" xlink:href="#m6ebedbb80d" y="302.085818"/>
     <use style="stroke:#000000;" x="97.493991" xlink:href="#m6ebedbb80d" y="302.085818"/>
     <use style="stroke:#000000;" x="99.995181" xlink:href="#m6ebedbb80d" y="302.085818"/>
     <use style="stroke:#000000;" x="102.496372" xlink:href="#m6ebedbb80d" y="302.085818"/>
     <use style="stroke:#000000;" x="104.997563" xlink:href="#m6ebedbb80d" y="302.085818"/>
     <use style="stroke:#000000;" x="107.498753" xlink:href="#m6ebedbb80d" y="302.085818"/>
     <use style="stroke:#000000;" x="109.999944" xlink:href="#m6ebedbb80d" y="302.085818"/>
     <use style="stroke:#000000;" x="112.501135" xlink:href="#m6ebedbb80d" y="302.085818"/>
     <use style="stroke:#000000;" x="115.002325" xlink:href="#m6ebedbb80d" y="302.085818"/>
     <use style="stroke:#000000;" x="117.503516" xlink:href="#m6ebedbb80d" y="302.085818"/>
     <use style="stroke:#000000;" x="120.004707" xlink:href="#m6ebedbb80d" y="302.085818"/>
     <use style="stroke:#000000;" x="122.505897" xlink:href="#m6ebedbb80d" y="302.085818"/>
     <use style="stroke:#000000;" x="125.007088" xlink:href="#m6ebedbb80d" y="302.085818"/>
     <use style="stroke:#000000;" x="127.508278" xlink:href="#m6ebedbb80d" y="302.085818"/>
     <use style="stroke:#000000;" x="130.009469" xlink:href="#m6ebedbb80d" y="302.085818"/>
     <use style="stroke:#000000;" x="132.51066" xlink:href="#m6ebedbb80d" y="302.085818"/>
     <use style="stroke:#000000;" x="135.01185" xlink:href="#m6ebedbb80d" y="302.085818"/>
     <use style="stroke:#000000;" x="137.513041" xlink:href="#m6ebedbb80d" y="302.085818"/>
     <use style="stroke:#000000;" x="140.014232" xlink:href="#m6ebedbb80d" y="302.085818"/>
     <use style="stroke:#000000;" x="142.515422" xlink:href="#m6ebedbb80d" y="302.085818"/>
     <use style="stroke:#000000;" x="145.016613" xlink:href="#m6ebedbb80d" y="302.085818"/>
     <use style="stroke:#000000;" x="147.517804" xlink:href="#m6ebedbb80d" y="302.085818"/>
     <use style="stroke:#000000;" x="150.018994" xlink:href="#m6ebedbb80d" y="302.085818"/>
     <use style="stroke:#000000;" x="152.520185" xlink:href="#m6ebedbb80d" y="302.085818"/>
     <use style="stroke:#000000;" x="155.021376" xlink:href="#m6ebedbb80d" y="302.085818"/>
     <use style="stroke:#000000;" x="157.522566" xlink:href="#m6ebedbb80d" y="302.085818"/>
     <use style="stroke:#000000;" x="160.023757" xlink:href="#m6ebedbb80d" y="302.085818"/>
     <use style="stroke:#000000;" x="162.524947" xlink:href="#m6ebedbb80d" y="302.085818"/>
     <use style="stroke:#000000;" x="165.026138" xlink:href="#m6ebedbb80d" y="302.085818"/>
     <use style="stroke:#000000;" x="167.527329" xlink:href="#m6ebedbb80d" y="302.085818"/>
     <use style="stroke:#000000;" x="170.028519" xlink:href="#m6ebedbb80d" y="302.085818"/>
     <use style="stroke:#000000;" x="172.52971" xlink:href="#m6ebedbb80d" y="302.085818"/>
     <use style="stroke:#000000;" x="175.030901" xlink:href="#m6ebedbb80d" y="302.085818"/>
     <use style="stroke:#000000;" x="177.532091" xlink:href="#m6ebedbb80d" y="302.085818"/>
     <use style="stroke:#000000;" x="180.033282" xlink:href="#m6ebedbb80d" y="302.085818"/>
     <use style="stroke:#000000;" x="182.534473" xlink:href="#m6ebedbb80d" y="302.085818"/>
     <use style="stroke:#000000;" x="185.035663" xlink:href="#m6ebedbb80d" y="302.085818"/>
     <use style="stroke:#000000;" x="187.536854" xlink:href="#m6ebedbb80d" y="302.085818"/>
     <use style="stroke:#000000;" x="190.038045" xlink:href="#m6ebedbb80d" y="302.085818"/>
     <use style="stroke:#000000;" x="192.539235" xlink:href="#m6ebedbb80d" y="302.085818"/>
     <use style="stroke:#000000;" x="195.040426" xlink:href="#m6ebedbb80d" y="302.085818"/>
     <use style="stroke:#000000;" x="197.541616" xlink:href="#m6ebedbb80d" y="302.085818"/>
     <use style="stroke:#000000;" x="200.042807" xlink:href="#m6ebedbb80d" y="302.085818"/>
     <use style="stroke:#000000;" x="202.543998" xlink:href="#m6ebedbb80d" y="192.122182"/>
     <use style="stroke:#000000;" x="205.045188" xlink:href="#m6ebedbb80d" y="302.085818"/>
     <use style="stroke:#000000;" x="207.546379" xlink:href="#m6ebedbb80d" y="302.085818"/>
     <use style="stroke:#000000;" x="210.04757" xlink:href="#m6ebedbb80d" y="302.085818"/>
     <use style="stroke:#000000;" x="212.54876" xlink:href="#m6ebedbb80d" y="302.085818"/>
    </g>
   </g>
   <g id="patch_13">
    <path d="M 57.6 307.584 
L 57.6 186.624 
" style="fill:none;stroke:#000000;stroke-linecap:square;stroke-linejoin:miter;stroke-width:0.8;"/>
   </g>
   <g id="patch_14">
    <path d="M 219.927273 307.584 
L 219.927273 186.624 
" style="fill:none;stroke:#000000;stroke-linecap:square;stroke-linejoin:miter;stroke-width:0.8;"/>
   </g>
   <g id="patch_15">
    <path d="M 57.6 307.584 
L 219.927273 307.584 
" style="fill:none;stroke:#000000;stroke-linecap:square;stroke-linejoin:miter;stroke-width:0.8;"/>
   </g>
   <g id="patch_16">
    <path d="M 57.6 186.624 
L 219.927273 186.624 
" style="fill:none;stroke:#000000;stroke-linecap:square;stroke-linejoin:miter;stroke-width:0.8;"/>
   </g>
  </g>
  <g id="axes_4">
   <g id="patch_17">
    <path d="M 252.392727 307.584 
L 414.72 307.584 
L 414.72 186.624 
L 252.392727 186.624 
z
" style="fill:#ffffff;"/>
   </g>
   <g id="matplotlib.axis_7">
    <g id="xtick_13">
     <g id="line2d_34">
      <g>
       <use style="stroke:#000000;stroke-width:0.8;" x="259.77124" xlink:href="#m1e471c690e" y="307.584"/>
      </g>
     </g>
     <g id="text_34">
      <!-- 0 -->
      <g transform="translate(256.58999 322.182437)scale(0.1 -0.1)">
       <use xlink:href="#DejaVuSans-30"/>
      </g>
     </g>
    </g>
    <g id="xtick_14">
     <g id="line2d_35">
      <g>
       <use style="stroke:#000000;stroke-width:0.8;" x="309.795053" xlink:href="#m1e471c690e" y="307.584"/>
      </g>
     </g>
     <g id="text_35">
      <!-- 20 -->
      <g transform="translate(303.432553 322.182437)scale(0.1 -0.1)">
       <use xlink:href="#DejaVuSans-32"/>
       <use x="63.623047" xlink:href="#DejaVuSans-30"/>
      </g>
     </g>
    </g>
    <g id="xtick_15">
     <g id="line2d_36">
      <g>
       <use style="stroke:#000000;stroke-width:0.8;" x="359.818865" xlink:href="#m1e471c690e" y="307.584"/>
      </g>
     </g>
     <g id="text_36">
      <!-- 40 -->
      <g transform="translate(353.456365 322.182437)scale(0.1 -0.1)">
       <use xlink:href="#DejaVuSans-34"/>
       <use x="63.623047" xlink:href="#DejaVuSans-30"/>
      </g>
     </g>
    </g>
    <g id="xtick_16">
     <g id="line2d_37">
      <g>
       <use style="stroke:#000000;stroke-width:0.8;" x="409.842678" xlink:href="#m1e471c690e" y="307.584"/>
      </g>
     </g>
     <g id="text_37">
      <!-- 60 -->
      <g transform="translate(403.480178 322.182437)scale(0.1 -0.1)">
       <use xlink:href="#DejaVuSans-36"/>
       <use x="63.623047" xlink:href="#DejaVuSans-30"/>
      </g>
     </g>
    </g>
    <g id="text_38">
     <!-- WRB -->
     <defs>
      <path d="M 44.390625 34.1875 
Q 47.5625 33.109375 50.5625 29.59375 
Q 53.5625 26.078125 56.59375 19.921875 
L 66.609375 0 
L 56 0 
L 46.6875 18.703125 
Q 43.0625 26.03125 39.671875 28.421875 
Q 36.28125 30.8125 30.421875 30.8125 
L 19.671875 30.8125 
L 19.671875 0 
L 9.8125 0 
L 9.8125 72.90625 
L 32.078125 72.90625 
Q 44.578125 72.90625 50.734375 67.671875 
Q 56.890625 62.453125 56.890625 51.90625 
Q 56.890625 45.015625 53.6875 40.46875 
Q 50.484375 35.9375 44.390625 34.1875 
z
M 19.671875 64.796875 
L 19.671875 38.921875 
L 32.078125 38.921875 
Q 39.203125 38.921875 42.84375 42.21875 
Q 46.484375 45.515625 46.484375 51.90625 
Q 46.484375 58.296875 42.84375 61.546875 
Q 39.203125 64.796875 32.078125 64.796875 
z
" id="DejaVuSans-52"/>
      <path d="M 19.671875 34.8125 
L 19.671875 8.109375 
L 35.5 8.109375 
Q 43.453125 8.109375 47.28125 11.40625 
Q 51.125 14.703125 51.125 21.484375 
Q 51.125 28.328125 47.28125 31.5625 
Q 43.453125 34.8125 35.5 34.8125 
z
M 19.671875 64.796875 
L 19.671875 42.828125 
L 34.28125 42.828125 
Q 41.5 42.828125 45.03125 45.53125 
Q 48.578125 48.25 48.578125 53.8125 
Q 48.578125 59.328125 45.03125 62.0625 
Q 41.5 64.796875 34.28125 64.796875 
z
M 9.8125 72.90625 
L 35.015625 72.90625 
Q 46.296875 72.90625 52.390625 68.21875 
Q 58.5 63.53125 58.5 54.890625 
Q 58.5 48.1875 55.375 44.234375 
Q 52.25 40.28125 46.1875 39.3125 
Q 53.46875 37.75 57.5 32.78125 
Q 61.53125 27.828125 61.53125 20.40625 
Q 61.53125 10.640625 54.890625 5.3125 
Q 48.25 0 35.984375 0 
L 9.8125 0 
z
" id="DejaVuSans-42"/>
     </defs>
     <g transform="translate(321.707926 335.860562)scale(0.1 -0.1)">
      <use xlink:href="#DejaVuSans-57"/>
      <use x="98.876953" xlink:href="#DejaVuSans-52"/>
      <use x="168.359375" xlink:href="#DejaVuSans-42"/>
     </g>
    </g>
   </g>
   <g id="matplotlib.axis_8">
    <g id="ytick_19">
     <g id="line2d_38">
      <g>
       <use style="stroke:#000000;stroke-width:0.8;" x="252.392727" xlink:href="#m635340bb52" y="302.085818"/>
      </g>
     </g>
     <g id="text_39">
      <!-- 0 -->
      <g transform="translate(239.030227 305.885037)scale(0.1 -0.1)">
       <use xlink:href="#DejaVuSans-30"/>
      </g>
     </g>
    </g>
    <g id="ytick_20">
     <g id="line2d_39">
      <g>
       <use style="stroke:#000000;stroke-width:0.8;" x="252.392727" xlink:href="#m635340bb52" y="270.667636"/>
      </g>
     </g>
     <g id="text_40">
      <!-- 2 -->
      <g transform="translate(239.030227 274.466855)scale(0.1 -0.1)">
       <use xlink:href="#DejaVuSans-32"/>
      </g>
     </g>
    </g>
    <g id="ytick_21">
     <g id="line2d_40">
      <g>
       <use style="stroke:#000000;stroke-width:0.8;" x="252.392727" xlink:href="#m635340bb52" y="239.249455"/>
      </g>
     </g>
     <g id="text_41">
      <!-- 4 -->
      <g transform="translate(239.030227 243.048673)scale(0.1 -0.1)">
       <use xlink:href="#DejaVuSans-34"/>
      </g>
     </g>
    </g>
    <g id="ytick_22">
     <g id="line2d_41">
      <g>
       <use style="stroke:#000000;stroke-width:0.8;" x="252.392727" xlink:href="#m635340bb52" y="207.831273"/>
      </g>
     </g>
     <g id="text_42">
      <!-- 6 -->
      <g transform="translate(239.030227 211.630491)scale(0.1 -0.1)">
       <use xlink:href="#DejaVuSans-36"/>
      </g>
     </g>
    </g>
   </g>
   <g id="line2d_42">
    <path clip-path="url(#pd1ccedc8ff)" d="M 259.77124 239.249455 
L 262.27243 302.085818 
L 264.773621 286.376727 
L 267.274812 286.376727 
L 269.776002 270.667636 
L 272.277193 286.376727 
L 274.778384 223.540364 
L 277.279574 286.376727 
L 279.780765 286.376727 
L 282.281955 302.085818 
L 284.783146 270.667636 
L 287.284337 270.667636 
L 289.785527 286.376727 
L 292.286718 239.249455 
L 294.787909 302.085818 
L 297.289099 270.667636 
L 299.79029 302.085818 
L 302.291481 286.376727 
L 304.792671 286.376727 
L 307.293862 270.667636 
L 309.795053 254.958545 
L 312.296243 302.085818 
L 314.797434 207.831273 
L 317.298624 270.667636 
L 319.799815 302.085818 
L 322.301006 302.085818 
L 324.802196 254.958545 
L 327.303387 270.667636 
L 329.804578 239.249455 
L 332.305768 254.958545 
L 334.806959 270.667636 
L 337.30815 286.376727 
L 339.80934 286.376727 
L 342.310531 239.249455 
L 344.811722 239.249455 
L 347.312912 223.540364 
L 349.814103 192.122182 
L 352.315293 286.376727 
L 354.816484 270.667636 
L 357.317675 223.540364 
L 359.818865 239.249455 
L 362.320056 302.085818 
L 364.821247 302.085818 
L 367.322437 270.667636 
L 369.823628 302.085818 
L 372.324819 254.958545 
L 374.826009 270.667636 
L 377.3272 254.958545 
L 379.828391 239.249455 
L 382.329581 254.958545 
L 384.830772 207.831273 
L 387.331962 223.540364 
L 389.833153 286.376727 
L 392.334344 239.249455 
L 394.835534 286.376727 
L 397.336725 270.667636 
L 399.837916 254.958545 
L 402.339106 254.958545 
L 404.840297 270.667636 
L 407.341488 254.958545 
" style="fill:none;stroke:#000000;stroke-dasharray:5.55,2.4;stroke-dashoffset:0;stroke-width:1.5;"/>
    <g clip-path="url(#pd1ccedc8ff)">
     <use style="stroke:#000000;" x="259.77124" xlink:href="#m6ebedbb80d" y="239.249455"/>
     <use style="stroke:#000000;" x="262.27243" xlink:href="#m6ebedbb80d" y="302.085818"/>
     <use style="stroke:#000000;" x="264.773621" xlink:href="#m6ebedbb80d" y="286.376727"/>
     <use style="stroke:#000000;" x="267.274812" xlink:href="#m6ebedbb80d" y="286.376727"/>
     <use style="stroke:#000000;" x="269.776002" xlink:href="#m6ebedbb80d" y="270.667636"/>
     <use style="stroke:#000000;" x="272.277193" xlink:href="#m6ebedbb80d" y="286.376727"/>
     <use style="stroke:#000000;" x="274.778384" xlink:href="#m6ebedbb80d" y="223.540364"/>
     <use style="stroke:#000000;" x="277.279574" xlink:href="#m6ebedbb80d" y="286.376727"/>
     <use style="stroke:#000000;" x="279.780765" xlink:href="#m6ebedbb80d" y="286.376727"/>
     <use style="stroke:#000000;" x="282.281955" xlink:href="#m6ebedbb80d" y="302.085818"/>
     <use style="stroke:#000000;" x="284.783146" xlink:href="#m6ebedbb80d" y="270.667636"/>
     <use style="stroke:#000000;" x="287.284337" xlink:href="#m6ebedbb80d" y="270.667636"/>
     <use style="stroke:#000000;" x="289.785527" xlink:href="#m6ebedbb80d" y="286.376727"/>
     <use style="stroke:#000000;" x="292.286718" xlink:href="#m6ebedbb80d" y="239.249455"/>
     <use style="stroke:#000000;" x="294.787909" xlink:href="#m6ebedbb80d" y="302.085818"/>
     <use style="stroke:#000000;" x="297.289099" xlink:href="#m6ebedbb80d" y="270.667636"/>
     <use style="stroke:#000000;" x="299.79029" xlink:href="#m6ebedbb80d" y="302.085818"/>
     <use style="stroke:#000000;" x="302.291481" xlink:href="#m6ebedbb80d" y="286.376727"/>
     <use style="stroke:#000000;" x="304.792671" xlink:href="#m6ebedbb80d" y="286.376727"/>
     <use style="stroke:#000000;" x="307.293862" xlink:href="#m6ebedbb80d" y="270.667636"/>
     <use style="stroke:#000000;" x="309.795053" xlink:href="#m6ebedbb80d" y="254.958545"/>
     <use style="stroke:#000000;" x="312.296243" xlink:href="#m6ebedbb80d" y="302.085818"/>
     <use style="stroke:#000000;" x="314.797434" xlink:href="#m6ebedbb80d" y="207.831273"/>
     <use style="stroke:#000000;" x="317.298624" xlink:href="#m6ebedbb80d" y="270.667636"/>
     <use style="stroke:#000000;" x="319.799815" xlink:href="#m6ebedbb80d" y="302.085818"/>
     <use style="stroke:#000000;" x="322.301006" xlink:href="#m6ebedbb80d" y="302.085818"/>
     <use style="stroke:#000000;" x="324.802196" xlink:href="#m6ebedbb80d" y="254.958545"/>
     <use style="stroke:#000000;" x="327.303387" xlink:href="#m6ebedbb80d" y="270.667636"/>
     <use style="stroke:#000000;" x="329.804578" xlink:href="#m6ebedbb80d" y="239.249455"/>
     <use style="stroke:#000000;" x="332.305768" xlink:href="#m6ebedbb80d" y="254.958545"/>
     <use style="stroke:#000000;" x="334.806959" xlink:href="#m6ebedbb80d" y="270.667636"/>
     <use style="stroke:#000000;" x="337.30815" xlink:href="#m6ebedbb80d" y="286.376727"/>
     <use style="stroke:#000000;" x="339.80934" xlink:href="#m6ebedbb80d" y="286.376727"/>
     <use style="stroke:#000000;" x="342.310531" xlink:href="#m6ebedbb80d" y="239.249455"/>
     <use style="stroke:#000000;" x="344.811722" xlink:href="#m6ebedbb80d" y="239.249455"/>
     <use style="stroke:#000000;" x="347.312912" xlink:href="#m6ebedbb80d" y="223.540364"/>
     <use style="stroke:#000000;" x="349.814103" xlink:href="#m6ebedbb80d" y="192.122182"/>
     <use style="stroke:#000000;" x="352.315293" xlink:href="#m6ebedbb80d" y="286.376727"/>
     <use style="stroke:#000000;" x="354.816484" xlink:href="#m6ebedbb80d" y="270.667636"/>
     <use style="stroke:#000000;" x="357.317675" xlink:href="#m6ebedbb80d" y="223.540364"/>
     <use style="stroke:#000000;" x="359.818865" xlink:href="#m6ebedbb80d" y="239.249455"/>
     <use style="stroke:#000000;" x="362.320056" xlink:href="#m6ebedbb80d" y="302.085818"/>
     <use style="stroke:#000000;" x="364.821247" xlink:href="#m6ebedbb80d" y="302.085818"/>
     <use style="stroke:#000000;" x="367.322437" xlink:href="#m6ebedbb80d" y="270.667636"/>
     <use style="stroke:#000000;" x="369.823628" xlink:href="#m6ebedbb80d" y="302.085818"/>
     <use style="stroke:#000000;" x="372.324819" xlink:href="#m6ebedbb80d" y="254.958545"/>
     <use style="stroke:#000000;" x="374.826009" xlink:href="#m6ebedbb80d" y="270.667636"/>
     <use style="stroke:#000000;" x="377.3272" xlink:href="#m6ebedbb80d" y="254.958545"/>
     <use style="stroke:#000000;" x="379.828391" xlink:href="#m6ebedbb80d" y="239.249455"/>
     <use style="stroke:#000000;" x="382.329581" xlink:href="#m6ebedbb80d" y="254.958545"/>
     <use style="stroke:#000000;" x="384.830772" xlink:href="#m6ebedbb80d" y="207.831273"/>
     <use style="stroke:#000000;" x="387.331962" xlink:href="#m6ebedbb80d" y="223.540364"/>
     <use style="stroke:#000000;" x="389.833153" xlink:href="#m6ebedbb80d" y="286.376727"/>
     <use style="stroke:#000000;" x="392.334344" xlink:href="#m6ebedbb80d" y="239.249455"/>
     <use style="stroke:#000000;" x="394.835534" xlink:href="#m6ebedbb80d" y="286.376727"/>
     <use style="stroke:#000000;" x="397.336725" xlink:href="#m6ebedbb80d" y="270.667636"/>
     <use style="stroke:#000000;" x="399.837916" xlink:href="#m6ebedbb80d" y="254.958545"/>
     <use style="stroke:#000000;" x="402.339106" xlink:href="#m6ebedbb80d" y="254.958545"/>
     <use style="stroke:#000000;" x="404.840297" xlink:href="#m6ebedbb80d" y="270.667636"/>
     <use style="stroke:#000000;" x="407.341488" xlink:href="#m6ebedbb80d" y="254.958545"/>
    </g>
   </g>
   <g id="patch_18">
    <path d="M 252.392727 307.584 
L 252.392727 186.624 
" style="fill:none;stroke:#000000;stroke-linecap:square;stroke-linejoin:miter;stroke-width:0.8;"/>
   </g>
   <g id="patch_19">
    <path d="M 414.72 307.584 
L 414.72 186.624 
" style="fill:none;stroke:#000000;stroke-linecap:square;stroke-linejoin:miter;stroke-width:0.8;"/>
   </g>
   <g id="patch_20">
    <path d="M 252.392727 307.584 
L 414.72 307.584 
" style="fill:none;stroke:#000000;stroke-linecap:square;stroke-linejoin:miter;stroke-width:0.8;"/>
   </g>
   <g id="patch_21">
    <path d="M 252.392727 186.624 
L 414.72 186.624 
" style="fill:none;stroke:#000000;stroke-linecap:square;stroke-linejoin:miter;stroke-width:0.8;"/>
   </g>
  </g>
 </g>
 <defs>
  <clipPath id="pf993a7c12c">
   <rect height="120.96" width="162.327273" x="57.6" y="41.472"/>
  </clipPath>
  <clipPath id="p8a03b67112">
   <rect height="120.96" width="162.327273" x="252.392727" y="41.472"/>
  </clipPath>
  <clipPath id="pdadccbd945">
   <rect height="120.96" width="162.327273" x="57.6" y="186.624"/>
  </clipPath>
  <clipPath id="pd1ccedc8ff">
   <rect height="120.96" width="162.327273" x="252.392727" y="186.624"/>
  </clipPath>
 </defs>
</svg>
