<?xml version="1.0" encoding="utf-8" standalone="no"?>
<!DOCTYPE svg PUBLIC "-//W3C//DTD SVG 1.1//EN"
  "http://www.w3.org/Graphics/SVG/1.1/DTD/svg11.dtd">
<!-- Created with matplotlib (http://matplotlib.org/) -->
<svg height="345.6pt" version="1.1" viewBox="0 0 460.8 345.6" width="460.8pt" xmlns="http://www.w3.org/2000/svg" xmlns:xlink="http://www.w3.org/1999/xlink">
 <defs>
  <style type="text/css">
*{stroke-linecap:butt;stroke-linejoin:round;}
  </style>
 </defs>
 <g id="figure_1">
  <g id="patch_1">
   <path d="M 0 345.6 
L 460.8 345.6 
L 460.8 0 
L 0 0 
z
" style="fill:#ffffff;"/>
  </g>
  <g id="axes_1">
   <g id="patch_2">
    <path d="M 57.6 162.432 
L 219.927273 162.432 
L 219.927273 41.472 
L 57.6 41.472 
z
" style="fill:#ffffff;"/>
   </g>
   <g id="matplotlib.axis_1">
    <g id="xtick_1">
     <g id="line2d_1">
      <defs>
       <path d="M 0 0 
L 0 3.5 
" id="m4a9d1b0ec6" style="stroke:#000000;stroke-width:0.8;"/>
      </defs>
      <g>
       <use style="stroke:#000000;stroke-width:0.8;" x="64.978512" xlink:href="#m4a9d1b0ec6" y="162.432"/>
      </g>
     </g>
     <g id="text_1">
      <!-- 0 -->
      <defs>
       <path d="M 31.78125 66.40625 
Q 24.171875 66.40625 20.328125 58.90625 
Q 16.5 51.421875 16.5 36.375 
Q 16.5 21.390625 20.328125 13.890625 
Q 24.171875 6.390625 31.78125 6.390625 
Q 39.453125 6.390625 43.28125 13.890625 
Q 47.125 21.390625 47.125 36.375 
Q 47.125 51.421875 43.28125 58.90625 
Q 39.453125 66.40625 31.78125 66.40625 
z
M 31.78125 74.21875 
Q 44.046875 74.21875 50.515625 64.515625 
Q 56.984375 54.828125 56.984375 36.375 
Q 56.984375 17.96875 50.515625 8.265625 
Q 44.046875 -1.421875 31.78125 -1.421875 
Q 19.53125 -1.421875 13.0625 8.265625 
Q 6.59375 17.96875 6.59375 36.375 
Q 6.59375 54.828125 13.0625 64.515625 
Q 19.53125 74.21875 31.78125 74.21875 
z
" id="DejaVuSans-30"/>
      </defs>
      <g transform="translate(61.797262 177.030437)scale(0.1 -0.1)">
       <use xlink:href="#DejaVuSans-30"/>
      </g>
     </g>
    </g>
    <g id="xtick_2">
     <g id="line2d_2">
      <g>
       <use style="stroke:#000000;stroke-width:0.8;" x="115.002325" xlink:href="#m4a9d1b0ec6" y="162.432"/>
      </g>
     </g>
     <g id="text_2">
      <!-- 20 -->
      <defs>
       <path d="M 19.1875 8.296875 
L 53.609375 8.296875 
L 53.609375 0 
L 7.328125 0 
L 7.328125 8.296875 
Q 12.9375 14.109375 22.625 23.890625 
Q 32.328125 33.6875 34.8125 36.53125 
Q 39.546875 41.84375 41.421875 45.53125 
Q 43.3125 49.21875 43.3125 52.78125 
Q 43.3125 58.59375 39.234375 62.25 
Q 35.15625 65.921875 28.609375 65.921875 
Q 23.96875 65.921875 18.8125 64.3125 
Q 13.671875 62.703125 7.8125 59.421875 
L 7.8125 69.390625 
Q 13.765625 71.78125 18.9375 73 
Q 24.125 74.21875 28.421875 74.21875 
Q 39.75 74.21875 46.484375 68.546875 
Q 53.21875 62.890625 53.21875 53.421875 
Q 53.21875 48.921875 51.53125 44.890625 
Q 49.859375 40.875 45.40625 35.40625 
Q 44.1875 33.984375 37.640625 27.21875 
Q 31.109375 20.453125 19.1875 8.296875 
z
" id="DejaVuSans-32"/>
      </defs>
      <g transform="translate(108.639825 177.030437)scale(0.1 -0.1)">
       <use xlink:href="#DejaVuSans-32"/>
       <use x="63.623047" xlink:href="#DejaVuSans-30"/>
      </g>
     </g>
    </g>
    <g id="xtick_3">
     <g id="line2d_3">
      <g>
       <use style="stroke:#000000;stroke-width:0.8;" x="165.026138" xlink:href="#m4a9d1b0ec6" y="162.432"/>
      </g>
     </g>
     <g id="text_3">
      <!-- 40 -->
      <defs>
       <path d="M 37.796875 64.3125 
L 12.890625 25.390625 
L 37.796875 25.390625 
z
M 35.203125 72.90625 
L 47.609375 72.90625 
L 47.609375 25.390625 
L 58.015625 25.390625 
L 58.015625 17.1875 
L 47.609375 17.1875 
L 47.609375 0 
L 37.796875 0 
L 37.796875 17.1875 
L 4.890625 17.1875 
L 4.890625 26.703125 
z
" id="DejaVuSans-34"/>
      </defs>
      <g transform="translate(158.663638 177.030437)scale(0.1 -0.1)">
       <use xlink:href="#DejaVuSans-34"/>
       <use x="63.623047" xlink:href="#DejaVuSans-30"/>
      </g>
     </g>
    </g>
    <g id="xtick_4">
     <g id="line2d_4">
      <g>
       <use style="stroke:#000000;stroke-width:0.8;" x="215.049951" xlink:href="#m4a9d1b0ec6" y="162.432"/>
      </g>
     </g>
     <g id="text_4">
      <!-- 60 -->
      <defs>
       <path d="M 33.015625 40.375 
Q 26.375 40.375 22.484375 35.828125 
Q 18.609375 31.296875 18.609375 23.390625 
Q 18.609375 15.53125 22.484375 10.953125 
Q 26.375 6.390625 33.015625 6.390625 
Q 39.65625 6.390625 43.53125 10.953125 
Q 47.40625 15.53125 47.40625 23.390625 
Q 47.40625 31.296875 43.53125 35.828125 
Q 39.65625 40.375 33.015625 40.375 
z
M 52.59375 71.296875 
L 52.59375 62.3125 
Q 48.875 64.0625 45.09375 64.984375 
Q 41.3125 65.921875 37.59375 65.921875 
Q 27.828125 65.921875 22.671875 59.328125 
Q 17.53125 52.734375 16.796875 39.40625 
Q 19.671875 43.65625 24.015625 45.921875 
Q 28.375 48.1875 33.59375 48.1875 
Q 44.578125 48.1875 50.953125 41.515625 
Q 57.328125 34.859375 57.328125 23.390625 
Q 57.328125 12.15625 50.6875 5.359375 
Q 44.046875 -1.421875 33.015625 -1.421875 
Q 20.359375 -1.421875 13.671875 8.265625 
Q 6.984375 17.96875 6.984375 36.375 
Q 6.984375 53.65625 15.1875 63.9375 
Q 23.390625 74.21875 37.203125 74.21875 
Q 40.921875 74.21875 44.703125 73.484375 
Q 48.484375 72.75 52.59375 71.296875 
z
" id="DejaVuSans-36"/>
      </defs>
      <g transform="translate(208.687451 177.030437)scale(0.1 -0.1)">
       <use xlink:href="#DejaVuSans-36"/>
       <use x="63.623047" xlink:href="#DejaVuSans-30"/>
      </g>
     </g>
    </g>
    <g id="text_5">
     <!-- avg -->
     <defs>
      <path d="M 34.28125 27.484375 
Q 23.390625 27.484375 19.1875 25 
Q 14.984375 22.515625 14.984375 16.5 
Q 14.984375 11.71875 18.140625 8.90625 
Q 21.296875 6.109375 26.703125 6.109375 
Q 34.1875 6.109375 38.703125 11.40625 
Q 43.21875 16.703125 43.21875 25.484375 
L 43.21875 27.484375 
z
M 52.203125 31.203125 
L 52.203125 0 
L 43.21875 0 
L 43.21875 8.296875 
Q 40.140625 3.328125 35.546875 0.953125 
Q 30.953125 -1.421875 24.3125 -1.421875 
Q 15.921875 -1.421875 10.953125 3.296875 
Q 6 8.015625 6 15.921875 
Q 6 25.140625 12.171875 29.828125 
Q 18.359375 34.515625 30.609375 34.515625 
L 43.21875 34.515625 
L 43.21875 35.40625 
Q 43.21875 41.609375 39.140625 45 
Q 35.0625 48.390625 27.6875 48.390625 
Q 23 48.390625 18.546875 47.265625 
Q 14.109375 46.140625 10.015625 43.890625 
L 10.015625 52.203125 
Q 14.9375 54.109375 19.578125 55.046875 
Q 24.21875 56 28.609375 56 
Q 40.484375 56 46.34375 49.84375 
Q 52.203125 43.703125 52.203125 31.203125 
z
" id="DejaVuSans-61"/>
      <path d="M 2.984375 54.6875 
L 12.5 54.6875 
L 29.59375 8.796875 
L 46.6875 54.6875 
L 56.203125 54.6875 
L 35.6875 0 
L 23.484375 0 
z
" id="DejaVuSans-76"/>
      <path d="M 45.40625 27.984375 
Q 45.40625 37.75 41.375 43.109375 
Q 37.359375 48.484375 30.078125 48.484375 
Q 22.859375 48.484375 18.828125 43.109375 
Q 14.796875 37.75 14.796875 27.984375 
Q 14.796875 18.265625 18.828125 12.890625 
Q 22.859375 7.515625 30.078125 7.515625 
Q 37.359375 7.515625 41.375 12.890625 
Q 45.40625 18.265625 45.40625 27.984375 
z
M 54.390625 6.78125 
Q 54.390625 -7.171875 48.1875 -13.984375 
Q 42 -20.796875 29.203125 -20.796875 
Q 24.46875 -20.796875 20.265625 -20.09375 
Q 16.0625 -19.390625 12.109375 -17.921875 
L 12.109375 -9.1875 
Q 16.0625 -11.328125 19.921875 -12.34375 
Q 23.78125 -13.375 27.78125 -13.375 
Q 36.625 -13.375 41.015625 -8.765625 
Q 45.40625 -4.15625 45.40625 5.171875 
L 45.40625 9.625 
Q 42.625 4.78125 38.28125 2.390625 
Q 33.9375 0 27.875 0 
Q 17.828125 0 11.671875 7.65625 
Q 5.515625 15.328125 5.515625 27.984375 
Q 5.515625 40.671875 11.671875 48.328125 
Q 17.828125 56 27.875 56 
Q 33.9375 56 38.28125 53.609375 
Q 42.625 51.21875 45.40625 46.390625 
L 45.40625 54.6875 
L 54.390625 54.6875 
z
" id="DejaVuSans-67"/>
     </defs>
     <g transform="translate(129.56598 190.708562)scale(0.1 -0.1)">
      <use xlink:href="#DejaVuSans-61"/>
      <use x="61.279297" xlink:href="#DejaVuSans-76"/>
      <use x="120.458984" xlink:href="#DejaVuSans-67"/>
     </g>
    </g>
   </g>
   <g id="matplotlib.axis_2">
    <g id="ytick_1">
     <g id="line2d_5">
      <defs>
       <path d="M 0 0 
L -3.5 0 
" id="mc8bc93cf4e" style="stroke:#000000;stroke-width:0.8;"/>
      </defs>
      <g>
       <use style="stroke:#000000;stroke-width:0.8;" x="57.6" xlink:href="#mc8bc93cf4e" y="157.380047"/>
      </g>
     </g>
     <g id="text_6">
      <!-- 10 -->
      <defs>
       <path d="M 12.40625 8.296875 
L 28.515625 8.296875 
L 28.515625 63.921875 
L 10.984375 60.40625 
L 10.984375 69.390625 
L 28.421875 72.90625 
L 38.28125 72.90625 
L 38.28125 8.296875 
L 54.390625 8.296875 
L 54.390625 0 
L 12.40625 0 
z
" id="DejaVuSans-31"/>
      </defs>
      <g transform="translate(37.875 161.179266)scale(0.1 -0.1)">
       <use xlink:href="#DejaVuSans-31"/>
       <use x="63.623047" xlink:href="#DejaVuSans-30"/>
      </g>
     </g>
    </g>
    <g id="ytick_2">
     <g id="line2d_6">
      <g>
       <use style="stroke:#000000;stroke-width:0.8;" x="57.6" xlink:href="#mc8bc93cf4e" y="125.50653"/>
      </g>
     </g>
     <g id="text_7">
      <!-- 15 -->
      <defs>
       <path d="M 10.796875 72.90625 
L 49.515625 72.90625 
L 49.515625 64.59375 
L 19.828125 64.59375 
L 19.828125 46.734375 
Q 21.96875 47.46875 24.109375 47.828125 
Q 26.265625 48.1875 28.421875 48.1875 
Q 40.625 48.1875 47.75 41.5 
Q 54.890625 34.8125 54.890625 23.390625 
Q 54.890625 11.625 47.5625 5.09375 
Q 40.234375 -1.421875 26.90625 -1.421875 
Q 22.3125 -1.421875 17.546875 -0.640625 
Q 12.796875 0.140625 7.71875 1.703125 
L 7.71875 11.625 
Q 12.109375 9.234375 16.796875 8.0625 
Q 21.484375 6.890625 26.703125 6.890625 
Q 35.15625 6.890625 40.078125 11.328125 
Q 45.015625 15.765625 45.015625 23.390625 
Q 45.015625 31 40.078125 35.4375 
Q 35.15625 39.890625 26.703125 39.890625 
Q 22.75 39.890625 18.8125 39.015625 
Q 14.890625 38.140625 10.796875 36.28125 
z
" id="DejaVuSans-35"/>
      </defs>
      <g transform="translate(37.875 129.305748)scale(0.1 -0.1)">
       <use xlink:href="#DejaVuSans-31"/>
       <use x="63.623047" xlink:href="#DejaVuSans-35"/>
      </g>
     </g>
    </g>
    <g id="ytick_3">
     <g id="line2d_7">
      <g>
       <use style="stroke:#000000;stroke-width:0.8;" x="57.6" xlink:href="#mc8bc93cf4e" y="93.633012"/>
      </g>
     </g>
     <g id="text_8">
      <!-- 20 -->
      <g transform="translate(37.875 97.432231)scale(0.1 -0.1)">
       <use xlink:href="#DejaVuSans-32"/>
       <use x="63.623047" xlink:href="#DejaVuSans-30"/>
      </g>
     </g>
    </g>
    <g id="ytick_4">
     <g id="line2d_8">
      <g>
       <use style="stroke:#000000;stroke-width:0.8;" x="57.6" xlink:href="#mc8bc93cf4e" y="61.759494"/>
      </g>
     </g>
     <g id="text_9">
      <!-- 25 -->
      <g transform="translate(37.875 65.558713)scale(0.1 -0.1)">
       <use xlink:href="#DejaVuSans-32"/>
       <use x="63.623047" xlink:href="#DejaVuSans-35"/>
      </g>
     </g>
    </g>
   </g>
   <g id="line2d_9">
    <path clip-path="url(#pe03e3ab888)" d="M 64.978512 87.258308 
L 67.479703 137.299731 
L 69.980894 132.582451 
L 72.482084 114.478292 
L 74.983275 87.768285 
L 77.484466 122.319178 
L 79.985656 124.42283 
L 82.486847 113.585834 
L 84.988038 142.080759 
L 87.489228 105.93619 
L 89.990419 156.933818 
L 92.491609 125.124047 
L 94.9928 126.271494 
L 97.493991 78.014988 
L 99.995181 115.115763 
L 102.496372 125.889012 
L 104.997563 119.896791 
L 107.498753 136.598514 
L 109.999944 130.478798 
L 112.501135 127.036458 
L 115.002325 124.167842 
L 117.503516 107.65736 
L 120.004707 107.338625 
L 122.505897 119.131826 
L 125.007088 110.016 
L 127.508278 120.024285 
L 130.009469 97.33034 
L 132.51066 110.65347 
L 135.01185 121.61796 
L 137.513041 128.311399 
L 140.014232 115.81698 
L 142.515422 105.426213 
L 145.016613 129.58634 
L 147.517804 116.836933 
L 150.018994 106.063684 
L 152.520185 101.282656 
L 155.021376 120.789249 
L 157.522566 113.713328 
L 160.023757 121.872949 
L 162.524947 111.864664 
L 165.026138 105.107478 
L 167.527329 107.274877 
L 170.028519 99.306498 
L 172.52971 115.81698 
L 175.030901 118.876838 
L 177.532091 106.828648 
L 180.033282 100.963921 
L 182.534473 119.705549 
L 185.035663 102.748838 
L 187.536854 100.007715 
L 190.038045 88.72449 
L 192.539235 103.450055 
L 195.040426 107.147383 
L 197.541616 110.844711 
L 200.042807 100.262704 
L 202.543998 85.600885 
L 205.045188 113.968316 
L 207.546379 46.970182 
L 210.04757 85.664632 
L 212.54876 92.549312 
" style="fill:none;stroke:#000000;stroke-dasharray:5.55,2.4;stroke-dashoffset:0;stroke-width:1.5;"/>
    <defs>
     <path d="M 0 3 
C 0.795609 3 1.55874 2.683901 2.12132 2.12132 
C 2.683901 1.55874 3 0.795609 3 0 
C 3 -0.795609 2.683901 -1.55874 2.12132 -2.12132 
C 1.55874 -2.683901 0.795609 -3 0 -3 
C -0.795609 -3 -1.55874 -2.683901 -2.12132 -2.12132 
C -2.683901 -1.55874 -3 -0.795609 -3 0 
C -3 0.795609 -2.683901 1.55874 -2.12132 2.12132 
C -1.55874 2.683901 -0.795609 3 0 3 
z
" id="m5f21f1e810" style="stroke:#000000;"/>
    </defs>
    <g clip-path="url(#pe03e3ab888)">
     <use style="stroke:#000000;" x="64.978512" xlink:href="#m5f21f1e810" y="87.258308"/>
     <use style="stroke:#000000;" x="67.479703" xlink:href="#m5f21f1e810" y="137.299731"/>
     <use style="stroke:#000000;" x="69.980894" xlink:href="#m5f21f1e810" y="132.582451"/>
     <use style="stroke:#000000;" x="72.482084" xlink:href="#m5f21f1e810" y="114.478292"/>
     <use style="stroke:#000000;" x="74.983275" xlink:href="#m5f21f1e810" y="87.768285"/>
     <use style="stroke:#000000;" x="77.484466" xlink:href="#m5f21f1e810" y="122.319178"/>
     <use style="stroke:#000000;" x="79.985656" xlink:href="#m5f21f1e810" y="124.42283"/>
     <use style="stroke:#000000;" x="82.486847" xlink:href="#m5f21f1e810" y="113.585834"/>
     <use style="stroke:#000000;" x="84.988038" xlink:href="#m5f21f1e810" y="142.080759"/>
     <use style="stroke:#000000;" x="87.489228" xlink:href="#m5f21f1e810" y="105.93619"/>
     <use style="stroke:#000000;" x="89.990419" xlink:href="#m5f21f1e810" y="156.933818"/>
     <use style="stroke:#000000;" x="92.491609" xlink:href="#m5f21f1e810" y="125.124047"/>
     <use style="stroke:#000000;" x="94.9928" xlink:href="#m5f21f1e810" y="126.271494"/>
     <use style="stroke:#000000;" x="97.493991" xlink:href="#m5f21f1e810" y="78.014988"/>
     <use style="stroke:#000000;" x="99.995181" xlink:href="#m5f21f1e810" y="115.115763"/>
     <use style="stroke:#000000;" x="102.496372" xlink:href="#m5f21f1e810" y="125.889012"/>
     <use style="stroke:#000000;" x="104.997563" xlink:href="#m5f21f1e810" y="119.896791"/>
     <use style="stroke:#000000;" x="107.498753" xlink:href="#m5f21f1e810" y="136.598514"/>
     <use style="stroke:#000000;" x="109.999944" xlink:href="#m5f21f1e810" y="130.478798"/>
     <use style="stroke:#000000;" x="112.501135" xlink:href="#m5f21f1e810" y="127.036458"/>
     <use style="stroke:#000000;" x="115.002325" xlink:href="#m5f21f1e810" y="124.167842"/>
     <use style="stroke:#000000;" x="117.503516" xlink:href="#m5f21f1e810" y="107.65736"/>
     <use style="stroke:#000000;" x="120.004707" xlink:href="#m5f21f1e810" y="107.338625"/>
     <use style="stroke:#000000;" x="122.505897" xlink:href="#m5f21f1e810" y="119.131826"/>
     <use style="stroke:#000000;" x="125.007088" xlink:href="#m5f21f1e810" y="110.016"/>
     <use style="stroke:#000000;" x="127.508278" xlink:href="#m5f21f1e810" y="120.024285"/>
     <use style="stroke:#000000;" x="130.009469" xlink:href="#m5f21f1e810" y="97.33034"/>
     <use style="stroke:#000000;" x="132.51066" xlink:href="#m5f21f1e810" y="110.65347"/>
     <use style="stroke:#000000;" x="135.01185" xlink:href="#m5f21f1e810" y="121.61796"/>
     <use style="stroke:#000000;" x="137.513041" xlink:href="#m5f21f1e810" y="128.311399"/>
     <use style="stroke:#000000;" x="140.014232" xlink:href="#m5f21f1e810" y="115.81698"/>
     <use style="stroke:#000000;" x="142.515422" xlink:href="#m5f21f1e810" y="105.426213"/>
     <use style="stroke:#000000;" x="145.016613" xlink:href="#m5f21f1e810" y="129.58634"/>
     <use style="stroke:#000000;" x="147.517804" xlink:href="#m5f21f1e810" y="116.836933"/>
     <use style="stroke:#000000;" x="150.018994" xlink:href="#m5f21f1e810" y="106.063684"/>
     <use style="stroke:#000000;" x="152.520185" xlink:href="#m5f21f1e810" y="101.282656"/>
     <use style="stroke:#000000;" x="155.021376" xlink:href="#m5f21f1e810" y="120.789249"/>
     <use style="stroke:#000000;" x="157.522566" xlink:href="#m5f21f1e810" y="113.713328"/>
     <use style="stroke:#000000;" x="160.023757" xlink:href="#m5f21f1e810" y="121.872949"/>
     <use style="stroke:#000000;" x="162.524947" xlink:href="#m5f21f1e810" y="111.864664"/>
     <use style="stroke:#000000;" x="165.026138" xlink:href="#m5f21f1e810" y="105.107478"/>
     <use style="stroke:#000000;" x="167.527329" xlink:href="#m5f21f1e810" y="107.274877"/>
     <use style="stroke:#000000;" x="170.028519" xlink:href="#m5f21f1e810" y="99.306498"/>
     <use style="stroke:#000000;" x="172.52971" xlink:href="#m5f21f1e810" y="115.81698"/>
     <use style="stroke:#000000;" x="175.030901" xlink:href="#m5f21f1e810" y="118.876838"/>
     <use style="stroke:#000000;" x="177.532091" xlink:href="#m5f21f1e810" y="106.828648"/>
     <use style="stroke:#000000;" x="180.033282" xlink:href="#m5f21f1e810" y="100.963921"/>
     <use style="stroke:#000000;" x="182.534473" xlink:href="#m5f21f1e810" y="119.705549"/>
     <use style="stroke:#000000;" x="185.035663" xlink:href="#m5f21f1e810" y="102.748838"/>
     <use style="stroke:#000000;" x="187.536854" xlink:href="#m5f21f1e810" y="100.007715"/>
     <use style="stroke:#000000;" x="190.038045" xlink:href="#m5f21f1e810" y="88.72449"/>
     <use style="stroke:#000000;" x="192.539235" xlink:href="#m5f21f1e810" y="103.450055"/>
     <use style="stroke:#000000;" x="195.040426" xlink:href="#m5f21f1e810" y="107.147383"/>
     <use style="stroke:#000000;" x="197.541616" xlink:href="#m5f21f1e810" y="110.844711"/>
     <use style="stroke:#000000;" x="200.042807" xlink:href="#m5f21f1e810" y="100.262704"/>
     <use style="stroke:#000000;" x="202.543998" xlink:href="#m5f21f1e810" y="85.600885"/>
     <use style="stroke:#000000;" x="205.045188" xlink:href="#m5f21f1e810" y="113.968316"/>
     <use style="stroke:#000000;" x="207.546379" xlink:href="#m5f21f1e810" y="46.970182"/>
     <use style="stroke:#000000;" x="210.04757" xlink:href="#m5f21f1e810" y="85.664632"/>
     <use style="stroke:#000000;" x="212.54876" xlink:href="#m5f21f1e810" y="92.549312"/>
    </g>
   </g>
   <g id="patch_3">
    <path d="M 57.6 162.432 
L 57.6 41.472 
" style="fill:none;stroke:#000000;stroke-linecap:square;stroke-linejoin:miter;stroke-width:0.8;"/>
   </g>
   <g id="patch_4">
    <path d="M 219.927273 162.432 
L 219.927273 41.472 
" style="fill:none;stroke:#000000;stroke-linecap:square;stroke-linejoin:miter;stroke-width:0.8;"/>
   </g>
   <g id="patch_5">
    <path d="M 57.6 162.432 
L 219.927273 162.432 
" style="fill:none;stroke:#000000;stroke-linecap:square;stroke-linejoin:miter;stroke-width:0.8;"/>
   </g>
   <g id="patch_6">
    <path d="M 57.6 41.472 
L 219.927273 41.472 
" style="fill:none;stroke:#000000;stroke-linecap:square;stroke-linejoin:miter;stroke-width:0.8;"/>
   </g>
  </g>
  <g id="axes_2">
   <g id="patch_7">
    <path d="M 252.392727 162.432 
L 414.72 162.432 
L 414.72 41.472 
L 252.392727 41.472 
z
" style="fill:#ffffff;"/>
   </g>
   <g id="matplotlib.axis_3">
    <g id="xtick_5">
     <g id="line2d_10">
      <g>
       <use style="stroke:#000000;stroke-width:0.8;" x="259.77124" xlink:href="#m4a9d1b0ec6" y="162.432"/>
      </g>
     </g>
     <g id="text_10">
      <!-- 0 -->
      <g transform="translate(256.58999 177.030437)scale(0.1 -0.1)">
       <use xlink:href="#DejaVuSans-30"/>
      </g>
     </g>
    </g>
    <g id="xtick_6">
     <g id="line2d_11">
      <g>
       <use style="stroke:#000000;stroke-width:0.8;" x="309.795053" xlink:href="#m4a9d1b0ec6" y="162.432"/>
      </g>
     </g>
     <g id="text_11">
      <!-- 20 -->
      <g transform="translate(303.432553 177.030437)scale(0.1 -0.1)">
       <use xlink:href="#DejaVuSans-32"/>
       <use x="63.623047" xlink:href="#DejaVuSans-30"/>
      </g>
     </g>
    </g>
    <g id="xtick_7">
     <g id="line2d_12">
      <g>
       <use style="stroke:#000000;stroke-width:0.8;" x="359.818865" xlink:href="#m4a9d1b0ec6" y="162.432"/>
      </g>
     </g>
     <g id="text_12">
      <!-- 40 -->
      <g transform="translate(353.456365 177.030437)scale(0.1 -0.1)">
       <use xlink:href="#DejaVuSans-34"/>
       <use x="63.623047" xlink:href="#DejaVuSans-30"/>
      </g>
     </g>
    </g>
    <g id="xtick_8">
     <g id="line2d_13">
      <g>
       <use style="stroke:#000000;stroke-width:0.8;" x="409.842678" xlink:href="#m4a9d1b0ec6" y="162.432"/>
      </g>
     </g>
     <g id="text_13">
      <!-- 60 -->
      <g transform="translate(403.480178 177.030437)scale(0.1 -0.1)">
       <use xlink:href="#DejaVuSans-36"/>
       <use x="63.623047" xlink:href="#DejaVuSans-30"/>
      </g>
     </g>
    </g>
    <g id="text_14">
     <!-- median -->
     <defs>
      <path d="M 52 44.1875 
Q 55.375 50.25 60.0625 53.125 
Q 64.75 56 71.09375 56 
Q 79.640625 56 84.28125 50.015625 
Q 88.921875 44.046875 88.921875 33.015625 
L 88.921875 0 
L 79.890625 0 
L 79.890625 32.71875 
Q 79.890625 40.578125 77.09375 44.375 
Q 74.3125 48.1875 68.609375 48.1875 
Q 61.625 48.1875 57.5625 43.546875 
Q 53.515625 38.921875 53.515625 30.90625 
L 53.515625 0 
L 44.484375 0 
L 44.484375 32.71875 
Q 44.484375 40.625 41.703125 44.40625 
Q 38.921875 48.1875 33.109375 48.1875 
Q 26.21875 48.1875 22.15625 43.53125 
Q 18.109375 38.875 18.109375 30.90625 
L 18.109375 0 
L 9.078125 0 
L 9.078125 54.6875 
L 18.109375 54.6875 
L 18.109375 46.1875 
Q 21.1875 51.21875 25.484375 53.609375 
Q 29.78125 56 35.6875 56 
Q 41.65625 56 45.828125 52.96875 
Q 50 49.953125 52 44.1875 
z
" id="DejaVuSans-6d"/>
      <path d="M 56.203125 29.59375 
L 56.203125 25.203125 
L 14.890625 25.203125 
Q 15.484375 15.921875 20.484375 11.0625 
Q 25.484375 6.203125 34.421875 6.203125 
Q 39.59375 6.203125 44.453125 7.46875 
Q 49.3125 8.734375 54.109375 11.28125 
L 54.109375 2.78125 
Q 49.265625 0.734375 44.1875 -0.34375 
Q 39.109375 -1.421875 33.890625 -1.421875 
Q 20.796875 -1.421875 13.15625 6.1875 
Q 5.515625 13.8125 5.515625 26.8125 
Q 5.515625 40.234375 12.765625 48.109375 
Q 20.015625 56 32.328125 56 
Q 43.359375 56 49.78125 48.890625 
Q 56.203125 41.796875 56.203125 29.59375 
z
M 47.21875 32.234375 
Q 47.125 39.59375 43.09375 43.984375 
Q 39.0625 48.390625 32.421875 48.390625 
Q 24.90625 48.390625 20.390625 44.140625 
Q 15.875 39.890625 15.1875 32.171875 
z
" id="DejaVuSans-65"/>
      <path d="M 45.40625 46.390625 
L 45.40625 75.984375 
L 54.390625 75.984375 
L 54.390625 0 
L 45.40625 0 
L 45.40625 8.203125 
Q 42.578125 3.328125 38.25 0.953125 
Q 33.9375 -1.421875 27.875 -1.421875 
Q 17.96875 -1.421875 11.734375 6.484375 
Q 5.515625 14.40625 5.515625 27.296875 
Q 5.515625 40.1875 11.734375 48.09375 
Q 17.96875 56 27.875 56 
Q 33.9375 56 38.25 53.625 
Q 42.578125 51.265625 45.40625 46.390625 
z
M 14.796875 27.296875 
Q 14.796875 17.390625 18.875 11.75 
Q 22.953125 6.109375 30.078125 6.109375 
Q 37.203125 6.109375 41.296875 11.75 
Q 45.40625 17.390625 45.40625 27.296875 
Q 45.40625 37.203125 41.296875 42.84375 
Q 37.203125 48.484375 30.078125 48.484375 
Q 22.953125 48.484375 18.875 42.84375 
Q 14.796875 37.203125 14.796875 27.296875 
z
" id="DejaVuSans-64"/>
      <path d="M 9.421875 54.6875 
L 18.40625 54.6875 
L 18.40625 0 
L 9.421875 0 
z
M 9.421875 75.984375 
L 18.40625 75.984375 
L 18.40625 64.59375 
L 9.421875 64.59375 
z
" id="DejaVuSans-69"/>
      <path d="M 54.890625 33.015625 
L 54.890625 0 
L 45.90625 0 
L 45.90625 32.71875 
Q 45.90625 40.484375 42.875 44.328125 
Q 39.84375 48.1875 33.796875 48.1875 
Q 26.515625 48.1875 22.3125 43.546875 
Q 18.109375 38.921875 18.109375 30.90625 
L 18.109375 0 
L 9.078125 0 
L 9.078125 54.6875 
L 18.109375 54.6875 
L 18.109375 46.1875 
Q 21.34375 51.125 25.703125 53.5625 
Q 30.078125 56 35.796875 56 
Q 45.21875 56 50.046875 50.171875 
Q 54.890625 44.34375 54.890625 33.015625 
z
" id="DejaVuSans-6e"/>
     </defs>
     <g transform="translate(314.813395 190.708562)scale(0.1 -0.1)">
      <use xlink:href="#DejaVuSans-6d"/>
      <use x="97.412109" xlink:href="#DejaVuSans-65"/>
      <use x="158.935547" xlink:href="#DejaVuSans-64"/>
      <use x="222.412109" xlink:href="#DejaVuSans-69"/>
      <use x="250.195312" xlink:href="#DejaVuSans-61"/>
      <use x="311.474609" xlink:href="#DejaVuSans-6e"/>
     </g>
    </g>
   </g>
   <g id="matplotlib.axis_4">
    <g id="ytick_5">
     <g id="line2d_14">
      <g>
       <use style="stroke:#000000;stroke-width:0.8;" x="252.392727" xlink:href="#mc8bc93cf4e" y="143.99692"/>
      </g>
     </g>
     <g id="text_15">
      <!-- 10 -->
      <g transform="translate(232.667727 147.796139)scale(0.1 -0.1)">
       <use xlink:href="#DejaVuSans-31"/>
       <use x="63.623047" xlink:href="#DejaVuSans-30"/>
      </g>
     </g>
    </g>
    <g id="ytick_6">
     <g id="line2d_15">
      <g>
       <use style="stroke:#000000;stroke-width:0.8;" x="252.392727" xlink:href="#mc8bc93cf4e" y="111.654674"/>
      </g>
     </g>
     <g id="text_16">
      <!-- 15 -->
      <g transform="translate(232.667727 115.453893)scale(0.1 -0.1)">
       <use xlink:href="#DejaVuSans-31"/>
       <use x="63.623047" xlink:href="#DejaVuSans-35"/>
      </g>
     </g>
    </g>
    <g id="ytick_7">
     <g id="line2d_16">
      <g>
       <use style="stroke:#000000;stroke-width:0.8;" x="252.392727" xlink:href="#mc8bc93cf4e" y="79.312428"/>
      </g>
     </g>
     <g id="text_17">
      <!-- 20 -->
      <g transform="translate(232.667727 83.111647)scale(0.1 -0.1)">
       <use xlink:href="#DejaVuSans-32"/>
       <use x="63.623047" xlink:href="#DejaVuSans-30"/>
      </g>
     </g>
    </g>
    <g id="ytick_8">
     <g id="line2d_17">
      <g>
       <use style="stroke:#000000;stroke-width:0.8;" x="252.392727" xlink:href="#mc8bc93cf4e" y="46.970182"/>
      </g>
     </g>
     <g id="text_18">
      <!-- 25 -->
      <g transform="translate(232.667727 50.769401)scale(0.1 -0.1)">
       <use xlink:href="#DejaVuSans-32"/>
       <use x="63.623047" xlink:href="#DejaVuSans-35"/>
      </g>
     </g>
    </g>
   </g>
   <g id="line2d_18">
    <path clip-path="url(#p1c6df8e392)" d="M 259.77124 72.843979 
L 262.27243 137.528471 
L 264.773621 118.123123 
L 267.274812 105.186225 
L 269.776002 89.015102 
L 272.277193 121.357348 
L 274.778384 118.123123 
L 277.279574 98.717775 
L 279.780765 137.528471 
L 282.281955 105.186225 
L 284.783146 156.933818 
L 287.284337 105.186225 
L 289.785527 124.591572 
L 292.286718 72.843979 
L 294.787909 95.483551 
L 297.289099 111.654674 
L 299.79029 121.357348 
L 302.291481 124.591572 
L 304.792671 124.591572 
L 307.293862 124.591572 
L 309.795053 105.186225 
L 312.296243 108.420449 
L 314.797434 105.186225 
L 317.298624 124.591572 
L 319.799815 98.717775 
L 322.301006 111.654674 
L 324.802196 92.249326 
L 327.303387 98.717775 
L 329.804578 105.186225 
L 332.305768 118.123123 
L 334.806959 98.717775 
L 337.30815 92.249326 
L 339.80934 118.123123 
L 342.310531 105.186225 
L 344.811722 101.952 
L 347.312912 82.546652 
L 349.814103 111.654674 
L 352.315293 98.717775 
L 354.816484 98.717775 
L 357.317675 105.186225 
L 359.818865 95.483551 
L 362.320056 105.186225 
L 364.821247 79.312428 
L 367.322437 111.654674 
L 369.823628 111.654674 
L 372.324819 98.717775 
L 374.826009 105.186225 
L 377.3272 108.420449 
L 379.828391 114.888898 
L 382.329581 101.952 
L 384.830772 95.483551 
L 387.331962 92.249326 
L 389.833153 98.717775 
L 392.334344 98.717775 
L 394.835534 92.249326 
L 397.336725 85.780877 
L 399.837916 118.123123 
L 402.339106 46.970182 
L 404.840297 79.312428 
L 407.341488 98.717775 
" style="fill:none;stroke:#000000;stroke-dasharray:5.55,2.4;stroke-dashoffset:0;stroke-width:1.5;"/>
    <g clip-path="url(#p1c6df8e392)">
     <use style="stroke:#000000;" x="259.77124" xlink:href="#m5f21f1e810" y="72.843979"/>
     <use style="stroke:#000000;" x="262.27243" xlink:href="#m5f21f1e810" y="137.528471"/>
     <use style="stroke:#000000;" x="264.773621" xlink:href="#m5f21f1e810" y="118.123123"/>
     <use style="stroke:#000000;" x="267.274812" xlink:href="#m5f21f1e810" y="105.186225"/>
     <use style="stroke:#000000;" x="269.776002" xlink:href="#m5f21f1e810" y="89.015102"/>
     <use style="stroke:#000000;" x="272.277193" xlink:href="#m5f21f1e810" y="121.357348"/>
     <use style="stroke:#000000;" x="274.778384" xlink:href="#m5f21f1e810" y="118.123123"/>
     <use style="stroke:#000000;" x="277.279574" xlink:href="#m5f21f1e810" y="98.717775"/>
     <use style="stroke:#000000;" x="279.780765" xlink:href="#m5f21f1e810" y="137.528471"/>
     <use style="stroke:#000000;" x="282.281955" xlink:href="#m5f21f1e810" y="105.186225"/>
     <use style="stroke:#000000;" x="284.783146" xlink:href="#m5f21f1e810" y="156.933818"/>
     <use style="stroke:#000000;" x="287.284337" xlink:href="#m5f21f1e810" y="105.186225"/>
     <use style="stroke:#000000;" x="289.785527" xlink:href="#m5f21f1e810" y="124.591572"/>
     <use style="stroke:#000000;" x="292.286718" xlink:href="#m5f21f1e810" y="72.843979"/>
     <use style="stroke:#000000;" x="294.787909" xlink:href="#m5f21f1e810" y="95.483551"/>
     <use style="stroke:#000000;" x="297.289099" xlink:href="#m5f21f1e810" y="111.654674"/>
     <use style="stroke:#000000;" x="299.79029" xlink:href="#m5f21f1e810" y="121.357348"/>
     <use style="stroke:#000000;" x="302.291481" xlink:href="#m5f21f1e810" y="124.591572"/>
     <use style="stroke:#000000;" x="304.792671" xlink:href="#m5f21f1e810" y="124.591572"/>
     <use style="stroke:#000000;" x="307.293862" xlink:href="#m5f21f1e810" y="124.591572"/>
     <use style="stroke:#000000;" x="309.795053" xlink:href="#m5f21f1e810" y="105.186225"/>
     <use style="stroke:#000000;" x="312.296243" xlink:href="#m5f21f1e810" y="108.420449"/>
     <use style="stroke:#000000;" x="314.797434" xlink:href="#m5f21f1e810" y="105.186225"/>
     <use style="stroke:#000000;" x="317.298624" xlink:href="#m5f21f1e810" y="124.591572"/>
     <use style="stroke:#000000;" x="319.799815" xlink:href="#m5f21f1e810" y="98.717775"/>
     <use style="stroke:#000000;" x="322.301006" xlink:href="#m5f21f1e810" y="111.654674"/>
     <use style="stroke:#000000;" x="324.802196" xlink:href="#m5f21f1e810" y="92.249326"/>
     <use style="stroke:#000000;" x="327.303387" xlink:href="#m5f21f1e810" y="98.717775"/>
     <use style="stroke:#000000;" x="329.804578" xlink:href="#m5f21f1e810" y="105.186225"/>
     <use style="stroke:#000000;" x="332.305768" xlink:href="#m5f21f1e810" y="118.123123"/>
     <use style="stroke:#000000;" x="334.806959" xlink:href="#m5f21f1e810" y="98.717775"/>
     <use style="stroke:#000000;" x="337.30815" xlink:href="#m5f21f1e810" y="92.249326"/>
     <use style="stroke:#000000;" x="339.80934" xlink:href="#m5f21f1e810" y="118.123123"/>
     <use style="stroke:#000000;" x="342.310531" xlink:href="#m5f21f1e810" y="105.186225"/>
     <use style="stroke:#000000;" x="344.811722" xlink:href="#m5f21f1e810" y="101.952"/>
     <use style="stroke:#000000;" x="347.312912" xlink:href="#m5f21f1e810" y="82.546652"/>
     <use style="stroke:#000000;" x="349.814103" xlink:href="#m5f21f1e810" y="111.654674"/>
     <use style="stroke:#000000;" x="352.315293" xlink:href="#m5f21f1e810" y="98.717775"/>
     <use style="stroke:#000000;" x="354.816484" xlink:href="#m5f21f1e810" y="98.717775"/>
     <use style="stroke:#000000;" x="357.317675" xlink:href="#m5f21f1e810" y="105.186225"/>
     <use style="stroke:#000000;" x="359.818865" xlink:href="#m5f21f1e810" y="95.483551"/>
     <use style="stroke:#000000;" x="362.320056" xlink:href="#m5f21f1e810" y="105.186225"/>
     <use style="stroke:#000000;" x="364.821247" xlink:href="#m5f21f1e810" y="79.312428"/>
     <use style="stroke:#000000;" x="367.322437" xlink:href="#m5f21f1e810" y="111.654674"/>
     <use style="stroke:#000000;" x="369.823628" xlink:href="#m5f21f1e810" y="111.654674"/>
     <use style="stroke:#000000;" x="372.324819" xlink:href="#m5f21f1e810" y="98.717775"/>
     <use style="stroke:#000000;" x="374.826009" xlink:href="#m5f21f1e810" y="105.186225"/>
     <use style="stroke:#000000;" x="377.3272" xlink:href="#m5f21f1e810" y="108.420449"/>
     <use style="stroke:#000000;" x="379.828391" xlink:href="#m5f21f1e810" y="114.888898"/>
     <use style="stroke:#000000;" x="382.329581" xlink:href="#m5f21f1e810" y="101.952"/>
     <use style="stroke:#000000;" x="384.830772" xlink:href="#m5f21f1e810" y="95.483551"/>
     <use style="stroke:#000000;" x="387.331962" xlink:href="#m5f21f1e810" y="92.249326"/>
     <use style="stroke:#000000;" x="389.833153" xlink:href="#m5f21f1e810" y="98.717775"/>
     <use style="stroke:#000000;" x="392.334344" xlink:href="#m5f21f1e810" y="98.717775"/>
     <use style="stroke:#000000;" x="394.835534" xlink:href="#m5f21f1e810" y="92.249326"/>
     <use style="stroke:#000000;" x="397.336725" xlink:href="#m5f21f1e810" y="85.780877"/>
     <use style="stroke:#000000;" x="399.837916" xlink:href="#m5f21f1e810" y="118.123123"/>
     <use style="stroke:#000000;" x="402.339106" xlink:href="#m5f21f1e810" y="46.970182"/>
     <use style="stroke:#000000;" x="404.840297" xlink:href="#m5f21f1e810" y="79.312428"/>
     <use style="stroke:#000000;" x="407.341488" xlink:href="#m5f21f1e810" y="98.717775"/>
    </g>
   </g>
   <g id="patch_8">
    <path d="M 252.392727 162.432 
L 252.392727 41.472 
" style="fill:none;stroke:#000000;stroke-linecap:square;stroke-linejoin:miter;stroke-width:0.8;"/>
   </g>
   <g id="patch_9">
    <path d="M 414.72 162.432 
L 414.72 41.472 
" style="fill:none;stroke:#000000;stroke-linecap:square;stroke-linejoin:miter;stroke-width:0.8;"/>
   </g>
   <g id="patch_10">
    <path d="M 252.392727 162.432 
L 414.72 162.432 
" style="fill:none;stroke:#000000;stroke-linecap:square;stroke-linejoin:miter;stroke-width:0.8;"/>
   </g>
   <g id="patch_11">
    <path d="M 252.392727 41.472 
L 414.72 41.472 
" style="fill:none;stroke:#000000;stroke-linecap:square;stroke-linejoin:miter;stroke-width:0.8;"/>
   </g>
  </g>
  <g id="axes_3">
   <g id="patch_12">
    <path d="M 57.6 307.584 
L 219.927273 307.584 
L 219.927273 186.624 
L 57.6 186.624 
z
" style="fill:#ffffff;"/>
   </g>
   <g id="matplotlib.axis_5">
    <g id="xtick_9">
     <g id="line2d_19">
      <g>
       <use style="stroke:#000000;stroke-width:0.8;" x="64.978512" xlink:href="#m4a9d1b0ec6" y="307.584"/>
      </g>
     </g>
     <g id="text_19">
      <!-- 0 -->
      <g transform="translate(61.797262 322.182437)scale(0.1 -0.1)">
       <use xlink:href="#DejaVuSans-30"/>
      </g>
     </g>
    </g>
    <g id="xtick_10">
     <g id="line2d_20">
      <g>
       <use style="stroke:#000000;stroke-width:0.8;" x="115.002325" xlink:href="#m4a9d1b0ec6" y="307.584"/>
      </g>
     </g>
     <g id="text_20">
      <!-- 20 -->
      <g transform="translate(108.639825 322.182437)scale(0.1 -0.1)">
       <use xlink:href="#DejaVuSans-32"/>
       <use x="63.623047" xlink:href="#DejaVuSans-30"/>
      </g>
     </g>
    </g>
    <g id="xtick_11">
     <g id="line2d_21">
      <g>
       <use style="stroke:#000000;stroke-width:0.8;" x="165.026138" xlink:href="#m4a9d1b0ec6" y="307.584"/>
      </g>
     </g>
     <g id="text_21">
      <!-- 40 -->
      <g transform="translate(158.663638 322.182437)scale(0.1 -0.1)">
       <use xlink:href="#DejaVuSans-34"/>
       <use x="63.623047" xlink:href="#DejaVuSans-30"/>
      </g>
     </g>
    </g>
    <g id="xtick_12">
     <g id="line2d_22">
      <g>
       <use style="stroke:#000000;stroke-width:0.8;" x="215.049951" xlink:href="#m4a9d1b0ec6" y="307.584"/>
      </g>
     </g>
     <g id="text_22">
      <!-- 60 -->
      <g transform="translate(208.687451 322.182437)scale(0.1 -0.1)">
       <use xlink:href="#DejaVuSans-36"/>
       <use x="63.623047" xlink:href="#DejaVuSans-30"/>
      </g>
     </g>
    </g>
    <g id="text_23">
     <!-- std -->
     <defs>
      <path d="M 44.28125 53.078125 
L 44.28125 44.578125 
Q 40.484375 46.53125 36.375 47.5 
Q 32.28125 48.484375 27.875 48.484375 
Q 21.1875 48.484375 17.84375 46.4375 
Q 14.5 44.390625 14.5 40.28125 
Q 14.5 37.15625 16.890625 35.375 
Q 19.28125 33.59375 26.515625 31.984375 
L 29.59375 31.296875 
Q 39.15625 29.25 43.1875 25.515625 
Q 47.21875 21.78125 47.21875 15.09375 
Q 47.21875 7.46875 41.1875 3.015625 
Q 35.15625 -1.421875 24.609375 -1.421875 
Q 20.21875 -1.421875 15.453125 -0.5625 
Q 10.6875 0.296875 5.421875 2 
L 5.421875 11.28125 
Q 10.40625 8.6875 15.234375 7.390625 
Q 20.0625 6.109375 24.8125 6.109375 
Q 31.15625 6.109375 34.5625 8.28125 
Q 37.984375 10.453125 37.984375 14.40625 
Q 37.984375 18.0625 35.515625 20.015625 
Q 33.0625 21.96875 24.703125 23.78125 
L 21.578125 24.515625 
Q 13.234375 26.265625 9.515625 29.90625 
Q 5.8125 33.546875 5.8125 39.890625 
Q 5.8125 47.609375 11.28125 51.796875 
Q 16.75 56 26.8125 56 
Q 31.78125 56 36.171875 55.265625 
Q 40.578125 54.546875 44.28125 53.078125 
z
" id="DejaVuSans-73"/>
      <path d="M 18.3125 70.21875 
L 18.3125 54.6875 
L 36.8125 54.6875 
L 36.8125 47.703125 
L 18.3125 47.703125 
L 18.3125 18.015625 
Q 18.3125 11.328125 20.140625 9.421875 
Q 21.96875 7.515625 27.59375 7.515625 
L 36.8125 7.515625 
L 36.8125 0 
L 27.59375 0 
Q 17.1875 0 13.234375 3.875 
Q 9.28125 7.765625 9.28125 18.015625 
L 9.28125 47.703125 
L 2.6875 47.703125 
L 2.6875 54.6875 
L 9.28125 54.6875 
L 9.28125 70.21875 
z
" id="DejaVuSans-74"/>
     </defs>
     <g transform="translate(131.024574 335.860562)scale(0.1 -0.1)">
      <use xlink:href="#DejaVuSans-73"/>
      <use x="52.099609" xlink:href="#DejaVuSans-74"/>
      <use x="91.308594" xlink:href="#DejaVuSans-64"/>
     </g>
    </g>
   </g>
   <g id="matplotlib.axis_6">
    <g id="ytick_9">
     <g id="line2d_23">
      <g>
       <use style="stroke:#000000;stroke-width:0.8;" x="57.6" xlink:href="#mc8bc93cf4e" y="301.245599"/>
      </g>
     </g>
     <g id="text_24">
      <!-- 4 -->
      <g transform="translate(44.2375 305.044818)scale(0.1 -0.1)">
       <use xlink:href="#DejaVuSans-34"/>
      </g>
     </g>
    </g>
    <g id="ytick_10">
     <g id="line2d_24">
      <g>
       <use style="stroke:#000000;stroke-width:0.8;" x="57.6" xlink:href="#mc8bc93cf4e" y="280.240129"/>
      </g>
     </g>
     <g id="text_25">
      <!-- 6 -->
      <g transform="translate(44.2375 284.039348)scale(0.1 -0.1)">
       <use xlink:href="#DejaVuSans-36"/>
      </g>
     </g>
    </g>
    <g id="ytick_11">
     <g id="line2d_25">
      <g>
       <use style="stroke:#000000;stroke-width:0.8;" x="57.6" xlink:href="#mc8bc93cf4e" y="259.234659"/>
      </g>
     </g>
     <g id="text_26">
      <!-- 8 -->
      <defs>
       <path d="M 31.78125 34.625 
Q 24.75 34.625 20.71875 30.859375 
Q 16.703125 27.09375 16.703125 20.515625 
Q 16.703125 13.921875 20.71875 10.15625 
Q 24.75 6.390625 31.78125 6.390625 
Q 38.8125 6.390625 42.859375 10.171875 
Q 46.921875 13.96875 46.921875 20.515625 
Q 46.921875 27.09375 42.890625 30.859375 
Q 38.875 34.625 31.78125 34.625 
z
M 21.921875 38.8125 
Q 15.578125 40.375 12.03125 44.71875 
Q 8.5 49.078125 8.5 55.328125 
Q 8.5 64.0625 14.71875 69.140625 
Q 20.953125 74.21875 31.78125 74.21875 
Q 42.671875 74.21875 48.875 69.140625 
Q 55.078125 64.0625 55.078125 55.328125 
Q 55.078125 49.078125 51.53125 44.71875 
Q 48 40.375 41.703125 38.8125 
Q 48.828125 37.15625 52.796875 32.3125 
Q 56.78125 27.484375 56.78125 20.515625 
Q 56.78125 9.90625 50.3125 4.234375 
Q 43.84375 -1.421875 31.78125 -1.421875 
Q 19.734375 -1.421875 13.25 4.234375 
Q 6.78125 9.90625 6.78125 20.515625 
Q 6.78125 27.484375 10.78125 32.3125 
Q 14.796875 37.15625 21.921875 38.8125 
z
M 18.3125 54.390625 
Q 18.3125 48.734375 21.84375 45.5625 
Q 25.390625 42.390625 31.78125 42.390625 
Q 38.140625 42.390625 41.71875 45.5625 
Q 45.3125 48.734375 45.3125 54.390625 
Q 45.3125 60.0625 41.71875 63.234375 
Q 38.140625 66.40625 31.78125 66.40625 
Q 25.390625 66.40625 21.84375 63.234375 
Q 18.3125 60.0625 18.3125 54.390625 
z
" id="DejaVuSans-38"/>
      </defs>
      <g transform="translate(44.2375 263.033878)scale(0.1 -0.1)">
       <use xlink:href="#DejaVuSans-38"/>
      </g>
     </g>
    </g>
    <g id="ytick_12">
     <g id="line2d_26">
      <g>
       <use style="stroke:#000000;stroke-width:0.8;" x="57.6" xlink:href="#mc8bc93cf4e" y="238.229189"/>
      </g>
     </g>
     <g id="text_27">
      <!-- 10 -->
      <g transform="translate(37.875 242.028408)scale(0.1 -0.1)">
       <use xlink:href="#DejaVuSans-31"/>
       <use x="63.623047" xlink:href="#DejaVuSans-30"/>
      </g>
     </g>
    </g>
    <g id="ytick_13">
     <g id="line2d_27">
      <g>
       <use style="stroke:#000000;stroke-width:0.8;" x="57.6" xlink:href="#mc8bc93cf4e" y="217.223719"/>
      </g>
     </g>
     <g id="text_28">
      <!-- 12 -->
      <g transform="translate(37.875 221.022937)scale(0.1 -0.1)">
       <use xlink:href="#DejaVuSans-31"/>
       <use x="63.623047" xlink:href="#DejaVuSans-32"/>
      </g>
     </g>
    </g>
    <g id="ytick_14">
     <g id="line2d_28">
      <g>
       <use style="stroke:#000000;stroke-width:0.8;" x="57.6" xlink:href="#mc8bc93cf4e" y="196.218249"/>
      </g>
     </g>
     <g id="text_29">
      <!-- 14 -->
      <g transform="translate(37.875 200.017467)scale(0.1 -0.1)">
       <use xlink:href="#DejaVuSans-31"/>
       <use x="63.623047" xlink:href="#DejaVuSans-34"/>
      </g>
     </g>
    </g>
   </g>
   <g id="line2d_29">
    <path clip-path="url(#p4cee2fda6d)" d="M 64.978512 280.135102 
L 67.479703 272.258051 
L 69.980894 291.478056 
L 72.482084 247.471596 
L 74.983275 261.335206 
L 77.484466 278.349637 
L 79.985656 261.860343 
L 82.486847 282.550731 
L 84.988038 285.806579 
L 87.489228 283.601004 
L 89.990419 273.203297 
L 92.491609 278.139582 
L 94.9928 282.445704 
L 97.493991 241.274982 
L 99.995181 280.975321 
L 102.496372 302.085818 
L 104.997563 266.796628 
L 107.498753 285.491497 
L 109.999944 277.8245 
L 112.501135 267.53182 
L 115.002325 296.729423 
L 117.503516 246.841432 
L 120.004707 272.047996 
L 122.505897 250.727444 
L 125.007088 285.071387 
L 127.508278 265.116191 
L 130.009469 239.804599 
L 132.51066 266.061437 
L 135.01185 276.144063 
L 137.513041 285.911606 
L 140.014232 277.089309 
L 142.515422 293.053466 
L 145.016613 282.445704 
L 147.517804 280.345157 
L 150.018994 263.225698 
L 152.520185 273.098269 
L 155.021376 278.139582 
L 157.522566 287.381989 
L 160.023757 279.294883 
L 162.524947 263.750835 
L 165.026138 256.924057 
L 167.527329 273.833461 
L 170.028519 297.359587 
L 172.52971 267.426792 
L 175.030901 291.68811 
L 177.532091 257.239139 
L 180.033282 237.283943 
L 182.534473 282.760786 
L 185.035663 245.686131 
L 187.536854 227.726454 
L 190.038045 213.127652 
L 192.539235 267.846902 
L 195.040426 273.308324 
L 197.541616 269.737394 
L 200.042807 268.267011 
L 202.543998 233.292903 
L 205.045188 250.622416 
L 207.546379 192.122182 
L 210.04757 242.53531 
L 212.54876 218.273992 
" style="fill:none;stroke:#000000;stroke-dasharray:5.55,2.4;stroke-dashoffset:0;stroke-width:1.5;"/>
    <g clip-path="url(#p4cee2fda6d)">
     <use style="stroke:#000000;" x="64.978512" xlink:href="#m5f21f1e810" y="280.135102"/>
     <use style="stroke:#000000;" x="67.479703" xlink:href="#m5f21f1e810" y="272.258051"/>
     <use style="stroke:#000000;" x="69.980894" xlink:href="#m5f21f1e810" y="291.478056"/>
     <use style="stroke:#000000;" x="72.482084" xlink:href="#m5f21f1e810" y="247.471596"/>
     <use style="stroke:#000000;" x="74.983275" xlink:href="#m5f21f1e810" y="261.335206"/>
     <use style="stroke:#000000;" x="77.484466" xlink:href="#m5f21f1e810" y="278.349637"/>
     <use style="stroke:#000000;" x="79.985656" xlink:href="#m5f21f1e810" y="261.860343"/>
     <use style="stroke:#000000;" x="82.486847" xlink:href="#m5f21f1e810" y="282.550731"/>
     <use style="stroke:#000000;" x="84.988038" xlink:href="#m5f21f1e810" y="285.806579"/>
     <use style="stroke:#000000;" x="87.489228" xlink:href="#m5f21f1e810" y="283.601004"/>
     <use style="stroke:#000000;" x="89.990419" xlink:href="#m5f21f1e810" y="273.203297"/>
     <use style="stroke:#000000;" x="92.491609" xlink:href="#m5f21f1e810" y="278.139582"/>
     <use style="stroke:#000000;" x="94.9928" xlink:href="#m5f21f1e810" y="282.445704"/>
     <use style="stroke:#000000;" x="97.493991" xlink:href="#m5f21f1e810" y="241.274982"/>
     <use style="stroke:#000000;" x="99.995181" xlink:href="#m5f21f1e810" y="280.975321"/>
     <use style="stroke:#000000;" x="102.496372" xlink:href="#m5f21f1e810" y="302.085818"/>
     <use style="stroke:#000000;" x="104.997563" xlink:href="#m5f21f1e810" y="266.796628"/>
     <use style="stroke:#000000;" x="107.498753" xlink:href="#m5f21f1e810" y="285.491497"/>
     <use style="stroke:#000000;" x="109.999944" xlink:href="#m5f21f1e810" y="277.8245"/>
     <use style="stroke:#000000;" x="112.501135" xlink:href="#m5f21f1e810" y="267.53182"/>
     <use style="stroke:#000000;" x="115.002325" xlink:href="#m5f21f1e810" y="296.729423"/>
     <use style="stroke:#000000;" x="117.503516" xlink:href="#m5f21f1e810" y="246.841432"/>
     <use style="stroke:#000000;" x="120.004707" xlink:href="#m5f21f1e810" y="272.047996"/>
     <use style="stroke:#000000;" x="122.505897" xlink:href="#m5f21f1e810" y="250.727444"/>
     <use style="stroke:#000000;" x="125.007088" xlink:href="#m5f21f1e810" y="285.071387"/>
     <use style="stroke:#000000;" x="127.508278" xlink:href="#m5f21f1e810" y="265.116191"/>
     <use style="stroke:#000000;" x="130.009469" xlink:href="#m5f21f1e810" y="239.804599"/>
     <use style="stroke:#000000;" x="132.51066" xlink:href="#m5f21f1e810" y="266.061437"/>
     <use style="stroke:#000000;" x="135.01185" xlink:href="#m5f21f1e810" y="276.144063"/>
     <use style="stroke:#000000;" x="137.513041" xlink:href="#m5f21f1e810" y="285.911606"/>
     <use style="stroke:#000000;" x="140.014232" xlink:href="#m5f21f1e810" y="277.089309"/>
     <use style="stroke:#000000;" x="142.515422" xlink:href="#m5f21f1e810" y="293.053466"/>
     <use style="stroke:#000000;" x="145.016613" xlink:href="#m5f21f1e810" y="282.445704"/>
     <use style="stroke:#000000;" x="147.517804" xlink:href="#m5f21f1e810" y="280.345157"/>
     <use style="stroke:#000000;" x="150.018994" xlink:href="#m5f21f1e810" y="263.225698"/>
     <use style="stroke:#000000;" x="152.520185" xlink:href="#m5f21f1e810" y="273.098269"/>
     <use style="stroke:#000000;" x="155.021376" xlink:href="#m5f21f1e810" y="278.139582"/>
     <use style="stroke:#000000;" x="157.522566" xlink:href="#m5f21f1e810" y="287.381989"/>
     <use style="stroke:#000000;" x="160.023757" xlink:href="#m5f21f1e810" y="279.294883"/>
     <use style="stroke:#000000;" x="162.524947" xlink:href="#m5f21f1e810" y="263.750835"/>
     <use style="stroke:#000000;" x="165.026138" xlink:href="#m5f21f1e810" y="256.924057"/>
     <use style="stroke:#000000;" x="167.527329" xlink:href="#m5f21f1e810" y="273.833461"/>
     <use style="stroke:#000000;" x="170.028519" xlink:href="#m5f21f1e810" y="297.359587"/>
     <use style="stroke:#000000;" x="172.52971" xlink:href="#m5f21f1e810" y="267.426792"/>
     <use style="stroke:#000000;" x="175.030901" xlink:href="#m5f21f1e810" y="291.68811"/>
     <use style="stroke:#000000;" x="177.532091" xlink:href="#m5f21f1e810" y="257.239139"/>
     <use style="stroke:#000000;" x="180.033282" xlink:href="#m5f21f1e810" y="237.283943"/>
     <use style="stroke:#000000;" x="182.534473" xlink:href="#m5f21f1e810" y="282.760786"/>
     <use style="stroke:#000000;" x="185.035663" xlink:href="#m5f21f1e810" y="245.686131"/>
     <use style="stroke:#000000;" x="187.536854" xlink:href="#m5f21f1e810" y="227.726454"/>
     <use style="stroke:#000000;" x="190.038045" xlink:href="#m5f21f1e810" y="213.127652"/>
     <use style="stroke:#000000;" x="192.539235" xlink:href="#m5f21f1e810" y="267.846902"/>
     <use style="stroke:#000000;" x="195.040426" xlink:href="#m5f21f1e810" y="273.308324"/>
     <use style="stroke:#000000;" x="197.541616" xlink:href="#m5f21f1e810" y="269.737394"/>
     <use style="stroke:#000000;" x="200.042807" xlink:href="#m5f21f1e810" y="268.267011"/>
     <use style="stroke:#000000;" x="202.543998" xlink:href="#m5f21f1e810" y="233.292903"/>
     <use style="stroke:#000000;" x="205.045188" xlink:href="#m5f21f1e810" y="250.622416"/>
     <use style="stroke:#000000;" x="207.546379" xlink:href="#m5f21f1e810" y="192.122182"/>
     <use style="stroke:#000000;" x="210.04757" xlink:href="#m5f21f1e810" y="242.53531"/>
     <use style="stroke:#000000;" x="212.54876" xlink:href="#m5f21f1e810" y="218.273992"/>
    </g>
   </g>
   <g id="patch_13">
    <path d="M 57.6 307.584 
L 57.6 186.624 
" style="fill:none;stroke:#000000;stroke-linecap:square;stroke-linejoin:miter;stroke-width:0.8;"/>
   </g>
   <g id="patch_14">
    <path d="M 219.927273 307.584 
L 219.927273 186.624 
" style="fill:none;stroke:#000000;stroke-linecap:square;stroke-linejoin:miter;stroke-width:0.8;"/>
   </g>
   <g id="patch_15">
    <path d="M 57.6 307.584 
L 219.927273 307.584 
" style="fill:none;stroke:#000000;stroke-linecap:square;stroke-linejoin:miter;stroke-width:0.8;"/>
   </g>
   <g id="patch_16">
    <path d="M 57.6 186.624 
L 219.927273 186.624 
" style="fill:none;stroke:#000000;stroke-linecap:square;stroke-linejoin:miter;stroke-width:0.8;"/>
   </g>
  </g>
  <g id="axes_4">
   <g id="patch_17">
    <path d="M 252.392727 307.584 
L 414.72 307.584 
L 414.72 186.624 
L 252.392727 186.624 
z
" style="fill:#ffffff;"/>
   </g>
   <g id="matplotlib.axis_7">
    <g id="xtick_13">
     <g id="line2d_30">
      <g>
       <use style="stroke:#000000;stroke-width:0.8;" x="259.77124" xlink:href="#m4a9d1b0ec6" y="307.584"/>
      </g>
     </g>
     <g id="text_30">
      <!-- 0 -->
      <g transform="translate(256.58999 322.182437)scale(0.1 -0.1)">
       <use xlink:href="#DejaVuSans-30"/>
      </g>
     </g>
    </g>
    <g id="xtick_14">
     <g id="line2d_31">
      <g>
       <use style="stroke:#000000;stroke-width:0.8;" x="309.795053" xlink:href="#m4a9d1b0ec6" y="307.584"/>
      </g>
     </g>
     <g id="text_31">
      <!-- 20 -->
      <g transform="translate(303.432553 322.182437)scale(0.1 -0.1)">
       <use xlink:href="#DejaVuSans-32"/>
       <use x="63.623047" xlink:href="#DejaVuSans-30"/>
      </g>
     </g>
    </g>
    <g id="xtick_15">
     <g id="line2d_32">
      <g>
       <use style="stroke:#000000;stroke-width:0.8;" x="359.818865" xlink:href="#m4a9d1b0ec6" y="307.584"/>
      </g>
     </g>
     <g id="text_32">
      <!-- 40 -->
      <g transform="translate(353.456365 322.182437)scale(0.1 -0.1)">
       <use xlink:href="#DejaVuSans-34"/>
       <use x="63.623047" xlink:href="#DejaVuSans-30"/>
      </g>
     </g>
    </g>
    <g id="xtick_16">
     <g id="line2d_33">
      <g>
       <use style="stroke:#000000;stroke-width:0.8;" x="409.842678" xlink:href="#m4a9d1b0ec6" y="307.584"/>
      </g>
     </g>
     <g id="text_33">
      <!-- 60 -->
      <g transform="translate(403.480178 322.182437)scale(0.1 -0.1)">
       <use xlink:href="#DejaVuSans-36"/>
       <use x="63.623047" xlink:href="#DejaVuSans-30"/>
      </g>
     </g>
    </g>
    <g id="text_34">
     <!-- passive_cnt -->
     <defs>
      <path d="M 18.109375 8.203125 
L 18.109375 -20.796875 
L 9.078125 -20.796875 
L 9.078125 54.6875 
L 18.109375 54.6875 
L 18.109375 46.390625 
Q 20.953125 51.265625 25.265625 53.625 
Q 29.59375 56 35.59375 56 
Q 45.5625 56 51.78125 48.09375 
Q 58.015625 40.1875 58.015625 27.296875 
Q 58.015625 14.40625 51.78125 6.484375 
Q 45.5625 -1.421875 35.59375 -1.421875 
Q 29.59375 -1.421875 25.265625 0.953125 
Q 20.953125 3.328125 18.109375 8.203125 
z
M 48.6875 27.296875 
Q 48.6875 37.203125 44.609375 42.84375 
Q 40.53125 48.484375 33.40625 48.484375 
Q 26.265625 48.484375 22.1875 42.84375 
Q 18.109375 37.203125 18.109375 27.296875 
Q 18.109375 17.390625 22.1875 11.75 
Q 26.265625 6.109375 33.40625 6.109375 
Q 40.53125 6.109375 44.609375 11.75 
Q 48.6875 17.390625 48.6875 27.296875 
z
" id="DejaVuSans-70"/>
      <path d="M 50.984375 -16.609375 
L 50.984375 -23.578125 
L -0.984375 -23.578125 
L -0.984375 -16.609375 
z
" id="DejaVuSans-5f"/>
      <path d="M 48.78125 52.59375 
L 48.78125 44.1875 
Q 44.96875 46.296875 41.140625 47.34375 
Q 37.3125 48.390625 33.40625 48.390625 
Q 24.65625 48.390625 19.8125 42.84375 
Q 14.984375 37.3125 14.984375 27.296875 
Q 14.984375 17.28125 19.8125 11.734375 
Q 24.65625 6.203125 33.40625 6.203125 
Q 37.3125 6.203125 41.140625 7.25 
Q 44.96875 8.296875 48.78125 10.40625 
L 48.78125 2.09375 
Q 45.015625 0.34375 40.984375 -0.53125 
Q 36.96875 -1.421875 32.421875 -1.421875 
Q 20.0625 -1.421875 12.78125 6.34375 
Q 5.515625 14.109375 5.515625 27.296875 
Q 5.515625 40.671875 12.859375 48.328125 
Q 20.21875 56 33.015625 56 
Q 37.15625 56 41.109375 55.140625 
Q 45.0625 54.296875 48.78125 52.59375 
z
" id="DejaVuSans-63"/>
     </defs>
     <g transform="translate(304.305582 335.860562)scale(0.1 -0.1)">
      <use xlink:href="#DejaVuSans-70"/>
      <use x="63.476562" xlink:href="#DejaVuSans-61"/>
      <use x="124.755859" xlink:href="#DejaVuSans-73"/>
      <use x="176.855469" xlink:href="#DejaVuSans-73"/>
      <use x="228.955078" xlink:href="#DejaVuSans-69"/>
      <use x="256.738281" xlink:href="#DejaVuSans-76"/>
      <use x="315.917969" xlink:href="#DejaVuSans-65"/>
      <use x="377.441406" xlink:href="#DejaVuSans-5f"/>
      <use x="427.441406" xlink:href="#DejaVuSans-63"/>
      <use x="482.421875" xlink:href="#DejaVuSans-6e"/>
      <use x="545.800781" xlink:href="#DejaVuSans-74"/>
     </g>
    </g>
   </g>
   <g id="matplotlib.axis_8">
    <g id="ytick_15">
     <g id="line2d_34">
      <g>
       <use style="stroke:#000000;stroke-width:0.8;" x="252.392727" xlink:href="#mc8bc93cf4e" y="302.085818"/>
      </g>
     </g>
     <g id="text_35">
      <!-- 0 -->
      <g transform="translate(239.030227 305.885037)scale(0.1 -0.1)">
       <use xlink:href="#DejaVuSans-30"/>
      </g>
     </g>
    </g>
    <g id="ytick_16">
     <g id="line2d_35">
      <g>
       <use style="stroke:#000000;stroke-width:0.8;" x="252.392727" xlink:href="#mc8bc93cf4e" y="267.722182"/>
      </g>
     </g>
     <g id="text_36">
      <!-- 5 -->
      <g transform="translate(239.030227 271.521401)scale(0.1 -0.1)">
       <use xlink:href="#DejaVuSans-35"/>
      </g>
     </g>
    </g>
    <g id="ytick_17">
     <g id="line2d_36">
      <g>
       <use style="stroke:#000000;stroke-width:0.8;" x="252.392727" xlink:href="#mc8bc93cf4e" y="233.358545"/>
      </g>
     </g>
     <g id="text_37">
      <!-- 10 -->
      <g transform="translate(232.667727 237.157764)scale(0.1 -0.1)">
       <use xlink:href="#DejaVuSans-31"/>
       <use x="63.623047" xlink:href="#DejaVuSans-30"/>
      </g>
     </g>
    </g>
    <g id="ytick_18">
     <g id="line2d_37">
      <g>
       <use style="stroke:#000000;stroke-width:0.8;" x="252.392727" xlink:href="#mc8bc93cf4e" y="198.994909"/>
      </g>
     </g>
     <g id="text_38">
      <!-- 15 -->
      <g transform="translate(232.667727 202.794128)scale(0.1 -0.1)">
       <use xlink:href="#DejaVuSans-31"/>
       <use x="63.623047" xlink:href="#DejaVuSans-35"/>
      </g>
     </g>
    </g>
   </g>
   <g id="line2d_38">
    <path clip-path="url(#p0fd285e98d)" d="M 259.77124 240.231273 
L 262.27243 274.594909 
L 264.773621 212.740364 
L 267.274812 274.594909 
L 269.776002 260.849455 
L 272.277193 260.849455 
L 274.778384 302.085818 
L 277.279574 247.104 
L 279.780765 281.467636 
L 282.281955 233.358545 
L 284.783146 253.976727 
L 287.284337 267.722182 
L 289.785527 267.722182 
L 292.286718 274.594909 
L 294.787909 267.722182 
L 297.289099 260.849455 
L 299.79029 247.104 
L 302.291481 253.976727 
L 304.792671 260.849455 
L 307.293862 267.722182 
L 309.795053 198.994909 
L 312.296243 267.722182 
L 314.797434 233.358545 
L 317.298624 247.104 
L 319.799815 233.358545 
L 322.301006 267.722182 
L 324.802196 274.594909 
L 327.303387 240.231273 
L 329.804578 240.231273 
L 332.305768 226.485818 
L 334.806959 240.231273 
L 337.30815 205.867636 
L 339.80934 247.104 
L 342.310531 253.976727 
L 344.811722 212.740364 
L 347.312912 233.358545 
L 349.814103 240.231273 
L 352.315293 219.613091 
L 354.816484 267.722182 
L 357.317675 260.849455 
L 359.818865 253.976727 
L 362.320056 226.485818 
L 364.821247 192.122182 
L 367.322437 219.613091 
L 369.823628 240.231273 
L 372.324819 226.485818 
L 374.826009 247.104 
L 377.3272 219.613091 
L 379.828391 219.613091 
L 382.329581 253.976727 
L 384.830772 233.358545 
L 387.331962 233.358545 
L 389.833153 198.994909 
L 392.334344 226.485818 
L 394.835534 226.485818 
L 397.336725 240.231273 
L 399.837916 233.358545 
L 402.339106 198.994909 
L 404.840297 233.358545 
L 407.341488 205.867636 
" style="fill:none;stroke:#000000;stroke-dasharray:5.55,2.4;stroke-dashoffset:0;stroke-width:1.5;"/>
    <g clip-path="url(#p0fd285e98d)">
     <use style="stroke:#000000;" x="259.77124" xlink:href="#m5f21f1e810" y="240.231273"/>
     <use style="stroke:#000000;" x="262.27243" xlink:href="#m5f21f1e810" y="274.594909"/>
     <use style="stroke:#000000;" x="264.773621" xlink:href="#m5f21f1e810" y="212.740364"/>
     <use style="stroke:#000000;" x="267.274812" xlink:href="#m5f21f1e810" y="274.594909"/>
     <use style="stroke:#000000;" x="269.776002" xlink:href="#m5f21f1e810" y="260.849455"/>
     <use style="stroke:#000000;" x="272.277193" xlink:href="#m5f21f1e810" y="260.849455"/>
     <use style="stroke:#000000;" x="274.778384" xlink:href="#m5f21f1e810" y="302.085818"/>
     <use style="stroke:#000000;" x="277.279574" xlink:href="#m5f21f1e810" y="247.104"/>
     <use style="stroke:#000000;" x="279.780765" xlink:href="#m5f21f1e810" y="281.467636"/>
     <use style="stroke:#000000;" x="282.281955" xlink:href="#m5f21f1e810" y="233.358545"/>
     <use style="stroke:#000000;" x="284.783146" xlink:href="#m5f21f1e810" y="253.976727"/>
     <use style="stroke:#000000;" x="287.284337" xlink:href="#m5f21f1e810" y="267.722182"/>
     <use style="stroke:#000000;" x="289.785527" xlink:href="#m5f21f1e810" y="267.722182"/>
     <use style="stroke:#000000;" x="292.286718" xlink:href="#m5f21f1e810" y="274.594909"/>
     <use style="stroke:#000000;" x="294.787909" xlink:href="#m5f21f1e810" y="267.722182"/>
     <use style="stroke:#000000;" x="297.289099" xlink:href="#m5f21f1e810" y="260.849455"/>
     <use style="stroke:#000000;" x="299.79029" xlink:href="#m5f21f1e810" y="247.104"/>
     <use style="stroke:#000000;" x="302.291481" xlink:href="#m5f21f1e810" y="253.976727"/>
     <use style="stroke:#000000;" x="304.792671" xlink:href="#m5f21f1e810" y="260.849455"/>
     <use style="stroke:#000000;" x="307.293862" xlink:href="#m5f21f1e810" y="267.722182"/>
     <use style="stroke:#000000;" x="309.795053" xlink:href="#m5f21f1e810" y="198.994909"/>
     <use style="stroke:#000000;" x="312.296243" xlink:href="#m5f21f1e810" y="267.722182"/>
     <use style="stroke:#000000;" x="314.797434" xlink:href="#m5f21f1e810" y="233.358545"/>
     <use style="stroke:#000000;" x="317.298624" xlink:href="#m5f21f1e810" y="247.104"/>
     <use style="stroke:#000000;" x="319.799815" xlink:href="#m5f21f1e810" y="233.358545"/>
     <use style="stroke:#000000;" x="322.301006" xlink:href="#m5f21f1e810" y="267.722182"/>
     <use style="stroke:#000000;" x="324.802196" xlink:href="#m5f21f1e810" y="274.594909"/>
     <use style="stroke:#000000;" x="327.303387" xlink:href="#m5f21f1e810" y="240.231273"/>
     <use style="stroke:#000000;" x="329.804578" xlink:href="#m5f21f1e810" y="240.231273"/>
     <use style="stroke:#000000;" x="332.305768" xlink:href="#m5f21f1e810" y="226.485818"/>
     <use style="stroke:#000000;" x="334.806959" xlink:href="#m5f21f1e810" y="240.231273"/>
     <use style="stroke:#000000;" x="337.30815" xlink:href="#m5f21f1e810" y="205.867636"/>
     <use style="stroke:#000000;" x="339.80934" xlink:href="#m5f21f1e810" y="247.104"/>
     <use style="stroke:#000000;" x="342.310531" xlink:href="#m5f21f1e810" y="253.976727"/>
     <use style="stroke:#000000;" x="344.811722" xlink:href="#m5f21f1e810" y="212.740364"/>
     <use style="stroke:#000000;" x="347.312912" xlink:href="#m5f21f1e810" y="233.358545"/>
     <use style="stroke:#000000;" x="349.814103" xlink:href="#m5f21f1e810" y="240.231273"/>
     <use style="stroke:#000000;" x="352.315293" xlink:href="#m5f21f1e810" y="219.613091"/>
     <use style="stroke:#000000;" x="354.816484" xlink:href="#m5f21f1e810" y="267.722182"/>
     <use style="stroke:#000000;" x="357.317675" xlink:href="#m5f21f1e810" y="260.849455"/>
     <use style="stroke:#000000;" x="359.818865" xlink:href="#m5f21f1e810" y="253.976727"/>
     <use style="stroke:#000000;" x="362.320056" xlink:href="#m5f21f1e810" y="226.485818"/>
     <use style="stroke:#000000;" x="364.821247" xlink:href="#m5f21f1e810" y="192.122182"/>
     <use style="stroke:#000000;" x="367.322437" xlink:href="#m5f21f1e810" y="219.613091"/>
     <use style="stroke:#000000;" x="369.823628" xlink:href="#m5f21f1e810" y="240.231273"/>
     <use style="stroke:#000000;" x="372.324819" xlink:href="#m5f21f1e810" y="226.485818"/>
     <use style="stroke:#000000;" x="374.826009" xlink:href="#m5f21f1e810" y="247.104"/>
     <use style="stroke:#000000;" x="377.3272" xlink:href="#m5f21f1e810" y="219.613091"/>
     <use style="stroke:#000000;" x="379.828391" xlink:href="#m5f21f1e810" y="219.613091"/>
     <use style="stroke:#000000;" x="382.329581" xlink:href="#m5f21f1e810" y="253.976727"/>
     <use style="stroke:#000000;" x="384.830772" xlink:href="#m5f21f1e810" y="233.358545"/>
     <use style="stroke:#000000;" x="387.331962" xlink:href="#m5f21f1e810" y="233.358545"/>
     <use style="stroke:#000000;" x="389.833153" xlink:href="#m5f21f1e810" y="198.994909"/>
     <use style="stroke:#000000;" x="392.334344" xlink:href="#m5f21f1e810" y="226.485818"/>
     <use style="stroke:#000000;" x="394.835534" xlink:href="#m5f21f1e810" y="226.485818"/>
     <use style="stroke:#000000;" x="397.336725" xlink:href="#m5f21f1e810" y="240.231273"/>
     <use style="stroke:#000000;" x="399.837916" xlink:href="#m5f21f1e810" y="233.358545"/>
     <use style="stroke:#000000;" x="402.339106" xlink:href="#m5f21f1e810" y="198.994909"/>
     <use style="stroke:#000000;" x="404.840297" xlink:href="#m5f21f1e810" y="233.358545"/>
     <use style="stroke:#000000;" x="407.341488" xlink:href="#m5f21f1e810" y="205.867636"/>
    </g>
   </g>
   <g id="patch_18">
    <path d="M 252.392727 307.584 
L 252.392727 186.624 
" style="fill:none;stroke:#000000;stroke-linecap:square;stroke-linejoin:miter;stroke-width:0.8;"/>
   </g>
   <g id="patch_19">
    <path d="M 414.72 307.584 
L 414.72 186.624 
" style="fill:none;stroke:#000000;stroke-linecap:square;stroke-linejoin:miter;stroke-width:0.8;"/>
   </g>
   <g id="patch_20">
    <path d="M 252.392727 307.584 
L 414.72 307.584 
" style="fill:none;stroke:#000000;stroke-linecap:square;stroke-linejoin:miter;stroke-width:0.8;"/>
   </g>
   <g id="patch_21">
    <path d="M 252.392727 186.624 
L 414.72 186.624 
" style="fill:none;stroke:#000000;stroke-linecap:square;stroke-linejoin:miter;stroke-width:0.8;"/>
   </g>
  </g>
 </g>
 <defs>
  <clipPath id="pe03e3ab888">
   <rect height="120.96" width="162.327273" x="57.6" y="41.472"/>
  </clipPath>
  <clipPath id="p1c6df8e392">
   <rect height="120.96" width="162.327273" x="252.392727" y="41.472"/>
  </clipPath>
  <clipPath id="p4cee2fda6d">
   <rect height="120.96" width="162.327273" x="57.6" y="186.624"/>
  </clipPath>
  <clipPath id="p0fd285e98d">
   <rect height="120.96" width="162.327273" x="252.392727" y="186.624"/>
  </clipPath>
 </defs>
</svg>
