<?xml version="1.0" encoding="utf-8" standalone="no"?>
<!DOCTYPE svg PUBLIC "-//W3C//DTD SVG 1.1//EN"
  "http://www.w3.org/Graphics/SVG/1.1/DTD/svg11.dtd">
<!-- Created with matplotlib (http://matplotlib.org/) -->
<svg height="345.6pt" version="1.1" viewBox="0 0 460.8 345.6" width="460.8pt" xmlns="http://www.w3.org/2000/svg" xmlns:xlink="http://www.w3.org/1999/xlink">
 <defs>
  <style type="text/css">
*{stroke-linecap:butt;stroke-linejoin:round;}
  </style>
 </defs>
 <g id="figure_1">
  <g id="patch_1">
   <path d="M 0 345.6 
L 460.8 345.6 
L 460.8 0 
L 0 0 
z
" style="fill:#ffffff;"/>
  </g>
  <g id="axes_1">
   <g id="patch_2">
    <path d="M 57.6 162.432 
L 219.927273 162.432 
L 219.927273 41.472 
L 57.6 41.472 
z
" style="fill:#ffffff;"/>
   </g>
   <g id="matplotlib.axis_1">
    <g id="xtick_1">
     <g id="line2d_1">
      <defs>
       <path d="M 0 0 
L 0 3.5 
" id="mb3ef6d7b8c" style="stroke:#000000;stroke-width:0.8;"/>
      </defs>
      <g>
       <use style="stroke:#000000;stroke-width:0.8;" x="64.978512" xlink:href="#mb3ef6d7b8c" y="162.432"/>
      </g>
     </g>
     <g id="text_1">
      <!-- 0 -->
      <defs>
       <path d="M 31.78125 66.40625 
Q 24.171875 66.40625 20.328125 58.90625 
Q 16.5 51.421875 16.5 36.375 
Q 16.5 21.390625 20.328125 13.890625 
Q 24.171875 6.390625 31.78125 6.390625 
Q 39.453125 6.390625 43.28125 13.890625 
Q 47.125 21.390625 47.125 36.375 
Q 47.125 51.421875 43.28125 58.90625 
Q 39.453125 66.40625 31.78125 66.40625 
z
M 31.78125 74.21875 
Q 44.046875 74.21875 50.515625 64.515625 
Q 56.984375 54.828125 56.984375 36.375 
Q 56.984375 17.96875 50.515625 8.265625 
Q 44.046875 -1.421875 31.78125 -1.421875 
Q 19.53125 -1.421875 13.0625 8.265625 
Q 6.59375 17.96875 6.59375 36.375 
Q 6.59375 54.828125 13.0625 64.515625 
Q 19.53125 74.21875 31.78125 74.21875 
z
" id="DejaVuSans-30"/>
      </defs>
      <g transform="translate(61.797262 177.030437)scale(0.1 -0.1)">
       <use xlink:href="#DejaVuSans-30"/>
      </g>
     </g>
    </g>
    <g id="xtick_2">
     <g id="line2d_2">
      <g>
       <use style="stroke:#000000;stroke-width:0.8;" x="115.002325" xlink:href="#mb3ef6d7b8c" y="162.432"/>
      </g>
     </g>
     <g id="text_2">
      <!-- 20 -->
      <defs>
       <path d="M 19.1875 8.296875 
L 53.609375 8.296875 
L 53.609375 0 
L 7.328125 0 
L 7.328125 8.296875 
Q 12.9375 14.109375 22.625 23.890625 
Q 32.328125 33.6875 34.8125 36.53125 
Q 39.546875 41.84375 41.421875 45.53125 
Q 43.3125 49.21875 43.3125 52.78125 
Q 43.3125 58.59375 39.234375 62.25 
Q 35.15625 65.921875 28.609375 65.921875 
Q 23.96875 65.921875 18.8125 64.3125 
Q 13.671875 62.703125 7.8125 59.421875 
L 7.8125 69.390625 
Q 13.765625 71.78125 18.9375 73 
Q 24.125 74.21875 28.421875 74.21875 
Q 39.75 74.21875 46.484375 68.546875 
Q 53.21875 62.890625 53.21875 53.421875 
Q 53.21875 48.921875 51.53125 44.890625 
Q 49.859375 40.875 45.40625 35.40625 
Q 44.1875 33.984375 37.640625 27.21875 
Q 31.109375 20.453125 19.1875 8.296875 
z
" id="DejaVuSans-32"/>
      </defs>
      <g transform="translate(108.639825 177.030437)scale(0.1 -0.1)">
       <use xlink:href="#DejaVuSans-32"/>
       <use x="63.623047" xlink:href="#DejaVuSans-30"/>
      </g>
     </g>
    </g>
    <g id="xtick_3">
     <g id="line2d_3">
      <g>
       <use style="stroke:#000000;stroke-width:0.8;" x="165.026138" xlink:href="#mb3ef6d7b8c" y="162.432"/>
      </g>
     </g>
     <g id="text_3">
      <!-- 40 -->
      <defs>
       <path d="M 37.796875 64.3125 
L 12.890625 25.390625 
L 37.796875 25.390625 
z
M 35.203125 72.90625 
L 47.609375 72.90625 
L 47.609375 25.390625 
L 58.015625 25.390625 
L 58.015625 17.1875 
L 47.609375 17.1875 
L 47.609375 0 
L 37.796875 0 
L 37.796875 17.1875 
L 4.890625 17.1875 
L 4.890625 26.703125 
z
" id="DejaVuSans-34"/>
      </defs>
      <g transform="translate(158.663638 177.030437)scale(0.1 -0.1)">
       <use xlink:href="#DejaVuSans-34"/>
       <use x="63.623047" xlink:href="#DejaVuSans-30"/>
      </g>
     </g>
    </g>
    <g id="xtick_4">
     <g id="line2d_4">
      <g>
       <use style="stroke:#000000;stroke-width:0.8;" x="215.049951" xlink:href="#mb3ef6d7b8c" y="162.432"/>
      </g>
     </g>
     <g id="text_4">
      <!-- 60 -->
      <defs>
       <path d="M 33.015625 40.375 
Q 26.375 40.375 22.484375 35.828125 
Q 18.609375 31.296875 18.609375 23.390625 
Q 18.609375 15.53125 22.484375 10.953125 
Q 26.375 6.390625 33.015625 6.390625 
Q 39.65625 6.390625 43.53125 10.953125 
Q 47.40625 15.53125 47.40625 23.390625 
Q 47.40625 31.296875 43.53125 35.828125 
Q 39.65625 40.375 33.015625 40.375 
z
M 52.59375 71.296875 
L 52.59375 62.3125 
Q 48.875 64.0625 45.09375 64.984375 
Q 41.3125 65.921875 37.59375 65.921875 
Q 27.828125 65.921875 22.671875 59.328125 
Q 17.53125 52.734375 16.796875 39.40625 
Q 19.671875 43.65625 24.015625 45.921875 
Q 28.375 48.1875 33.59375 48.1875 
Q 44.578125 48.1875 50.953125 41.515625 
Q 57.328125 34.859375 57.328125 23.390625 
Q 57.328125 12.15625 50.6875 5.359375 
Q 44.046875 -1.421875 33.015625 -1.421875 
Q 20.359375 -1.421875 13.671875 8.265625 
Q 6.984375 17.96875 6.984375 36.375 
Q 6.984375 53.65625 15.1875 63.9375 
Q 23.390625 74.21875 37.203125 74.21875 
Q 40.921875 74.21875 44.703125 73.484375 
Q 48.484375 72.75 52.59375 71.296875 
z
" id="DejaVuSans-36"/>
      </defs>
      <g transform="translate(208.687451 177.030437)scale(0.1 -0.1)">
       <use xlink:href="#DejaVuSans-36"/>
       <use x="63.623047" xlink:href="#DejaVuSans-30"/>
      </g>
     </g>
    </g>
    <g id="text_5">
     <!-- vb_dng -->
     <defs>
      <path d="M 2.984375 54.6875 
L 12.5 54.6875 
L 29.59375 8.796875 
L 46.6875 54.6875 
L 56.203125 54.6875 
L 35.6875 0 
L 23.484375 0 
z
" id="DejaVuSans-76"/>
      <path d="M 48.6875 27.296875 
Q 48.6875 37.203125 44.609375 42.84375 
Q 40.53125 48.484375 33.40625 48.484375 
Q 26.265625 48.484375 22.1875 42.84375 
Q 18.109375 37.203125 18.109375 27.296875 
Q 18.109375 17.390625 22.1875 11.75 
Q 26.265625 6.109375 33.40625 6.109375 
Q 40.53125 6.109375 44.609375 11.75 
Q 48.6875 17.390625 48.6875 27.296875 
z
M 18.109375 46.390625 
Q 20.953125 51.265625 25.265625 53.625 
Q 29.59375 56 35.59375 56 
Q 45.5625 56 51.78125 48.09375 
Q 58.015625 40.1875 58.015625 27.296875 
Q 58.015625 14.40625 51.78125 6.484375 
Q 45.5625 -1.421875 35.59375 -1.421875 
Q 29.59375 -1.421875 25.265625 0.953125 
Q 20.953125 3.328125 18.109375 8.203125 
L 18.109375 0 
L 9.078125 0 
L 9.078125 75.984375 
L 18.109375 75.984375 
z
" id="DejaVuSans-62"/>
      <path d="M 50.984375 -16.609375 
L 50.984375 -23.578125 
L -0.984375 -23.578125 
L -0.984375 -16.609375 
z
" id="DejaVuSans-5f"/>
      <path d="M 45.40625 46.390625 
L 45.40625 75.984375 
L 54.390625 75.984375 
L 54.390625 0 
L 45.40625 0 
L 45.40625 8.203125 
Q 42.578125 3.328125 38.25 0.953125 
Q 33.9375 -1.421875 27.875 -1.421875 
Q 17.96875 -1.421875 11.734375 6.484375 
Q 5.515625 14.40625 5.515625 27.296875 
Q 5.515625 40.1875 11.734375 48.09375 
Q 17.96875 56 27.875 56 
Q 33.9375 56 38.25 53.625 
Q 42.578125 51.265625 45.40625 46.390625 
z
M 14.796875 27.296875 
Q 14.796875 17.390625 18.875 11.75 
Q 22.953125 6.109375 30.078125 6.109375 
Q 37.203125 6.109375 41.296875 11.75 
Q 45.40625 17.390625 45.40625 27.296875 
Q 45.40625 37.203125 41.296875 42.84375 
Q 37.203125 48.484375 30.078125 48.484375 
Q 22.953125 48.484375 18.875 42.84375 
Q 14.796875 37.203125 14.796875 27.296875 
z
" id="DejaVuSans-64"/>
      <path d="M 54.890625 33.015625 
L 54.890625 0 
L 45.90625 0 
L 45.90625 32.71875 
Q 45.90625 40.484375 42.875 44.328125 
Q 39.84375 48.1875 33.796875 48.1875 
Q 26.515625 48.1875 22.3125 43.546875 
Q 18.109375 38.921875 18.109375 30.90625 
L 18.109375 0 
L 9.078125 0 
L 9.078125 54.6875 
L 18.109375 54.6875 
L 18.109375 46.1875 
Q 21.34375 51.125 25.703125 53.5625 
Q 30.078125 56 35.796875 56 
Q 45.21875 56 50.046875 50.171875 
Q 54.890625 44.34375 54.890625 33.015625 
z
" id="DejaVuSans-6e"/>
      <path d="M 45.40625 27.984375 
Q 45.40625 37.75 41.375 43.109375 
Q 37.359375 48.484375 30.078125 48.484375 
Q 22.859375 48.484375 18.828125 43.109375 
Q 14.796875 37.75 14.796875 27.984375 
Q 14.796875 18.265625 18.828125 12.890625 
Q 22.859375 7.515625 30.078125 7.515625 
Q 37.359375 7.515625 41.375 12.890625 
Q 45.40625 18.265625 45.40625 27.984375 
z
M 54.390625 6.78125 
Q 54.390625 -7.171875 48.1875 -13.984375 
Q 42 -20.796875 29.203125 -20.796875 
Q 24.46875 -20.796875 20.265625 -20.09375 
Q 16.0625 -19.390625 12.109375 -17.921875 
L 12.109375 -9.1875 
Q 16.0625 -11.328125 19.921875 -12.34375 
Q 23.78125 -13.375 27.78125 -13.375 
Q 36.625 -13.375 41.015625 -8.765625 
Q 45.40625 -4.15625 45.40625 5.171875 
L 45.40625 9.625 
Q 42.625 4.78125 38.28125 2.390625 
Q 33.9375 0 27.875 0 
Q 17.828125 0 11.671875 7.65625 
Q 5.515625 15.328125 5.515625 27.984375 
Q 5.515625 40.671875 11.671875 48.328125 
Q 17.828125 56 27.875 56 
Q 33.9375 56 38.28125 53.609375 
Q 42.625 51.21875 45.40625 46.390625 
L 45.40625 54.6875 
L 54.390625 54.6875 
z
" id="DejaVuSans-67"/>
     </defs>
     <g transform="translate(120.612855 190.708562)scale(0.1 -0.1)">
      <use xlink:href="#DejaVuSans-76"/>
      <use x="59.179688" xlink:href="#DejaVuSans-62"/>
      <use x="122.65625" xlink:href="#DejaVuSans-5f"/>
      <use x="172.65625" xlink:href="#DejaVuSans-64"/>
      <use x="236.132812" xlink:href="#DejaVuSans-6e"/>
      <use x="299.511719" xlink:href="#DejaVuSans-67"/>
     </g>
    </g>
   </g>
   <g id="matplotlib.axis_2">
    <g id="ytick_1">
     <g id="line2d_5">
      <defs>
       <path d="M 0 0 
L -3.5 0 
" id="m540f1108ce" style="stroke:#000000;stroke-width:0.8;"/>
      </defs>
      <g>
       <use style="stroke:#000000;stroke-width:0.8;" x="57.6" xlink:href="#m540f1108ce" y="146.937124"/>
      </g>
     </g>
     <g id="text_6">
      <!-- 20 -->
      <g transform="translate(37.875 150.736343)scale(0.1 -0.1)">
       <use xlink:href="#DejaVuSans-32"/>
       <use x="63.623047" xlink:href="#DejaVuSans-30"/>
      </g>
     </g>
    </g>
    <g id="ytick_2">
     <g id="line2d_6">
      <g>
       <use style="stroke:#000000;stroke-width:0.8;" x="57.6" xlink:href="#m540f1108ce" y="118.37514"/>
      </g>
     </g>
     <g id="text_7">
      <!-- 40 -->
      <g transform="translate(37.875 122.174359)scale(0.1 -0.1)">
       <use xlink:href="#DejaVuSans-34"/>
       <use x="63.623047" xlink:href="#DejaVuSans-30"/>
      </g>
     </g>
    </g>
    <g id="ytick_3">
     <g id="line2d_7">
      <g>
       <use style="stroke:#000000;stroke-width:0.8;" x="57.6" xlink:href="#m540f1108ce" y="89.813157"/>
      </g>
     </g>
     <g id="text_8">
      <!-- 60 -->
      <g transform="translate(37.875 93.612376)scale(0.1 -0.1)">
       <use xlink:href="#DejaVuSans-36"/>
       <use x="63.623047" xlink:href="#DejaVuSans-30"/>
      </g>
     </g>
    </g>
    <g id="ytick_4">
     <g id="line2d_8">
      <g>
       <use style="stroke:#000000;stroke-width:0.8;" x="57.6" xlink:href="#m540f1108ce" y="61.251174"/>
      </g>
     </g>
     <g id="text_9">
      <!-- 80 -->
      <defs>
       <path d="M 31.78125 34.625 
Q 24.75 34.625 20.71875 30.859375 
Q 16.703125 27.09375 16.703125 20.515625 
Q 16.703125 13.921875 20.71875 10.15625 
Q 24.75 6.390625 31.78125 6.390625 
Q 38.8125 6.390625 42.859375 10.171875 
Q 46.921875 13.96875 46.921875 20.515625 
Q 46.921875 27.09375 42.890625 30.859375 
Q 38.875 34.625 31.78125 34.625 
z
M 21.921875 38.8125 
Q 15.578125 40.375 12.03125 44.71875 
Q 8.5 49.078125 8.5 55.328125 
Q 8.5 64.0625 14.71875 69.140625 
Q 20.953125 74.21875 31.78125 74.21875 
Q 42.671875 74.21875 48.875 69.140625 
Q 55.078125 64.0625 55.078125 55.328125 
Q 55.078125 49.078125 51.53125 44.71875 
Q 48 40.375 41.703125 38.8125 
Q 48.828125 37.15625 52.796875 32.3125 
Q 56.78125 27.484375 56.78125 20.515625 
Q 56.78125 9.90625 50.3125 4.234375 
Q 43.84375 -1.421875 31.78125 -1.421875 
Q 19.734375 -1.421875 13.25 4.234375 
Q 6.78125 9.90625 6.78125 20.515625 
Q 6.78125 27.484375 10.78125 32.3125 
Q 14.796875 37.15625 21.921875 38.8125 
z
M 18.3125 54.390625 
Q 18.3125 48.734375 21.84375 45.5625 
Q 25.390625 42.390625 31.78125 42.390625 
Q 38.140625 42.390625 41.71875 45.5625 
Q 45.3125 48.734375 45.3125 54.390625 
Q 45.3125 60.0625 41.71875 63.234375 
Q 38.140625 66.40625 31.78125 66.40625 
Q 25.390625 66.40625 21.84375 63.234375 
Q 18.3125 60.0625 18.3125 54.390625 
z
" id="DejaVuSans-38"/>
      </defs>
      <g transform="translate(37.875 65.050392)scale(0.1 -0.1)">
       <use xlink:href="#DejaVuSans-38"/>
       <use x="63.623047" xlink:href="#DejaVuSans-30"/>
      </g>
     </g>
    </g>
   </g>
   <g id="line2d_9">
    <path clip-path="url(#p8407c4b925)" d="M 64.978512 106.950347 
L 67.479703 124.087537 
L 69.980894 115.518942 
L 72.482084 142.652826 
L 74.983275 118.37514 
L 77.484466 112.662744 
L 79.985656 135.512331 
L 82.486847 155.505719 
L 84.988038 156.933818 
L 87.489228 105.522248 
L 89.990419 122.659438 
L 92.491609 136.94043 
L 94.9928 119.80324 
L 97.493991 136.94043 
L 99.995181 144.080926 
L 102.496372 91.241256 
L 104.997563 144.080926 
L 107.498753 124.087537 
L 109.999944 124.087537 
L 112.501135 121.231339 
L 115.002325 88.385058 
L 117.503516 124.087537 
L 120.004707 121.231339 
L 122.505897 106.950347 
L 125.007088 101.23795 
L 127.508278 122.659438 
L 130.009469 152.649521 
L 132.51066 86.956959 
L 135.01185 121.231339 
L 137.513041 69.819769 
L 140.014232 99.809851 
L 142.515422 69.819769 
L 145.016613 119.80324 
L 147.517804 124.087537 
L 150.018994 106.950347 
L 152.520185 74.104066 
L 155.021376 108.378446 
L 157.522566 128.371835 
L 160.023757 95.525554 
L 162.524947 96.953653 
L 165.026138 146.937124 
L 167.527329 104.094149 
L 170.028519 81.244562 
L 172.52971 148.365223 
L 175.030901 108.378446 
L 177.532091 89.813157 
L 180.033282 125.515636 
L 182.534473 54.110678 
L 185.035663 59.823074 
L 187.536854 99.809851 
L 190.038045 116.947041 
L 192.539235 78.388364 
L 195.040426 111.234645 
L 197.541616 85.52886 
L 200.042807 148.365223 
L 202.543998 99.809851 
L 205.045188 56.966876 
L 207.546379 46.970182 
L 210.04757 135.512331 
L 212.54876 101.23795 
" style="fill:none;stroke:#000000;stroke-dasharray:5.55,2.4;stroke-dashoffset:0;stroke-width:1.5;"/>
    <defs>
     <path d="M 0 3 
C 0.795609 3 1.55874 2.683901 2.12132 2.12132 
C 2.683901 1.55874 3 0.795609 3 0 
C 3 -0.795609 2.683901 -1.55874 2.12132 -2.12132 
C 1.55874 -2.683901 0.795609 -3 0 -3 
C -0.795609 -3 -1.55874 -2.683901 -2.12132 -2.12132 
C -2.683901 -1.55874 -3 -0.795609 -3 0 
C -3 0.795609 -2.683901 1.55874 -2.12132 2.12132 
C -1.55874 2.683901 -0.795609 3 0 3 
z
" id="m9ea1738ff9" style="stroke:#000000;"/>
    </defs>
    <g clip-path="url(#p8407c4b925)">
     <use style="stroke:#000000;" x="64.978512" xlink:href="#m9ea1738ff9" y="106.950347"/>
     <use style="stroke:#000000;" x="67.479703" xlink:href="#m9ea1738ff9" y="124.087537"/>
     <use style="stroke:#000000;" x="69.980894" xlink:href="#m9ea1738ff9" y="115.518942"/>
     <use style="stroke:#000000;" x="72.482084" xlink:href="#m9ea1738ff9" y="142.652826"/>
     <use style="stroke:#000000;" x="74.983275" xlink:href="#m9ea1738ff9" y="118.37514"/>
     <use style="stroke:#000000;" x="77.484466" xlink:href="#m9ea1738ff9" y="112.662744"/>
     <use style="stroke:#000000;" x="79.985656" xlink:href="#m9ea1738ff9" y="135.512331"/>
     <use style="stroke:#000000;" x="82.486847" xlink:href="#m9ea1738ff9" y="155.505719"/>
     <use style="stroke:#000000;" x="84.988038" xlink:href="#m9ea1738ff9" y="156.933818"/>
     <use style="stroke:#000000;" x="87.489228" xlink:href="#m9ea1738ff9" y="105.522248"/>
     <use style="stroke:#000000;" x="89.990419" xlink:href="#m9ea1738ff9" y="122.659438"/>
     <use style="stroke:#000000;" x="92.491609" xlink:href="#m9ea1738ff9" y="136.94043"/>
     <use style="stroke:#000000;" x="94.9928" xlink:href="#m9ea1738ff9" y="119.80324"/>
     <use style="stroke:#000000;" x="97.493991" xlink:href="#m9ea1738ff9" y="136.94043"/>
     <use style="stroke:#000000;" x="99.995181" xlink:href="#m9ea1738ff9" y="144.080926"/>
     <use style="stroke:#000000;" x="102.496372" xlink:href="#m9ea1738ff9" y="91.241256"/>
     <use style="stroke:#000000;" x="104.997563" xlink:href="#m9ea1738ff9" y="144.080926"/>
     <use style="stroke:#000000;" x="107.498753" xlink:href="#m9ea1738ff9" y="124.087537"/>
     <use style="stroke:#000000;" x="109.999944" xlink:href="#m9ea1738ff9" y="124.087537"/>
     <use style="stroke:#000000;" x="112.501135" xlink:href="#m9ea1738ff9" y="121.231339"/>
     <use style="stroke:#000000;" x="115.002325" xlink:href="#m9ea1738ff9" y="88.385058"/>
     <use style="stroke:#000000;" x="117.503516" xlink:href="#m9ea1738ff9" y="124.087537"/>
     <use style="stroke:#000000;" x="120.004707" xlink:href="#m9ea1738ff9" y="121.231339"/>
     <use style="stroke:#000000;" x="122.505897" xlink:href="#m9ea1738ff9" y="106.950347"/>
     <use style="stroke:#000000;" x="125.007088" xlink:href="#m9ea1738ff9" y="101.23795"/>
     <use style="stroke:#000000;" x="127.508278" xlink:href="#m9ea1738ff9" y="122.659438"/>
     <use style="stroke:#000000;" x="130.009469" xlink:href="#m9ea1738ff9" y="152.649521"/>
     <use style="stroke:#000000;" x="132.51066" xlink:href="#m9ea1738ff9" y="86.956959"/>
     <use style="stroke:#000000;" x="135.01185" xlink:href="#m9ea1738ff9" y="121.231339"/>
     <use style="stroke:#000000;" x="137.513041" xlink:href="#m9ea1738ff9" y="69.819769"/>
     <use style="stroke:#000000;" x="140.014232" xlink:href="#m9ea1738ff9" y="99.809851"/>
     <use style="stroke:#000000;" x="142.515422" xlink:href="#m9ea1738ff9" y="69.819769"/>
     <use style="stroke:#000000;" x="145.016613" xlink:href="#m9ea1738ff9" y="119.80324"/>
     <use style="stroke:#000000;" x="147.517804" xlink:href="#m9ea1738ff9" y="124.087537"/>
     <use style="stroke:#000000;" x="150.018994" xlink:href="#m9ea1738ff9" y="106.950347"/>
     <use style="stroke:#000000;" x="152.520185" xlink:href="#m9ea1738ff9" y="74.104066"/>
     <use style="stroke:#000000;" x="155.021376" xlink:href="#m9ea1738ff9" y="108.378446"/>
     <use style="stroke:#000000;" x="157.522566" xlink:href="#m9ea1738ff9" y="128.371835"/>
     <use style="stroke:#000000;" x="160.023757" xlink:href="#m9ea1738ff9" y="95.525554"/>
     <use style="stroke:#000000;" x="162.524947" xlink:href="#m9ea1738ff9" y="96.953653"/>
     <use style="stroke:#000000;" x="165.026138" xlink:href="#m9ea1738ff9" y="146.937124"/>
     <use style="stroke:#000000;" x="167.527329" xlink:href="#m9ea1738ff9" y="104.094149"/>
     <use style="stroke:#000000;" x="170.028519" xlink:href="#m9ea1738ff9" y="81.244562"/>
     <use style="stroke:#000000;" x="172.52971" xlink:href="#m9ea1738ff9" y="148.365223"/>
     <use style="stroke:#000000;" x="175.030901" xlink:href="#m9ea1738ff9" y="108.378446"/>
     <use style="stroke:#000000;" x="177.532091" xlink:href="#m9ea1738ff9" y="89.813157"/>
     <use style="stroke:#000000;" x="180.033282" xlink:href="#m9ea1738ff9" y="125.515636"/>
     <use style="stroke:#000000;" x="182.534473" xlink:href="#m9ea1738ff9" y="54.110678"/>
     <use style="stroke:#000000;" x="185.035663" xlink:href="#m9ea1738ff9" y="59.823074"/>
     <use style="stroke:#000000;" x="187.536854" xlink:href="#m9ea1738ff9" y="99.809851"/>
     <use style="stroke:#000000;" x="190.038045" xlink:href="#m9ea1738ff9" y="116.947041"/>
     <use style="stroke:#000000;" x="192.539235" xlink:href="#m9ea1738ff9" y="78.388364"/>
     <use style="stroke:#000000;" x="195.040426" xlink:href="#m9ea1738ff9" y="111.234645"/>
     <use style="stroke:#000000;" x="197.541616" xlink:href="#m9ea1738ff9" y="85.52886"/>
     <use style="stroke:#000000;" x="200.042807" xlink:href="#m9ea1738ff9" y="148.365223"/>
     <use style="stroke:#000000;" x="202.543998" xlink:href="#m9ea1738ff9" y="99.809851"/>
     <use style="stroke:#000000;" x="205.045188" xlink:href="#m9ea1738ff9" y="56.966876"/>
     <use style="stroke:#000000;" x="207.546379" xlink:href="#m9ea1738ff9" y="46.970182"/>
     <use style="stroke:#000000;" x="210.04757" xlink:href="#m9ea1738ff9" y="135.512331"/>
     <use style="stroke:#000000;" x="212.54876" xlink:href="#m9ea1738ff9" y="101.23795"/>
    </g>
   </g>
   <g id="patch_3">
    <path d="M 57.6 162.432 
L 57.6 41.472 
" style="fill:none;stroke:#000000;stroke-linecap:square;stroke-linejoin:miter;stroke-width:0.8;"/>
   </g>
   <g id="patch_4">
    <path d="M 219.927273 162.432 
L 219.927273 41.472 
" style="fill:none;stroke:#000000;stroke-linecap:square;stroke-linejoin:miter;stroke-width:0.8;"/>
   </g>
   <g id="patch_5">
    <path d="M 57.6 162.432 
L 219.927273 162.432 
" style="fill:none;stroke:#000000;stroke-linecap:square;stroke-linejoin:miter;stroke-width:0.8;"/>
   </g>
   <g id="patch_6">
    <path d="M 57.6 41.472 
L 219.927273 41.472 
" style="fill:none;stroke:#000000;stroke-linecap:square;stroke-linejoin:miter;stroke-width:0.8;"/>
   </g>
  </g>
  <g id="axes_2">
   <g id="patch_7">
    <path d="M 252.392727 162.432 
L 414.72 162.432 
L 414.72 41.472 
L 252.392727 41.472 
z
" style="fill:#ffffff;"/>
   </g>
   <g id="matplotlib.axis_3">
    <g id="xtick_5">
     <g id="line2d_10">
      <g>
       <use style="stroke:#000000;stroke-width:0.8;" x="259.77124" xlink:href="#mb3ef6d7b8c" y="162.432"/>
      </g>
     </g>
     <g id="text_10">
      <!-- 0 -->
      <g transform="translate(256.58999 177.030437)scale(0.1 -0.1)">
       <use xlink:href="#DejaVuSans-30"/>
      </g>
     </g>
    </g>
    <g id="xtick_6">
     <g id="line2d_11">
      <g>
       <use style="stroke:#000000;stroke-width:0.8;" x="309.795053" xlink:href="#mb3ef6d7b8c" y="162.432"/>
      </g>
     </g>
     <g id="text_11">
      <!-- 20 -->
      <g transform="translate(303.432553 177.030437)scale(0.1 -0.1)">
       <use xlink:href="#DejaVuSans-32"/>
       <use x="63.623047" xlink:href="#DejaVuSans-30"/>
      </g>
     </g>
    </g>
    <g id="xtick_7">
     <g id="line2d_12">
      <g>
       <use style="stroke:#000000;stroke-width:0.8;" x="359.818865" xlink:href="#mb3ef6d7b8c" y="162.432"/>
      </g>
     </g>
     <g id="text_12">
      <!-- 40 -->
      <g transform="translate(353.456365 177.030437)scale(0.1 -0.1)">
       <use xlink:href="#DejaVuSans-34"/>
       <use x="63.623047" xlink:href="#DejaVuSans-30"/>
      </g>
     </g>
    </g>
    <g id="xtick_8">
     <g id="line2d_13">
      <g>
       <use style="stroke:#000000;stroke-width:0.8;" x="409.842678" xlink:href="#mb3ef6d7b8c" y="162.432"/>
      </g>
     </g>
     <g id="text_13">
      <!-- 60 -->
      <g transform="translate(403.480178 177.030437)scale(0.1 -0.1)">
       <use xlink:href="#DejaVuSans-36"/>
       <use x="63.623047" xlink:href="#DejaVuSans-30"/>
      </g>
     </g>
    </g>
    <g id="text_14">
     <!-- jj_total -->
     <defs>
      <path d="M 9.421875 54.6875 
L 18.40625 54.6875 
L 18.40625 -0.984375 
Q 18.40625 -11.421875 14.421875 -16.109375 
Q 10.453125 -20.796875 1.609375 -20.796875 
L -1.8125 -20.796875 
L -1.8125 -13.1875 
L 0.59375 -13.1875 
Q 5.71875 -13.1875 7.5625 -10.8125 
Q 9.421875 -8.453125 9.421875 -0.984375 
z
M 9.421875 75.984375 
L 18.40625 75.984375 
L 18.40625 64.59375 
L 9.421875 64.59375 
z
" id="DejaVuSans-6a"/>
      <path d="M 18.3125 70.21875 
L 18.3125 54.6875 
L 36.8125 54.6875 
L 36.8125 47.703125 
L 18.3125 47.703125 
L 18.3125 18.015625 
Q 18.3125 11.328125 20.140625 9.421875 
Q 21.96875 7.515625 27.59375 7.515625 
L 36.8125 7.515625 
L 36.8125 0 
L 27.59375 0 
Q 17.1875 0 13.234375 3.875 
Q 9.28125 7.765625 9.28125 18.015625 
L 9.28125 47.703125 
L 2.6875 47.703125 
L 2.6875 54.6875 
L 9.28125 54.6875 
L 9.28125 70.21875 
z
" id="DejaVuSans-74"/>
      <path d="M 30.609375 48.390625 
Q 23.390625 48.390625 19.1875 42.75 
Q 14.984375 37.109375 14.984375 27.296875 
Q 14.984375 17.484375 19.15625 11.84375 
Q 23.34375 6.203125 30.609375 6.203125 
Q 37.796875 6.203125 41.984375 11.859375 
Q 46.1875 17.53125 46.1875 27.296875 
Q 46.1875 37.015625 41.984375 42.703125 
Q 37.796875 48.390625 30.609375 48.390625 
z
M 30.609375 56 
Q 42.328125 56 49.015625 48.375 
Q 55.71875 40.765625 55.71875 27.296875 
Q 55.71875 13.875 49.015625 6.21875 
Q 42.328125 -1.421875 30.609375 -1.421875 
Q 18.84375 -1.421875 12.171875 6.21875 
Q 5.515625 13.875 5.515625 27.296875 
Q 5.515625 40.765625 12.171875 48.375 
Q 18.84375 56 30.609375 56 
z
" id="DejaVuSans-6f"/>
      <path d="M 34.28125 27.484375 
Q 23.390625 27.484375 19.1875 25 
Q 14.984375 22.515625 14.984375 16.5 
Q 14.984375 11.71875 18.140625 8.90625 
Q 21.296875 6.109375 26.703125 6.109375 
Q 34.1875 6.109375 38.703125 11.40625 
Q 43.21875 16.703125 43.21875 25.484375 
L 43.21875 27.484375 
z
M 52.203125 31.203125 
L 52.203125 0 
L 43.21875 0 
L 43.21875 8.296875 
Q 40.140625 3.328125 35.546875 0.953125 
Q 30.953125 -1.421875 24.3125 -1.421875 
Q 15.921875 -1.421875 10.953125 3.296875 
Q 6 8.015625 6 15.921875 
Q 6 25.140625 12.171875 29.828125 
Q 18.359375 34.515625 30.609375 34.515625 
L 43.21875 34.515625 
L 43.21875 35.40625 
Q 43.21875 41.609375 39.140625 45 
Q 35.0625 48.390625 27.6875 48.390625 
Q 23 48.390625 18.546875 47.265625 
Q 14.109375 46.140625 10.015625 43.890625 
L 10.015625 52.203125 
Q 14.9375 54.109375 19.578125 55.046875 
Q 24.21875 56 28.609375 56 
Q 40.484375 56 46.34375 49.84375 
Q 52.203125 43.703125 52.203125 31.203125 
z
" id="DejaVuSans-61"/>
      <path d="M 9.421875 75.984375 
L 18.40625 75.984375 
L 18.40625 0 
L 9.421875 0 
z
" id="DejaVuSans-6c"/>
     </defs>
     <g transform="translate(316.845426 190.708562)scale(0.1 -0.1)">
      <use xlink:href="#DejaVuSans-6a"/>
      <use x="27.783203" xlink:href="#DejaVuSans-6a"/>
      <use x="55.566406" xlink:href="#DejaVuSans-5f"/>
      <use x="105.566406" xlink:href="#DejaVuSans-74"/>
      <use x="144.775391" xlink:href="#DejaVuSans-6f"/>
      <use x="205.957031" xlink:href="#DejaVuSans-74"/>
      <use x="245.166016" xlink:href="#DejaVuSans-61"/>
      <use x="306.445312" xlink:href="#DejaVuSans-6c"/>
     </g>
    </g>
   </g>
   <g id="matplotlib.axis_4">
    <g id="ytick_5">
     <g id="line2d_14">
      <g>
       <use style="stroke:#000000;stroke-width:0.8;" x="252.392727" xlink:href="#m540f1108ce" y="154.434645"/>
      </g>
     </g>
     <g id="text_15">
      <!-- 10 -->
      <defs>
       <path d="M 12.40625 8.296875 
L 28.515625 8.296875 
L 28.515625 63.921875 
L 10.984375 60.40625 
L 10.984375 69.390625 
L 28.421875 72.90625 
L 38.28125 72.90625 
L 38.28125 8.296875 
L 54.390625 8.296875 
L 54.390625 0 
L 12.40625 0 
z
" id="DejaVuSans-31"/>
      </defs>
      <g transform="translate(232.667727 158.233863)scale(0.1 -0.1)">
       <use xlink:href="#DejaVuSans-31"/>
       <use x="63.623047" xlink:href="#DejaVuSans-30"/>
      </g>
     </g>
    </g>
    <g id="ytick_6">
     <g id="line2d_15">
      <g>
       <use style="stroke:#000000;stroke-width:0.8;" x="252.392727" xlink:href="#m540f1108ce" y="129.442909"/>
      </g>
     </g>
     <g id="text_16">
      <!-- 20 -->
      <g transform="translate(232.667727 133.242128)scale(0.1 -0.1)">
       <use xlink:href="#DejaVuSans-32"/>
       <use x="63.623047" xlink:href="#DejaVuSans-30"/>
      </g>
     </g>
    </g>
    <g id="ytick_7">
     <g id="line2d_16">
      <g>
       <use style="stroke:#000000;stroke-width:0.8;" x="252.392727" xlink:href="#m540f1108ce" y="104.451174"/>
      </g>
     </g>
     <g id="text_17">
      <!-- 30 -->
      <defs>
       <path d="M 40.578125 39.3125 
Q 47.65625 37.796875 51.625 33 
Q 55.609375 28.21875 55.609375 21.1875 
Q 55.609375 10.40625 48.1875 4.484375 
Q 40.765625 -1.421875 27.09375 -1.421875 
Q 22.515625 -1.421875 17.65625 -0.515625 
Q 12.796875 0.390625 7.625 2.203125 
L 7.625 11.71875 
Q 11.71875 9.328125 16.59375 8.109375 
Q 21.484375 6.890625 26.8125 6.890625 
Q 36.078125 6.890625 40.9375 10.546875 
Q 45.796875 14.203125 45.796875 21.1875 
Q 45.796875 27.640625 41.28125 31.265625 
Q 36.765625 34.90625 28.71875 34.90625 
L 20.21875 34.90625 
L 20.21875 43.015625 
L 29.109375 43.015625 
Q 36.375 43.015625 40.234375 45.921875 
Q 44.09375 48.828125 44.09375 54.296875 
Q 44.09375 59.90625 40.109375 62.90625 
Q 36.140625 65.921875 28.71875 65.921875 
Q 24.65625 65.921875 20.015625 65.03125 
Q 15.375 64.15625 9.8125 62.3125 
L 9.8125 71.09375 
Q 15.4375 72.65625 20.34375 73.4375 
Q 25.25 74.21875 29.59375 74.21875 
Q 40.828125 74.21875 47.359375 69.109375 
Q 53.90625 64.015625 53.90625 55.328125 
Q 53.90625 49.265625 50.4375 45.09375 
Q 46.96875 40.921875 40.578125 39.3125 
z
" id="DejaVuSans-33"/>
      </defs>
      <g transform="translate(232.667727 108.250392)scale(0.1 -0.1)">
       <use xlink:href="#DejaVuSans-33"/>
       <use x="63.623047" xlink:href="#DejaVuSans-30"/>
      </g>
     </g>
    </g>
    <g id="ytick_8">
     <g id="line2d_17">
      <g>
       <use style="stroke:#000000;stroke-width:0.8;" x="252.392727" xlink:href="#m540f1108ce" y="79.459438"/>
      </g>
     </g>
     <g id="text_18">
      <!-- 40 -->
      <g transform="translate(232.667727 83.258657)scale(0.1 -0.1)">
       <use xlink:href="#DejaVuSans-34"/>
       <use x="63.623047" xlink:href="#DejaVuSans-30"/>
      </g>
     </g>
    </g>
    <g id="ytick_9">
     <g id="line2d_18">
      <g>
       <use style="stroke:#000000;stroke-width:0.8;" x="252.392727" xlink:href="#m540f1108ce" y="54.467702"/>
      </g>
     </g>
     <g id="text_19">
      <!-- 50 -->
      <defs>
       <path d="M 10.796875 72.90625 
L 49.515625 72.90625 
L 49.515625 64.59375 
L 19.828125 64.59375 
L 19.828125 46.734375 
Q 21.96875 47.46875 24.109375 47.828125 
Q 26.265625 48.1875 28.421875 48.1875 
Q 40.625 48.1875 47.75 41.5 
Q 54.890625 34.8125 54.890625 23.390625 
Q 54.890625 11.625 47.5625 5.09375 
Q 40.234375 -1.421875 26.90625 -1.421875 
Q 22.3125 -1.421875 17.546875 -0.640625 
Q 12.796875 0.140625 7.71875 1.703125 
L 7.71875 11.625 
Q 12.109375 9.234375 16.796875 8.0625 
Q 21.484375 6.890625 26.703125 6.890625 
Q 35.15625 6.890625 40.078125 11.328125 
Q 45.015625 15.765625 45.015625 23.390625 
Q 45.015625 31 40.078125 35.4375 
Q 35.15625 39.890625 26.703125 39.890625 
Q 22.75 39.890625 18.8125 39.015625 
Q 14.890625 38.140625 10.796875 36.28125 
z
" id="DejaVuSans-35"/>
      </defs>
      <g transform="translate(232.667727 58.266921)scale(0.1 -0.1)">
       <use xlink:href="#DejaVuSans-35"/>
       <use x="63.623047" xlink:href="#DejaVuSans-30"/>
      </g>
     </g>
    </g>
   </g>
   <g id="line2d_19">
    <path clip-path="url(#p60fa16240f)" d="M 259.77124 129.442909 
L 262.27243 151.935471 
L 264.773621 121.945388 
L 267.274812 131.942083 
L 269.776002 146.937124 
L 272.277193 144.43795 
L 274.778384 156.933818 
L 277.279574 129.442909 
L 279.780765 119.446215 
L 282.281955 129.442909 
L 284.783146 124.444562 
L 287.284337 144.43795 
L 289.785527 151.935471 
L 292.286718 141.938777 
L 294.787909 116.947041 
L 297.289099 129.442909 
L 299.79029 124.444562 
L 302.291481 116.947041 
L 304.792671 129.442909 
L 307.293862 136.94043 
L 309.795053 109.449521 
L 312.296243 106.950347 
L 314.797434 109.449521 
L 317.298624 111.948694 
L 319.799815 106.950347 
L 322.301006 111.948694 
L 324.802196 99.452826 
L 327.303387 116.947041 
L 329.804578 84.457785 
L 332.305768 121.945388 
L 334.806959 119.446215 
L 337.30815 119.446215 
L 339.80934 126.943736 
L 342.310531 111.948694 
L 344.811722 94.454479 
L 347.312912 124.444562 
L 349.814103 119.446215 
L 352.315293 104.451174 
L 354.816484 124.444562 
L 357.317675 144.43795 
L 359.818865 71.961917 
L 362.320056 71.961917 
L 364.821247 66.96357 
L 367.322437 46.970182 
L 369.823628 101.952 
L 372.324819 79.459438 
L 374.826009 56.966876 
L 377.3272 64.464397 
L 379.828391 79.459438 
L 382.329581 61.965223 
L 384.830772 66.96357 
L 387.331962 84.457785 
L 389.833153 76.960264 
L 392.334344 71.961917 
L 394.835534 46.970182 
L 397.336725 79.459438 
L 399.837916 109.449521 
L 402.339106 84.457785 
L 404.840297 66.96357 
L 407.341488 51.968529 
" style="fill:none;stroke:#000000;stroke-dasharray:5.55,2.4;stroke-dashoffset:0;stroke-width:1.5;"/>
    <g clip-path="url(#p60fa16240f)">
     <use style="stroke:#000000;" x="259.77124" xlink:href="#m9ea1738ff9" y="129.442909"/>
     <use style="stroke:#000000;" x="262.27243" xlink:href="#m9ea1738ff9" y="151.935471"/>
     <use style="stroke:#000000;" x="264.773621" xlink:href="#m9ea1738ff9" y="121.945388"/>
     <use style="stroke:#000000;" x="267.274812" xlink:href="#m9ea1738ff9" y="131.942083"/>
     <use style="stroke:#000000;" x="269.776002" xlink:href="#m9ea1738ff9" y="146.937124"/>
     <use style="stroke:#000000;" x="272.277193" xlink:href="#m9ea1738ff9" y="144.43795"/>
     <use style="stroke:#000000;" x="274.778384" xlink:href="#m9ea1738ff9" y="156.933818"/>
     <use style="stroke:#000000;" x="277.279574" xlink:href="#m9ea1738ff9" y="129.442909"/>
     <use style="stroke:#000000;" x="279.780765" xlink:href="#m9ea1738ff9" y="119.446215"/>
     <use style="stroke:#000000;" x="282.281955" xlink:href="#m9ea1738ff9" y="129.442909"/>
     <use style="stroke:#000000;" x="284.783146" xlink:href="#m9ea1738ff9" y="124.444562"/>
     <use style="stroke:#000000;" x="287.284337" xlink:href="#m9ea1738ff9" y="144.43795"/>
     <use style="stroke:#000000;" x="289.785527" xlink:href="#m9ea1738ff9" y="151.935471"/>
     <use style="stroke:#000000;" x="292.286718" xlink:href="#m9ea1738ff9" y="141.938777"/>
     <use style="stroke:#000000;" x="294.787909" xlink:href="#m9ea1738ff9" y="116.947041"/>
     <use style="stroke:#000000;" x="297.289099" xlink:href="#m9ea1738ff9" y="129.442909"/>
     <use style="stroke:#000000;" x="299.79029" xlink:href="#m9ea1738ff9" y="124.444562"/>
     <use style="stroke:#000000;" x="302.291481" xlink:href="#m9ea1738ff9" y="116.947041"/>
     <use style="stroke:#000000;" x="304.792671" xlink:href="#m9ea1738ff9" y="129.442909"/>
     <use style="stroke:#000000;" x="307.293862" xlink:href="#m9ea1738ff9" y="136.94043"/>
     <use style="stroke:#000000;" x="309.795053" xlink:href="#m9ea1738ff9" y="109.449521"/>
     <use style="stroke:#000000;" x="312.296243" xlink:href="#m9ea1738ff9" y="106.950347"/>
     <use style="stroke:#000000;" x="314.797434" xlink:href="#m9ea1738ff9" y="109.449521"/>
     <use style="stroke:#000000;" x="317.298624" xlink:href="#m9ea1738ff9" y="111.948694"/>
     <use style="stroke:#000000;" x="319.799815" xlink:href="#m9ea1738ff9" y="106.950347"/>
     <use style="stroke:#000000;" x="322.301006" xlink:href="#m9ea1738ff9" y="111.948694"/>
     <use style="stroke:#000000;" x="324.802196" xlink:href="#m9ea1738ff9" y="99.452826"/>
     <use style="stroke:#000000;" x="327.303387" xlink:href="#m9ea1738ff9" y="116.947041"/>
     <use style="stroke:#000000;" x="329.804578" xlink:href="#m9ea1738ff9" y="84.457785"/>
     <use style="stroke:#000000;" x="332.305768" xlink:href="#m9ea1738ff9" y="121.945388"/>
     <use style="stroke:#000000;" x="334.806959" xlink:href="#m9ea1738ff9" y="119.446215"/>
     <use style="stroke:#000000;" x="337.30815" xlink:href="#m9ea1738ff9" y="119.446215"/>
     <use style="stroke:#000000;" x="339.80934" xlink:href="#m9ea1738ff9" y="126.943736"/>
     <use style="stroke:#000000;" x="342.310531" xlink:href="#m9ea1738ff9" y="111.948694"/>
     <use style="stroke:#000000;" x="344.811722" xlink:href="#m9ea1738ff9" y="94.454479"/>
     <use style="stroke:#000000;" x="347.312912" xlink:href="#m9ea1738ff9" y="124.444562"/>
     <use style="stroke:#000000;" x="349.814103" xlink:href="#m9ea1738ff9" y="119.446215"/>
     <use style="stroke:#000000;" x="352.315293" xlink:href="#m9ea1738ff9" y="104.451174"/>
     <use style="stroke:#000000;" x="354.816484" xlink:href="#m9ea1738ff9" y="124.444562"/>
     <use style="stroke:#000000;" x="357.317675" xlink:href="#m9ea1738ff9" y="144.43795"/>
     <use style="stroke:#000000;" x="359.818865" xlink:href="#m9ea1738ff9" y="71.961917"/>
     <use style="stroke:#000000;" x="362.320056" xlink:href="#m9ea1738ff9" y="71.961917"/>
     <use style="stroke:#000000;" x="364.821247" xlink:href="#m9ea1738ff9" y="66.96357"/>
     <use style="stroke:#000000;" x="367.322437" xlink:href="#m9ea1738ff9" y="46.970182"/>
     <use style="stroke:#000000;" x="369.823628" xlink:href="#m9ea1738ff9" y="101.952"/>
     <use style="stroke:#000000;" x="372.324819" xlink:href="#m9ea1738ff9" y="79.459438"/>
     <use style="stroke:#000000;" x="374.826009" xlink:href="#m9ea1738ff9" y="56.966876"/>
     <use style="stroke:#000000;" x="377.3272" xlink:href="#m9ea1738ff9" y="64.464397"/>
     <use style="stroke:#000000;" x="379.828391" xlink:href="#m9ea1738ff9" y="79.459438"/>
     <use style="stroke:#000000;" x="382.329581" xlink:href="#m9ea1738ff9" y="61.965223"/>
     <use style="stroke:#000000;" x="384.830772" xlink:href="#m9ea1738ff9" y="66.96357"/>
     <use style="stroke:#000000;" x="387.331962" xlink:href="#m9ea1738ff9" y="84.457785"/>
     <use style="stroke:#000000;" x="389.833153" xlink:href="#m9ea1738ff9" y="76.960264"/>
     <use style="stroke:#000000;" x="392.334344" xlink:href="#m9ea1738ff9" y="71.961917"/>
     <use style="stroke:#000000;" x="394.835534" xlink:href="#m9ea1738ff9" y="46.970182"/>
     <use style="stroke:#000000;" x="397.336725" xlink:href="#m9ea1738ff9" y="79.459438"/>
     <use style="stroke:#000000;" x="399.837916" xlink:href="#m9ea1738ff9" y="109.449521"/>
     <use style="stroke:#000000;" x="402.339106" xlink:href="#m9ea1738ff9" y="84.457785"/>
     <use style="stroke:#000000;" x="404.840297" xlink:href="#m9ea1738ff9" y="66.96357"/>
     <use style="stroke:#000000;" x="407.341488" xlink:href="#m9ea1738ff9" y="51.968529"/>
    </g>
   </g>
   <g id="patch_8">
    <path d="M 252.392727 162.432 
L 252.392727 41.472 
" style="fill:none;stroke:#000000;stroke-linecap:square;stroke-linejoin:miter;stroke-width:0.8;"/>
   </g>
   <g id="patch_9">
    <path d="M 414.72 162.432 
L 414.72 41.472 
" style="fill:none;stroke:#000000;stroke-linecap:square;stroke-linejoin:miter;stroke-width:0.8;"/>
   </g>
   <g id="patch_10">
    <path d="M 252.392727 162.432 
L 414.72 162.432 
" style="fill:none;stroke:#000000;stroke-linecap:square;stroke-linejoin:miter;stroke-width:0.8;"/>
   </g>
   <g id="patch_11">
    <path d="M 252.392727 41.472 
L 414.72 41.472 
" style="fill:none;stroke:#000000;stroke-linecap:square;stroke-linejoin:miter;stroke-width:0.8;"/>
   </g>
  </g>
  <g id="axes_3">
   <g id="patch_12">
    <path d="M 57.6 307.584 
L 219.927273 307.584 
L 219.927273 186.624 
L 57.6 186.624 
z
" style="fill:#ffffff;"/>
   </g>
   <g id="matplotlib.axis_5">
    <g id="xtick_9">
     <g id="line2d_20">
      <g>
       <use style="stroke:#000000;stroke-width:0.8;" x="64.978512" xlink:href="#mb3ef6d7b8c" y="307.584"/>
      </g>
     </g>
     <g id="text_20">
      <!-- 0 -->
      <g transform="translate(61.797262 322.182437)scale(0.1 -0.1)">
       <use xlink:href="#DejaVuSans-30"/>
      </g>
     </g>
    </g>
    <g id="xtick_10">
     <g id="line2d_21">
      <g>
       <use style="stroke:#000000;stroke-width:0.8;" x="115.002325" xlink:href="#mb3ef6d7b8c" y="307.584"/>
      </g>
     </g>
     <g id="text_21">
      <!-- 20 -->
      <g transform="translate(108.639825 322.182437)scale(0.1 -0.1)">
       <use xlink:href="#DejaVuSans-32"/>
       <use x="63.623047" xlink:href="#DejaVuSans-30"/>
      </g>
     </g>
    </g>
    <g id="xtick_11">
     <g id="line2d_22">
      <g>
       <use style="stroke:#000000;stroke-width:0.8;" x="165.026138" xlink:href="#mb3ef6d7b8c" y="307.584"/>
      </g>
     </g>
     <g id="text_22">
      <!-- 40 -->
      <g transform="translate(158.663638 322.182437)scale(0.1 -0.1)">
       <use xlink:href="#DejaVuSans-34"/>
       <use x="63.623047" xlink:href="#DejaVuSans-30"/>
      </g>
     </g>
    </g>
    <g id="xtick_12">
     <g id="line2d_23">
      <g>
       <use style="stroke:#000000;stroke-width:0.8;" x="215.049951" xlink:href="#mb3ef6d7b8c" y="307.584"/>
      </g>
     </g>
     <g id="text_23">
      <!-- 60 -->
      <g transform="translate(208.687451 322.182437)scale(0.1 -0.1)">
       <use xlink:href="#DejaVuSans-36"/>
       <use x="63.623047" xlink:href="#DejaVuSans-30"/>
      </g>
     </g>
    </g>
    <g id="text_24">
     <!-- rb_total -->
     <defs>
      <path d="M 41.109375 46.296875 
Q 39.59375 47.171875 37.8125 47.578125 
Q 36.03125 48 33.890625 48 
Q 26.265625 48 22.1875 43.046875 
Q 18.109375 38.09375 18.109375 28.8125 
L 18.109375 0 
L 9.078125 0 
L 9.078125 54.6875 
L 18.109375 54.6875 
L 18.109375 46.1875 
Q 20.953125 51.171875 25.484375 53.578125 
Q 30.03125 56 36.53125 56 
Q 37.453125 56 38.578125 55.875 
Q 39.703125 55.765625 41.0625 55.515625 
z
" id="DejaVuSans-72"/>
     </defs>
     <g transform="translate(119.601136 335.860562)scale(0.1 -0.1)">
      <use xlink:href="#DejaVuSans-72"/>
      <use x="41.113281" xlink:href="#DejaVuSans-62"/>
      <use x="104.589844" xlink:href="#DejaVuSans-5f"/>
      <use x="154.589844" xlink:href="#DejaVuSans-74"/>
      <use x="193.798828" xlink:href="#DejaVuSans-6f"/>
      <use x="254.980469" xlink:href="#DejaVuSans-74"/>
      <use x="294.189453" xlink:href="#DejaVuSans-61"/>
      <use x="355.46875" xlink:href="#DejaVuSans-6c"/>
     </g>
    </g>
   </g>
   <g id="matplotlib.axis_6">
    <g id="ytick_10">
     <g id="line2d_24">
      <g>
       <use style="stroke:#000000;stroke-width:0.8;" x="57.6" xlink:href="#m540f1108ce" y="302.085818"/>
      </g>
     </g>
     <g id="text_25">
      <!-- 10 -->
      <g transform="translate(37.875 305.885037)scale(0.1 -0.1)">
       <use xlink:href="#DejaVuSans-31"/>
       <use x="63.623047" xlink:href="#DejaVuSans-30"/>
      </g>
     </g>
    </g>
    <g id="ytick_11">
     <g id="line2d_25">
      <g>
       <use style="stroke:#000000;stroke-width:0.8;" x="57.6" xlink:href="#m540f1108ce" y="273.890014"/>
      </g>
     </g>
     <g id="text_26">
      <!-- 20 -->
      <g transform="translate(37.875 277.689233)scale(0.1 -0.1)">
       <use xlink:href="#DejaVuSans-32"/>
       <use x="63.623047" xlink:href="#DejaVuSans-30"/>
      </g>
     </g>
    </g>
    <g id="ytick_12">
     <g id="line2d_26">
      <g>
       <use style="stroke:#000000;stroke-width:0.8;" x="57.6" xlink:href="#m540f1108ce" y="245.69421"/>
      </g>
     </g>
     <g id="text_27">
      <!-- 30 -->
      <g transform="translate(37.875 249.493429)scale(0.1 -0.1)">
       <use xlink:href="#DejaVuSans-33"/>
       <use x="63.623047" xlink:href="#DejaVuSans-30"/>
      </g>
     </g>
    </g>
    <g id="ytick_13">
     <g id="line2d_27">
      <g>
       <use style="stroke:#000000;stroke-width:0.8;" x="57.6" xlink:href="#m540f1108ce" y="217.498406"/>
      </g>
     </g>
     <g id="text_28">
      <!-- 40 -->
      <g transform="translate(37.875 221.297624)scale(0.1 -0.1)">
       <use xlink:href="#DejaVuSans-34"/>
       <use x="63.623047" xlink:href="#DejaVuSans-30"/>
      </g>
     </g>
    </g>
    <g id="ytick_14">
     <g id="line2d_28">
      <g>
       <use style="stroke:#000000;stroke-width:0.8;" x="57.6" xlink:href="#m540f1108ce" y="189.302601"/>
      </g>
     </g>
     <g id="text_29">
      <!-- 50 -->
      <g transform="translate(37.875 193.10182)scale(0.1 -0.1)">
       <use xlink:href="#DejaVuSans-35"/>
       <use x="63.623047" xlink:href="#DejaVuSans-30"/>
      </g>
     </g>
    </g>
   </g>
   <g id="line2d_29">
    <path clip-path="url(#p2ffab783ff)" d="M 64.978512 285.168336 
L 67.479703 265.431273 
L 69.980894 293.627077 
L 72.482084 273.890014 
L 74.983275 279.529175 
L 77.484466 296.446657 
L 79.985656 293.627077 
L 82.486847 287.987916 
L 84.988038 296.446657 
L 87.489228 276.709594 
L 89.990419 259.792112 
L 92.491609 285.168336 
L 94.9928 296.446657 
L 97.493991 293.627077 
L 99.995181 287.987916 
L 102.496372 299.266238 
L 104.997563 299.266238 
L 107.498753 276.709594 
L 109.999944 273.890014 
L 112.501135 293.627077 
L 115.002325 251.333371 
L 117.503516 265.431273 
L 120.004707 287.987916 
L 122.505897 273.890014 
L 125.007088 279.529175 
L 127.508278 293.627077 
L 130.009469 268.250853 
L 132.51066 285.168336 
L 135.01185 287.987916 
L 137.513041 285.168336 
L 140.014232 273.890014 
L 142.515422 302.085818 
L 145.016613 262.611692 
L 147.517804 262.611692 
L 150.018994 285.168336 
L 152.520185 273.890014 
L 155.021376 265.431273 
L 157.522566 279.529175 
L 160.023757 251.333371 
L 162.524947 259.792112 
L 165.026138 223.137566 
L 167.527329 276.709594 
L 170.028519 262.611692 
L 172.52971 214.678825 
L 175.030901 262.611692 
L 177.532091 192.122182 
L 180.033282 256.972531 
L 182.534473 254.152951 
L 185.035663 223.137566 
L 187.536854 225.957147 
L 190.038045 262.611692 
L 192.539235 262.611692 
L 195.040426 271.070434 
L 197.541616 251.333371 
L 200.042807 237.235469 
L 202.543998 242.874629 
L 205.045188 197.761343 
L 207.546379 245.69421 
L 210.04757 211.859245 
L 212.54876 237.235469 
" style="fill:none;stroke:#000000;stroke-dasharray:5.55,2.4;stroke-dashoffset:0;stroke-width:1.5;"/>
    <g clip-path="url(#p2ffab783ff)">
     <use style="stroke:#000000;" x="64.978512" xlink:href="#m9ea1738ff9" y="285.168336"/>
     <use style="stroke:#000000;" x="67.479703" xlink:href="#m9ea1738ff9" y="265.431273"/>
     <use style="stroke:#000000;" x="69.980894" xlink:href="#m9ea1738ff9" y="293.627077"/>
     <use style="stroke:#000000;" x="72.482084" xlink:href="#m9ea1738ff9" y="273.890014"/>
     <use style="stroke:#000000;" x="74.983275" xlink:href="#m9ea1738ff9" y="279.529175"/>
     <use style="stroke:#000000;" x="77.484466" xlink:href="#m9ea1738ff9" y="296.446657"/>
     <use style="stroke:#000000;" x="79.985656" xlink:href="#m9ea1738ff9" y="293.627077"/>
     <use style="stroke:#000000;" x="82.486847" xlink:href="#m9ea1738ff9" y="287.987916"/>
     <use style="stroke:#000000;" x="84.988038" xlink:href="#m9ea1738ff9" y="296.446657"/>
     <use style="stroke:#000000;" x="87.489228" xlink:href="#m9ea1738ff9" y="276.709594"/>
     <use style="stroke:#000000;" x="89.990419" xlink:href="#m9ea1738ff9" y="259.792112"/>
     <use style="stroke:#000000;" x="92.491609" xlink:href="#m9ea1738ff9" y="285.168336"/>
     <use style="stroke:#000000;" x="94.9928" xlink:href="#m9ea1738ff9" y="296.446657"/>
     <use style="stroke:#000000;" x="97.493991" xlink:href="#m9ea1738ff9" y="293.627077"/>
     <use style="stroke:#000000;" x="99.995181" xlink:href="#m9ea1738ff9" y="287.987916"/>
     <use style="stroke:#000000;" x="102.496372" xlink:href="#m9ea1738ff9" y="299.266238"/>
     <use style="stroke:#000000;" x="104.997563" xlink:href="#m9ea1738ff9" y="299.266238"/>
     <use style="stroke:#000000;" x="107.498753" xlink:href="#m9ea1738ff9" y="276.709594"/>
     <use style="stroke:#000000;" x="109.999944" xlink:href="#m9ea1738ff9" y="273.890014"/>
     <use style="stroke:#000000;" x="112.501135" xlink:href="#m9ea1738ff9" y="293.627077"/>
     <use style="stroke:#000000;" x="115.002325" xlink:href="#m9ea1738ff9" y="251.333371"/>
     <use style="stroke:#000000;" x="117.503516" xlink:href="#m9ea1738ff9" y="265.431273"/>
     <use style="stroke:#000000;" x="120.004707" xlink:href="#m9ea1738ff9" y="287.987916"/>
     <use style="stroke:#000000;" x="122.505897" xlink:href="#m9ea1738ff9" y="273.890014"/>
     <use style="stroke:#000000;" x="125.007088" xlink:href="#m9ea1738ff9" y="279.529175"/>
     <use style="stroke:#000000;" x="127.508278" xlink:href="#m9ea1738ff9" y="293.627077"/>
     <use style="stroke:#000000;" x="130.009469" xlink:href="#m9ea1738ff9" y="268.250853"/>
     <use style="stroke:#000000;" x="132.51066" xlink:href="#m9ea1738ff9" y="285.168336"/>
     <use style="stroke:#000000;" x="135.01185" xlink:href="#m9ea1738ff9" y="287.987916"/>
     <use style="stroke:#000000;" x="137.513041" xlink:href="#m9ea1738ff9" y="285.168336"/>
     <use style="stroke:#000000;" x="140.014232" xlink:href="#m9ea1738ff9" y="273.890014"/>
     <use style="stroke:#000000;" x="142.515422" xlink:href="#m9ea1738ff9" y="302.085818"/>
     <use style="stroke:#000000;" x="145.016613" xlink:href="#m9ea1738ff9" y="262.611692"/>
     <use style="stroke:#000000;" x="147.517804" xlink:href="#m9ea1738ff9" y="262.611692"/>
     <use style="stroke:#000000;" x="150.018994" xlink:href="#m9ea1738ff9" y="285.168336"/>
     <use style="stroke:#000000;" x="152.520185" xlink:href="#m9ea1738ff9" y="273.890014"/>
     <use style="stroke:#000000;" x="155.021376" xlink:href="#m9ea1738ff9" y="265.431273"/>
     <use style="stroke:#000000;" x="157.522566" xlink:href="#m9ea1738ff9" y="279.529175"/>
     <use style="stroke:#000000;" x="160.023757" xlink:href="#m9ea1738ff9" y="251.333371"/>
     <use style="stroke:#000000;" x="162.524947" xlink:href="#m9ea1738ff9" y="259.792112"/>
     <use style="stroke:#000000;" x="165.026138" xlink:href="#m9ea1738ff9" y="223.137566"/>
     <use style="stroke:#000000;" x="167.527329" xlink:href="#m9ea1738ff9" y="276.709594"/>
     <use style="stroke:#000000;" x="170.028519" xlink:href="#m9ea1738ff9" y="262.611692"/>
     <use style="stroke:#000000;" x="172.52971" xlink:href="#m9ea1738ff9" y="214.678825"/>
     <use style="stroke:#000000;" x="175.030901" xlink:href="#m9ea1738ff9" y="262.611692"/>
     <use style="stroke:#000000;" x="177.532091" xlink:href="#m9ea1738ff9" y="192.122182"/>
     <use style="stroke:#000000;" x="180.033282" xlink:href="#m9ea1738ff9" y="256.972531"/>
     <use style="stroke:#000000;" x="182.534473" xlink:href="#m9ea1738ff9" y="254.152951"/>
     <use style="stroke:#000000;" x="185.035663" xlink:href="#m9ea1738ff9" y="223.137566"/>
     <use style="stroke:#000000;" x="187.536854" xlink:href="#m9ea1738ff9" y="225.957147"/>
     <use style="stroke:#000000;" x="190.038045" xlink:href="#m9ea1738ff9" y="262.611692"/>
     <use style="stroke:#000000;" x="192.539235" xlink:href="#m9ea1738ff9" y="262.611692"/>
     <use style="stroke:#000000;" x="195.040426" xlink:href="#m9ea1738ff9" y="271.070434"/>
     <use style="stroke:#000000;" x="197.541616" xlink:href="#m9ea1738ff9" y="251.333371"/>
     <use style="stroke:#000000;" x="200.042807" xlink:href="#m9ea1738ff9" y="237.235469"/>
     <use style="stroke:#000000;" x="202.543998" xlink:href="#m9ea1738ff9" y="242.874629"/>
     <use style="stroke:#000000;" x="205.045188" xlink:href="#m9ea1738ff9" y="197.761343"/>
     <use style="stroke:#000000;" x="207.546379" xlink:href="#m9ea1738ff9" y="245.69421"/>
     <use style="stroke:#000000;" x="210.04757" xlink:href="#m9ea1738ff9" y="211.859245"/>
     <use style="stroke:#000000;" x="212.54876" xlink:href="#m9ea1738ff9" y="237.235469"/>
    </g>
   </g>
   <g id="patch_13">
    <path d="M 57.6 307.584 
L 57.6 186.624 
" style="fill:none;stroke:#000000;stroke-linecap:square;stroke-linejoin:miter;stroke-width:0.8;"/>
   </g>
   <g id="patch_14">
    <path d="M 219.927273 307.584 
L 219.927273 186.624 
" style="fill:none;stroke:#000000;stroke-linecap:square;stroke-linejoin:miter;stroke-width:0.8;"/>
   </g>
   <g id="patch_15">
    <path d="M 57.6 307.584 
L 219.927273 307.584 
" style="fill:none;stroke:#000000;stroke-linecap:square;stroke-linejoin:miter;stroke-width:0.8;"/>
   </g>
   <g id="patch_16">
    <path d="M 57.6 186.624 
L 219.927273 186.624 
" style="fill:none;stroke:#000000;stroke-linecap:square;stroke-linejoin:miter;stroke-width:0.8;"/>
   </g>
  </g>
  <g id="axes_4">
   <g id="patch_17">
    <path d="M 252.392727 307.584 
L 414.72 307.584 
L 414.72 186.624 
L 252.392727 186.624 
z
" style="fill:#ffffff;"/>
   </g>
   <g id="matplotlib.axis_7">
    <g id="xtick_13">
     <g id="line2d_30">
      <g>
       <use style="stroke:#000000;stroke-width:0.8;" x="259.77124" xlink:href="#mb3ef6d7b8c" y="307.584"/>
      </g>
     </g>
     <g id="text_30">
      <!-- 0 -->
      <g transform="translate(256.58999 322.182437)scale(0.1 -0.1)">
       <use xlink:href="#DejaVuSans-30"/>
      </g>
     </g>
    </g>
    <g id="xtick_14">
     <g id="line2d_31">
      <g>
       <use style="stroke:#000000;stroke-width:0.8;" x="309.795053" xlink:href="#mb3ef6d7b8c" y="307.584"/>
      </g>
     </g>
     <g id="text_31">
      <!-- 20 -->
      <g transform="translate(303.432553 322.182437)scale(0.1 -0.1)">
       <use xlink:href="#DejaVuSans-32"/>
       <use x="63.623047" xlink:href="#DejaVuSans-30"/>
      </g>
     </g>
    </g>
    <g id="xtick_15">
     <g id="line2d_32">
      <g>
       <use style="stroke:#000000;stroke-width:0.8;" x="359.818865" xlink:href="#mb3ef6d7b8c" y="307.584"/>
      </g>
     </g>
     <g id="text_32">
      <!-- 40 -->
      <g transform="translate(353.456365 322.182437)scale(0.1 -0.1)">
       <use xlink:href="#DejaVuSans-34"/>
       <use x="63.623047" xlink:href="#DejaVuSans-30"/>
      </g>
     </g>
    </g>
    <g id="xtick_16">
     <g id="line2d_33">
      <g>
       <use style="stroke:#000000;stroke-width:0.8;" x="409.842678" xlink:href="#mb3ef6d7b8c" y="307.584"/>
      </g>
     </g>
     <g id="text_33">
      <!-- 60 -->
      <g transform="translate(403.480178 322.182437)scale(0.1 -0.1)">
       <use xlink:href="#DejaVuSans-36"/>
       <use x="63.623047" xlink:href="#DejaVuSans-30"/>
      </g>
     </g>
    </g>
    <g id="text_34">
     <!-- jjrb -->
     <g transform="translate(325.548551 335.860562)scale(0.1 -0.1)">
      <use xlink:href="#DejaVuSans-6a"/>
      <use x="27.783203" xlink:href="#DejaVuSans-6a"/>
      <use x="55.566406" xlink:href="#DejaVuSans-72"/>
      <use x="96.679688" xlink:href="#DejaVuSans-62"/>
     </g>
    </g>
   </g>
   <g id="matplotlib.axis_8">
    <g id="ytick_15">
     <g id="line2d_34">
      <g>
       <use style="stroke:#000000;stroke-width:0.8;" x="252.392727" xlink:href="#m540f1108ce" y="305.140364"/>
      </g>
     </g>
     <g id="text_35">
      <!-- 20 -->
      <g transform="translate(232.667727 308.939582)scale(0.1 -0.1)">
       <use xlink:href="#DejaVuSans-32"/>
       <use x="63.623047" xlink:href="#DejaVuSans-30"/>
      </g>
     </g>
    </g>
    <g id="ytick_16">
     <g id="line2d_35">
      <g>
       <use style="stroke:#000000;stroke-width:0.8;" x="252.392727" xlink:href="#m540f1108ce" y="274.594909"/>
      </g>
     </g>
     <g id="text_36">
      <!-- 40 -->
      <g transform="translate(232.667727 278.394128)scale(0.1 -0.1)">
       <use xlink:href="#DejaVuSans-34"/>
       <use x="63.623047" xlink:href="#DejaVuSans-30"/>
      </g>
     </g>
    </g>
    <g id="ytick_17">
     <g id="line2d_36">
      <g>
       <use style="stroke:#000000;stroke-width:0.8;" x="252.392727" xlink:href="#m540f1108ce" y="244.049455"/>
      </g>
     </g>
     <g id="text_37">
      <!-- 60 -->
      <g transform="translate(232.667727 247.848673)scale(0.1 -0.1)">
       <use xlink:href="#DejaVuSans-36"/>
       <use x="63.623047" xlink:href="#DejaVuSans-30"/>
      </g>
     </g>
    </g>
    <g id="ytick_18">
     <g id="line2d_37">
      <g>
       <use style="stroke:#000000;stroke-width:0.8;" x="252.392727" xlink:href="#m540f1108ce" y="213.504"/>
      </g>
     </g>
     <g id="text_38">
      <!-- 80 -->
      <g transform="translate(232.667727 217.303219)scale(0.1 -0.1)">
       <use xlink:href="#DejaVuSans-38"/>
       <use x="63.623047" xlink:href="#DejaVuSans-30"/>
      </g>
     </g>
    </g>
   </g>
   <g id="line2d_38">
    <path clip-path="url(#p8b36fed72c)" d="M 259.77124 280.704 
L 262.27243 283.758545 
L 264.773621 280.704 
L 267.274812 276.122182 
L 269.776002 288.340364 
L 272.277193 295.976727 
L 274.778384 302.085818 
L 277.279574 282.231273 
L 279.780765 280.704 
L 282.281955 276.122182 
L 284.783146 263.904 
L 287.284337 289.867636 
L 289.785527 300.558545 
L 292.286718 292.922182 
L 294.787909 274.594909 
L 297.289099 288.340364 
L 299.79029 285.285818 
L 302.291481 268.485818 
L 304.792671 274.594909 
L 307.293862 289.867636 
L 309.795053 250.158545 
L 312.296243 256.267636 
L 314.797434 270.013091 
L 317.298624 263.904 
L 319.799815 263.904 
L 322.301006 274.594909 
L 324.802196 253.213091 
L 327.303387 273.067636 
L 329.804578 254.740364 
L 332.305768 276.122182 
L 334.806959 268.485818 
L 337.30815 283.758545 
L 339.80934 266.958545 
L 342.310531 257.794909 
L 344.811722 259.322182 
L 347.312912 271.540364 
L 349.814103 263.904 
L 352.315293 262.376727 
L 354.816484 259.322182 
L 357.317675 276.122182 
L 359.818865 211.976727 
L 362.320056 240.994909 
L 364.821247 230.304 
L 367.322437 192.122182 
L 369.823628 251.685818 
L 372.324819 199.758545 
L 374.826009 221.140364 
L 377.3272 224.194909 
L 379.828391 216.558545 
L 382.329581 207.394909 
L 384.830772 230.304 
L 387.331962 240.994909 
L 389.833153 240.994909 
L 392.334344 227.249455 
L 394.835534 204.340364 
L 397.336725 227.249455 
L 399.837916 221.140364 
L 402.339106 231.831273 
L 404.840297 202.813091 
L 407.341488 207.394909 
" style="fill:none;stroke:#000000;stroke-dasharray:5.55,2.4;stroke-dashoffset:0;stroke-width:1.5;"/>
    <g clip-path="url(#p8b36fed72c)">
     <use style="stroke:#000000;" x="259.77124" xlink:href="#m9ea1738ff9" y="280.704"/>
     <use style="stroke:#000000;" x="262.27243" xlink:href="#m9ea1738ff9" y="283.758545"/>
     <use style="stroke:#000000;" x="264.773621" xlink:href="#m9ea1738ff9" y="280.704"/>
     <use style="stroke:#000000;" x="267.274812" xlink:href="#m9ea1738ff9" y="276.122182"/>
     <use style="stroke:#000000;" x="269.776002" xlink:href="#m9ea1738ff9" y="288.340364"/>
     <use style="stroke:#000000;" x="272.277193" xlink:href="#m9ea1738ff9" y="295.976727"/>
     <use style="stroke:#000000;" x="274.778384" xlink:href="#m9ea1738ff9" y="302.085818"/>
     <use style="stroke:#000000;" x="277.279574" xlink:href="#m9ea1738ff9" y="282.231273"/>
     <use style="stroke:#000000;" x="279.780765" xlink:href="#m9ea1738ff9" y="280.704"/>
     <use style="stroke:#000000;" x="282.281955" xlink:href="#m9ea1738ff9" y="276.122182"/>
     <use style="stroke:#000000;" x="284.783146" xlink:href="#m9ea1738ff9" y="263.904"/>
     <use style="stroke:#000000;" x="287.284337" xlink:href="#m9ea1738ff9" y="289.867636"/>
     <use style="stroke:#000000;" x="289.785527" xlink:href="#m9ea1738ff9" y="300.558545"/>
     <use style="stroke:#000000;" x="292.286718" xlink:href="#m9ea1738ff9" y="292.922182"/>
     <use style="stroke:#000000;" x="294.787909" xlink:href="#m9ea1738ff9" y="274.594909"/>
     <use style="stroke:#000000;" x="297.289099" xlink:href="#m9ea1738ff9" y="288.340364"/>
     <use style="stroke:#000000;" x="299.79029" xlink:href="#m9ea1738ff9" y="285.285818"/>
     <use style="stroke:#000000;" x="302.291481" xlink:href="#m9ea1738ff9" y="268.485818"/>
     <use style="stroke:#000000;" x="304.792671" xlink:href="#m9ea1738ff9" y="274.594909"/>
     <use style="stroke:#000000;" x="307.293862" xlink:href="#m9ea1738ff9" y="289.867636"/>
     <use style="stroke:#000000;" x="309.795053" xlink:href="#m9ea1738ff9" y="250.158545"/>
     <use style="stroke:#000000;" x="312.296243" xlink:href="#m9ea1738ff9" y="256.267636"/>
     <use style="stroke:#000000;" x="314.797434" xlink:href="#m9ea1738ff9" y="270.013091"/>
     <use style="stroke:#000000;" x="317.298624" xlink:href="#m9ea1738ff9" y="263.904"/>
     <use style="stroke:#000000;" x="319.799815" xlink:href="#m9ea1738ff9" y="263.904"/>
     <use style="stroke:#000000;" x="322.301006" xlink:href="#m9ea1738ff9" y="274.594909"/>
     <use style="stroke:#000000;" x="324.802196" xlink:href="#m9ea1738ff9" y="253.213091"/>
     <use style="stroke:#000000;" x="327.303387" xlink:href="#m9ea1738ff9" y="273.067636"/>
     <use style="stroke:#000000;" x="329.804578" xlink:href="#m9ea1738ff9" y="254.740364"/>
     <use style="stroke:#000000;" x="332.305768" xlink:href="#m9ea1738ff9" y="276.122182"/>
     <use style="stroke:#000000;" x="334.806959" xlink:href="#m9ea1738ff9" y="268.485818"/>
     <use style="stroke:#000000;" x="337.30815" xlink:href="#m9ea1738ff9" y="283.758545"/>
     <use style="stroke:#000000;" x="339.80934" xlink:href="#m9ea1738ff9" y="266.958545"/>
     <use style="stroke:#000000;" x="342.310531" xlink:href="#m9ea1738ff9" y="257.794909"/>
     <use style="stroke:#000000;" x="344.811722" xlink:href="#m9ea1738ff9" y="259.322182"/>
     <use style="stroke:#000000;" x="347.312912" xlink:href="#m9ea1738ff9" y="271.540364"/>
     <use style="stroke:#000000;" x="349.814103" xlink:href="#m9ea1738ff9" y="263.904"/>
     <use style="stroke:#000000;" x="352.315293" xlink:href="#m9ea1738ff9" y="262.376727"/>
     <use style="stroke:#000000;" x="354.816484" xlink:href="#m9ea1738ff9" y="259.322182"/>
     <use style="stroke:#000000;" x="357.317675" xlink:href="#m9ea1738ff9" y="276.122182"/>
     <use style="stroke:#000000;" x="359.818865" xlink:href="#m9ea1738ff9" y="211.976727"/>
     <use style="stroke:#000000;" x="362.320056" xlink:href="#m9ea1738ff9" y="240.994909"/>
     <use style="stroke:#000000;" x="364.821247" xlink:href="#m9ea1738ff9" y="230.304"/>
     <use style="stroke:#000000;" x="367.322437" xlink:href="#m9ea1738ff9" y="192.122182"/>
     <use style="stroke:#000000;" x="369.823628" xlink:href="#m9ea1738ff9" y="251.685818"/>
     <use style="stroke:#000000;" x="372.324819" xlink:href="#m9ea1738ff9" y="199.758545"/>
     <use style="stroke:#000000;" x="374.826009" xlink:href="#m9ea1738ff9" y="221.140364"/>
     <use style="stroke:#000000;" x="377.3272" xlink:href="#m9ea1738ff9" y="224.194909"/>
     <use style="stroke:#000000;" x="379.828391" xlink:href="#m9ea1738ff9" y="216.558545"/>
     <use style="stroke:#000000;" x="382.329581" xlink:href="#m9ea1738ff9" y="207.394909"/>
     <use style="stroke:#000000;" x="384.830772" xlink:href="#m9ea1738ff9" y="230.304"/>
     <use style="stroke:#000000;" x="387.331962" xlink:href="#m9ea1738ff9" y="240.994909"/>
     <use style="stroke:#000000;" x="389.833153" xlink:href="#m9ea1738ff9" y="240.994909"/>
     <use style="stroke:#000000;" x="392.334344" xlink:href="#m9ea1738ff9" y="227.249455"/>
     <use style="stroke:#000000;" x="394.835534" xlink:href="#m9ea1738ff9" y="204.340364"/>
     <use style="stroke:#000000;" x="397.336725" xlink:href="#m9ea1738ff9" y="227.249455"/>
     <use style="stroke:#000000;" x="399.837916" xlink:href="#m9ea1738ff9" y="221.140364"/>
     <use style="stroke:#000000;" x="402.339106" xlink:href="#m9ea1738ff9" y="231.831273"/>
     <use style="stroke:#000000;" x="404.840297" xlink:href="#m9ea1738ff9" y="202.813091"/>
     <use style="stroke:#000000;" x="407.341488" xlink:href="#m9ea1738ff9" y="207.394909"/>
    </g>
   </g>
   <g id="patch_18">
    <path d="M 252.392727 307.584 
L 252.392727 186.624 
" style="fill:none;stroke:#000000;stroke-linecap:square;stroke-linejoin:miter;stroke-width:0.8;"/>
   </g>
   <g id="patch_19">
    <path d="M 414.72 307.584 
L 414.72 186.624 
" style="fill:none;stroke:#000000;stroke-linecap:square;stroke-linejoin:miter;stroke-width:0.8;"/>
   </g>
   <g id="patch_20">
    <path d="M 252.392727 307.584 
L 414.72 307.584 
" style="fill:none;stroke:#000000;stroke-linecap:square;stroke-linejoin:miter;stroke-width:0.8;"/>
   </g>
   <g id="patch_21">
    <path d="M 252.392727 186.624 
L 414.72 186.624 
" style="fill:none;stroke:#000000;stroke-linecap:square;stroke-linejoin:miter;stroke-width:0.8;"/>
   </g>
  </g>
 </g>
 <defs>
  <clipPath id="p8407c4b925">
   <rect height="120.96" width="162.327273" x="57.6" y="41.472"/>
  </clipPath>
  <clipPath id="p60fa16240f">
   <rect height="120.96" width="162.327273" x="252.392727" y="41.472"/>
  </clipPath>
  <clipPath id="p2ffab783ff">
   <rect height="120.96" width="162.327273" x="57.6" y="186.624"/>
  </clipPath>
  <clipPath id="p8b36fed72c">
   <rect height="120.96" width="162.327273" x="252.392727" y="186.624"/>
  </clipPath>
 </defs>
</svg>
