<?xml version="1.0" encoding="utf-8" standalone="no"?>
<!DOCTYPE svg PUBLIC "-//W3C//DTD SVG 1.1//EN"
  "http://www.w3.org/Graphics/SVG/1.1/DTD/svg11.dtd">
<!-- Created with matplotlib (http://matplotlib.org/) -->
<svg height="345.6pt" version="1.1" viewBox="0 0 460.8 345.6" width="460.8pt" xmlns="http://www.w3.org/2000/svg" xmlns:xlink="http://www.w3.org/1999/xlink">
 <defs>
  <style type="text/css">
*{stroke-linecap:butt;stroke-linejoin:round;}
  </style>
 </defs>
 <g id="figure_1">
  <g id="patch_1">
   <path d="M 0 345.6 
L 460.8 345.6 
L 460.8 0 
L 0 0 
z
" style="fill:#ffffff;"/>
  </g>
  <g id="axes_1">
   <g id="patch_2">
    <path d="M 57.6 162.432 
L 219.927273 162.432 
L 219.927273 41.472 
L 57.6 41.472 
z
" style="fill:#ffffff;"/>
   </g>
   <g id="matplotlib.axis_1">
    <g id="xtick_1">
     <g id="line2d_1">
      <defs>
       <path d="M 0 0 
L 0 3.5 
" id="mf45ac25d5d" style="stroke:#000000;stroke-width:0.8;"/>
      </defs>
      <g>
       <use style="stroke:#000000;stroke-width:0.8;" x="64.978512" xlink:href="#mf45ac25d5d" y="162.432"/>
      </g>
     </g>
     <g id="text_1">
      <!-- 0 -->
      <defs>
       <path d="M 31.78125 66.40625 
Q 24.171875 66.40625 20.328125 58.90625 
Q 16.5 51.421875 16.5 36.375 
Q 16.5 21.390625 20.328125 13.890625 
Q 24.171875 6.390625 31.78125 6.390625 
Q 39.453125 6.390625 43.28125 13.890625 
Q 47.125 21.390625 47.125 36.375 
Q 47.125 51.421875 43.28125 58.90625 
Q 39.453125 66.40625 31.78125 66.40625 
z
M 31.78125 74.21875 
Q 44.046875 74.21875 50.515625 64.515625 
Q 56.984375 54.828125 56.984375 36.375 
Q 56.984375 17.96875 50.515625 8.265625 
Q 44.046875 -1.421875 31.78125 -1.421875 
Q 19.53125 -1.421875 13.0625 8.265625 
Q 6.59375 17.96875 6.59375 36.375 
Q 6.59375 54.828125 13.0625 64.515625 
Q 19.53125 74.21875 31.78125 74.21875 
z
" id="DejaVuSans-30"/>
      </defs>
      <g transform="translate(61.797262 177.030437)scale(0.1 -0.1)">
       <use xlink:href="#DejaVuSans-30"/>
      </g>
     </g>
    </g>
    <g id="xtick_2">
     <g id="line2d_2">
      <g>
       <use style="stroke:#000000;stroke-width:0.8;" x="115.002325" xlink:href="#mf45ac25d5d" y="162.432"/>
      </g>
     </g>
     <g id="text_2">
      <!-- 20 -->
      <defs>
       <path d="M 19.1875 8.296875 
L 53.609375 8.296875 
L 53.609375 0 
L 7.328125 0 
L 7.328125 8.296875 
Q 12.9375 14.109375 22.625 23.890625 
Q 32.328125 33.6875 34.8125 36.53125 
Q 39.546875 41.84375 41.421875 45.53125 
Q 43.3125 49.21875 43.3125 52.78125 
Q 43.3125 58.59375 39.234375 62.25 
Q 35.15625 65.921875 28.609375 65.921875 
Q 23.96875 65.921875 18.8125 64.3125 
Q 13.671875 62.703125 7.8125 59.421875 
L 7.8125 69.390625 
Q 13.765625 71.78125 18.9375 73 
Q 24.125 74.21875 28.421875 74.21875 
Q 39.75 74.21875 46.484375 68.546875 
Q 53.21875 62.890625 53.21875 53.421875 
Q 53.21875 48.921875 51.53125 44.890625 
Q 49.859375 40.875 45.40625 35.40625 
Q 44.1875 33.984375 37.640625 27.21875 
Q 31.109375 20.453125 19.1875 8.296875 
z
" id="DejaVuSans-32"/>
      </defs>
      <g transform="translate(108.639825 177.030437)scale(0.1 -0.1)">
       <use xlink:href="#DejaVuSans-32"/>
       <use x="63.623047" xlink:href="#DejaVuSans-30"/>
      </g>
     </g>
    </g>
    <g id="xtick_3">
     <g id="line2d_3">
      <g>
       <use style="stroke:#000000;stroke-width:0.8;" x="165.026138" xlink:href="#mf45ac25d5d" y="162.432"/>
      </g>
     </g>
     <g id="text_3">
      <!-- 40 -->
      <defs>
       <path d="M 37.796875 64.3125 
L 12.890625 25.390625 
L 37.796875 25.390625 
z
M 35.203125 72.90625 
L 47.609375 72.90625 
L 47.609375 25.390625 
L 58.015625 25.390625 
L 58.015625 17.1875 
L 47.609375 17.1875 
L 47.609375 0 
L 37.796875 0 
L 37.796875 17.1875 
L 4.890625 17.1875 
L 4.890625 26.703125 
z
" id="DejaVuSans-34"/>
      </defs>
      <g transform="translate(158.663638 177.030437)scale(0.1 -0.1)">
       <use xlink:href="#DejaVuSans-34"/>
       <use x="63.623047" xlink:href="#DejaVuSans-30"/>
      </g>
     </g>
    </g>
    <g id="xtick_4">
     <g id="line2d_4">
      <g>
       <use style="stroke:#000000;stroke-width:0.8;" x="215.049951" xlink:href="#mf45ac25d5d" y="162.432"/>
      </g>
     </g>
     <g id="text_4">
      <!-- 60 -->
      <defs>
       <path d="M 33.015625 40.375 
Q 26.375 40.375 22.484375 35.828125 
Q 18.609375 31.296875 18.609375 23.390625 
Q 18.609375 15.53125 22.484375 10.953125 
Q 26.375 6.390625 33.015625 6.390625 
Q 39.65625 6.390625 43.53125 10.953125 
Q 47.40625 15.53125 47.40625 23.390625 
Q 47.40625 31.296875 43.53125 35.828125 
Q 39.65625 40.375 33.015625 40.375 
z
M 52.59375 71.296875 
L 52.59375 62.3125 
Q 48.875 64.0625 45.09375 64.984375 
Q 41.3125 65.921875 37.59375 65.921875 
Q 27.828125 65.921875 22.671875 59.328125 
Q 17.53125 52.734375 16.796875 39.40625 
Q 19.671875 43.65625 24.015625 45.921875 
Q 28.375 48.1875 33.59375 48.1875 
Q 44.578125 48.1875 50.953125 41.515625 
Q 57.328125 34.859375 57.328125 23.390625 
Q 57.328125 12.15625 50.6875 5.359375 
Q 44.046875 -1.421875 33.015625 -1.421875 
Q 20.359375 -1.421875 13.671875 8.265625 
Q 6.984375 17.96875 6.984375 36.375 
Q 6.984375 53.65625 15.1875 63.9375 
Q 23.390625 74.21875 37.203125 74.21875 
Q 40.921875 74.21875 44.703125 73.484375 
Q 48.484375 72.75 52.59375 71.296875 
z
" id="DejaVuSans-36"/>
      </defs>
      <g transform="translate(208.687451 177.030437)scale(0.1 -0.1)">
       <use xlink:href="#DejaVuSans-36"/>
       <use x="63.623047" xlink:href="#DejaVuSans-30"/>
      </g>
     </g>
    </g>
    <g id="text_5">
     <!-- FKS -->
     <defs>
      <path d="M 9.8125 72.90625 
L 51.703125 72.90625 
L 51.703125 64.59375 
L 19.671875 64.59375 
L 19.671875 43.109375 
L 48.578125 43.109375 
L 48.578125 34.8125 
L 19.671875 34.8125 
L 19.671875 0 
L 9.8125 0 
z
" id="DejaVuSans-46"/>
      <path d="M 9.8125 72.90625 
L 19.671875 72.90625 
L 19.671875 42.09375 
L 52.390625 72.90625 
L 65.09375 72.90625 
L 28.90625 38.921875 
L 67.671875 0 
L 54.6875 0 
L 19.671875 35.109375 
L 19.671875 0 
L 9.8125 0 
z
" id="DejaVuSans-4b"/>
      <path d="M 53.515625 70.515625 
L 53.515625 60.890625 
Q 47.90625 63.578125 42.921875 64.890625 
Q 37.9375 66.21875 33.296875 66.21875 
Q 25.25 66.21875 20.875 63.09375 
Q 16.5 59.96875 16.5 54.203125 
Q 16.5 49.359375 19.40625 46.890625 
Q 22.3125 44.4375 30.421875 42.921875 
L 36.375 41.703125 
Q 47.40625 39.59375 52.65625 34.296875 
Q 57.90625 29 57.90625 20.125 
Q 57.90625 9.515625 50.796875 4.046875 
Q 43.703125 -1.421875 29.984375 -1.421875 
Q 24.8125 -1.421875 18.96875 -0.25 
Q 13.140625 0.921875 6.890625 3.21875 
L 6.890625 13.375 
Q 12.890625 10.015625 18.65625 8.296875 
Q 24.421875 6.59375 29.984375 6.59375 
Q 38.421875 6.59375 43.015625 9.90625 
Q 47.609375 13.234375 47.609375 19.390625 
Q 47.609375 24.75 44.3125 27.78125 
Q 41.015625 30.8125 33.5 32.328125 
L 27.484375 33.5 
Q 16.453125 35.6875 11.515625 40.375 
Q 6.59375 45.0625 6.59375 53.421875 
Q 6.59375 63.09375 13.40625 68.65625 
Q 20.21875 74.21875 32.171875 74.21875 
Q 37.3125 74.21875 42.625 73.28125 
Q 47.953125 72.359375 53.515625 70.515625 
z
" id="DejaVuSans-53"/>
     </defs>
     <g transform="translate(129.43473 190.708562)scale(0.1 -0.1)">
      <use xlink:href="#DejaVuSans-46"/>
      <use x="57.519531" xlink:href="#DejaVuSans-4b"/>
      <use x="123.095703" xlink:href="#DejaVuSans-53"/>
     </g>
    </g>
   </g>
   <g id="matplotlib.axis_2">
    <g id="ytick_1">
     <g id="line2d_5">
      <defs>
       <path d="M 0 0 
L -3.5 0 
" id="ma21771b4f1" style="stroke:#000000;stroke-width:0.8;"/>
      </defs>
      <g>
       <use style="stroke:#000000;stroke-width:0.8;" x="57.6" xlink:href="#ma21771b4f1" y="131.614401"/>
      </g>
     </g>
     <g id="text_6">
      <!-- 60 -->
      <g transform="translate(37.875 135.41362)scale(0.1 -0.1)">
       <use xlink:href="#DejaVuSans-36"/>
       <use x="63.623047" xlink:href="#DejaVuSans-30"/>
      </g>
     </g>
    </g>
    <g id="ytick_2">
     <g id="line2d_6">
      <g>
       <use style="stroke:#000000;stroke-width:0.8;" x="57.6" xlink:href="#ma21771b4f1" y="96.448543"/>
      </g>
     </g>
     <g id="text_7">
      <!-- 70 -->
      <defs>
       <path d="M 8.203125 72.90625 
L 55.078125 72.90625 
L 55.078125 68.703125 
L 28.609375 0 
L 18.3125 0 
L 43.21875 64.59375 
L 8.203125 64.59375 
z
" id="DejaVuSans-37"/>
      </defs>
      <g transform="translate(37.875 100.247762)scale(0.1 -0.1)">
       <use xlink:href="#DejaVuSans-37"/>
       <use x="63.623047" xlink:href="#DejaVuSans-30"/>
      </g>
     </g>
    </g>
    <g id="ytick_3">
     <g id="line2d_7">
      <g>
       <use style="stroke:#000000;stroke-width:0.8;" x="57.6" xlink:href="#ma21771b4f1" y="61.282686"/>
      </g>
     </g>
     <g id="text_8">
      <!-- 80 -->
      <defs>
       <path d="M 31.78125 34.625 
Q 24.75 34.625 20.71875 30.859375 
Q 16.703125 27.09375 16.703125 20.515625 
Q 16.703125 13.921875 20.71875 10.15625 
Q 24.75 6.390625 31.78125 6.390625 
Q 38.8125 6.390625 42.859375 10.171875 
Q 46.921875 13.96875 46.921875 20.515625 
Q 46.921875 27.09375 42.890625 30.859375 
Q 38.875 34.625 31.78125 34.625 
z
M 21.921875 38.8125 
Q 15.578125 40.375 12.03125 44.71875 
Q 8.5 49.078125 8.5 55.328125 
Q 8.5 64.0625 14.71875 69.140625 
Q 20.953125 74.21875 31.78125 74.21875 
Q 42.671875 74.21875 48.875 69.140625 
Q 55.078125 64.0625 55.078125 55.328125 
Q 55.078125 49.078125 51.53125 44.71875 
Q 48 40.375 41.703125 38.8125 
Q 48.828125 37.15625 52.796875 32.3125 
Q 56.78125 27.484375 56.78125 20.515625 
Q 56.78125 9.90625 50.3125 4.234375 
Q 43.84375 -1.421875 31.78125 -1.421875 
Q 19.734375 -1.421875 13.25 4.234375 
Q 6.78125 9.90625 6.78125 20.515625 
Q 6.78125 27.484375 10.78125 32.3125 
Q 14.796875 37.15625 21.921875 38.8125 
z
M 18.3125 54.390625 
Q 18.3125 48.734375 21.84375 45.5625 
Q 25.390625 42.390625 31.78125 42.390625 
Q 38.140625 42.390625 41.71875 45.5625 
Q 45.3125 48.734375 45.3125 54.390625 
Q 45.3125 60.0625 41.71875 63.234375 
Q 38.140625 66.40625 31.78125 66.40625 
Q 25.390625 66.40625 21.84375 63.234375 
Q 18.3125 60.0625 18.3125 54.390625 
z
" id="DejaVuSans-38"/>
      </defs>
      <g transform="translate(37.875 65.081905)scale(0.1 -0.1)">
       <use xlink:href="#DejaVuSans-38"/>
       <use x="63.623047" xlink:href="#DejaVuSans-30"/>
      </g>
     </g>
    </g>
   </g>
   <g id="line2d_8">
    <path clip-path="url(#pf19cc4b9c9)" d="M 64.978512 106.716974 
L 67.479703 46.970182 
L 69.980894 110.761047 
L 72.482084 91.38466 
L 74.983275 135.412313 
L 77.484466 78.162297 
L 79.985656 52.702217 
L 82.486847 51.963734 
L 84.988038 76.01718 
L 87.489228 96.378212 
L 89.990419 99.718968 
L 92.491609 55.90231 
L 94.9928 46.970182 
L 97.493991 112.062184 
L 99.995181 61.24752 
L 102.496372 54.847334 
L 104.997563 88.149401 
L 107.498753 78.865615 
L 109.999944 71.023628 
L 112.501135 54.847334 
L 115.002325 86.004284 
L 117.503516 65.537755 
L 120.004707 65.537755 
L 122.505897 61.24752 
L 125.007088 64.13112 
L 127.508278 88.50106 
L 130.009469 101.020105 
L 132.51066 60.895861 
L 135.01185 87.094425 
L 137.513041 54.108851 
L 140.014232 120.396492 
L 142.515422 66.241072 
L 145.016613 83.155849 
L 147.517804 90.294518 
L 150.018994 95.991387 
L 152.520185 94.936411 
L 155.021376 87.797742 
L 157.522566 121.838292 
L 160.023757 57.695768 
L 162.524947 122.54161 
L 165.026138 96.72987 
L 167.527329 95.28807 
L 170.028519 99.929963 
L 172.52971 90.646177 
L 175.030901 148.353349 
L 177.532091 95.639729 
L 180.033282 128.273644 
L 182.534473 58.750744 
L 185.035663 97.433187 
L 187.536854 128.976961 
L 190.038045 135.025489 
L 192.539235 97.433187 
L 195.040426 156.933818 
L 197.541616 93.494611 
L 200.042807 99.226646 
L 202.543998 107.420291 
L 205.045188 61.986003 
L 207.546379 99.437641 
L 210.04757 136.818948 
L 212.54876 103.516881 
" style="fill:none;stroke:#000000;stroke-dasharray:5.55,2.4;stroke-dashoffset:0;stroke-width:1.5;"/>
    <defs>
     <path d="M 0 3 
C 0.795609 3 1.55874 2.683901 2.12132 2.12132 
C 2.683901 1.55874 3 0.795609 3 0 
C 3 -0.795609 2.683901 -1.55874 2.12132 -2.12132 
C 1.55874 -2.683901 0.795609 -3 0 -3 
C -0.795609 -3 -1.55874 -2.683901 -2.12132 -2.12132 
C -2.683901 -1.55874 -3 -0.795609 -3 0 
C -3 0.795609 -2.683901 1.55874 -2.12132 2.12132 
C -1.55874 2.683901 -0.795609 3 0 3 
z
" id="m543ae45caa" style="stroke:#000000;"/>
    </defs>
    <g clip-path="url(#pf19cc4b9c9)">
     <use style="stroke:#000000;" x="64.978512" xlink:href="#m543ae45caa" y="106.716974"/>
     <use style="stroke:#000000;" x="67.479703" xlink:href="#m543ae45caa" y="46.970182"/>
     <use style="stroke:#000000;" x="69.980894" xlink:href="#m543ae45caa" y="110.761047"/>
     <use style="stroke:#000000;" x="72.482084" xlink:href="#m543ae45caa" y="91.38466"/>
     <use style="stroke:#000000;" x="74.983275" xlink:href="#m543ae45caa" y="135.412313"/>
     <use style="stroke:#000000;" x="77.484466" xlink:href="#m543ae45caa" y="78.162297"/>
     <use style="stroke:#000000;" x="79.985656" xlink:href="#m543ae45caa" y="52.702217"/>
     <use style="stroke:#000000;" x="82.486847" xlink:href="#m543ae45caa" y="51.963734"/>
     <use style="stroke:#000000;" x="84.988038" xlink:href="#m543ae45caa" y="76.01718"/>
     <use style="stroke:#000000;" x="87.489228" xlink:href="#m543ae45caa" y="96.378212"/>
     <use style="stroke:#000000;" x="89.990419" xlink:href="#m543ae45caa" y="99.718968"/>
     <use style="stroke:#000000;" x="92.491609" xlink:href="#m543ae45caa" y="55.90231"/>
     <use style="stroke:#000000;" x="94.9928" xlink:href="#m543ae45caa" y="46.970182"/>
     <use style="stroke:#000000;" x="97.493991" xlink:href="#m543ae45caa" y="112.062184"/>
     <use style="stroke:#000000;" x="99.995181" xlink:href="#m543ae45caa" y="61.24752"/>
     <use style="stroke:#000000;" x="102.496372" xlink:href="#m543ae45caa" y="54.847334"/>
     <use style="stroke:#000000;" x="104.997563" xlink:href="#m543ae45caa" y="88.149401"/>
     <use style="stroke:#000000;" x="107.498753" xlink:href="#m543ae45caa" y="78.865615"/>
     <use style="stroke:#000000;" x="109.999944" xlink:href="#m543ae45caa" y="71.023628"/>
     <use style="stroke:#000000;" x="112.501135" xlink:href="#m543ae45caa" y="54.847334"/>
     <use style="stroke:#000000;" x="115.002325" xlink:href="#m543ae45caa" y="86.004284"/>
     <use style="stroke:#000000;" x="117.503516" xlink:href="#m543ae45caa" y="65.537755"/>
     <use style="stroke:#000000;" x="120.004707" xlink:href="#m543ae45caa" y="65.537755"/>
     <use style="stroke:#000000;" x="122.505897" xlink:href="#m543ae45caa" y="61.24752"/>
     <use style="stroke:#000000;" x="125.007088" xlink:href="#m543ae45caa" y="64.13112"/>
     <use style="stroke:#000000;" x="127.508278" xlink:href="#m543ae45caa" y="88.50106"/>
     <use style="stroke:#000000;" x="130.009469" xlink:href="#m543ae45caa" y="101.020105"/>
     <use style="stroke:#000000;" x="132.51066" xlink:href="#m543ae45caa" y="60.895861"/>
     <use style="stroke:#000000;" x="135.01185" xlink:href="#m543ae45caa" y="87.094425"/>
     <use style="stroke:#000000;" x="137.513041" xlink:href="#m543ae45caa" y="54.108851"/>
     <use style="stroke:#000000;" x="140.014232" xlink:href="#m543ae45caa" y="120.396492"/>
     <use style="stroke:#000000;" x="142.515422" xlink:href="#m543ae45caa" y="66.241072"/>
     <use style="stroke:#000000;" x="145.016613" xlink:href="#m543ae45caa" y="83.155849"/>
     <use style="stroke:#000000;" x="147.517804" xlink:href="#m543ae45caa" y="90.294518"/>
     <use style="stroke:#000000;" x="150.018994" xlink:href="#m543ae45caa" y="95.991387"/>
     <use style="stroke:#000000;" x="152.520185" xlink:href="#m543ae45caa" y="94.936411"/>
     <use style="stroke:#000000;" x="155.021376" xlink:href="#m543ae45caa" y="87.797742"/>
     <use style="stroke:#000000;" x="157.522566" xlink:href="#m543ae45caa" y="121.838292"/>
     <use style="stroke:#000000;" x="160.023757" xlink:href="#m543ae45caa" y="57.695768"/>
     <use style="stroke:#000000;" x="162.524947" xlink:href="#m543ae45caa" y="122.54161"/>
     <use style="stroke:#000000;" x="165.026138" xlink:href="#m543ae45caa" y="96.72987"/>
     <use style="stroke:#000000;" x="167.527329" xlink:href="#m543ae45caa" y="95.28807"/>
     <use style="stroke:#000000;" x="170.028519" xlink:href="#m543ae45caa" y="99.929963"/>
     <use style="stroke:#000000;" x="172.52971" xlink:href="#m543ae45caa" y="90.646177"/>
     <use style="stroke:#000000;" x="175.030901" xlink:href="#m543ae45caa" y="148.353349"/>
     <use style="stroke:#000000;" x="177.532091" xlink:href="#m543ae45caa" y="95.639729"/>
     <use style="stroke:#000000;" x="180.033282" xlink:href="#m543ae45caa" y="128.273644"/>
     <use style="stroke:#000000;" x="182.534473" xlink:href="#m543ae45caa" y="58.750744"/>
     <use style="stroke:#000000;" x="185.035663" xlink:href="#m543ae45caa" y="97.433187"/>
     <use style="stroke:#000000;" x="187.536854" xlink:href="#m543ae45caa" y="128.976961"/>
     <use style="stroke:#000000;" x="190.038045" xlink:href="#m543ae45caa" y="135.025489"/>
     <use style="stroke:#000000;" x="192.539235" xlink:href="#m543ae45caa" y="97.433187"/>
     <use style="stroke:#000000;" x="195.040426" xlink:href="#m543ae45caa" y="156.933818"/>
     <use style="stroke:#000000;" x="197.541616" xlink:href="#m543ae45caa" y="93.494611"/>
     <use style="stroke:#000000;" x="200.042807" xlink:href="#m543ae45caa" y="99.226646"/>
     <use style="stroke:#000000;" x="202.543998" xlink:href="#m543ae45caa" y="107.420291"/>
     <use style="stroke:#000000;" x="205.045188" xlink:href="#m543ae45caa" y="61.986003"/>
     <use style="stroke:#000000;" x="207.546379" xlink:href="#m543ae45caa" y="99.437641"/>
     <use style="stroke:#000000;" x="210.04757" xlink:href="#m543ae45caa" y="136.818948"/>
     <use style="stroke:#000000;" x="212.54876" xlink:href="#m543ae45caa" y="103.516881"/>
    </g>
   </g>
   <g id="patch_3">
    <path d="M 57.6 162.432 
L 57.6 41.472 
" style="fill:none;stroke:#000000;stroke-linecap:square;stroke-linejoin:miter;stroke-width:0.8;"/>
   </g>
   <g id="patch_4">
    <path d="M 219.927273 162.432 
L 219.927273 41.472 
" style="fill:none;stroke:#000000;stroke-linecap:square;stroke-linejoin:miter;stroke-width:0.8;"/>
   </g>
   <g id="patch_5">
    <path d="M 57.6 162.432 
L 219.927273 162.432 
" style="fill:none;stroke:#000000;stroke-linecap:square;stroke-linejoin:miter;stroke-width:0.8;"/>
   </g>
   <g id="patch_6">
    <path d="M 57.6 41.472 
L 219.927273 41.472 
" style="fill:none;stroke:#000000;stroke-linecap:square;stroke-linejoin:miter;stroke-width:0.8;"/>
   </g>
  </g>
  <g id="axes_2">
   <g id="patch_7">
    <path d="M 252.392727 162.432 
L 414.72 162.432 
L 414.72 41.472 
L 252.392727 41.472 
z
" style="fill:#ffffff;"/>
   </g>
   <g id="matplotlib.axis_3">
    <g id="xtick_5">
     <g id="line2d_9">
      <g>
       <use style="stroke:#000000;stroke-width:0.8;" x="259.77124" xlink:href="#mf45ac25d5d" y="162.432"/>
      </g>
     </g>
     <g id="text_9">
      <!-- 0 -->
      <g transform="translate(256.58999 177.030437)scale(0.1 -0.1)">
       <use xlink:href="#DejaVuSans-30"/>
      </g>
     </g>
    </g>
    <g id="xtick_6">
     <g id="line2d_10">
      <g>
       <use style="stroke:#000000;stroke-width:0.8;" x="309.795053" xlink:href="#mf45ac25d5d" y="162.432"/>
      </g>
     </g>
     <g id="text_10">
      <!-- 20 -->
      <g transform="translate(303.432553 177.030437)scale(0.1 -0.1)">
       <use xlink:href="#DejaVuSans-32"/>
       <use x="63.623047" xlink:href="#DejaVuSans-30"/>
      </g>
     </g>
    </g>
    <g id="xtick_7">
     <g id="line2d_11">
      <g>
       <use style="stroke:#000000;stroke-width:0.8;" x="359.818865" xlink:href="#mf45ac25d5d" y="162.432"/>
      </g>
     </g>
     <g id="text_11">
      <!-- 40 -->
      <g transform="translate(353.456365 177.030437)scale(0.1 -0.1)">
       <use xlink:href="#DejaVuSans-34"/>
       <use x="63.623047" xlink:href="#DejaVuSans-30"/>
      </g>
     </g>
    </g>
    <g id="xtick_8">
     <g id="line2d_12">
      <g>
       <use style="stroke:#000000;stroke-width:0.8;" x="409.842678" xlink:href="#mf45ac25d5d" y="162.432"/>
      </g>
     </g>
     <g id="text_12">
      <!-- 60 -->
      <g transform="translate(403.480178 177.030437)scale(0.1 -0.1)">
       <use xlink:href="#DejaVuSans-36"/>
       <use x="63.623047" xlink:href="#DejaVuSans-30"/>
      </g>
     </g>
    </g>
    <g id="text_13">
     <!-- conjunction -->
     <defs>
      <path d="M 48.78125 52.59375 
L 48.78125 44.1875 
Q 44.96875 46.296875 41.140625 47.34375 
Q 37.3125 48.390625 33.40625 48.390625 
Q 24.65625 48.390625 19.8125 42.84375 
Q 14.984375 37.3125 14.984375 27.296875 
Q 14.984375 17.28125 19.8125 11.734375 
Q 24.65625 6.203125 33.40625 6.203125 
Q 37.3125 6.203125 41.140625 7.25 
Q 44.96875 8.296875 48.78125 10.40625 
L 48.78125 2.09375 
Q 45.015625 0.34375 40.984375 -0.53125 
Q 36.96875 -1.421875 32.421875 -1.421875 
Q 20.0625 -1.421875 12.78125 6.34375 
Q 5.515625 14.109375 5.515625 27.296875 
Q 5.515625 40.671875 12.859375 48.328125 
Q 20.21875 56 33.015625 56 
Q 37.15625 56 41.109375 55.140625 
Q 45.0625 54.296875 48.78125 52.59375 
z
" id="DejaVuSans-63"/>
      <path d="M 30.609375 48.390625 
Q 23.390625 48.390625 19.1875 42.75 
Q 14.984375 37.109375 14.984375 27.296875 
Q 14.984375 17.484375 19.15625 11.84375 
Q 23.34375 6.203125 30.609375 6.203125 
Q 37.796875 6.203125 41.984375 11.859375 
Q 46.1875 17.53125 46.1875 27.296875 
Q 46.1875 37.015625 41.984375 42.703125 
Q 37.796875 48.390625 30.609375 48.390625 
z
M 30.609375 56 
Q 42.328125 56 49.015625 48.375 
Q 55.71875 40.765625 55.71875 27.296875 
Q 55.71875 13.875 49.015625 6.21875 
Q 42.328125 -1.421875 30.609375 -1.421875 
Q 18.84375 -1.421875 12.171875 6.21875 
Q 5.515625 13.875 5.515625 27.296875 
Q 5.515625 40.765625 12.171875 48.375 
Q 18.84375 56 30.609375 56 
z
" id="DejaVuSans-6f"/>
      <path d="M 54.890625 33.015625 
L 54.890625 0 
L 45.90625 0 
L 45.90625 32.71875 
Q 45.90625 40.484375 42.875 44.328125 
Q 39.84375 48.1875 33.796875 48.1875 
Q 26.515625 48.1875 22.3125 43.546875 
Q 18.109375 38.921875 18.109375 30.90625 
L 18.109375 0 
L 9.078125 0 
L 9.078125 54.6875 
L 18.109375 54.6875 
L 18.109375 46.1875 
Q 21.34375 51.125 25.703125 53.5625 
Q 30.078125 56 35.796875 56 
Q 45.21875 56 50.046875 50.171875 
Q 54.890625 44.34375 54.890625 33.015625 
z
" id="DejaVuSans-6e"/>
      <path d="M 9.421875 54.6875 
L 18.40625 54.6875 
L 18.40625 -0.984375 
Q 18.40625 -11.421875 14.421875 -16.109375 
Q 10.453125 -20.796875 1.609375 -20.796875 
L -1.8125 -20.796875 
L -1.8125 -13.1875 
L 0.59375 -13.1875 
Q 5.71875 -13.1875 7.5625 -10.8125 
Q 9.421875 -8.453125 9.421875 -0.984375 
z
M 9.421875 75.984375 
L 18.40625 75.984375 
L 18.40625 64.59375 
L 9.421875 64.59375 
z
" id="DejaVuSans-6a"/>
      <path d="M 8.5 21.578125 
L 8.5 54.6875 
L 17.484375 54.6875 
L 17.484375 21.921875 
Q 17.484375 14.15625 20.5 10.265625 
Q 23.53125 6.390625 29.59375 6.390625 
Q 36.859375 6.390625 41.078125 11.03125 
Q 45.3125 15.671875 45.3125 23.6875 
L 45.3125 54.6875 
L 54.296875 54.6875 
L 54.296875 0 
L 45.3125 0 
L 45.3125 8.40625 
Q 42.046875 3.421875 37.71875 1 
Q 33.40625 -1.421875 27.6875 -1.421875 
Q 18.265625 -1.421875 13.375 4.4375 
Q 8.5 10.296875 8.5 21.578125 
z
M 31.109375 56 
z
" id="DejaVuSans-75"/>
      <path d="M 18.3125 70.21875 
L 18.3125 54.6875 
L 36.8125 54.6875 
L 36.8125 47.703125 
L 18.3125 47.703125 
L 18.3125 18.015625 
Q 18.3125 11.328125 20.140625 9.421875 
Q 21.96875 7.515625 27.59375 7.515625 
L 36.8125 7.515625 
L 36.8125 0 
L 27.59375 0 
Q 17.1875 0 13.234375 3.875 
Q 9.28125 7.765625 9.28125 18.015625 
L 9.28125 47.703125 
L 2.6875 47.703125 
L 2.6875 54.6875 
L 9.28125 54.6875 
L 9.28125 70.21875 
z
" id="DejaVuSans-74"/>
      <path d="M 9.421875 54.6875 
L 18.40625 54.6875 
L 18.40625 0 
L 9.421875 0 
z
M 9.421875 75.984375 
L 18.40625 75.984375 
L 18.40625 64.59375 
L 9.421875 64.59375 
z
" id="DejaVuSans-69"/>
     </defs>
     <g transform="translate(304.525895 190.708562)scale(0.1 -0.1)">
      <use xlink:href="#DejaVuSans-63"/>
      <use x="54.980469" xlink:href="#DejaVuSans-6f"/>
      <use x="116.162109" xlink:href="#DejaVuSans-6e"/>
      <use x="179.541016" xlink:href="#DejaVuSans-6a"/>
      <use x="207.324219" xlink:href="#DejaVuSans-75"/>
      <use x="270.703125" xlink:href="#DejaVuSans-6e"/>
      <use x="334.082031" xlink:href="#DejaVuSans-63"/>
      <use x="389.0625" xlink:href="#DejaVuSans-74"/>
      <use x="428.271484" xlink:href="#DejaVuSans-69"/>
      <use x="456.054688" xlink:href="#DejaVuSans-6f"/>
      <use x="517.236328" xlink:href="#DejaVuSans-6e"/>
     </g>
    </g>
   </g>
   <g id="matplotlib.axis_4">
    <g id="ytick_4">
     <g id="line2d_13">
      <g>
       <use style="stroke:#000000;stroke-width:0.8;" x="252.392727" xlink:href="#ma21771b4f1" y="135.250848"/>
      </g>
     </g>
     <g id="text_14">
      <!-- 40 -->
      <g transform="translate(232.667727 139.050066)scale(0.1 -0.1)">
       <use xlink:href="#DejaVuSans-34"/>
       <use x="63.623047" xlink:href="#DejaVuSans-30"/>
      </g>
     </g>
    </g>
    <g id="ytick_5">
     <g id="line2d_14">
      <g>
       <use style="stroke:#000000;stroke-width:0.8;" x="252.392727" xlink:href="#ma21771b4f1" y="104.275175"/>
      </g>
     </g>
     <g id="text_15">
      <!-- 60 -->
      <g transform="translate(232.667727 108.074394)scale(0.1 -0.1)">
       <use xlink:href="#DejaVuSans-36"/>
       <use x="63.623047" xlink:href="#DejaVuSans-30"/>
      </g>
     </g>
    </g>
    <g id="ytick_6">
     <g id="line2d_15">
      <g>
       <use style="stroke:#000000;stroke-width:0.8;" x="252.392727" xlink:href="#ma21771b4f1" y="73.299503"/>
      </g>
     </g>
     <g id="text_16">
      <!-- 80 -->
      <g transform="translate(232.667727 77.098722)scale(0.1 -0.1)">
       <use xlink:href="#DejaVuSans-38"/>
       <use x="63.623047" xlink:href="#DejaVuSans-30"/>
      </g>
     </g>
    </g>
    <g id="ytick_7">
     <g id="line2d_16">
      <g>
       <use style="stroke:#000000;stroke-width:0.8;" x="252.392727" xlink:href="#ma21771b4f1" y="42.323831"/>
      </g>
     </g>
     <g id="text_17">
      <!-- 100 -->
      <defs>
       <path d="M 12.40625 8.296875 
L 28.515625 8.296875 
L 28.515625 63.921875 
L 10.984375 60.40625 
L 10.984375 69.390625 
L 28.421875 72.90625 
L 38.28125 72.90625 
L 38.28125 8.296875 
L 54.390625 8.296875 
L 54.390625 0 
L 12.40625 0 
z
" id="DejaVuSans-31"/>
      </defs>
      <g transform="translate(226.305227 46.12305)scale(0.1 -0.1)">
       <use xlink:href="#DejaVuSans-31"/>
       <use x="63.623047" xlink:href="#DejaVuSans-30"/>
       <use x="127.246094" xlink:href="#DejaVuSans-30"/>
      </g>
     </g>
    </g>
   </g>
   <g id="line2d_17">
    <path clip-path="url(#p533847cb7b)" d="M 259.77124 124.409362 
L 262.27243 149.1899 
L 264.773621 138.348415 
L 267.274812 132.15328 
L 269.776002 156.933818 
L 272.277193 119.763012 
L 274.778384 146.092333 
L 277.279574 138.348415 
L 279.780765 141.445982 
L 282.281955 129.055713 
L 284.783146 152.287467 
L 287.284337 141.445982 
L 289.785527 146.092333 
L 292.286718 129.055713 
L 294.787909 132.15328 
L 297.289099 147.641117 
L 299.79029 133.702064 
L 302.291481 139.897198 
L 304.792671 142.994766 
L 307.293862 139.897198 
L 309.795053 91.884907 
L 312.296243 112.019093 
L 314.797434 110.47031 
L 317.298624 101.177608 
L 319.799815 98.080041 
L 322.301006 108.921526 
L 324.802196 96.531257 
L 327.303387 112.019093 
L 329.804578 119.763012 
L 332.305768 129.055713 
L 334.806959 119.763012 
L 337.30815 124.409362 
L 339.80934 113.567877 
L 342.310531 121.311795 
L 344.811722 110.47031 
L 347.312912 119.763012 
L 349.814103 116.665444 
L 352.315293 110.47031 
L 354.816484 105.823959 
L 357.317675 118.214228 
L 359.818865 57.811667 
L 362.320056 68.653152 
L 364.821247 68.653152 
L 367.322437 64.006802 
L 369.823628 105.823959 
L 372.324819 81.043421 
L 374.826009 68.653152 
L 377.3272 54.7141 
L 379.828391 77.945854 
L 382.329581 71.75072 
L 384.830772 91.884907 
L 387.331962 79.494638 
L 389.833153 90.336123 
L 392.334344 46.970182 
L 394.835534 65.555585 
L 397.336725 81.043421 
L 399.837916 59.360451 
L 402.339106 57.811667 
L 404.840297 82.592205 
L 407.341488 59.360451 
" style="fill:none;stroke:#000000;stroke-dasharray:5.55,2.4;stroke-dashoffset:0;stroke-width:1.5;"/>
    <g clip-path="url(#p533847cb7b)">
     <use style="stroke:#000000;" x="259.77124" xlink:href="#m543ae45caa" y="124.409362"/>
     <use style="stroke:#000000;" x="262.27243" xlink:href="#m543ae45caa" y="149.1899"/>
     <use style="stroke:#000000;" x="264.773621" xlink:href="#m543ae45caa" y="138.348415"/>
     <use style="stroke:#000000;" x="267.274812" xlink:href="#m543ae45caa" y="132.15328"/>
     <use style="stroke:#000000;" x="269.776002" xlink:href="#m543ae45caa" y="156.933818"/>
     <use style="stroke:#000000;" x="272.277193" xlink:href="#m543ae45caa" y="119.763012"/>
     <use style="stroke:#000000;" x="274.778384" xlink:href="#m543ae45caa" y="146.092333"/>
     <use style="stroke:#000000;" x="277.279574" xlink:href="#m543ae45caa" y="138.348415"/>
     <use style="stroke:#000000;" x="279.780765" xlink:href="#m543ae45caa" y="141.445982"/>
     <use style="stroke:#000000;" x="282.281955" xlink:href="#m543ae45caa" y="129.055713"/>
     <use style="stroke:#000000;" x="284.783146" xlink:href="#m543ae45caa" y="152.287467"/>
     <use style="stroke:#000000;" x="287.284337" xlink:href="#m543ae45caa" y="141.445982"/>
     <use style="stroke:#000000;" x="289.785527" xlink:href="#m543ae45caa" y="146.092333"/>
     <use style="stroke:#000000;" x="292.286718" xlink:href="#m543ae45caa" y="129.055713"/>
     <use style="stroke:#000000;" x="294.787909" xlink:href="#m543ae45caa" y="132.15328"/>
     <use style="stroke:#000000;" x="297.289099" xlink:href="#m543ae45caa" y="147.641117"/>
     <use style="stroke:#000000;" x="299.79029" xlink:href="#m543ae45caa" y="133.702064"/>
     <use style="stroke:#000000;" x="302.291481" xlink:href="#m543ae45caa" y="139.897198"/>
     <use style="stroke:#000000;" x="304.792671" xlink:href="#m543ae45caa" y="142.994766"/>
     <use style="stroke:#000000;" x="307.293862" xlink:href="#m543ae45caa" y="139.897198"/>
     <use style="stroke:#000000;" x="309.795053" xlink:href="#m543ae45caa" y="91.884907"/>
     <use style="stroke:#000000;" x="312.296243" xlink:href="#m543ae45caa" y="112.019093"/>
     <use style="stroke:#000000;" x="314.797434" xlink:href="#m543ae45caa" y="110.47031"/>
     <use style="stroke:#000000;" x="317.298624" xlink:href="#m543ae45caa" y="101.177608"/>
     <use style="stroke:#000000;" x="319.799815" xlink:href="#m543ae45caa" y="98.080041"/>
     <use style="stroke:#000000;" x="322.301006" xlink:href="#m543ae45caa" y="108.921526"/>
     <use style="stroke:#000000;" x="324.802196" xlink:href="#m543ae45caa" y="96.531257"/>
     <use style="stroke:#000000;" x="327.303387" xlink:href="#m543ae45caa" y="112.019093"/>
     <use style="stroke:#000000;" x="329.804578" xlink:href="#m543ae45caa" y="119.763012"/>
     <use style="stroke:#000000;" x="332.305768" xlink:href="#m543ae45caa" y="129.055713"/>
     <use style="stroke:#000000;" x="334.806959" xlink:href="#m543ae45caa" y="119.763012"/>
     <use style="stroke:#000000;" x="337.30815" xlink:href="#m543ae45caa" y="124.409362"/>
     <use style="stroke:#000000;" x="339.80934" xlink:href="#m543ae45caa" y="113.567877"/>
     <use style="stroke:#000000;" x="342.310531" xlink:href="#m543ae45caa" y="121.311795"/>
     <use style="stroke:#000000;" x="344.811722" xlink:href="#m543ae45caa" y="110.47031"/>
     <use style="stroke:#000000;" x="347.312912" xlink:href="#m543ae45caa" y="119.763012"/>
     <use style="stroke:#000000;" x="349.814103" xlink:href="#m543ae45caa" y="116.665444"/>
     <use style="stroke:#000000;" x="352.315293" xlink:href="#m543ae45caa" y="110.47031"/>
     <use style="stroke:#000000;" x="354.816484" xlink:href="#m543ae45caa" y="105.823959"/>
     <use style="stroke:#000000;" x="357.317675" xlink:href="#m543ae45caa" y="118.214228"/>
     <use style="stroke:#000000;" x="359.818865" xlink:href="#m543ae45caa" y="57.811667"/>
     <use style="stroke:#000000;" x="362.320056" xlink:href="#m543ae45caa" y="68.653152"/>
     <use style="stroke:#000000;" x="364.821247" xlink:href="#m543ae45caa" y="68.653152"/>
     <use style="stroke:#000000;" x="367.322437" xlink:href="#m543ae45caa" y="64.006802"/>
     <use style="stroke:#000000;" x="369.823628" xlink:href="#m543ae45caa" y="105.823959"/>
     <use style="stroke:#000000;" x="372.324819" xlink:href="#m543ae45caa" y="81.043421"/>
     <use style="stroke:#000000;" x="374.826009" xlink:href="#m543ae45caa" y="68.653152"/>
     <use style="stroke:#000000;" x="377.3272" xlink:href="#m543ae45caa" y="54.7141"/>
     <use style="stroke:#000000;" x="379.828391" xlink:href="#m543ae45caa" y="77.945854"/>
     <use style="stroke:#000000;" x="382.329581" xlink:href="#m543ae45caa" y="71.75072"/>
     <use style="stroke:#000000;" x="384.830772" xlink:href="#m543ae45caa" y="91.884907"/>
     <use style="stroke:#000000;" x="387.331962" xlink:href="#m543ae45caa" y="79.494638"/>
     <use style="stroke:#000000;" x="389.833153" xlink:href="#m543ae45caa" y="90.336123"/>
     <use style="stroke:#000000;" x="392.334344" xlink:href="#m543ae45caa" y="46.970182"/>
     <use style="stroke:#000000;" x="394.835534" xlink:href="#m543ae45caa" y="65.555585"/>
     <use style="stroke:#000000;" x="397.336725" xlink:href="#m543ae45caa" y="81.043421"/>
     <use style="stroke:#000000;" x="399.837916" xlink:href="#m543ae45caa" y="59.360451"/>
     <use style="stroke:#000000;" x="402.339106" xlink:href="#m543ae45caa" y="57.811667"/>
     <use style="stroke:#000000;" x="404.840297" xlink:href="#m543ae45caa" y="82.592205"/>
     <use style="stroke:#000000;" x="407.341488" xlink:href="#m543ae45caa" y="59.360451"/>
    </g>
   </g>
   <g id="patch_8">
    <path d="M 252.392727 162.432 
L 252.392727 41.472 
" style="fill:none;stroke:#000000;stroke-linecap:square;stroke-linejoin:miter;stroke-width:0.8;"/>
   </g>
   <g id="patch_9">
    <path d="M 414.72 162.432 
L 414.72 41.472 
" style="fill:none;stroke:#000000;stroke-linecap:square;stroke-linejoin:miter;stroke-width:0.8;"/>
   </g>
   <g id="patch_10">
    <path d="M 252.392727 162.432 
L 414.72 162.432 
" style="fill:none;stroke:#000000;stroke-linecap:square;stroke-linejoin:miter;stroke-width:0.8;"/>
   </g>
   <g id="patch_11">
    <path d="M 252.392727 41.472 
L 414.72 41.472 
" style="fill:none;stroke:#000000;stroke-linecap:square;stroke-linejoin:miter;stroke-width:0.8;"/>
   </g>
  </g>
  <g id="axes_3">
   <g id="patch_12">
    <path d="M 57.6 307.584 
L 219.927273 307.584 
L 219.927273 186.624 
L 57.6 186.624 
z
" style="fill:#ffffff;"/>
   </g>
   <g id="matplotlib.axis_5">
    <g id="xtick_9">
     <g id="line2d_18">
      <g>
       <use style="stroke:#000000;stroke-width:0.8;" x="64.978512" xlink:href="#mf45ac25d5d" y="307.584"/>
      </g>
     </g>
     <g id="text_18">
      <!-- 0 -->
      <g transform="translate(61.797262 322.182437)scale(0.1 -0.1)">
       <use xlink:href="#DejaVuSans-30"/>
      </g>
     </g>
    </g>
    <g id="xtick_10">
     <g id="line2d_19">
      <g>
       <use style="stroke:#000000;stroke-width:0.8;" x="115.002325" xlink:href="#mf45ac25d5d" y="307.584"/>
      </g>
     </g>
     <g id="text_19">
      <!-- 20 -->
      <g transform="translate(108.639825 322.182437)scale(0.1 -0.1)">
       <use xlink:href="#DejaVuSans-32"/>
       <use x="63.623047" xlink:href="#DejaVuSans-30"/>
      </g>
     </g>
    </g>
    <g id="xtick_11">
     <g id="line2d_20">
      <g>
       <use style="stroke:#000000;stroke-width:0.8;" x="165.026138" xlink:href="#mf45ac25d5d" y="307.584"/>
      </g>
     </g>
     <g id="text_20">
      <!-- 40 -->
      <g transform="translate(158.663638 322.182437)scale(0.1 -0.1)">
       <use xlink:href="#DejaVuSans-34"/>
       <use x="63.623047" xlink:href="#DejaVuSans-30"/>
      </g>
     </g>
    </g>
    <g id="xtick_12">
     <g id="line2d_21">
      <g>
       <use style="stroke:#000000;stroke-width:0.8;" x="215.049951" xlink:href="#mf45ac25d5d" y="307.584"/>
      </g>
     </g>
     <g id="text_21">
      <!-- 60 -->
      <g transform="translate(208.687451 322.182437)scale(0.1 -0.1)">
       <use xlink:href="#DejaVuSans-36"/>
       <use x="63.623047" xlink:href="#DejaVuSans-30"/>
      </g>
     </g>
    </g>
    <g id="text_22">
     <!-- wh_word -->
     <defs>
      <path d="M 4.203125 54.6875 
L 13.1875 54.6875 
L 24.421875 12.015625 
L 35.59375 54.6875 
L 46.1875 54.6875 
L 57.421875 12.015625 
L 68.609375 54.6875 
L 77.59375 54.6875 
L 63.28125 0 
L 52.6875 0 
L 40.921875 44.828125 
L 29.109375 0 
L 18.5 0 
z
" id="DejaVuSans-77"/>
      <path d="M 54.890625 33.015625 
L 54.890625 0 
L 45.90625 0 
L 45.90625 32.71875 
Q 45.90625 40.484375 42.875 44.328125 
Q 39.84375 48.1875 33.796875 48.1875 
Q 26.515625 48.1875 22.3125 43.546875 
Q 18.109375 38.921875 18.109375 30.90625 
L 18.109375 0 
L 9.078125 0 
L 9.078125 75.984375 
L 18.109375 75.984375 
L 18.109375 46.1875 
Q 21.34375 51.125 25.703125 53.5625 
Q 30.078125 56 35.796875 56 
Q 45.21875 56 50.046875 50.171875 
Q 54.890625 44.34375 54.890625 33.015625 
z
" id="DejaVuSans-68"/>
      <path d="M 50.984375 -16.609375 
L 50.984375 -23.578125 
L -0.984375 -23.578125 
L -0.984375 -16.609375 
z
" id="DejaVuSans-5f"/>
      <path d="M 41.109375 46.296875 
Q 39.59375 47.171875 37.8125 47.578125 
Q 36.03125 48 33.890625 48 
Q 26.265625 48 22.1875 43.046875 
Q 18.109375 38.09375 18.109375 28.8125 
L 18.109375 0 
L 9.078125 0 
L 9.078125 54.6875 
L 18.109375 54.6875 
L 18.109375 46.1875 
Q 20.953125 51.171875 25.484375 53.578125 
Q 30.03125 56 36.53125 56 
Q 37.453125 56 38.578125 55.875 
Q 39.703125 55.765625 41.0625 55.515625 
z
" id="DejaVuSans-72"/>
      <path d="M 45.40625 46.390625 
L 45.40625 75.984375 
L 54.390625 75.984375 
L 54.390625 0 
L 45.40625 0 
L 45.40625 8.203125 
Q 42.578125 3.328125 38.25 0.953125 
Q 33.9375 -1.421875 27.875 -1.421875 
Q 17.96875 -1.421875 11.734375 6.484375 
Q 5.515625 14.40625 5.515625 27.296875 
Q 5.515625 40.1875 11.734375 48.09375 
Q 17.96875 56 27.875 56 
Q 33.9375 56 38.25 53.625 
Q 42.578125 51.265625 45.40625 46.390625 
z
M 14.796875 27.296875 
Q 14.796875 17.390625 18.875 11.75 
Q 22.953125 6.109375 30.078125 6.109375 
Q 37.203125 6.109375 41.296875 11.75 
Q 45.40625 17.390625 45.40625 27.296875 
Q 45.40625 37.203125 41.296875 42.84375 
Q 37.203125 48.484375 30.078125 48.484375 
Q 22.953125 48.484375 18.875 42.84375 
Q 14.796875 37.203125 14.796875 27.296875 
z
" id="DejaVuSans-64"/>
     </defs>
     <g transform="translate(116.62848 335.860562)scale(0.1 -0.1)">
      <use xlink:href="#DejaVuSans-77"/>
      <use x="81.787109" xlink:href="#DejaVuSans-68"/>
      <use x="145.166016" xlink:href="#DejaVuSans-5f"/>
      <use x="195.166016" xlink:href="#DejaVuSans-77"/>
      <use x="276.953125" xlink:href="#DejaVuSans-6f"/>
      <use x="338.134766" xlink:href="#DejaVuSans-72"/>
      <use x="379.232422" xlink:href="#DejaVuSans-64"/>
     </g>
    </g>
   </g>
   <g id="matplotlib.axis_6">
    <g id="ytick_8">
     <g id="line2d_22">
      <g>
       <use style="stroke:#000000;stroke-width:0.8;" x="57.6" xlink:href="#ma21771b4f1" y="289.397706"/>
      </g>
     </g>
     <g id="text_23">
      <!-- 2.5 -->
      <defs>
       <path d="M 10.6875 12.40625 
L 21 12.40625 
L 21 0 
L 10.6875 0 
z
" id="DejaVuSans-2e"/>
       <path d="M 10.796875 72.90625 
L 49.515625 72.90625 
L 49.515625 64.59375 
L 19.828125 64.59375 
L 19.828125 46.734375 
Q 21.96875 47.46875 24.109375 47.828125 
Q 26.265625 48.1875 28.421875 48.1875 
Q 40.625 48.1875 47.75 41.5 
Q 54.890625 34.8125 54.890625 23.390625 
Q 54.890625 11.625 47.5625 5.09375 
Q 40.234375 -1.421875 26.90625 -1.421875 
Q 22.3125 -1.421875 17.546875 -0.640625 
Q 12.796875 0.140625 7.71875 1.703125 
L 7.71875 11.625 
Q 12.109375 9.234375 16.796875 8.0625 
Q 21.484375 6.890625 26.703125 6.890625 
Q 35.15625 6.890625 40.078125 11.328125 
Q 45.015625 15.765625 45.015625 23.390625 
Q 45.015625 31 40.078125 35.4375 
Q 35.15625 39.890625 26.703125 39.890625 
Q 22.75 39.890625 18.8125 39.015625 
Q 14.890625 38.140625 10.796875 36.28125 
z
" id="DejaVuSans-35"/>
      </defs>
      <g transform="translate(34.696875 293.196925)scale(0.1 -0.1)">
       <use xlink:href="#DejaVuSans-32"/>
       <use x="63.623047" xlink:href="#DejaVuSans-2e"/>
       <use x="95.410156" xlink:href="#DejaVuSans-35"/>
      </g>
     </g>
    </g>
    <g id="ytick_9">
     <g id="line2d_23">
      <g>
       <use style="stroke:#000000;stroke-width:0.8;" x="57.6" xlink:href="#ma21771b4f1" y="268.250853"/>
      </g>
     </g>
     <g id="text_24">
      <!-- 5.0 -->
      <g transform="translate(34.696875 272.050072)scale(0.1 -0.1)">
       <use xlink:href="#DejaVuSans-35"/>
       <use x="63.623047" xlink:href="#DejaVuSans-2e"/>
       <use x="95.410156" xlink:href="#DejaVuSans-30"/>
      </g>
     </g>
    </g>
    <g id="ytick_10">
     <g id="line2d_24">
      <g>
       <use style="stroke:#000000;stroke-width:0.8;" x="57.6" xlink:href="#ma21771b4f1" y="247.104"/>
      </g>
     </g>
     <g id="text_25">
      <!-- 7.5 -->
      <g transform="translate(34.696875 250.903219)scale(0.1 -0.1)">
       <use xlink:href="#DejaVuSans-37"/>
       <use x="63.623047" xlink:href="#DejaVuSans-2e"/>
       <use x="95.410156" xlink:href="#DejaVuSans-35"/>
      </g>
     </g>
    </g>
    <g id="ytick_11">
     <g id="line2d_25">
      <g>
       <use style="stroke:#000000;stroke-width:0.8;" x="57.6" xlink:href="#ma21771b4f1" y="225.957147"/>
      </g>
     </g>
     <g id="text_26">
      <!-- 10.0 -->
      <g transform="translate(28.334375 229.756366)scale(0.1 -0.1)">
       <use xlink:href="#DejaVuSans-31"/>
       <use x="63.623047" xlink:href="#DejaVuSans-30"/>
       <use x="127.246094" xlink:href="#DejaVuSans-2e"/>
       <use x="159.033203" xlink:href="#DejaVuSans-30"/>
      </g>
     </g>
    </g>
    <g id="ytick_12">
     <g id="line2d_26">
      <g>
       <use style="stroke:#000000;stroke-width:0.8;" x="57.6" xlink:href="#ma21771b4f1" y="204.810294"/>
      </g>
     </g>
     <g id="text_27">
      <!-- 12.5 -->
      <g transform="translate(28.334375 208.609512)scale(0.1 -0.1)">
       <use xlink:href="#DejaVuSans-31"/>
       <use x="63.623047" xlink:href="#DejaVuSans-32"/>
       <use x="127.246094" xlink:href="#DejaVuSans-2e"/>
       <use x="159.033203" xlink:href="#DejaVuSans-35"/>
      </g>
     </g>
    </g>
   </g>
   <g id="line2d_27">
    <path clip-path="url(#pdd48bd641a)" d="M 64.978512 259.792112 
L 67.479703 276.709594 
L 69.980894 276.709594 
L 72.482084 268.250853 
L 74.983275 268.250853 
L 77.484466 302.085818 
L 79.985656 225.957147 
L 82.486847 259.792112 
L 84.988038 293.627077 
L 87.489228 285.168336 
L 89.990419 285.168336 
L 92.491609 276.709594 
L 94.9928 285.168336 
L 97.493991 268.250853 
L 99.995181 293.627077 
L 102.496372 268.250853 
L 104.997563 276.709594 
L 107.498753 251.333371 
L 109.999944 293.627077 
L 112.501135 276.709594 
L 115.002325 268.250853 
L 117.503516 285.168336 
L 120.004707 234.415888 
L 122.505897 242.874629 
L 125.007088 285.168336 
L 127.508278 259.792112 
L 130.009469 268.250853 
L 132.51066 285.168336 
L 135.01185 259.792112 
L 137.513041 234.415888 
L 140.014232 276.709594 
L 142.515422 209.039664 
L 145.016613 276.709594 
L 147.517804 268.250853 
L 150.018994 234.415888 
L 152.520185 234.415888 
L 155.021376 242.874629 
L 157.522566 242.874629 
L 160.023757 259.792112 
L 162.524947 242.874629 
L 165.026138 225.957147 
L 167.527329 225.957147 
L 170.028519 302.085818 
L 172.52971 285.168336 
L 175.030901 293.627077 
L 177.532091 234.415888 
L 180.033282 285.168336 
L 182.534473 234.415888 
L 185.035663 251.333371 
L 187.536854 268.250853 
L 190.038045 192.122182 
L 192.539235 192.122182 
L 195.040426 285.168336 
L 197.541616 234.415888 
L 200.042807 285.168336 
L 202.543998 242.874629 
L 205.045188 251.333371 
L 207.546379 242.874629 
L 210.04757 217.498406 
L 212.54876 234.415888 
" style="fill:none;stroke:#000000;stroke-dasharray:5.55,2.4;stroke-dashoffset:0;stroke-width:1.5;"/>
    <g clip-path="url(#pdd48bd641a)">
     <use style="stroke:#000000;" x="64.978512" xlink:href="#m543ae45caa" y="259.792112"/>
     <use style="stroke:#000000;" x="67.479703" xlink:href="#m543ae45caa" y="276.709594"/>
     <use style="stroke:#000000;" x="69.980894" xlink:href="#m543ae45caa" y="276.709594"/>
     <use style="stroke:#000000;" x="72.482084" xlink:href="#m543ae45caa" y="268.250853"/>
     <use style="stroke:#000000;" x="74.983275" xlink:href="#m543ae45caa" y="268.250853"/>
     <use style="stroke:#000000;" x="77.484466" xlink:href="#m543ae45caa" y="302.085818"/>
     <use style="stroke:#000000;" x="79.985656" xlink:href="#m543ae45caa" y="225.957147"/>
     <use style="stroke:#000000;" x="82.486847" xlink:href="#m543ae45caa" y="259.792112"/>
     <use style="stroke:#000000;" x="84.988038" xlink:href="#m543ae45caa" y="293.627077"/>
     <use style="stroke:#000000;" x="87.489228" xlink:href="#m543ae45caa" y="285.168336"/>
     <use style="stroke:#000000;" x="89.990419" xlink:href="#m543ae45caa" y="285.168336"/>
     <use style="stroke:#000000;" x="92.491609" xlink:href="#m543ae45caa" y="276.709594"/>
     <use style="stroke:#000000;" x="94.9928" xlink:href="#m543ae45caa" y="285.168336"/>
     <use style="stroke:#000000;" x="97.493991" xlink:href="#m543ae45caa" y="268.250853"/>
     <use style="stroke:#000000;" x="99.995181" xlink:href="#m543ae45caa" y="293.627077"/>
     <use style="stroke:#000000;" x="102.496372" xlink:href="#m543ae45caa" y="268.250853"/>
     <use style="stroke:#000000;" x="104.997563" xlink:href="#m543ae45caa" y="276.709594"/>
     <use style="stroke:#000000;" x="107.498753" xlink:href="#m543ae45caa" y="251.333371"/>
     <use style="stroke:#000000;" x="109.999944" xlink:href="#m543ae45caa" y="293.627077"/>
     <use style="stroke:#000000;" x="112.501135" xlink:href="#m543ae45caa" y="276.709594"/>
     <use style="stroke:#000000;" x="115.002325" xlink:href="#m543ae45caa" y="268.250853"/>
     <use style="stroke:#000000;" x="117.503516" xlink:href="#m543ae45caa" y="285.168336"/>
     <use style="stroke:#000000;" x="120.004707" xlink:href="#m543ae45caa" y="234.415888"/>
     <use style="stroke:#000000;" x="122.505897" xlink:href="#m543ae45caa" y="242.874629"/>
     <use style="stroke:#000000;" x="125.007088" xlink:href="#m543ae45caa" y="285.168336"/>
     <use style="stroke:#000000;" x="127.508278" xlink:href="#m543ae45caa" y="259.792112"/>
     <use style="stroke:#000000;" x="130.009469" xlink:href="#m543ae45caa" y="268.250853"/>
     <use style="stroke:#000000;" x="132.51066" xlink:href="#m543ae45caa" y="285.168336"/>
     <use style="stroke:#000000;" x="135.01185" xlink:href="#m543ae45caa" y="259.792112"/>
     <use style="stroke:#000000;" x="137.513041" xlink:href="#m543ae45caa" y="234.415888"/>
     <use style="stroke:#000000;" x="140.014232" xlink:href="#m543ae45caa" y="276.709594"/>
     <use style="stroke:#000000;" x="142.515422" xlink:href="#m543ae45caa" y="209.039664"/>
     <use style="stroke:#000000;" x="145.016613" xlink:href="#m543ae45caa" y="276.709594"/>
     <use style="stroke:#000000;" x="147.517804" xlink:href="#m543ae45caa" y="268.250853"/>
     <use style="stroke:#000000;" x="150.018994" xlink:href="#m543ae45caa" y="234.415888"/>
     <use style="stroke:#000000;" x="152.520185" xlink:href="#m543ae45caa" y="234.415888"/>
     <use style="stroke:#000000;" x="155.021376" xlink:href="#m543ae45caa" y="242.874629"/>
     <use style="stroke:#000000;" x="157.522566" xlink:href="#m543ae45caa" y="242.874629"/>
     <use style="stroke:#000000;" x="160.023757" xlink:href="#m543ae45caa" y="259.792112"/>
     <use style="stroke:#000000;" x="162.524947" xlink:href="#m543ae45caa" y="242.874629"/>
     <use style="stroke:#000000;" x="165.026138" xlink:href="#m543ae45caa" y="225.957147"/>
     <use style="stroke:#000000;" x="167.527329" xlink:href="#m543ae45caa" y="225.957147"/>
     <use style="stroke:#000000;" x="170.028519" xlink:href="#m543ae45caa" y="302.085818"/>
     <use style="stroke:#000000;" x="172.52971" xlink:href="#m543ae45caa" y="285.168336"/>
     <use style="stroke:#000000;" x="175.030901" xlink:href="#m543ae45caa" y="293.627077"/>
     <use style="stroke:#000000;" x="177.532091" xlink:href="#m543ae45caa" y="234.415888"/>
     <use style="stroke:#000000;" x="180.033282" xlink:href="#m543ae45caa" y="285.168336"/>
     <use style="stroke:#000000;" x="182.534473" xlink:href="#m543ae45caa" y="234.415888"/>
     <use style="stroke:#000000;" x="185.035663" xlink:href="#m543ae45caa" y="251.333371"/>
     <use style="stroke:#000000;" x="187.536854" xlink:href="#m543ae45caa" y="268.250853"/>
     <use style="stroke:#000000;" x="190.038045" xlink:href="#m543ae45caa" y="192.122182"/>
     <use style="stroke:#000000;" x="192.539235" xlink:href="#m543ae45caa" y="192.122182"/>
     <use style="stroke:#000000;" x="195.040426" xlink:href="#m543ae45caa" y="285.168336"/>
     <use style="stroke:#000000;" x="197.541616" xlink:href="#m543ae45caa" y="234.415888"/>
     <use style="stroke:#000000;" x="200.042807" xlink:href="#m543ae45caa" y="285.168336"/>
     <use style="stroke:#000000;" x="202.543998" xlink:href="#m543ae45caa" y="242.874629"/>
     <use style="stroke:#000000;" x="205.045188" xlink:href="#m543ae45caa" y="251.333371"/>
     <use style="stroke:#000000;" x="207.546379" xlink:href="#m543ae45caa" y="242.874629"/>
     <use style="stroke:#000000;" x="210.04757" xlink:href="#m543ae45caa" y="217.498406"/>
     <use style="stroke:#000000;" x="212.54876" xlink:href="#m543ae45caa" y="234.415888"/>
    </g>
   </g>
   <g id="patch_13">
    <path d="M 57.6 307.584 
L 57.6 186.624 
" style="fill:none;stroke:#000000;stroke-linecap:square;stroke-linejoin:miter;stroke-width:0.8;"/>
   </g>
   <g id="patch_14">
    <path d="M 219.927273 307.584 
L 219.927273 186.624 
" style="fill:none;stroke:#000000;stroke-linecap:square;stroke-linejoin:miter;stroke-width:0.8;"/>
   </g>
   <g id="patch_15">
    <path d="M 57.6 307.584 
L 219.927273 307.584 
" style="fill:none;stroke:#000000;stroke-linecap:square;stroke-linejoin:miter;stroke-width:0.8;"/>
   </g>
   <g id="patch_16">
    <path d="M 57.6 186.624 
L 219.927273 186.624 
" style="fill:none;stroke:#000000;stroke-linecap:square;stroke-linejoin:miter;stroke-width:0.8;"/>
   </g>
  </g>
  <g id="axes_4">
   <g id="patch_17">
    <path d="M 252.392727 307.584 
L 414.72 307.584 
L 414.72 186.624 
L 252.392727 186.624 
z
" style="fill:#ffffff;"/>
   </g>
   <g id="matplotlib.axis_7">
    <g id="xtick_13">
     <g id="line2d_28">
      <g>
       <use style="stroke:#000000;stroke-width:0.8;" x="259.77124" xlink:href="#mf45ac25d5d" y="307.584"/>
      </g>
     </g>
     <g id="text_28">
      <!-- 0 -->
      <g transform="translate(256.58999 322.182437)scale(0.1 -0.1)">
       <use xlink:href="#DejaVuSans-30"/>
      </g>
     </g>
    </g>
    <g id="xtick_14">
     <g id="line2d_29">
      <g>
       <use style="stroke:#000000;stroke-width:0.8;" x="309.795053" xlink:href="#mf45ac25d5d" y="307.584"/>
      </g>
     </g>
     <g id="text_29">
      <!-- 20 -->
      <g transform="translate(303.432553 322.182437)scale(0.1 -0.1)">
       <use xlink:href="#DejaVuSans-32"/>
       <use x="63.623047" xlink:href="#DejaVuSans-30"/>
      </g>
     </g>
    </g>
    <g id="xtick_15">
     <g id="line2d_30">
      <g>
       <use style="stroke:#000000;stroke-width:0.8;" x="359.818865" xlink:href="#mf45ac25d5d" y="307.584"/>
      </g>
     </g>
     <g id="text_30">
      <!-- 40 -->
      <g transform="translate(353.456365 322.182437)scale(0.1 -0.1)">
       <use xlink:href="#DejaVuSans-34"/>
       <use x="63.623047" xlink:href="#DejaVuSans-30"/>
      </g>
     </g>
    </g>
    <g id="xtick_16">
     <g id="line2d_31">
      <g>
       <use style="stroke:#000000;stroke-width:0.8;" x="409.842678" xlink:href="#mf45ac25d5d" y="307.584"/>
      </g>
     </g>
     <g id="text_31">
      <!-- 60 -->
      <g transform="translate(403.480178 322.182437)scale(0.1 -0.1)">
       <use xlink:href="#DejaVuSans-36"/>
       <use x="63.623047" xlink:href="#DejaVuSans-30"/>
      </g>
     </g>
    </g>
    <g id="text_32">
     <!-- nonfinite_verb -->
     <defs>
      <path d="M 37.109375 75.984375 
L 37.109375 68.5 
L 28.515625 68.5 
Q 23.6875 68.5 21.796875 66.546875 
Q 19.921875 64.59375 19.921875 59.515625 
L 19.921875 54.6875 
L 34.71875 54.6875 
L 34.71875 47.703125 
L 19.921875 47.703125 
L 19.921875 0 
L 10.890625 0 
L 10.890625 47.703125 
L 2.296875 47.703125 
L 2.296875 54.6875 
L 10.890625 54.6875 
L 10.890625 58.5 
Q 10.890625 67.625 15.140625 71.796875 
Q 19.390625 75.984375 28.609375 75.984375 
z
" id="DejaVuSans-66"/>
      <path d="M 56.203125 29.59375 
L 56.203125 25.203125 
L 14.890625 25.203125 
Q 15.484375 15.921875 20.484375 11.0625 
Q 25.484375 6.203125 34.421875 6.203125 
Q 39.59375 6.203125 44.453125 7.46875 
Q 49.3125 8.734375 54.109375 11.28125 
L 54.109375 2.78125 
Q 49.265625 0.734375 44.1875 -0.34375 
Q 39.109375 -1.421875 33.890625 -1.421875 
Q 20.796875 -1.421875 13.15625 6.1875 
Q 5.515625 13.8125 5.515625 26.8125 
Q 5.515625 40.234375 12.765625 48.109375 
Q 20.015625 56 32.328125 56 
Q 43.359375 56 49.78125 48.890625 
Q 56.203125 41.796875 56.203125 29.59375 
z
M 47.21875 32.234375 
Q 47.125 39.59375 43.09375 43.984375 
Q 39.0625 48.390625 32.421875 48.390625 
Q 24.90625 48.390625 20.390625 44.140625 
Q 15.875 39.890625 15.1875 32.171875 
z
" id="DejaVuSans-65"/>
      <path d="M 2.984375 54.6875 
L 12.5 54.6875 
L 29.59375 8.796875 
L 46.6875 54.6875 
L 56.203125 54.6875 
L 35.6875 0 
L 23.484375 0 
z
" id="DejaVuSans-76"/>
      <path d="M 48.6875 27.296875 
Q 48.6875 37.203125 44.609375 42.84375 
Q 40.53125 48.484375 33.40625 48.484375 
Q 26.265625 48.484375 22.1875 42.84375 
Q 18.109375 37.203125 18.109375 27.296875 
Q 18.109375 17.390625 22.1875 11.75 
Q 26.265625 6.109375 33.40625 6.109375 
Q 40.53125 6.109375 44.609375 11.75 
Q 48.6875 17.390625 48.6875 27.296875 
z
M 18.109375 46.390625 
Q 20.953125 51.265625 25.265625 53.625 
Q 29.59375 56 35.59375 56 
Q 45.5625 56 51.78125 48.09375 
Q 58.015625 40.1875 58.015625 27.296875 
Q 58.015625 14.40625 51.78125 6.484375 
Q 45.5625 -1.421875 35.59375 -1.421875 
Q 29.59375 -1.421875 25.265625 0.953125 
Q 20.953125 3.328125 18.109375 8.203125 
L 18.109375 0 
L 9.078125 0 
L 9.078125 75.984375 
L 18.109375 75.984375 
z
" id="DejaVuSans-62"/>
     </defs>
     <g transform="translate(297.650114 335.860562)scale(0.1 -0.1)">
      <use xlink:href="#DejaVuSans-6e"/>
      <use x="63.378906" xlink:href="#DejaVuSans-6f"/>
      <use x="124.560547" xlink:href="#DejaVuSans-6e"/>
      <use x="187.939453" xlink:href="#DejaVuSans-66"/>
      <use x="223.144531" xlink:href="#DejaVuSans-69"/>
      <use x="250.927734" xlink:href="#DejaVuSans-6e"/>
      <use x="314.306641" xlink:href="#DejaVuSans-69"/>
      <use x="342.089844" xlink:href="#DejaVuSans-74"/>
      <use x="381.298828" xlink:href="#DejaVuSans-65"/>
      <use x="442.822266" xlink:href="#DejaVuSans-5f"/>
      <use x="492.822266" xlink:href="#DejaVuSans-76"/>
      <use x="552.001953" xlink:href="#DejaVuSans-65"/>
      <use x="613.525391" xlink:href="#DejaVuSans-72"/>
      <use x="654.638672" xlink:href="#DejaVuSans-62"/>
     </g>
    </g>
   </g>
   <g id="matplotlib.axis_8">
    <g id="ytick_13">
     <g id="line2d_32">
      <g>
       <use style="stroke:#000000;stroke-width:0.8;" x="252.392727" xlink:href="#ma21771b4f1" y="292.089124"/>
      </g>
     </g>
     <g id="text_33">
      <!-- 20 -->
      <g transform="translate(232.667727 295.888343)scale(0.1 -0.1)">
       <use xlink:href="#DejaVuSans-32"/>
       <use x="63.623047" xlink:href="#DejaVuSans-30"/>
      </g>
     </g>
    </g>
    <g id="ytick_14">
     <g id="line2d_33">
      <g>
       <use style="stroke:#000000;stroke-width:0.8;" x="252.392727" xlink:href="#ma21771b4f1" y="263.52714"/>
      </g>
     </g>
     <g id="text_34">
      <!-- 40 -->
      <g transform="translate(232.667727 267.326359)scale(0.1 -0.1)">
       <use xlink:href="#DejaVuSans-34"/>
       <use x="63.623047" xlink:href="#DejaVuSans-30"/>
      </g>
     </g>
    </g>
    <g id="ytick_15">
     <g id="line2d_34">
      <g>
       <use style="stroke:#000000;stroke-width:0.8;" x="252.392727" xlink:href="#ma21771b4f1" y="234.965157"/>
      </g>
     </g>
     <g id="text_35">
      <!-- 60 -->
      <g transform="translate(232.667727 238.764376)scale(0.1 -0.1)">
       <use xlink:href="#DejaVuSans-36"/>
       <use x="63.623047" xlink:href="#DejaVuSans-30"/>
      </g>
     </g>
    </g>
    <g id="ytick_16">
     <g id="line2d_35">
      <g>
       <use style="stroke:#000000;stroke-width:0.8;" x="252.392727" xlink:href="#ma21771b4f1" y="206.403174"/>
      </g>
     </g>
     <g id="text_36">
      <!-- 80 -->
      <g transform="translate(232.667727 210.202392)scale(0.1 -0.1)">
       <use xlink:href="#DejaVuSans-38"/>
       <use x="63.623047" xlink:href="#DejaVuSans-30"/>
      </g>
     </g>
    </g>
   </g>
   <g id="line2d_36">
    <path clip-path="url(#p01da727383)" d="M 259.77124 252.102347 
L 262.27243 269.239537 
L 264.773621 260.670942 
L 267.274812 287.804826 
L 269.776002 263.52714 
L 272.277193 257.814744 
L 274.778384 280.664331 
L 277.279574 300.657719 
L 279.780765 302.085818 
L 282.281955 250.674248 
L 284.783146 267.811438 
L 287.284337 282.09243 
L 289.785527 264.95524 
L 292.286718 282.09243 
L 294.787909 289.232926 
L 297.289099 236.393256 
L 299.79029 289.232926 
L 302.291481 269.239537 
L 304.792671 269.239537 
L 307.293862 266.383339 
L 309.795053 233.537058 
L 312.296243 269.239537 
L 314.797434 266.383339 
L 317.298624 252.102347 
L 319.799815 246.38995 
L 322.301006 267.811438 
L 324.802196 297.801521 
L 327.303387 232.108959 
L 329.804578 266.383339 
L 332.305768 214.971769 
L 334.806959 244.961851 
L 337.30815 214.971769 
L 339.80934 264.95524 
L 342.310531 269.239537 
L 344.811722 252.102347 
L 347.312912 219.256066 
L 349.814103 253.530446 
L 352.315293 273.523835 
L 354.816484 240.677554 
L 357.317675 242.105653 
L 359.818865 292.089124 
L 362.320056 249.246149 
L 364.821247 226.396562 
L 367.322437 293.517223 
L 369.823628 253.530446 
L 372.324819 234.965157 
L 374.826009 270.667636 
L 377.3272 199.262678 
L 379.828391 204.975074 
L 382.329581 244.961851 
L 384.830772 262.099041 
L 387.331962 223.540364 
L 389.833153 256.386645 
L 392.334344 230.68086 
L 394.835534 293.517223 
L 397.336725 244.961851 
L 399.837916 202.118876 
L 402.339106 192.122182 
L 404.840297 280.664331 
L 407.341488 246.38995 
" style="fill:none;stroke:#000000;stroke-dasharray:5.55,2.4;stroke-dashoffset:0;stroke-width:1.5;"/>
    <g clip-path="url(#p01da727383)">
     <use style="stroke:#000000;" x="259.77124" xlink:href="#m543ae45caa" y="252.102347"/>
     <use style="stroke:#000000;" x="262.27243" xlink:href="#m543ae45caa" y="269.239537"/>
     <use style="stroke:#000000;" x="264.773621" xlink:href="#m543ae45caa" y="260.670942"/>
     <use style="stroke:#000000;" x="267.274812" xlink:href="#m543ae45caa" y="287.804826"/>
     <use style="stroke:#000000;" x="269.776002" xlink:href="#m543ae45caa" y="263.52714"/>
     <use style="stroke:#000000;" x="272.277193" xlink:href="#m543ae45caa" y="257.814744"/>
     <use style="stroke:#000000;" x="274.778384" xlink:href="#m543ae45caa" y="280.664331"/>
     <use style="stroke:#000000;" x="277.279574" xlink:href="#m543ae45caa" y="300.657719"/>
     <use style="stroke:#000000;" x="279.780765" xlink:href="#m543ae45caa" y="302.085818"/>
     <use style="stroke:#000000;" x="282.281955" xlink:href="#m543ae45caa" y="250.674248"/>
     <use style="stroke:#000000;" x="284.783146" xlink:href="#m543ae45caa" y="267.811438"/>
     <use style="stroke:#000000;" x="287.284337" xlink:href="#m543ae45caa" y="282.09243"/>
     <use style="stroke:#000000;" x="289.785527" xlink:href="#m543ae45caa" y="264.95524"/>
     <use style="stroke:#000000;" x="292.286718" xlink:href="#m543ae45caa" y="282.09243"/>
     <use style="stroke:#000000;" x="294.787909" xlink:href="#m543ae45caa" y="289.232926"/>
     <use style="stroke:#000000;" x="297.289099" xlink:href="#m543ae45caa" y="236.393256"/>
     <use style="stroke:#000000;" x="299.79029" xlink:href="#m543ae45caa" y="289.232926"/>
     <use style="stroke:#000000;" x="302.291481" xlink:href="#m543ae45caa" y="269.239537"/>
     <use style="stroke:#000000;" x="304.792671" xlink:href="#m543ae45caa" y="269.239537"/>
     <use style="stroke:#000000;" x="307.293862" xlink:href="#m543ae45caa" y="266.383339"/>
     <use style="stroke:#000000;" x="309.795053" xlink:href="#m543ae45caa" y="233.537058"/>
     <use style="stroke:#000000;" x="312.296243" xlink:href="#m543ae45caa" y="269.239537"/>
     <use style="stroke:#000000;" x="314.797434" xlink:href="#m543ae45caa" y="266.383339"/>
     <use style="stroke:#000000;" x="317.298624" xlink:href="#m543ae45caa" y="252.102347"/>
     <use style="stroke:#000000;" x="319.799815" xlink:href="#m543ae45caa" y="246.38995"/>
     <use style="stroke:#000000;" x="322.301006" xlink:href="#m543ae45caa" y="267.811438"/>
     <use style="stroke:#000000;" x="324.802196" xlink:href="#m543ae45caa" y="297.801521"/>
     <use style="stroke:#000000;" x="327.303387" xlink:href="#m543ae45caa" y="232.108959"/>
     <use style="stroke:#000000;" x="329.804578" xlink:href="#m543ae45caa" y="266.383339"/>
     <use style="stroke:#000000;" x="332.305768" xlink:href="#m543ae45caa" y="214.971769"/>
     <use style="stroke:#000000;" x="334.806959" xlink:href="#m543ae45caa" y="244.961851"/>
     <use style="stroke:#000000;" x="337.30815" xlink:href="#m543ae45caa" y="214.971769"/>
     <use style="stroke:#000000;" x="339.80934" xlink:href="#m543ae45caa" y="264.95524"/>
     <use style="stroke:#000000;" x="342.310531" xlink:href="#m543ae45caa" y="269.239537"/>
     <use style="stroke:#000000;" x="344.811722" xlink:href="#m543ae45caa" y="252.102347"/>
     <use style="stroke:#000000;" x="347.312912" xlink:href="#m543ae45caa" y="219.256066"/>
     <use style="stroke:#000000;" x="349.814103" xlink:href="#m543ae45caa" y="253.530446"/>
     <use style="stroke:#000000;" x="352.315293" xlink:href="#m543ae45caa" y="273.523835"/>
     <use style="stroke:#000000;" x="354.816484" xlink:href="#m543ae45caa" y="240.677554"/>
     <use style="stroke:#000000;" x="357.317675" xlink:href="#m543ae45caa" y="242.105653"/>
     <use style="stroke:#000000;" x="359.818865" xlink:href="#m543ae45caa" y="292.089124"/>
     <use style="stroke:#000000;" x="362.320056" xlink:href="#m543ae45caa" y="249.246149"/>
     <use style="stroke:#000000;" x="364.821247" xlink:href="#m543ae45caa" y="226.396562"/>
     <use style="stroke:#000000;" x="367.322437" xlink:href="#m543ae45caa" y="293.517223"/>
     <use style="stroke:#000000;" x="369.823628" xlink:href="#m543ae45caa" y="253.530446"/>
     <use style="stroke:#000000;" x="372.324819" xlink:href="#m543ae45caa" y="234.965157"/>
     <use style="stroke:#000000;" x="374.826009" xlink:href="#m543ae45caa" y="270.667636"/>
     <use style="stroke:#000000;" x="377.3272" xlink:href="#m543ae45caa" y="199.262678"/>
     <use style="stroke:#000000;" x="379.828391" xlink:href="#m543ae45caa" y="204.975074"/>
     <use style="stroke:#000000;" x="382.329581" xlink:href="#m543ae45caa" y="244.961851"/>
     <use style="stroke:#000000;" x="384.830772" xlink:href="#m543ae45caa" y="262.099041"/>
     <use style="stroke:#000000;" x="387.331962" xlink:href="#m543ae45caa" y="223.540364"/>
     <use style="stroke:#000000;" x="389.833153" xlink:href="#m543ae45caa" y="256.386645"/>
     <use style="stroke:#000000;" x="392.334344" xlink:href="#m543ae45caa" y="230.68086"/>
     <use style="stroke:#000000;" x="394.835534" xlink:href="#m543ae45caa" y="293.517223"/>
     <use style="stroke:#000000;" x="397.336725" xlink:href="#m543ae45caa" y="244.961851"/>
     <use style="stroke:#000000;" x="399.837916" xlink:href="#m543ae45caa" y="202.118876"/>
     <use style="stroke:#000000;" x="402.339106" xlink:href="#m543ae45caa" y="192.122182"/>
     <use style="stroke:#000000;" x="404.840297" xlink:href="#m543ae45caa" y="280.664331"/>
     <use style="stroke:#000000;" x="407.341488" xlink:href="#m543ae45caa" y="246.38995"/>
    </g>
   </g>
   <g id="patch_18">
    <path d="M 252.392727 307.584 
L 252.392727 186.624 
" style="fill:none;stroke:#000000;stroke-linecap:square;stroke-linejoin:miter;stroke-width:0.8;"/>
   </g>
   <g id="patch_19">
    <path d="M 414.72 307.584 
L 414.72 186.624 
" style="fill:none;stroke:#000000;stroke-linecap:square;stroke-linejoin:miter;stroke-width:0.8;"/>
   </g>
   <g id="patch_20">
    <path d="M 252.392727 307.584 
L 414.72 307.584 
" style="fill:none;stroke:#000000;stroke-linecap:square;stroke-linejoin:miter;stroke-width:0.8;"/>
   </g>
   <g id="patch_21">
    <path d="M 252.392727 186.624 
L 414.72 186.624 
" style="fill:none;stroke:#000000;stroke-linecap:square;stroke-linejoin:miter;stroke-width:0.8;"/>
   </g>
  </g>
 </g>
 <defs>
  <clipPath id="pf19cc4b9c9">
   <rect height="120.96" width="162.327273" x="57.6" y="41.472"/>
  </clipPath>
  <clipPath id="p533847cb7b">
   <rect height="120.96" width="162.327273" x="252.392727" y="41.472"/>
  </clipPath>
  <clipPath id="pdd48bd641a">
   <rect height="120.96" width="162.327273" x="57.6" y="186.624"/>
  </clipPath>
  <clipPath id="p01da727383">
   <rect height="120.96" width="162.327273" x="252.392727" y="186.624"/>
  </clipPath>
 </defs>
</svg>
