<?xml version="1.0" encoding="utf-8" standalone="no"?>
<!DOCTYPE svg PUBLIC "-//W3C//DTD SVG 1.1//EN"
  "http://www.w3.org/Graphics/SVG/1.1/DTD/svg11.dtd">
<!-- Created with matplotlib (http://matplotlib.org/) -->
<svg height="719.28pt" version="1.1" viewBox="0 0 1382.4 719.28" width="1382.4pt" xmlns="http://www.w3.org/2000/svg" xmlns:xlink="http://www.w3.org/1999/xlink">
 <defs>
  <style type="text/css">
*{stroke-linecap:butt;stroke-linejoin:round;}
  </style>
 </defs>
 <g id="figure_1">
  <g id="patch_1">
   <path d="M 0 719.28 
L 1382.4 719.28 
L 1382.4 0 
L 0 0 
z
" style="fill:#ffffff;"/>
  </g>
  <g id="axes_1">
   <g id="patch_2">
    <path d="M 172.8 338.0616 
L 659.781818 338.0616 
L 659.781818 86.3136 
L 172.8 86.3136 
z
" style="fill:#ffffff;"/>
   </g>
   <g id="matplotlib.axis_1">
    <g id="xtick_1">
     <g id="line2d_1">
      <defs>
       <path d="M 0 0 
L 0 3.5 
" id="m1fa2084197" style="stroke:#000000;stroke-width:0.8;"/>
      </defs>
      <g>
       <use style="stroke:#000000;stroke-width:0.8;" x="194.935537" xlink:href="#m1fa2084197" y="338.0616"/>
      </g>
     </g>
     <g id="text_1">
      <!-- 0 -->
      <defs>
       <path d="M 31.78125 66.40625 
Q 24.171875 66.40625 20.328125 58.90625 
Q 16.5 51.421875 16.5 36.375 
Q 16.5 21.390625 20.328125 13.890625 
Q 24.171875 6.390625 31.78125 6.390625 
Q 39.453125 6.390625 43.28125 13.890625 
Q 47.125 21.390625 47.125 36.375 
Q 47.125 51.421875 43.28125 58.90625 
Q 39.453125 66.40625 31.78125 66.40625 
z
M 31.78125 74.21875 
Q 44.046875 74.21875 50.515625 64.515625 
Q 56.984375 54.828125 56.984375 36.375 
Q 56.984375 17.96875 50.515625 8.265625 
Q 44.046875 -1.421875 31.78125 -1.421875 
Q 19.53125 -1.421875 13.0625 8.265625 
Q 6.59375 17.96875 6.59375 36.375 
Q 6.59375 54.828125 13.0625 64.515625 
Q 19.53125 74.21875 31.78125 74.21875 
z
" id="DejaVuSans-30"/>
      </defs>
      <g transform="translate(191.754287 352.660037)scale(0.1 -0.1)">
       <use xlink:href="#DejaVuSans-30"/>
      </g>
     </g>
    </g>
    <g id="xtick_2">
     <g id="line2d_2">
      <g>
       <use style="stroke:#000000;stroke-width:0.8;" x="269.971256" xlink:href="#m1fa2084197" y="338.0616"/>
      </g>
     </g>
     <g id="text_2">
      <!-- 10 -->
      <defs>
       <path d="M 12.40625 8.296875 
L 28.515625 8.296875 
L 28.515625 63.921875 
L 10.984375 60.40625 
L 10.984375 69.390625 
L 28.421875 72.90625 
L 38.28125 72.90625 
L 38.28125 8.296875 
L 54.390625 8.296875 
L 54.390625 0 
L 12.40625 0 
z
" id="DejaVuSans-31"/>
      </defs>
      <g transform="translate(263.608756 352.660037)scale(0.1 -0.1)">
       <use xlink:href="#DejaVuSans-31"/>
       <use x="63.623047" xlink:href="#DejaVuSans-30"/>
      </g>
     </g>
    </g>
    <g id="xtick_3">
     <g id="line2d_3">
      <g>
       <use style="stroke:#000000;stroke-width:0.8;" x="345.006976" xlink:href="#m1fa2084197" y="338.0616"/>
      </g>
     </g>
     <g id="text_3">
      <!-- 20 -->
      <defs>
       <path d="M 19.1875 8.296875 
L 53.609375 8.296875 
L 53.609375 0 
L 7.328125 0 
L 7.328125 8.296875 
Q 12.9375 14.109375 22.625 23.890625 
Q 32.328125 33.6875 34.8125 36.53125 
Q 39.546875 41.84375 41.421875 45.53125 
Q 43.3125 49.21875 43.3125 52.78125 
Q 43.3125 58.59375 39.234375 62.25 
Q 35.15625 65.921875 28.609375 65.921875 
Q 23.96875 65.921875 18.8125 64.3125 
Q 13.671875 62.703125 7.8125 59.421875 
L 7.8125 69.390625 
Q 13.765625 71.78125 18.9375 73 
Q 24.125 74.21875 28.421875 74.21875 
Q 39.75 74.21875 46.484375 68.546875 
Q 53.21875 62.890625 53.21875 53.421875 
Q 53.21875 48.921875 51.53125 44.890625 
Q 49.859375 40.875 45.40625 35.40625 
Q 44.1875 33.984375 37.640625 27.21875 
Q 31.109375 20.453125 19.1875 8.296875 
z
" id="DejaVuSans-32"/>
      </defs>
      <g transform="translate(338.644476 352.660037)scale(0.1 -0.1)">
       <use xlink:href="#DejaVuSans-32"/>
       <use x="63.623047" xlink:href="#DejaVuSans-30"/>
      </g>
     </g>
    </g>
    <g id="xtick_4">
     <g id="line2d_4">
      <g>
       <use style="stroke:#000000;stroke-width:0.8;" x="420.042695" xlink:href="#m1fa2084197" y="338.0616"/>
      </g>
     </g>
     <g id="text_4">
      <!-- 30 -->
      <defs>
       <path d="M 40.578125 39.3125 
Q 47.65625 37.796875 51.625 33 
Q 55.609375 28.21875 55.609375 21.1875 
Q 55.609375 10.40625 48.1875 4.484375 
Q 40.765625 -1.421875 27.09375 -1.421875 
Q 22.515625 -1.421875 17.65625 -0.515625 
Q 12.796875 0.390625 7.625 2.203125 
L 7.625 11.71875 
Q 11.71875 9.328125 16.59375 8.109375 
Q 21.484375 6.890625 26.8125 6.890625 
Q 36.078125 6.890625 40.9375 10.546875 
Q 45.796875 14.203125 45.796875 21.1875 
Q 45.796875 27.640625 41.28125 31.265625 
Q 36.765625 34.90625 28.71875 34.90625 
L 20.21875 34.90625 
L 20.21875 43.015625 
L 29.109375 43.015625 
Q 36.375 43.015625 40.234375 45.921875 
Q 44.09375 48.828125 44.09375 54.296875 
Q 44.09375 59.90625 40.109375 62.90625 
Q 36.140625 65.921875 28.71875 65.921875 
Q 24.65625 65.921875 20.015625 65.03125 
Q 15.375 64.15625 9.8125 62.3125 
L 9.8125 71.09375 
Q 15.4375 72.65625 20.34375 73.4375 
Q 25.25 74.21875 29.59375 74.21875 
Q 40.828125 74.21875 47.359375 69.109375 
Q 53.90625 64.015625 53.90625 55.328125 
Q 53.90625 49.265625 50.4375 45.09375 
Q 46.96875 40.921875 40.578125 39.3125 
z
" id="DejaVuSans-33"/>
      </defs>
      <g transform="translate(413.680195 352.660037)scale(0.1 -0.1)">
       <use xlink:href="#DejaVuSans-33"/>
       <use x="63.623047" xlink:href="#DejaVuSans-30"/>
      </g>
     </g>
    </g>
    <g id="xtick_5">
     <g id="line2d_5">
      <g>
       <use style="stroke:#000000;stroke-width:0.8;" x="495.078414" xlink:href="#m1fa2084197" y="338.0616"/>
      </g>
     </g>
     <g id="text_5">
      <!-- 40 -->
      <defs>
       <path d="M 37.796875 64.3125 
L 12.890625 25.390625 
L 37.796875 25.390625 
z
M 35.203125 72.90625 
L 47.609375 72.90625 
L 47.609375 25.390625 
L 58.015625 25.390625 
L 58.015625 17.1875 
L 47.609375 17.1875 
L 47.609375 0 
L 37.796875 0 
L 37.796875 17.1875 
L 4.890625 17.1875 
L 4.890625 26.703125 
z
" id="DejaVuSans-34"/>
      </defs>
      <g transform="translate(488.715914 352.660037)scale(0.1 -0.1)">
       <use xlink:href="#DejaVuSans-34"/>
       <use x="63.623047" xlink:href="#DejaVuSans-30"/>
      </g>
     </g>
    </g>
    <g id="xtick_6">
     <g id="line2d_6">
      <g>
       <use style="stroke:#000000;stroke-width:0.8;" x="570.114134" xlink:href="#m1fa2084197" y="338.0616"/>
      </g>
     </g>
     <g id="text_6">
      <!-- 50 -->
      <defs>
       <path d="M 10.796875 72.90625 
L 49.515625 72.90625 
L 49.515625 64.59375 
L 19.828125 64.59375 
L 19.828125 46.734375 
Q 21.96875 47.46875 24.109375 47.828125 
Q 26.265625 48.1875 28.421875 48.1875 
Q 40.625 48.1875 47.75 41.5 
Q 54.890625 34.8125 54.890625 23.390625 
Q 54.890625 11.625 47.5625 5.09375 
Q 40.234375 -1.421875 26.90625 -1.421875 
Q 22.3125 -1.421875 17.546875 -0.640625 
Q 12.796875 0.140625 7.71875 1.703125 
L 7.71875 11.625 
Q 12.109375 9.234375 16.796875 8.0625 
Q 21.484375 6.890625 26.703125 6.890625 
Q 35.15625 6.890625 40.078125 11.328125 
Q 45.015625 15.765625 45.015625 23.390625 
Q 45.015625 31 40.078125 35.4375 
Q 35.15625 39.890625 26.703125 39.890625 
Q 22.75 39.890625 18.8125 39.015625 
Q 14.890625 38.140625 10.796875 36.28125 
z
" id="DejaVuSans-35"/>
      </defs>
      <g transform="translate(563.751634 352.660037)scale(0.1 -0.1)">
       <use xlink:href="#DejaVuSans-35"/>
       <use x="63.623047" xlink:href="#DejaVuSans-30"/>
      </g>
     </g>
    </g>
    <g id="xtick_7">
     <g id="line2d_7">
      <g>
       <use style="stroke:#000000;stroke-width:0.8;" x="645.149853" xlink:href="#m1fa2084197" y="338.0616"/>
      </g>
     </g>
     <g id="text_7">
      <!-- 60 -->
      <defs>
       <path d="M 33.015625 40.375 
Q 26.375 40.375 22.484375 35.828125 
Q 18.609375 31.296875 18.609375 23.390625 
Q 18.609375 15.53125 22.484375 10.953125 
Q 26.375 6.390625 33.015625 6.390625 
Q 39.65625 6.390625 43.53125 10.953125 
Q 47.40625 15.53125 47.40625 23.390625 
Q 47.40625 31.296875 43.53125 35.828125 
Q 39.65625 40.375 33.015625 40.375 
z
M 52.59375 71.296875 
L 52.59375 62.3125 
Q 48.875 64.0625 45.09375 64.984375 
Q 41.3125 65.921875 37.59375 65.921875 
Q 27.828125 65.921875 22.671875 59.328125 
Q 17.53125 52.734375 16.796875 39.40625 
Q 19.671875 43.65625 24.015625 45.921875 
Q 28.375 48.1875 33.59375 48.1875 
Q 44.578125 48.1875 50.953125 41.515625 
Q 57.328125 34.859375 57.328125 23.390625 
Q 57.328125 12.15625 50.6875 5.359375 
Q 44.046875 -1.421875 33.015625 -1.421875 
Q 20.359375 -1.421875 13.671875 8.265625 
Q 6.984375 17.96875 6.984375 36.375 
Q 6.984375 53.65625 15.1875 63.9375 
Q 23.390625 74.21875 37.203125 74.21875 
Q 40.921875 74.21875 44.703125 73.484375 
Q 48.484375 72.75 52.59375 71.296875 
z
" id="DejaVuSans-36"/>
      </defs>
      <g transform="translate(638.787353 352.660037)scale(0.1 -0.1)">
       <use xlink:href="#DejaVuSans-36"/>
       <use x="63.623047" xlink:href="#DejaVuSans-30"/>
      </g>
     </g>
    </g>
    <g id="text_8">
     <!-- translation -->
     <defs>
      <path d="M 18.3125 70.21875 
L 18.3125 54.6875 
L 36.8125 54.6875 
L 36.8125 47.703125 
L 18.3125 47.703125 
L 18.3125 18.015625 
Q 18.3125 11.328125 20.140625 9.421875 
Q 21.96875 7.515625 27.59375 7.515625 
L 36.8125 7.515625 
L 36.8125 0 
L 27.59375 0 
Q 17.1875 0 13.234375 3.875 
Q 9.28125 7.765625 9.28125 18.015625 
L 9.28125 47.703125 
L 2.6875 47.703125 
L 2.6875 54.6875 
L 9.28125 54.6875 
L 9.28125 70.21875 
z
" id="DejaVuSans-74"/>
      <path d="M 41.109375 46.296875 
Q 39.59375 47.171875 37.8125 47.578125 
Q 36.03125 48 33.890625 48 
Q 26.265625 48 22.1875 43.046875 
Q 18.109375 38.09375 18.109375 28.8125 
L 18.109375 0 
L 9.078125 0 
L 9.078125 54.6875 
L 18.109375 54.6875 
L 18.109375 46.1875 
Q 20.953125 51.171875 25.484375 53.578125 
Q 30.03125 56 36.53125 56 
Q 37.453125 56 38.578125 55.875 
Q 39.703125 55.765625 41.0625 55.515625 
z
" id="DejaVuSans-72"/>
      <path d="M 34.28125 27.484375 
Q 23.390625 27.484375 19.1875 25 
Q 14.984375 22.515625 14.984375 16.5 
Q 14.984375 11.71875 18.140625 8.90625 
Q 21.296875 6.109375 26.703125 6.109375 
Q 34.1875 6.109375 38.703125 11.40625 
Q 43.21875 16.703125 43.21875 25.484375 
L 43.21875 27.484375 
z
M 52.203125 31.203125 
L 52.203125 0 
L 43.21875 0 
L 43.21875 8.296875 
Q 40.140625 3.328125 35.546875 0.953125 
Q 30.953125 -1.421875 24.3125 -1.421875 
Q 15.921875 -1.421875 10.953125 3.296875 
Q 6 8.015625 6 15.921875 
Q 6 25.140625 12.171875 29.828125 
Q 18.359375 34.515625 30.609375 34.515625 
L 43.21875 34.515625 
L 43.21875 35.40625 
Q 43.21875 41.609375 39.140625 45 
Q 35.0625 48.390625 27.6875 48.390625 
Q 23 48.390625 18.546875 47.265625 
Q 14.109375 46.140625 10.015625 43.890625 
L 10.015625 52.203125 
Q 14.9375 54.109375 19.578125 55.046875 
Q 24.21875 56 28.609375 56 
Q 40.484375 56 46.34375 49.84375 
Q 52.203125 43.703125 52.203125 31.203125 
z
" id="DejaVuSans-61"/>
      <path d="M 54.890625 33.015625 
L 54.890625 0 
L 45.90625 0 
L 45.90625 32.71875 
Q 45.90625 40.484375 42.875 44.328125 
Q 39.84375 48.1875 33.796875 48.1875 
Q 26.515625 48.1875 22.3125 43.546875 
Q 18.109375 38.921875 18.109375 30.90625 
L 18.109375 0 
L 9.078125 0 
L 9.078125 54.6875 
L 18.109375 54.6875 
L 18.109375 46.1875 
Q 21.34375 51.125 25.703125 53.5625 
Q 30.078125 56 35.796875 56 
Q 45.21875 56 50.046875 50.171875 
Q 54.890625 44.34375 54.890625 33.015625 
z
" id="DejaVuSans-6e"/>
      <path d="M 44.28125 53.078125 
L 44.28125 44.578125 
Q 40.484375 46.53125 36.375 47.5 
Q 32.28125 48.484375 27.875 48.484375 
Q 21.1875 48.484375 17.84375 46.4375 
Q 14.5 44.390625 14.5 40.28125 
Q 14.5 37.15625 16.890625 35.375 
Q 19.28125 33.59375 26.515625 31.984375 
L 29.59375 31.296875 
Q 39.15625 29.25 43.1875 25.515625 
Q 47.21875 21.78125 47.21875 15.09375 
Q 47.21875 7.46875 41.1875 3.015625 
Q 35.15625 -1.421875 24.609375 -1.421875 
Q 20.21875 -1.421875 15.453125 -0.5625 
Q 10.6875 0.296875 5.421875 2 
L 5.421875 11.28125 
Q 10.40625 8.6875 15.234375 7.390625 
Q 20.0625 6.109375 24.8125 6.109375 
Q 31.15625 6.109375 34.5625 8.28125 
Q 37.984375 10.453125 37.984375 14.40625 
Q 37.984375 18.0625 35.515625 20.015625 
Q 33.0625 21.96875 24.703125 23.78125 
L 21.578125 24.515625 
Q 13.234375 26.265625 9.515625 29.90625 
Q 5.8125 33.546875 5.8125 39.890625 
Q 5.8125 47.609375 11.28125 51.796875 
Q 16.75 56 26.8125 56 
Q 31.78125 56 36.171875 55.265625 
Q 40.578125 54.546875 44.28125 53.078125 
z
" id="DejaVuSans-73"/>
      <path d="M 9.421875 75.984375 
L 18.40625 75.984375 
L 18.40625 0 
L 9.421875 0 
z
" id="DejaVuSans-6c"/>
      <path d="M 9.421875 54.6875 
L 18.40625 54.6875 
L 18.40625 0 
L 9.421875 0 
z
M 9.421875 75.984375 
L 18.40625 75.984375 
L 18.40625 64.59375 
L 9.421875 64.59375 
z
" id="DejaVuSans-69"/>
      <path d="M 30.609375 48.390625 
Q 23.390625 48.390625 19.1875 42.75 
Q 14.984375 37.109375 14.984375 27.296875 
Q 14.984375 17.484375 19.15625 11.84375 
Q 23.34375 6.203125 30.609375 6.203125 
Q 37.796875 6.203125 41.984375 11.859375 
Q 46.1875 17.53125 46.1875 27.296875 
Q 46.1875 37.015625 41.984375 42.703125 
Q 37.796875 48.390625 30.609375 48.390625 
z
M 30.609375 56 
Q 42.328125 56 49.015625 48.375 
Q 55.71875 40.765625 55.71875 27.296875 
Q 55.71875 13.875 49.015625 6.21875 
Q 42.328125 -1.421875 30.609375 -1.421875 
Q 18.84375 -1.421875 12.171875 6.21875 
Q 5.515625 13.875 5.515625 27.296875 
Q 5.515625 40.765625 12.171875 48.375 
Q 18.84375 56 30.609375 56 
z
" id="DejaVuSans-6f"/>
     </defs>
     <g transform="translate(389.407315 366.338162)scale(0.1 -0.1)">
      <use xlink:href="#DejaVuSans-74"/>
      <use x="39.208984" xlink:href="#DejaVuSans-72"/>
      <use x="80.322266" xlink:href="#DejaVuSans-61"/>
      <use x="141.601562" xlink:href="#DejaVuSans-6e"/>
      <use x="204.980469" xlink:href="#DejaVuSans-73"/>
      <use x="257.080078" xlink:href="#DejaVuSans-6c"/>
      <use x="284.863281" xlink:href="#DejaVuSans-61"/>
      <use x="346.142578" xlink:href="#DejaVuSans-74"/>
      <use x="385.351562" xlink:href="#DejaVuSans-69"/>
      <use x="413.134766" xlink:href="#DejaVuSans-6f"/>
      <use x="474.316406" xlink:href="#DejaVuSans-6e"/>
     </g>
    </g>
   </g>
   <g id="matplotlib.axis_2">
    <g id="ytick_1">
     <g id="line2d_8">
      <defs>
       <path d="M 0 0 
L -3.5 0 
" id="m61f4fd3bab" style="stroke:#000000;stroke-width:0.8;"/>
      </defs>
      <g>
       <use style="stroke:#000000;stroke-width:0.8;" x="172.8" xlink:href="#m61f4fd3bab" y="322.002809"/>
      </g>
     </g>
     <g id="text_9">
      <!-- 400 -->
      <g transform="translate(146.7125 325.802027)scale(0.1 -0.1)">
       <use xlink:href="#DejaVuSans-34"/>
       <use x="63.623047" xlink:href="#DejaVuSans-30"/>
       <use x="127.246094" xlink:href="#DejaVuSans-30"/>
      </g>
     </g>
    </g>
    <g id="ytick_2">
     <g id="line2d_9">
      <g>
       <use style="stroke:#000000;stroke-width:0.8;" x="172.8" xlink:href="#m61f4fd3bab" y="283.538637"/>
      </g>
     </g>
     <g id="text_10">
      <!-- 500 -->
      <g transform="translate(146.7125 287.337856)scale(0.1 -0.1)">
       <use xlink:href="#DejaVuSans-35"/>
       <use x="63.623047" xlink:href="#DejaVuSans-30"/>
       <use x="127.246094" xlink:href="#DejaVuSans-30"/>
      </g>
     </g>
    </g>
    <g id="ytick_3">
     <g id="line2d_10">
      <g>
       <use style="stroke:#000000;stroke-width:0.8;" x="172.8" xlink:href="#m61f4fd3bab" y="245.074466"/>
      </g>
     </g>
     <g id="text_11">
      <!-- 600 -->
      <g transform="translate(146.7125 248.873685)scale(0.1 -0.1)">
       <use xlink:href="#DejaVuSans-36"/>
       <use x="63.623047" xlink:href="#DejaVuSans-30"/>
       <use x="127.246094" xlink:href="#DejaVuSans-30"/>
      </g>
     </g>
    </g>
    <g id="ytick_4">
     <g id="line2d_11">
      <g>
       <use style="stroke:#000000;stroke-width:0.8;" x="172.8" xlink:href="#m61f4fd3bab" y="206.610295"/>
      </g>
     </g>
     <g id="text_12">
      <!-- 700 -->
      <defs>
       <path d="M 8.203125 72.90625 
L 55.078125 72.90625 
L 55.078125 68.703125 
L 28.609375 0 
L 18.3125 0 
L 43.21875 64.59375 
L 8.203125 64.59375 
z
" id="DejaVuSans-37"/>
      </defs>
      <g transform="translate(146.7125 210.409514)scale(0.1 -0.1)">
       <use xlink:href="#DejaVuSans-37"/>
       <use x="63.623047" xlink:href="#DejaVuSans-30"/>
       <use x="127.246094" xlink:href="#DejaVuSans-30"/>
      </g>
     </g>
    </g>
    <g id="ytick_5">
     <g id="line2d_12">
      <g>
       <use style="stroke:#000000;stroke-width:0.8;" x="172.8" xlink:href="#m61f4fd3bab" y="168.146124"/>
      </g>
     </g>
     <g id="text_13">
      <!-- 800 -->
      <defs>
       <path d="M 31.78125 34.625 
Q 24.75 34.625 20.71875 30.859375 
Q 16.703125 27.09375 16.703125 20.515625 
Q 16.703125 13.921875 20.71875 10.15625 
Q 24.75 6.390625 31.78125 6.390625 
Q 38.8125 6.390625 42.859375 10.171875 
Q 46.921875 13.96875 46.921875 20.515625 
Q 46.921875 27.09375 42.890625 30.859375 
Q 38.875 34.625 31.78125 34.625 
z
M 21.921875 38.8125 
Q 15.578125 40.375 12.03125 44.71875 
Q 8.5 49.078125 8.5 55.328125 
Q 8.5 64.0625 14.71875 69.140625 
Q 20.953125 74.21875 31.78125 74.21875 
Q 42.671875 74.21875 48.875 69.140625 
Q 55.078125 64.0625 55.078125 55.328125 
Q 55.078125 49.078125 51.53125 44.71875 
Q 48 40.375 41.703125 38.8125 
Q 48.828125 37.15625 52.796875 32.3125 
Q 56.78125 27.484375 56.78125 20.515625 
Q 56.78125 9.90625 50.3125 4.234375 
Q 43.84375 -1.421875 31.78125 -1.421875 
Q 19.734375 -1.421875 13.25 4.234375 
Q 6.78125 9.90625 6.78125 20.515625 
Q 6.78125 27.484375 10.78125 32.3125 
Q 14.796875 37.15625 21.921875 38.8125 
z
M 18.3125 54.390625 
Q 18.3125 48.734375 21.84375 45.5625 
Q 25.390625 42.390625 31.78125 42.390625 
Q 38.140625 42.390625 41.71875 45.5625 
Q 45.3125 48.734375 45.3125 54.390625 
Q 45.3125 60.0625 41.71875 63.234375 
Q 38.140625 66.40625 31.78125 66.40625 
Q 25.390625 66.40625 21.84375 63.234375 
Q 18.3125 60.0625 18.3125 54.390625 
z
" id="DejaVuSans-38"/>
      </defs>
      <g transform="translate(146.7125 171.945343)scale(0.1 -0.1)">
       <use xlink:href="#DejaVuSans-38"/>
       <use x="63.623047" xlink:href="#DejaVuSans-30"/>
       <use x="127.246094" xlink:href="#DejaVuSans-30"/>
      </g>
     </g>
    </g>
    <g id="ytick_6">
     <g id="line2d_13">
      <g>
       <use style="stroke:#000000;stroke-width:0.8;" x="172.8" xlink:href="#m61f4fd3bab" y="129.681953"/>
      </g>
     </g>
     <g id="text_14">
      <!-- 900 -->
      <defs>
       <path d="M 10.984375 1.515625 
L 10.984375 10.5 
Q 14.703125 8.734375 18.5 7.8125 
Q 22.3125 6.890625 25.984375 6.890625 
Q 35.75 6.890625 40.890625 13.453125 
Q 46.046875 20.015625 46.78125 33.40625 
Q 43.953125 29.203125 39.59375 26.953125 
Q 35.25 24.703125 29.984375 24.703125 
Q 19.046875 24.703125 12.671875 31.3125 
Q 6.296875 37.9375 6.296875 49.421875 
Q 6.296875 60.640625 12.9375 67.421875 
Q 19.578125 74.21875 30.609375 74.21875 
Q 43.265625 74.21875 49.921875 64.515625 
Q 56.59375 54.828125 56.59375 36.375 
Q 56.59375 19.140625 48.40625 8.859375 
Q 40.234375 -1.421875 26.421875 -1.421875 
Q 22.703125 -1.421875 18.890625 -0.6875 
Q 15.09375 0.046875 10.984375 1.515625 
z
M 30.609375 32.421875 
Q 37.25 32.421875 41.125 36.953125 
Q 45.015625 41.5 45.015625 49.421875 
Q 45.015625 57.28125 41.125 61.84375 
Q 37.25 66.40625 30.609375 66.40625 
Q 23.96875 66.40625 20.09375 61.84375 
Q 16.21875 57.28125 16.21875 49.421875 
Q 16.21875 41.5 20.09375 36.953125 
Q 23.96875 32.421875 30.609375 32.421875 
z
" id="DejaVuSans-39"/>
      </defs>
      <g transform="translate(146.7125 133.481172)scale(0.1 -0.1)">
       <use xlink:href="#DejaVuSans-39"/>
       <use x="63.623047" xlink:href="#DejaVuSans-30"/>
       <use x="127.246094" xlink:href="#DejaVuSans-30"/>
      </g>
     </g>
    </g>
    <g id="ytick_7">
     <g id="line2d_14">
      <g>
       <use style="stroke:#000000;stroke-width:0.8;" x="172.8" xlink:href="#m61f4fd3bab" y="91.217782"/>
      </g>
     </g>
     <g id="text_15">
      <!-- 1000 -->
      <g transform="translate(140.35 95.017001)scale(0.1 -0.1)">
       <use xlink:href="#DejaVuSans-31"/>
       <use x="63.623047" xlink:href="#DejaVuSans-30"/>
       <use x="127.246094" xlink:href="#DejaVuSans-30"/>
       <use x="190.869141" xlink:href="#DejaVuSans-30"/>
      </g>
     </g>
    </g>
   </g>
   <g id="line2d_15">
    <path clip-path="url(#pf9283244c4)" d="M 194.935537 283.153996 
L 202.439109 298.924306 
L 209.942681 300.462873 
L 217.446253 310.078916 
L 224.949825 320.0796 
L 232.453397 308.155707 
L 239.956969 292.385397 
L 247.460541 303.540006 
L 254.964113 293.15468 
L 262.467685 300.847514 
L 269.971256 280.076862 
L 277.474828 318.541033 
L 284.9784 326.618509 
L 292.481972 321.618167 
L 299.985544 297.001097 
L 307.489116 308.540349 
L 314.992688 307.386424 
L 322.49626 305.463215 
L 329.999832 290.077547 
L 337.503404 292.770039 
L 345.006976 227.765589 
L 352.510548 264.306552 
L 360.01412 248.536242 
L 367.517692 248.920883 
L 375.021263 231.612006 
L 382.524835 220.457397 
L 390.028407 248.536242 
L 397.531979 250.074809 
L 405.035551 253.536584 
L 412.539123 245.459108 
L 420.042695 250.45945 
L 427.546267 255.075151 
L 435.049839 238.150916 
L 442.553411 219.688113 
L 450.056983 241.612691 
L 457.560555 231.227365 
L 465.064127 239.304841 
L 472.567699 251.228734 
L 480.07127 240.458766 
L 487.574842 257.767643 
L 495.078414 143.144413 
L 502.581986 131.22052 
L 510.085558 171.992541 
L 517.58913 150.837247 
L 525.092702 202.379236 
L 532.596274 143.913696 
L 540.099846 104.2956 
L 547.603418 114.296284 
L 555.10699 131.605161 
L 562.610562 134.297653 
L 570.114134 131.22052 
L 577.617706 126.604819 
L 585.121277 158.530081 
L 592.624849 126.604819 
L 600.128421 126.220178 
L 607.631993 152.760456 
L 615.135565 146.606188 
L 622.639137 160.068648 
L 630.142709 97.756691 
L 637.646281 132.374445 
" style="fill:none;stroke:#000000;stroke-dasharray:5.55,2.4;stroke-dashoffset:0;stroke-width:1.5;"/>
    <defs>
     <path d="M 0 3 
C 0.795609 3 1.55874 2.683901 2.12132 2.12132 
C 2.683901 1.55874 3 0.795609 3 0 
C 3 -0.795609 2.683901 -1.55874 2.12132 -2.12132 
C 1.55874 -2.683901 0.795609 -3 0 -3 
C -0.795609 -3 -1.55874 -2.683901 -2.12132 -2.12132 
C -2.683901 -1.55874 -3 -0.795609 -3 0 
C -3 0.795609 -2.683901 1.55874 -2.12132 2.12132 
C -1.55874 2.683901 -0.795609 3 0 3 
z
" id="mdedb6176ab" style="stroke:#000000;"/>
    </defs>
    <g clip-path="url(#pf9283244c4)">
     <use style="stroke:#000000;" x="194.935537" xlink:href="#mdedb6176ab" y="283.153996"/>
     <use style="stroke:#000000;" x="202.439109" xlink:href="#mdedb6176ab" y="298.924306"/>
     <use style="stroke:#000000;" x="209.942681" xlink:href="#mdedb6176ab" y="300.462873"/>
     <use style="stroke:#000000;" x="217.446253" xlink:href="#mdedb6176ab" y="310.078916"/>
     <use style="stroke:#000000;" x="224.949825" xlink:href="#mdedb6176ab" y="320.0796"/>
     <use style="stroke:#000000;" x="232.453397" xlink:href="#mdedb6176ab" y="308.155707"/>
     <use style="stroke:#000000;" x="239.956969" xlink:href="#mdedb6176ab" y="292.385397"/>
     <use style="stroke:#000000;" x="247.460541" xlink:href="#mdedb6176ab" y="303.540006"/>
     <use style="stroke:#000000;" x="254.964113" xlink:href="#mdedb6176ab" y="293.15468"/>
     <use style="stroke:#000000;" x="262.467685" xlink:href="#mdedb6176ab" y="300.847514"/>
     <use style="stroke:#000000;" x="269.971256" xlink:href="#mdedb6176ab" y="280.076862"/>
     <use style="stroke:#000000;" x="277.474828" xlink:href="#mdedb6176ab" y="318.541033"/>
     <use style="stroke:#000000;" x="284.9784" xlink:href="#mdedb6176ab" y="326.618509"/>
     <use style="stroke:#000000;" x="292.481972" xlink:href="#mdedb6176ab" y="321.618167"/>
     <use style="stroke:#000000;" x="299.985544" xlink:href="#mdedb6176ab" y="297.001097"/>
     <use style="stroke:#000000;" x="307.489116" xlink:href="#mdedb6176ab" y="308.540349"/>
     <use style="stroke:#000000;" x="314.992688" xlink:href="#mdedb6176ab" y="307.386424"/>
     <use style="stroke:#000000;" x="322.49626" xlink:href="#mdedb6176ab" y="305.463215"/>
     <use style="stroke:#000000;" x="329.999832" xlink:href="#mdedb6176ab" y="290.077547"/>
     <use style="stroke:#000000;" x="337.503404" xlink:href="#mdedb6176ab" y="292.770039"/>
     <use style="stroke:#000000;" x="345.006976" xlink:href="#mdedb6176ab" y="227.765589"/>
     <use style="stroke:#000000;" x="352.510548" xlink:href="#mdedb6176ab" y="264.306552"/>
     <use style="stroke:#000000;" x="360.01412" xlink:href="#mdedb6176ab" y="248.536242"/>
     <use style="stroke:#000000;" x="367.517692" xlink:href="#mdedb6176ab" y="248.920883"/>
     <use style="stroke:#000000;" x="375.021263" xlink:href="#mdedb6176ab" y="231.612006"/>
     <use style="stroke:#000000;" x="382.524835" xlink:href="#mdedb6176ab" y="220.457397"/>
     <use style="stroke:#000000;" x="390.028407" xlink:href="#mdedb6176ab" y="248.536242"/>
     <use style="stroke:#000000;" x="397.531979" xlink:href="#mdedb6176ab" y="250.074809"/>
     <use style="stroke:#000000;" x="405.035551" xlink:href="#mdedb6176ab" y="253.536584"/>
     <use style="stroke:#000000;" x="412.539123" xlink:href="#mdedb6176ab" y="245.459108"/>
     <use style="stroke:#000000;" x="420.042695" xlink:href="#mdedb6176ab" y="250.45945"/>
     <use style="stroke:#000000;" x="427.546267" xlink:href="#mdedb6176ab" y="255.075151"/>
     <use style="stroke:#000000;" x="435.049839" xlink:href="#mdedb6176ab" y="238.150916"/>
     <use style="stroke:#000000;" x="442.553411" xlink:href="#mdedb6176ab" y="219.688113"/>
     <use style="stroke:#000000;" x="450.056983" xlink:href="#mdedb6176ab" y="241.612691"/>
     <use style="stroke:#000000;" x="457.560555" xlink:href="#mdedb6176ab" y="231.227365"/>
     <use style="stroke:#000000;" x="465.064127" xlink:href="#mdedb6176ab" y="239.304841"/>
     <use style="stroke:#000000;" x="472.567699" xlink:href="#mdedb6176ab" y="251.228734"/>
     <use style="stroke:#000000;" x="480.07127" xlink:href="#mdedb6176ab" y="240.458766"/>
     <use style="stroke:#000000;" x="487.574842" xlink:href="#mdedb6176ab" y="257.767643"/>
     <use style="stroke:#000000;" x="495.078414" xlink:href="#mdedb6176ab" y="143.144413"/>
     <use style="stroke:#000000;" x="502.581986" xlink:href="#mdedb6176ab" y="131.22052"/>
     <use style="stroke:#000000;" x="510.085558" xlink:href="#mdedb6176ab" y="171.992541"/>
     <use style="stroke:#000000;" x="517.58913" xlink:href="#mdedb6176ab" y="150.837247"/>
     <use style="stroke:#000000;" x="525.092702" xlink:href="#mdedb6176ab" y="202.379236"/>
     <use style="stroke:#000000;" x="532.596274" xlink:href="#mdedb6176ab" y="143.913696"/>
     <use style="stroke:#000000;" x="540.099846" xlink:href="#mdedb6176ab" y="104.2956"/>
     <use style="stroke:#000000;" x="547.603418" xlink:href="#mdedb6176ab" y="114.296284"/>
     <use style="stroke:#000000;" x="555.10699" xlink:href="#mdedb6176ab" y="131.605161"/>
     <use style="stroke:#000000;" x="562.610562" xlink:href="#mdedb6176ab" y="134.297653"/>
     <use style="stroke:#000000;" x="570.114134" xlink:href="#mdedb6176ab" y="131.22052"/>
     <use style="stroke:#000000;" x="577.617706" xlink:href="#mdedb6176ab" y="126.604819"/>
     <use style="stroke:#000000;" x="585.121277" xlink:href="#mdedb6176ab" y="158.530081"/>
     <use style="stroke:#000000;" x="592.624849" xlink:href="#mdedb6176ab" y="126.604819"/>
     <use style="stroke:#000000;" x="600.128421" xlink:href="#mdedb6176ab" y="126.220178"/>
     <use style="stroke:#000000;" x="607.631993" xlink:href="#mdedb6176ab" y="152.760456"/>
     <use style="stroke:#000000;" x="615.135565" xlink:href="#mdedb6176ab" y="146.606188"/>
     <use style="stroke:#000000;" x="622.639137" xlink:href="#mdedb6176ab" y="160.068648"/>
     <use style="stroke:#000000;" x="630.142709" xlink:href="#mdedb6176ab" y="97.756691"/>
     <use style="stroke:#000000;" x="637.646281" xlink:href="#mdedb6176ab" y="132.374445"/>
    </g>
   </g>
   <g id="patch_3">
    <path d="M 172.8 338.0616 
L 172.8 86.3136 
" style="fill:none;stroke:#000000;stroke-linecap:square;stroke-linejoin:miter;stroke-width:0.8;"/>
   </g>
   <g id="patch_4">
    <path d="M 659.781818 338.0616 
L 659.781818 86.3136 
" style="fill:none;stroke:#000000;stroke-linecap:square;stroke-linejoin:miter;stroke-width:0.8;"/>
   </g>
   <g id="patch_5">
    <path d="M 172.8 338.0616 
L 659.781818 338.0616 
" style="fill:none;stroke:#000000;stroke-linecap:square;stroke-linejoin:miter;stroke-width:0.8;"/>
   </g>
   <g id="patch_6">
    <path d="M 172.8 86.3136 
L 659.781818 86.3136 
" style="fill:none;stroke:#000000;stroke-linecap:square;stroke-linejoin:miter;stroke-width:0.8;"/>
   </g>
  </g>
  <g id="axes_2">
   <g id="patch_7">
    <path d="M 757.178182 338.0616 
L 1244.16 338.0616 
L 1244.16 86.3136 
L 757.178182 86.3136 
z
" style="fill:#ffffff;"/>
   </g>
   <g id="matplotlib.axis_3">
    <g id="xtick_8">
     <g id="line2d_16">
      <g>
       <use style="stroke:#000000;stroke-width:0.8;" x="779.313719" xlink:href="#m1fa2084197" y="338.0616"/>
      </g>
     </g>
     <g id="text_16">
      <!-- 0 -->
      <g transform="translate(776.132469 352.660037)scale(0.1 -0.1)">
       <use xlink:href="#DejaVuSans-30"/>
      </g>
     </g>
    </g>
    <g id="xtick_9">
     <g id="line2d_17">
      <g>
       <use style="stroke:#000000;stroke-width:0.8;" x="854.349438" xlink:href="#m1fa2084197" y="338.0616"/>
      </g>
     </g>
     <g id="text_17">
      <!-- 10 -->
      <g transform="translate(847.986938 352.660037)scale(0.1 -0.1)">
       <use xlink:href="#DejaVuSans-31"/>
       <use x="63.623047" xlink:href="#DejaVuSans-30"/>
      </g>
     </g>
    </g>
    <g id="xtick_10">
     <g id="line2d_18">
      <g>
       <use style="stroke:#000000;stroke-width:0.8;" x="929.385158" xlink:href="#m1fa2084197" y="338.0616"/>
      </g>
     </g>
     <g id="text_18">
      <!-- 20 -->
      <g transform="translate(923.022658 352.660037)scale(0.1 -0.1)">
       <use xlink:href="#DejaVuSans-32"/>
       <use x="63.623047" xlink:href="#DejaVuSans-30"/>
      </g>
     </g>
    </g>
    <g id="xtick_11">
     <g id="line2d_19">
      <g>
       <use style="stroke:#000000;stroke-width:0.8;" x="1004.420877" xlink:href="#m1fa2084197" y="338.0616"/>
      </g>
     </g>
     <g id="text_19">
      <!-- 30 -->
      <g transform="translate(998.058377 352.660037)scale(0.1 -0.1)">
       <use xlink:href="#DejaVuSans-33"/>
       <use x="63.623047" xlink:href="#DejaVuSans-30"/>
      </g>
     </g>
    </g>
    <g id="xtick_12">
     <g id="line2d_20">
      <g>
       <use style="stroke:#000000;stroke-width:0.8;" x="1079.456596" xlink:href="#m1fa2084197" y="338.0616"/>
      </g>
     </g>
     <g id="text_20">
      <!-- 40 -->
      <g transform="translate(1073.094096 352.660037)scale(0.1 -0.1)">
       <use xlink:href="#DejaVuSans-34"/>
       <use x="63.623047" xlink:href="#DejaVuSans-30"/>
      </g>
     </g>
    </g>
    <g id="xtick_13">
     <g id="line2d_21">
      <g>
       <use style="stroke:#000000;stroke-width:0.8;" x="1154.492315" xlink:href="#m1fa2084197" y="338.0616"/>
      </g>
     </g>
     <g id="text_21">
      <!-- 50 -->
      <g transform="translate(1148.129815 352.660037)scale(0.1 -0.1)">
       <use xlink:href="#DejaVuSans-35"/>
       <use x="63.623047" xlink:href="#DejaVuSans-30"/>
      </g>
     </g>
    </g>
    <g id="xtick_14">
     <g id="line2d_22">
      <g>
       <use style="stroke:#000000;stroke-width:0.8;" x="1229.528035" xlink:href="#m1fa2084197" y="338.0616"/>
      </g>
     </g>
     <g id="text_22">
      <!-- 60 -->
      <g transform="translate(1223.165535 352.660037)scale(0.1 -0.1)">
       <use xlink:href="#DejaVuSans-36"/>
       <use x="63.623047" xlink:href="#DejaVuSans-30"/>
      </g>
     </g>
    </g>
    <g id="text_23">
     <!-- translate_per_word -->
     <defs>
      <path d="M 56.203125 29.59375 
L 56.203125 25.203125 
L 14.890625 25.203125 
Q 15.484375 15.921875 20.484375 11.0625 
Q 25.484375 6.203125 34.421875 6.203125 
Q 39.59375 6.203125 44.453125 7.46875 
Q 49.3125 8.734375 54.109375 11.28125 
L 54.109375 2.78125 
Q 49.265625 0.734375 44.1875 -0.34375 
Q 39.109375 -1.421875 33.890625 -1.421875 
Q 20.796875 -1.421875 13.15625 6.1875 
Q 5.515625 13.8125 5.515625 26.8125 
Q 5.515625 40.234375 12.765625 48.109375 
Q 20.015625 56 32.328125 56 
Q 43.359375 56 49.78125 48.890625 
Q 56.203125 41.796875 56.203125 29.59375 
z
M 47.21875 32.234375 
Q 47.125 39.59375 43.09375 43.984375 
Q 39.0625 48.390625 32.421875 48.390625 
Q 24.90625 48.390625 20.390625 44.140625 
Q 15.875 39.890625 15.1875 32.171875 
z
" id="DejaVuSans-65"/>
      <path d="M 50.984375 -16.609375 
L 50.984375 -23.578125 
L -0.984375 -23.578125 
L -0.984375 -16.609375 
z
" id="DejaVuSans-5f"/>
      <path d="M 18.109375 8.203125 
L 18.109375 -20.796875 
L 9.078125 -20.796875 
L 9.078125 54.6875 
L 18.109375 54.6875 
L 18.109375 46.390625 
Q 20.953125 51.265625 25.265625 53.625 
Q 29.59375 56 35.59375 56 
Q 45.5625 56 51.78125 48.09375 
Q 58.015625 40.1875 58.015625 27.296875 
Q 58.015625 14.40625 51.78125 6.484375 
Q 45.5625 -1.421875 35.59375 -1.421875 
Q 29.59375 -1.421875 25.265625 0.953125 
Q 20.953125 3.328125 18.109375 8.203125 
z
M 48.6875 27.296875 
Q 48.6875 37.203125 44.609375 42.84375 
Q 40.53125 48.484375 33.40625 48.484375 
Q 26.265625 48.484375 22.1875 42.84375 
Q 18.109375 37.203125 18.109375 27.296875 
Q 18.109375 17.390625 22.1875 11.75 
Q 26.265625 6.109375 33.40625 6.109375 
Q 40.53125 6.109375 44.609375 11.75 
Q 48.6875 17.390625 48.6875 27.296875 
z
" id="DejaVuSans-70"/>
      <path d="M 4.203125 54.6875 
L 13.1875 54.6875 
L 24.421875 12.015625 
L 35.59375 54.6875 
L 46.1875 54.6875 
L 57.421875 12.015625 
L 68.609375 54.6875 
L 77.59375 54.6875 
L 63.28125 0 
L 52.6875 0 
L 40.921875 44.828125 
L 29.109375 0 
L 18.5 0 
z
" id="DejaVuSans-77"/>
      <path d="M 45.40625 46.390625 
L 45.40625 75.984375 
L 54.390625 75.984375 
L 54.390625 0 
L 45.40625 0 
L 45.40625 8.203125 
Q 42.578125 3.328125 38.25 0.953125 
Q 33.9375 -1.421875 27.875 -1.421875 
Q 17.96875 -1.421875 11.734375 6.484375 
Q 5.515625 14.40625 5.515625 27.296875 
Q 5.515625 40.1875 11.734375 48.09375 
Q 17.96875 56 27.875 56 
Q 33.9375 56 38.25 53.625 
Q 42.578125 51.265625 45.40625 46.390625 
z
M 14.796875 27.296875 
Q 14.796875 17.390625 18.875 11.75 
Q 22.953125 6.109375 30.078125 6.109375 
Q 37.203125 6.109375 41.296875 11.75 
Q 45.40625 17.390625 45.40625 27.296875 
Q 45.40625 37.203125 41.296875 42.84375 
Q 37.203125 48.484375 30.078125 48.484375 
Q 22.953125 48.484375 18.875 42.84375 
Q 14.796875 37.203125 14.796875 27.296875 
z
" id="DejaVuSans-64"/>
     </defs>
     <g transform="translate(952.642528 366.338162)scale(0.1 -0.1)">
      <use xlink:href="#DejaVuSans-74"/>
      <use x="39.208984" xlink:href="#DejaVuSans-72"/>
      <use x="80.322266" xlink:href="#DejaVuSans-61"/>
      <use x="141.601562" xlink:href="#DejaVuSans-6e"/>
      <use x="204.980469" xlink:href="#DejaVuSans-73"/>
      <use x="257.080078" xlink:href="#DejaVuSans-6c"/>
      <use x="284.863281" xlink:href="#DejaVuSans-61"/>
      <use x="346.142578" xlink:href="#DejaVuSans-74"/>
      <use x="385.351562" xlink:href="#DejaVuSans-65"/>
      <use x="446.875" xlink:href="#DejaVuSans-5f"/>
      <use x="496.875" xlink:href="#DejaVuSans-70"/>
      <use x="560.351562" xlink:href="#DejaVuSans-65"/>
      <use x="621.875" xlink:href="#DejaVuSans-72"/>
      <use x="662.988281" xlink:href="#DejaVuSans-5f"/>
      <use x="712.988281" xlink:href="#DejaVuSans-77"/>
      <use x="794.775391" xlink:href="#DejaVuSans-6f"/>
      <use x="855.957031" xlink:href="#DejaVuSans-72"/>
      <use x="897.054688" xlink:href="#DejaVuSans-64"/>
     </g>
    </g>
   </g>
   <g id="matplotlib.axis_4">
    <g id="ytick_8">
     <g id="line2d_23">
      <g>
       <use style="stroke:#000000;stroke-width:0.8;" x="757.178182" xlink:href="#m61f4fd3bab" y="315.09243"/>
      </g>
     </g>
     <g id="text_24">
      <!-- 1.5 -->
      <defs>
       <path d="M 10.6875 12.40625 
L 21 12.40625 
L 21 0 
L 10.6875 0 
z
" id="DejaVuSans-2e"/>
      </defs>
      <g transform="translate(734.275057 318.891649)scale(0.1 -0.1)">
       <use xlink:href="#DejaVuSans-31"/>
       <use x="63.623047" xlink:href="#DejaVuSans-2e"/>
       <use x="95.410156" xlink:href="#DejaVuSans-35"/>
      </g>
     </g>
    </g>
    <g id="ytick_9">
     <g id="line2d_24">
      <g>
       <use style="stroke:#000000;stroke-width:0.8;" x="757.178182" xlink:href="#m61f4fd3bab" y="268.988116"/>
      </g>
     </g>
     <g id="text_25">
      <!-- 1.6 -->
      <g transform="translate(734.275057 272.787334)scale(0.1 -0.1)">
       <use xlink:href="#DejaVuSans-31"/>
       <use x="63.623047" xlink:href="#DejaVuSans-2e"/>
       <use x="95.410156" xlink:href="#DejaVuSans-36"/>
      </g>
     </g>
    </g>
    <g id="ytick_10">
     <g id="line2d_25">
      <g>
       <use style="stroke:#000000;stroke-width:0.8;" x="757.178182" xlink:href="#m61f4fd3bab" y="222.883801"/>
      </g>
     </g>
     <g id="text_26">
      <!-- 1.7 -->
      <g transform="translate(734.275057 226.68302)scale(0.1 -0.1)">
       <use xlink:href="#DejaVuSans-31"/>
       <use x="63.623047" xlink:href="#DejaVuSans-2e"/>
       <use x="95.410156" xlink:href="#DejaVuSans-37"/>
      </g>
     </g>
    </g>
    <g id="ytick_11">
     <g id="line2d_26">
      <g>
       <use style="stroke:#000000;stroke-width:0.8;" x="757.178182" xlink:href="#m61f4fd3bab" y="176.779486"/>
      </g>
     </g>
     <g id="text_27">
      <!-- 1.8 -->
      <g transform="translate(734.275057 180.578705)scale(0.1 -0.1)">
       <use xlink:href="#DejaVuSans-31"/>
       <use x="63.623047" xlink:href="#DejaVuSans-2e"/>
       <use x="95.410156" xlink:href="#DejaVuSans-38"/>
      </g>
     </g>
    </g>
    <g id="ytick_12">
     <g id="line2d_27">
      <g>
       <use style="stroke:#000000;stroke-width:0.8;" x="757.178182" xlink:href="#m61f4fd3bab" y="130.675172"/>
      </g>
     </g>
     <g id="text_28">
      <!-- 1.9 -->
      <g transform="translate(734.275057 134.47439)scale(0.1 -0.1)">
       <use xlink:href="#DejaVuSans-31"/>
       <use x="63.623047" xlink:href="#DejaVuSans-2e"/>
       <use x="95.410156" xlink:href="#DejaVuSans-39"/>
      </g>
     </g>
    </g>
   </g>
   <g id="line2d_28">
    <path clip-path="url(#p8de52dc007)" d="M 779.313719 160.550768 
L 786.817291 200.292687 
L 794.320863 165.714451 
L 801.824435 214.999963 
L 809.328007 262.764033 
L 816.831579 196.097194 
L 824.335151 201.07646 
L 831.838723 190.241946 
L 839.342294 120.025075 
L 846.845866 177.517155 
L 854.349438 140.725912 
L 861.85301 270.048515 
L 869.356582 299.601381 
L 876.860154 255.110717 
L 884.363726 200.707626 
L 891.867298 213.939564 
L 899.37087 211.634348 
L 906.874442 192.962101 
L 914.378014 133.395326 
L 921.881586 125.327071 
L 929.385158 191.947806 
L 936.88873 294.391593 
L 944.392301 243.400221 
L 951.895873 326.618509 
L 959.399445 206.747291 
L 966.903017 126.986826 
L 974.406589 268.250447 
L 981.910161 261.104278 
L 989.413733 262.30299 
L 996.917305 245.889854 
L 1004.420877 228.047484 
L 1011.924449 273.598547 
L 1019.428021 208.545359 
L 1026.931593 151.329905 
L 1034.435165 228.877362 
L 1041.938737 224.727974 
L 1049.442308 221.224046 
L 1056.94588 207.715481 
L 1064.449452 216.290884 
L 1071.953024 280.514194 
L 1079.456596 274.889468 
L 1086.960168 207.623273 
L 1094.46374 300.800093 
L 1101.967312 244.276203 
L 1109.470884 118.319215 
L 1116.974456 267.097839 
L 1124.478028 97.756691 
L 1131.9816 204.119345 
L 1139.485172 213.109686 
L 1146.988744 237.08393 
L 1154.492315 100.753471 
L 1161.995887 195.359525 
L 1169.499459 188.6744 
L 1177.003031 200.062165 
L 1184.506603 186.507497 
L 1192.010175 213.063582 
L 1199.513747 271.754375 
L 1207.017319 273.0914 
L 1214.520891 116.290625 
L 1222.024463 299.232546 
" style="fill:none;stroke:#000000;stroke-dasharray:5.55,2.4;stroke-dashoffset:0;stroke-width:1.5;"/>
    <g clip-path="url(#p8de52dc007)">
     <use style="stroke:#000000;" x="779.313719" xlink:href="#mdedb6176ab" y="160.550768"/>
     <use style="stroke:#000000;" x="786.817291" xlink:href="#mdedb6176ab" y="200.292687"/>
     <use style="stroke:#000000;" x="794.320863" xlink:href="#mdedb6176ab" y="165.714451"/>
     <use style="stroke:#000000;" x="801.824435" xlink:href="#mdedb6176ab" y="214.999963"/>
     <use style="stroke:#000000;" x="809.328007" xlink:href="#mdedb6176ab" y="262.764033"/>
     <use style="stroke:#000000;" x="816.831579" xlink:href="#mdedb6176ab" y="196.097194"/>
     <use style="stroke:#000000;" x="824.335151" xlink:href="#mdedb6176ab" y="201.07646"/>
     <use style="stroke:#000000;" x="831.838723" xlink:href="#mdedb6176ab" y="190.241946"/>
     <use style="stroke:#000000;" x="839.342294" xlink:href="#mdedb6176ab" y="120.025075"/>
     <use style="stroke:#000000;" x="846.845866" xlink:href="#mdedb6176ab" y="177.517155"/>
     <use style="stroke:#000000;" x="854.349438" xlink:href="#mdedb6176ab" y="140.725912"/>
     <use style="stroke:#000000;" x="861.85301" xlink:href="#mdedb6176ab" y="270.048515"/>
     <use style="stroke:#000000;" x="869.356582" xlink:href="#mdedb6176ab" y="299.601381"/>
     <use style="stroke:#000000;" x="876.860154" xlink:href="#mdedb6176ab" y="255.110717"/>
     <use style="stroke:#000000;" x="884.363726" xlink:href="#mdedb6176ab" y="200.707626"/>
     <use style="stroke:#000000;" x="891.867298" xlink:href="#mdedb6176ab" y="213.939564"/>
     <use style="stroke:#000000;" x="899.37087" xlink:href="#mdedb6176ab" y="211.634348"/>
     <use style="stroke:#000000;" x="906.874442" xlink:href="#mdedb6176ab" y="192.962101"/>
     <use style="stroke:#000000;" x="914.378014" xlink:href="#mdedb6176ab" y="133.395326"/>
     <use style="stroke:#000000;" x="921.881586" xlink:href="#mdedb6176ab" y="125.327071"/>
     <use style="stroke:#000000;" x="929.385158" xlink:href="#mdedb6176ab" y="191.947806"/>
     <use style="stroke:#000000;" x="936.88873" xlink:href="#mdedb6176ab" y="294.391593"/>
     <use style="stroke:#000000;" x="944.392301" xlink:href="#mdedb6176ab" y="243.400221"/>
     <use style="stroke:#000000;" x="951.895873" xlink:href="#mdedb6176ab" y="326.618509"/>
     <use style="stroke:#000000;" x="959.399445" xlink:href="#mdedb6176ab" y="206.747291"/>
     <use style="stroke:#000000;" x="966.903017" xlink:href="#mdedb6176ab" y="126.986826"/>
     <use style="stroke:#000000;" x="974.406589" xlink:href="#mdedb6176ab" y="268.250447"/>
     <use style="stroke:#000000;" x="981.910161" xlink:href="#mdedb6176ab" y="261.104278"/>
     <use style="stroke:#000000;" x="989.413733" xlink:href="#mdedb6176ab" y="262.30299"/>
     <use style="stroke:#000000;" x="996.917305" xlink:href="#mdedb6176ab" y="245.889854"/>
     <use style="stroke:#000000;" x="1004.420877" xlink:href="#mdedb6176ab" y="228.047484"/>
     <use style="stroke:#000000;" x="1011.924449" xlink:href="#mdedb6176ab" y="273.598547"/>
     <use style="stroke:#000000;" x="1019.428021" xlink:href="#mdedb6176ab" y="208.545359"/>
     <use style="stroke:#000000;" x="1026.931593" xlink:href="#mdedb6176ab" y="151.329905"/>
     <use style="stroke:#000000;" x="1034.435165" xlink:href="#mdedb6176ab" y="228.877362"/>
     <use style="stroke:#000000;" x="1041.938737" xlink:href="#mdedb6176ab" y="224.727974"/>
     <use style="stroke:#000000;" x="1049.442308" xlink:href="#mdedb6176ab" y="221.224046"/>
     <use style="stroke:#000000;" x="1056.94588" xlink:href="#mdedb6176ab" y="207.715481"/>
     <use style="stroke:#000000;" x="1064.449452" xlink:href="#mdedb6176ab" y="216.290884"/>
     <use style="stroke:#000000;" x="1071.953024" xlink:href="#mdedb6176ab" y="280.514194"/>
     <use style="stroke:#000000;" x="1079.456596" xlink:href="#mdedb6176ab" y="274.889468"/>
     <use style="stroke:#000000;" x="1086.960168" xlink:href="#mdedb6176ab" y="207.623273"/>
     <use style="stroke:#000000;" x="1094.46374" xlink:href="#mdedb6176ab" y="300.800093"/>
     <use style="stroke:#000000;" x="1101.967312" xlink:href="#mdedb6176ab" y="244.276203"/>
     <use style="stroke:#000000;" x="1109.470884" xlink:href="#mdedb6176ab" y="118.319215"/>
     <use style="stroke:#000000;" x="1116.974456" xlink:href="#mdedb6176ab" y="267.097839"/>
     <use style="stroke:#000000;" x="1124.478028" xlink:href="#mdedb6176ab" y="97.756691"/>
     <use style="stroke:#000000;" x="1131.9816" xlink:href="#mdedb6176ab" y="204.119345"/>
     <use style="stroke:#000000;" x="1139.485172" xlink:href="#mdedb6176ab" y="213.109686"/>
     <use style="stroke:#000000;" x="1146.988744" xlink:href="#mdedb6176ab" y="237.08393"/>
     <use style="stroke:#000000;" x="1154.492315" xlink:href="#mdedb6176ab" y="100.753471"/>
     <use style="stroke:#000000;" x="1161.995887" xlink:href="#mdedb6176ab" y="195.359525"/>
     <use style="stroke:#000000;" x="1169.499459" xlink:href="#mdedb6176ab" y="188.6744"/>
     <use style="stroke:#000000;" x="1177.003031" xlink:href="#mdedb6176ab" y="200.062165"/>
     <use style="stroke:#000000;" x="1184.506603" xlink:href="#mdedb6176ab" y="186.507497"/>
     <use style="stroke:#000000;" x="1192.010175" xlink:href="#mdedb6176ab" y="213.063582"/>
     <use style="stroke:#000000;" x="1199.513747" xlink:href="#mdedb6176ab" y="271.754375"/>
     <use style="stroke:#000000;" x="1207.017319" xlink:href="#mdedb6176ab" y="273.0914"/>
     <use style="stroke:#000000;" x="1214.520891" xlink:href="#mdedb6176ab" y="116.290625"/>
     <use style="stroke:#000000;" x="1222.024463" xlink:href="#mdedb6176ab" y="299.232546"/>
    </g>
   </g>
   <g id="patch_8">
    <path d="M 757.178182 338.0616 
L 757.178182 86.3136 
" style="fill:none;stroke:#000000;stroke-linecap:square;stroke-linejoin:miter;stroke-width:0.8;"/>
   </g>
   <g id="patch_9">
    <path d="M 1244.16 338.0616 
L 1244.16 86.3136 
" style="fill:none;stroke:#000000;stroke-linecap:square;stroke-linejoin:miter;stroke-width:0.8;"/>
   </g>
   <g id="patch_10">
    <path d="M 757.178182 338.0616 
L 1244.16 338.0616 
" style="fill:none;stroke:#000000;stroke-linecap:square;stroke-linejoin:miter;stroke-width:0.8;"/>
   </g>
   <g id="patch_11">
    <path d="M 757.178182 86.3136 
L 1244.16 86.3136 
" style="fill:none;stroke:#000000;stroke-linecap:square;stroke-linejoin:miter;stroke-width:0.8;"/>
   </g>
  </g>
  <g id="axes_3">
   <g id="patch_12">
    <path d="M 172.8 640.1592 
L 659.781818 640.1592 
L 659.781818 388.4112 
L 172.8 388.4112 
z
" style="fill:#ffffff;"/>
   </g>
   <g id="matplotlib.axis_5">
    <g id="xtick_15">
     <g id="line2d_29">
      <g>
       <use style="stroke:#000000;stroke-width:0.8;" x="194.935537" xlink:href="#m1fa2084197" y="640.1592"/>
      </g>
     </g>
     <g id="text_29">
      <!-- 0 -->
      <g transform="translate(191.754287 654.757637)scale(0.1 -0.1)">
       <use xlink:href="#DejaVuSans-30"/>
      </g>
     </g>
    </g>
    <g id="xtick_16">
     <g id="line2d_30">
      <g>
       <use style="stroke:#000000;stroke-width:0.8;" x="269.971256" xlink:href="#m1fa2084197" y="640.1592"/>
      </g>
     </g>
     <g id="text_30">
      <!-- 10 -->
      <g transform="translate(263.608756 654.757637)scale(0.1 -0.1)">
       <use xlink:href="#DejaVuSans-31"/>
       <use x="63.623047" xlink:href="#DejaVuSans-30"/>
      </g>
     </g>
    </g>
    <g id="xtick_17">
     <g id="line2d_31">
      <g>
       <use style="stroke:#000000;stroke-width:0.8;" x="345.006976" xlink:href="#m1fa2084197" y="640.1592"/>
      </g>
     </g>
     <g id="text_31">
      <!-- 20 -->
      <g transform="translate(338.644476 654.757637)scale(0.1 -0.1)">
       <use xlink:href="#DejaVuSans-32"/>
       <use x="63.623047" xlink:href="#DejaVuSans-30"/>
      </g>
     </g>
    </g>
    <g id="xtick_18">
     <g id="line2d_32">
      <g>
       <use style="stroke:#000000;stroke-width:0.8;" x="420.042695" xlink:href="#m1fa2084197" y="640.1592"/>
      </g>
     </g>
     <g id="text_32">
      <!-- 30 -->
      <g transform="translate(413.680195 654.757637)scale(0.1 -0.1)">
       <use xlink:href="#DejaVuSans-33"/>
       <use x="63.623047" xlink:href="#DejaVuSans-30"/>
      </g>
     </g>
    </g>
    <g id="xtick_19">
     <g id="line2d_33">
      <g>
       <use style="stroke:#000000;stroke-width:0.8;" x="495.078414" xlink:href="#m1fa2084197" y="640.1592"/>
      </g>
     </g>
     <g id="text_33">
      <!-- 40 -->
      <g transform="translate(488.715914 654.757637)scale(0.1 -0.1)">
       <use xlink:href="#DejaVuSans-34"/>
       <use x="63.623047" xlink:href="#DejaVuSans-30"/>
      </g>
     </g>
    </g>
    <g id="xtick_20">
     <g id="line2d_34">
      <g>
       <use style="stroke:#000000;stroke-width:0.8;" x="570.114134" xlink:href="#m1fa2084197" y="640.1592"/>
      </g>
     </g>
     <g id="text_34">
      <!-- 50 -->
      <g transform="translate(563.751634 654.757637)scale(0.1 -0.1)">
       <use xlink:href="#DejaVuSans-35"/>
       <use x="63.623047" xlink:href="#DejaVuSans-30"/>
      </g>
     </g>
    </g>
    <g id="xtick_21">
     <g id="line2d_35">
      <g>
       <use style="stroke:#000000;stroke-width:0.8;" x="645.149853" xlink:href="#m1fa2084197" y="640.1592"/>
      </g>
     </g>
     <g id="text_35">
      <!-- 60 -->
      <g transform="translate(638.787353 654.757637)scale(0.1 -0.1)">
       <use xlink:href="#DejaVuSans-36"/>
       <use x="63.623047" xlink:href="#DejaVuSans-30"/>
      </g>
     </g>
    </g>
    <g id="text_36">
     <!-- translate_per_sentence -->
     <defs>
      <path d="M 48.78125 52.59375 
L 48.78125 44.1875 
Q 44.96875 46.296875 41.140625 47.34375 
Q 37.3125 48.390625 33.40625 48.390625 
Q 24.65625 48.390625 19.8125 42.84375 
Q 14.984375 37.3125 14.984375 27.296875 
Q 14.984375 17.28125 19.8125 11.734375 
Q 24.65625 6.203125 33.40625 6.203125 
Q 37.3125 6.203125 41.140625 7.25 
Q 44.96875 8.296875 48.78125 10.40625 
L 48.78125 2.09375 
Q 45.015625 0.34375 40.984375 -0.53125 
Q 36.96875 -1.421875 32.421875 -1.421875 
Q 20.0625 -1.421875 12.78125 6.34375 
Q 5.515625 14.109375 5.515625 27.296875 
Q 5.515625 40.671875 12.859375 48.328125 
Q 20.21875 56 33.015625 56 
Q 37.15625 56 41.109375 55.140625 
Q 45.0625 54.296875 48.78125 52.59375 
z
" id="DejaVuSans-63"/>
     </defs>
     <g transform="translate(357.76044 668.435763)scale(0.1 -0.1)">
      <use xlink:href="#DejaVuSans-74"/>
      <use x="39.208984" xlink:href="#DejaVuSans-72"/>
      <use x="80.322266" xlink:href="#DejaVuSans-61"/>
      <use x="141.601562" xlink:href="#DejaVuSans-6e"/>
      <use x="204.980469" xlink:href="#DejaVuSans-73"/>
      <use x="257.080078" xlink:href="#DejaVuSans-6c"/>
      <use x="284.863281" xlink:href="#DejaVuSans-61"/>
      <use x="346.142578" xlink:href="#DejaVuSans-74"/>
      <use x="385.351562" xlink:href="#DejaVuSans-65"/>
      <use x="446.875" xlink:href="#DejaVuSans-5f"/>
      <use x="496.875" xlink:href="#DejaVuSans-70"/>
      <use x="560.351562" xlink:href="#DejaVuSans-65"/>
      <use x="621.875" xlink:href="#DejaVuSans-72"/>
      <use x="662.988281" xlink:href="#DejaVuSans-5f"/>
      <use x="712.988281" xlink:href="#DejaVuSans-73"/>
      <use x="765.087891" xlink:href="#DejaVuSans-65"/>
      <use x="826.611328" xlink:href="#DejaVuSans-6e"/>
      <use x="889.990234" xlink:href="#DejaVuSans-74"/>
      <use x="929.199219" xlink:href="#DejaVuSans-65"/>
      <use x="990.722656" xlink:href="#DejaVuSans-6e"/>
      <use x="1054.101562" xlink:href="#DejaVuSans-63"/>
      <use x="1109.082031" xlink:href="#DejaVuSans-65"/>
     </g>
    </g>
   </g>
   <g id="matplotlib.axis_6">
    <g id="ytick_13">
     <g id="line2d_36">
      <g>
       <use style="stroke:#000000;stroke-width:0.8;" x="172.8" xlink:href="#m61f4fd3bab" y="610.407164"/>
      </g>
     </g>
     <g id="text_37">
      <!-- 20 -->
      <g transform="translate(153.075 614.206382)scale(0.1 -0.1)">
       <use xlink:href="#DejaVuSans-32"/>
       <use x="63.623047" xlink:href="#DejaVuSans-30"/>
      </g>
     </g>
    </g>
    <g id="ytick_14">
     <g id="line2d_37">
      <g>
       <use style="stroke:#000000;stroke-width:0.8;" x="172.8" xlink:href="#m61f4fd3bab" y="564.6348"/>
      </g>
     </g>
     <g id="text_38">
      <!-- 25 -->
      <g transform="translate(153.075 568.434019)scale(0.1 -0.1)">
       <use xlink:href="#DejaVuSans-32"/>
       <use x="63.623047" xlink:href="#DejaVuSans-35"/>
      </g>
     </g>
    </g>
    <g id="ytick_15">
     <g id="line2d_38">
      <g>
       <use style="stroke:#000000;stroke-width:0.8;" x="172.8" xlink:href="#m61f4fd3bab" y="518.862436"/>
      </g>
     </g>
     <g id="text_39">
      <!-- 30 -->
      <g transform="translate(153.075 522.661655)scale(0.1 -0.1)">
       <use xlink:href="#DejaVuSans-33"/>
       <use x="63.623047" xlink:href="#DejaVuSans-30"/>
      </g>
     </g>
    </g>
    <g id="ytick_16">
     <g id="line2d_39">
      <g>
       <use style="stroke:#000000;stroke-width:0.8;" x="172.8" xlink:href="#m61f4fd3bab" y="473.090073"/>
      </g>
     </g>
     <g id="text_40">
      <!-- 35 -->
      <g transform="translate(153.075 476.889291)scale(0.1 -0.1)">
       <use xlink:href="#DejaVuSans-33"/>
       <use x="63.623047" xlink:href="#DejaVuSans-35"/>
      </g>
     </g>
    </g>
    <g id="ytick_17">
     <g id="line2d_40">
      <g>
       <use style="stroke:#000000;stroke-width:0.8;" x="172.8" xlink:href="#m61f4fd3bab" y="427.317709"/>
      </g>
     </g>
     <g id="text_41">
      <!-- 40 -->
      <g transform="translate(153.075 431.116928)scale(0.1 -0.1)">
       <use xlink:href="#DejaVuSans-34"/>
       <use x="63.623047" xlink:href="#DejaVuSans-30"/>
      </g>
     </g>
    </g>
   </g>
   <g id="line2d_41">
    <path clip-path="url(#p35f9feb6ad)" d="M 194.935537 445.626655 
L 202.439109 582.943745 
L 209.942681 564.6348 
L 217.446253 537.171382 
L 224.949825 491.399018 
L 232.453397 546.325855 
L 239.956969 555.480327 
L 247.460541 528.016909 
L 254.964113 582.943745 
L 262.467685 500.553491 
L 269.971256 628.716109 
L 277.474828 573.789273 
L 284.9784 592.098218 
L 292.481972 463.9356 
L 299.985544 528.016909 
L 307.489116 564.6348 
L 314.992688 546.325855 
L 322.49626 582.943745 
L 329.999832 555.480327 
L 337.503404 537.171382 
L 345.006976 555.480327 
L 352.510548 546.325855 
L 360.01412 528.016909 
L 367.517692 582.943745 
L 375.021263 518.862436 
L 382.524835 518.862436 
L 390.028407 509.707964 
L 397.531979 546.325855 
L 405.035551 564.6348 
L 412.539123 582.943745 
L 420.042695 546.325855 
L 427.546267 537.171382 
L 435.049839 573.789273 
L 442.553411 518.862436 
L 450.056983 518.862436 
L 457.560555 509.707964 
L 465.064127 555.480327 
L 472.567699 528.016909 
L 480.07127 555.480327 
L 487.574842 546.325855 
L 495.078414 537.171382 
L 502.581986 518.862436 
L 510.085558 528.016909 
L 517.58913 546.325855 
L 525.092702 518.862436 
L 532.596274 537.171382 
L 540.099846 454.781127 
L 547.603418 546.325855 
L 555.10699 509.707964 
L 562.610562 509.707964 
L 570.114134 427.317709 
L 577.617706 500.553491 
L 585.121277 509.707964 
L 592.624849 518.862436 
L 600.128421 491.399018 
L 607.631993 463.9356 
L 615.135565 555.480327 
L 622.639137 399.854291 
L 630.142709 427.317709 
L 637.646281 518.862436 
" style="fill:none;stroke:#000000;stroke-dasharray:5.55,2.4;stroke-dashoffset:0;stroke-width:1.5;"/>
    <g clip-path="url(#p35f9feb6ad)">
     <use style="stroke:#000000;" x="194.935537" xlink:href="#mdedb6176ab" y="445.626655"/>
     <use style="stroke:#000000;" x="202.439109" xlink:href="#mdedb6176ab" y="582.943745"/>
     <use style="stroke:#000000;" x="209.942681" xlink:href="#mdedb6176ab" y="564.6348"/>
     <use style="stroke:#000000;" x="217.446253" xlink:href="#mdedb6176ab" y="537.171382"/>
     <use style="stroke:#000000;" x="224.949825" xlink:href="#mdedb6176ab" y="491.399018"/>
     <use style="stroke:#000000;" x="232.453397" xlink:href="#mdedb6176ab" y="546.325855"/>
     <use style="stroke:#000000;" x="239.956969" xlink:href="#mdedb6176ab" y="555.480327"/>
     <use style="stroke:#000000;" x="247.460541" xlink:href="#mdedb6176ab" y="528.016909"/>
     <use style="stroke:#000000;" x="254.964113" xlink:href="#mdedb6176ab" y="582.943745"/>
     <use style="stroke:#000000;" x="262.467685" xlink:href="#mdedb6176ab" y="500.553491"/>
     <use style="stroke:#000000;" x="269.971256" xlink:href="#mdedb6176ab" y="628.716109"/>
     <use style="stroke:#000000;" x="277.474828" xlink:href="#mdedb6176ab" y="573.789273"/>
     <use style="stroke:#000000;" x="284.9784" xlink:href="#mdedb6176ab" y="592.098218"/>
     <use style="stroke:#000000;" x="292.481972" xlink:href="#mdedb6176ab" y="463.9356"/>
     <use style="stroke:#000000;" x="299.985544" xlink:href="#mdedb6176ab" y="528.016909"/>
     <use style="stroke:#000000;" x="307.489116" xlink:href="#mdedb6176ab" y="564.6348"/>
     <use style="stroke:#000000;" x="314.992688" xlink:href="#mdedb6176ab" y="546.325855"/>
     <use style="stroke:#000000;" x="322.49626" xlink:href="#mdedb6176ab" y="582.943745"/>
     <use style="stroke:#000000;" x="329.999832" xlink:href="#mdedb6176ab" y="555.480327"/>
     <use style="stroke:#000000;" x="337.503404" xlink:href="#mdedb6176ab" y="537.171382"/>
     <use style="stroke:#000000;" x="345.006976" xlink:href="#mdedb6176ab" y="555.480327"/>
     <use style="stroke:#000000;" x="352.510548" xlink:href="#mdedb6176ab" y="546.325855"/>
     <use style="stroke:#000000;" x="360.01412" xlink:href="#mdedb6176ab" y="528.016909"/>
     <use style="stroke:#000000;" x="367.517692" xlink:href="#mdedb6176ab" y="582.943745"/>
     <use style="stroke:#000000;" x="375.021263" xlink:href="#mdedb6176ab" y="518.862436"/>
     <use style="stroke:#000000;" x="382.524835" xlink:href="#mdedb6176ab" y="518.862436"/>
     <use style="stroke:#000000;" x="390.028407" xlink:href="#mdedb6176ab" y="509.707964"/>
     <use style="stroke:#000000;" x="397.531979" xlink:href="#mdedb6176ab" y="546.325855"/>
     <use style="stroke:#000000;" x="405.035551" xlink:href="#mdedb6176ab" y="564.6348"/>
     <use style="stroke:#000000;" x="412.539123" xlink:href="#mdedb6176ab" y="582.943745"/>
     <use style="stroke:#000000;" x="420.042695" xlink:href="#mdedb6176ab" y="546.325855"/>
     <use style="stroke:#000000;" x="427.546267" xlink:href="#mdedb6176ab" y="537.171382"/>
     <use style="stroke:#000000;" x="435.049839" xlink:href="#mdedb6176ab" y="573.789273"/>
     <use style="stroke:#000000;" x="442.553411" xlink:href="#mdedb6176ab" y="518.862436"/>
     <use style="stroke:#000000;" x="450.056983" xlink:href="#mdedb6176ab" y="518.862436"/>
     <use style="stroke:#000000;" x="457.560555" xlink:href="#mdedb6176ab" y="509.707964"/>
     <use style="stroke:#000000;" x="465.064127" xlink:href="#mdedb6176ab" y="555.480327"/>
     <use style="stroke:#000000;" x="472.567699" xlink:href="#mdedb6176ab" y="528.016909"/>
     <use style="stroke:#000000;" x="480.07127" xlink:href="#mdedb6176ab" y="555.480327"/>
     <use style="stroke:#000000;" x="487.574842" xlink:href="#mdedb6176ab" y="546.325855"/>
     <use style="stroke:#000000;" x="495.078414" xlink:href="#mdedb6176ab" y="537.171382"/>
     <use style="stroke:#000000;" x="502.581986" xlink:href="#mdedb6176ab" y="518.862436"/>
     <use style="stroke:#000000;" x="510.085558" xlink:href="#mdedb6176ab" y="528.016909"/>
     <use style="stroke:#000000;" x="517.58913" xlink:href="#mdedb6176ab" y="546.325855"/>
     <use style="stroke:#000000;" x="525.092702" xlink:href="#mdedb6176ab" y="518.862436"/>
     <use style="stroke:#000000;" x="532.596274" xlink:href="#mdedb6176ab" y="537.171382"/>
     <use style="stroke:#000000;" x="540.099846" xlink:href="#mdedb6176ab" y="454.781127"/>
     <use style="stroke:#000000;" x="547.603418" xlink:href="#mdedb6176ab" y="546.325855"/>
     <use style="stroke:#000000;" x="555.10699" xlink:href="#mdedb6176ab" y="509.707964"/>
     <use style="stroke:#000000;" x="562.610562" xlink:href="#mdedb6176ab" y="509.707964"/>
     <use style="stroke:#000000;" x="570.114134" xlink:href="#mdedb6176ab" y="427.317709"/>
     <use style="stroke:#000000;" x="577.617706" xlink:href="#mdedb6176ab" y="500.553491"/>
     <use style="stroke:#000000;" x="585.121277" xlink:href="#mdedb6176ab" y="509.707964"/>
     <use style="stroke:#000000;" x="592.624849" xlink:href="#mdedb6176ab" y="518.862436"/>
     <use style="stroke:#000000;" x="600.128421" xlink:href="#mdedb6176ab" y="491.399018"/>
     <use style="stroke:#000000;" x="607.631993" xlink:href="#mdedb6176ab" y="463.9356"/>
     <use style="stroke:#000000;" x="615.135565" xlink:href="#mdedb6176ab" y="555.480327"/>
     <use style="stroke:#000000;" x="622.639137" xlink:href="#mdedb6176ab" y="399.854291"/>
     <use style="stroke:#000000;" x="630.142709" xlink:href="#mdedb6176ab" y="427.317709"/>
     <use style="stroke:#000000;" x="637.646281" xlink:href="#mdedb6176ab" y="518.862436"/>
    </g>
   </g>
   <g id="patch_13">
    <path d="M 172.8 640.1592 
L 172.8 388.4112 
" style="fill:none;stroke:#000000;stroke-linecap:square;stroke-linejoin:miter;stroke-width:0.8;"/>
   </g>
   <g id="patch_14">
    <path d="M 659.781818 640.1592 
L 659.781818 388.4112 
" style="fill:none;stroke:#000000;stroke-linecap:square;stroke-linejoin:miter;stroke-width:0.8;"/>
   </g>
   <g id="patch_15">
    <path d="M 172.8 640.1592 
L 659.781818 640.1592 
" style="fill:none;stroke:#000000;stroke-linecap:square;stroke-linejoin:miter;stroke-width:0.8;"/>
   </g>
   <g id="patch_16">
    <path d="M 172.8 388.4112 
L 659.781818 388.4112 
" style="fill:none;stroke:#000000;stroke-linecap:square;stroke-linejoin:miter;stroke-width:0.8;"/>
   </g>
  </g>
  <g id="axes_4">
   <g id="patch_17">
    <path d="M 757.178182 640.1592 
L 1244.16 640.1592 
L 1244.16 388.4112 
L 757.178182 388.4112 
z
" style="fill:#ffffff;"/>
   </g>
   <g id="matplotlib.axis_7">
    <g id="xtick_22">
     <g id="line2d_42">
      <g>
       <use style="stroke:#000000;stroke-width:0.8;" x="757.178182" xlink:href="#m1fa2084197" y="640.1592"/>
      </g>
     </g>
     <g id="text_42">
      <!-- 0.0 -->
      <g transform="translate(749.226619 654.757637)scale(0.1 -0.1)">
       <use xlink:href="#DejaVuSans-30"/>
       <use x="63.623047" xlink:href="#DejaVuSans-2e"/>
       <use x="95.410156" xlink:href="#DejaVuSans-30"/>
      </g>
     </g>
    </g>
    <g id="xtick_23">
     <g id="line2d_43">
      <g>
       <use style="stroke:#000000;stroke-width:0.8;" x="854.574545" xlink:href="#m1fa2084197" y="640.1592"/>
      </g>
     </g>
     <g id="text_43">
      <!-- 0.2 -->
      <g transform="translate(846.622983 654.757637)scale(0.1 -0.1)">
       <use xlink:href="#DejaVuSans-30"/>
       <use x="63.623047" xlink:href="#DejaVuSans-2e"/>
       <use x="95.410156" xlink:href="#DejaVuSans-32"/>
      </g>
     </g>
    </g>
    <g id="xtick_24">
     <g id="line2d_44">
      <g>
       <use style="stroke:#000000;stroke-width:0.8;" x="951.970909" xlink:href="#m1fa2084197" y="640.1592"/>
      </g>
     </g>
     <g id="text_44">
      <!-- 0.4 -->
      <g transform="translate(944.019347 654.757637)scale(0.1 -0.1)">
       <use xlink:href="#DejaVuSans-30"/>
       <use x="63.623047" xlink:href="#DejaVuSans-2e"/>
       <use x="95.410156" xlink:href="#DejaVuSans-34"/>
      </g>
     </g>
    </g>
    <g id="xtick_25">
     <g id="line2d_45">
      <g>
       <use style="stroke:#000000;stroke-width:0.8;" x="1049.367273" xlink:href="#m1fa2084197" y="640.1592"/>
      </g>
     </g>
     <g id="text_45">
      <!-- 0.6 -->
      <g transform="translate(1041.41571 654.757637)scale(0.1 -0.1)">
       <use xlink:href="#DejaVuSans-30"/>
       <use x="63.623047" xlink:href="#DejaVuSans-2e"/>
       <use x="95.410156" xlink:href="#DejaVuSans-36"/>
      </g>
     </g>
    </g>
    <g id="xtick_26">
     <g id="line2d_46">
      <g>
       <use style="stroke:#000000;stroke-width:0.8;" x="1146.763636" xlink:href="#m1fa2084197" y="640.1592"/>
      </g>
     </g>
     <g id="text_46">
      <!-- 0.8 -->
      <g transform="translate(1138.812074 654.757637)scale(0.1 -0.1)">
       <use xlink:href="#DejaVuSans-30"/>
       <use x="63.623047" xlink:href="#DejaVuSans-2e"/>
       <use x="95.410156" xlink:href="#DejaVuSans-38"/>
      </g>
     </g>
    </g>
    <g id="xtick_27">
     <g id="line2d_47">
      <g>
       <use style="stroke:#000000;stroke-width:0.8;" x="1244.16" xlink:href="#m1fa2084197" y="640.1592"/>
      </g>
     </g>
     <g id="text_47">
      <!-- 1.0 -->
      <g transform="translate(1236.208437 654.757637)scale(0.1 -0.1)">
       <use xlink:href="#DejaVuSans-31"/>
       <use x="63.623047" xlink:href="#DejaVuSans-2e"/>
       <use x="95.410156" xlink:href="#DejaVuSans-30"/>
      </g>
     </g>
    </g>
   </g>
   <g id="matplotlib.axis_8">
    <g id="ytick_18">
     <g id="line2d_48">
      <g>
       <use style="stroke:#000000;stroke-width:0.8;" x="757.178182" xlink:href="#m61f4fd3bab" y="640.1592"/>
      </g>
     </g>
     <g id="text_48">
      <!-- 0.0 -->
      <g transform="translate(734.275057 643.958419)scale(0.1 -0.1)">
       <use xlink:href="#DejaVuSans-30"/>
       <use x="63.623047" xlink:href="#DejaVuSans-2e"/>
       <use x="95.410156" xlink:href="#DejaVuSans-30"/>
      </g>
     </g>
    </g>
    <g id="ytick_19">
     <g id="line2d_49">
      <g>
       <use style="stroke:#000000;stroke-width:0.8;" x="757.178182" xlink:href="#m61f4fd3bab" y="589.8096"/>
      </g>
     </g>
     <g id="text_49">
      <!-- 0.2 -->
      <g transform="translate(734.275057 593.608819)scale(0.1 -0.1)">
       <use xlink:href="#DejaVuSans-30"/>
       <use x="63.623047" xlink:href="#DejaVuSans-2e"/>
       <use x="95.410156" xlink:href="#DejaVuSans-32"/>
      </g>
     </g>
    </g>
    <g id="ytick_20">
     <g id="line2d_50">
      <g>
       <use style="stroke:#000000;stroke-width:0.8;" x="757.178182" xlink:href="#m61f4fd3bab" y="539.46"/>
      </g>
     </g>
     <g id="text_50">
      <!-- 0.4 -->
      <g transform="translate(734.275057 543.259219)scale(0.1 -0.1)">
       <use xlink:href="#DejaVuSans-30"/>
       <use x="63.623047" xlink:href="#DejaVuSans-2e"/>
       <use x="95.410156" xlink:href="#DejaVuSans-34"/>
      </g>
     </g>
    </g>
    <g id="ytick_21">
     <g id="line2d_51">
      <g>
       <use style="stroke:#000000;stroke-width:0.8;" x="757.178182" xlink:href="#m61f4fd3bab" y="489.1104"/>
      </g>
     </g>
     <g id="text_51">
      <!-- 0.6 -->
      <g transform="translate(734.275057 492.909619)scale(0.1 -0.1)">
       <use xlink:href="#DejaVuSans-30"/>
       <use x="63.623047" xlink:href="#DejaVuSans-2e"/>
       <use x="95.410156" xlink:href="#DejaVuSans-36"/>
      </g>
     </g>
    </g>
    <g id="ytick_22">
     <g id="line2d_52">
      <g>
       <use style="stroke:#000000;stroke-width:0.8;" x="757.178182" xlink:href="#m61f4fd3bab" y="438.7608"/>
      </g>
     </g>
     <g id="text_52">
      <!-- 0.8 -->
      <g transform="translate(734.275057 442.560019)scale(0.1 -0.1)">
       <use xlink:href="#DejaVuSans-30"/>
       <use x="63.623047" xlink:href="#DejaVuSans-2e"/>
       <use x="95.410156" xlink:href="#DejaVuSans-38"/>
      </g>
     </g>
    </g>
    <g id="ytick_23">
     <g id="line2d_53">
      <g>
       <use style="stroke:#000000;stroke-width:0.8;" x="757.178182" xlink:href="#m61f4fd3bab" y="388.4112"/>
      </g>
     </g>
     <g id="text_53">
      <!-- 1.0 -->
      <g transform="translate(734.275057 392.210419)scale(0.1 -0.1)">
       <use xlink:href="#DejaVuSans-31"/>
       <use x="63.623047" xlink:href="#DejaVuSans-2e"/>
       <use x="95.410156" xlink:href="#DejaVuSans-30"/>
      </g>
     </g>
    </g>
   </g>
   <g id="patch_18">
    <path d="M 757.178182 640.1592 
L 757.178182 388.4112 
" style="fill:none;stroke:#000000;stroke-linecap:square;stroke-linejoin:miter;stroke-width:0.8;"/>
   </g>
   <g id="patch_19">
    <path d="M 1244.16 640.1592 
L 1244.16 388.4112 
" style="fill:none;stroke:#000000;stroke-linecap:square;stroke-linejoin:miter;stroke-width:0.8;"/>
   </g>
   <g id="patch_20">
    <path d="M 757.178182 640.1592 
L 1244.16 640.1592 
" style="fill:none;stroke:#000000;stroke-linecap:square;stroke-linejoin:miter;stroke-width:0.8;"/>
   </g>
   <g id="patch_21">
    <path d="M 757.178182 388.4112 
L 1244.16 388.4112 
" style="fill:none;stroke:#000000;stroke-linecap:square;stroke-linejoin:miter;stroke-width:0.8;"/>
   </g>
  </g>
 </g>
 <defs>
  <clipPath id="pf9283244c4">
   <rect height="251.748" width="486.981818" x="172.8" y="86.3136"/>
  </clipPath>
  <clipPath id="p8de52dc007">
   <rect height="251.748" width="486.981818" x="757.178182" y="86.3136"/>
  </clipPath>
  <clipPath id="p35f9feb6ad">
   <rect height="251.748" width="486.981818" x="172.8" y="388.4112"/>
  </clipPath>
 </defs>
</svg>
