<?xml version="1.0" encoding="utf-8" standalone="no"?>
<!DOCTYPE svg PUBLIC "-//W3C//DTD SVG 1.1//EN"
  "http://www.w3.org/Graphics/SVG/1.1/DTD/svg11.dtd">
<!-- Created with matplotlib (http://matplotlib.org/) -->
<svg height="719.28pt" version="1.1" viewBox="0 0 1382.4 719.28" width="1382.4pt" xmlns="http://www.w3.org/2000/svg" xmlns:xlink="http://www.w3.org/1999/xlink">
 <defs>
  <style type="text/css">
*{stroke-linecap:butt;stroke-linejoin:round;}
  </style>
 </defs>
 <g id="figure_1">
  <g id="patch_1">
   <path d="M 0 719.28 
L 1382.4 719.28 
L 1382.4 0 
L 0 0 
z
" style="fill:#ffffff;"/>
  </g>
  <g id="axes_1">
   <g id="patch_2">
    <path d="M 172.8 338.0616 
L 659.781818 338.0616 
L 659.781818 86.3136 
L 172.8 86.3136 
z
" style="fill:#ffffff;"/>
   </g>
   <g id="matplotlib.axis_1">
    <g id="xtick_1">
     <g id="line2d_1">
      <defs>
       <path d="M 0 0 
L 0 3.5 
" id="me0008d30b4" style="stroke:#000000;stroke-width:0.8;"/>
      </defs>
      <g>
       <use style="stroke:#000000;stroke-width:0.8;" x="194.935537" xlink:href="#me0008d30b4" y="338.0616"/>
      </g>
     </g>
     <g id="text_1">
      <!-- 0 -->
      <defs>
       <path d="M 31.78125 66.40625 
Q 24.171875 66.40625 20.328125 58.90625 
Q 16.5 51.421875 16.5 36.375 
Q 16.5 21.390625 20.328125 13.890625 
Q 24.171875 6.390625 31.78125 6.390625 
Q 39.453125 6.390625 43.28125 13.890625 
Q 47.125 21.390625 47.125 36.375 
Q 47.125 51.421875 43.28125 58.90625 
Q 39.453125 66.40625 31.78125 66.40625 
z
M 31.78125 74.21875 
Q 44.046875 74.21875 50.515625 64.515625 
Q 56.984375 54.828125 56.984375 36.375 
Q 56.984375 17.96875 50.515625 8.265625 
Q 44.046875 -1.421875 31.78125 -1.421875 
Q 19.53125 -1.421875 13.0625 8.265625 
Q 6.59375 17.96875 6.59375 36.375 
Q 6.59375 54.828125 13.0625 64.515625 
Q 19.53125 74.21875 31.78125 74.21875 
z
" id="DejaVuSans-30"/>
      </defs>
      <g transform="translate(191.754287 352.660037)scale(0.1 -0.1)">
       <use xlink:href="#DejaVuSans-30"/>
      </g>
     </g>
    </g>
    <g id="xtick_2">
     <g id="line2d_2">
      <g>
       <use style="stroke:#000000;stroke-width:0.8;" x="269.971256" xlink:href="#me0008d30b4" y="338.0616"/>
      </g>
     </g>
     <g id="text_2">
      <!-- 10 -->
      <defs>
       <path d="M 12.40625 8.296875 
L 28.515625 8.296875 
L 28.515625 63.921875 
L 10.984375 60.40625 
L 10.984375 69.390625 
L 28.421875 72.90625 
L 38.28125 72.90625 
L 38.28125 8.296875 
L 54.390625 8.296875 
L 54.390625 0 
L 12.40625 0 
z
" id="DejaVuSans-31"/>
      </defs>
      <g transform="translate(263.608756 352.660037)scale(0.1 -0.1)">
       <use xlink:href="#DejaVuSans-31"/>
       <use x="63.623047" xlink:href="#DejaVuSans-30"/>
      </g>
     </g>
    </g>
    <g id="xtick_3">
     <g id="line2d_3">
      <g>
       <use style="stroke:#000000;stroke-width:0.8;" x="345.006976" xlink:href="#me0008d30b4" y="338.0616"/>
      </g>
     </g>
     <g id="text_3">
      <!-- 20 -->
      <defs>
       <path d="M 19.1875 8.296875 
L 53.609375 8.296875 
L 53.609375 0 
L 7.328125 0 
L 7.328125 8.296875 
Q 12.9375 14.109375 22.625 23.890625 
Q 32.328125 33.6875 34.8125 36.53125 
Q 39.546875 41.84375 41.421875 45.53125 
Q 43.3125 49.21875 43.3125 52.78125 
Q 43.3125 58.59375 39.234375 62.25 
Q 35.15625 65.921875 28.609375 65.921875 
Q 23.96875 65.921875 18.8125 64.3125 
Q 13.671875 62.703125 7.8125 59.421875 
L 7.8125 69.390625 
Q 13.765625 71.78125 18.9375 73 
Q 24.125 74.21875 28.421875 74.21875 
Q 39.75 74.21875 46.484375 68.546875 
Q 53.21875 62.890625 53.21875 53.421875 
Q 53.21875 48.921875 51.53125 44.890625 
Q 49.859375 40.875 45.40625 35.40625 
Q 44.1875 33.984375 37.640625 27.21875 
Q 31.109375 20.453125 19.1875 8.296875 
z
" id="DejaVuSans-32"/>
      </defs>
      <g transform="translate(338.644476 352.660037)scale(0.1 -0.1)">
       <use xlink:href="#DejaVuSans-32"/>
       <use x="63.623047" xlink:href="#DejaVuSans-30"/>
      </g>
     </g>
    </g>
    <g id="xtick_4">
     <g id="line2d_4">
      <g>
       <use style="stroke:#000000;stroke-width:0.8;" x="420.042695" xlink:href="#me0008d30b4" y="338.0616"/>
      </g>
     </g>
     <g id="text_4">
      <!-- 30 -->
      <defs>
       <path d="M 40.578125 39.3125 
Q 47.65625 37.796875 51.625 33 
Q 55.609375 28.21875 55.609375 21.1875 
Q 55.609375 10.40625 48.1875 4.484375 
Q 40.765625 -1.421875 27.09375 -1.421875 
Q 22.515625 -1.421875 17.65625 -0.515625 
Q 12.796875 0.390625 7.625 2.203125 
L 7.625 11.71875 
Q 11.71875 9.328125 16.59375 8.109375 
Q 21.484375 6.890625 26.8125 6.890625 
Q 36.078125 6.890625 40.9375 10.546875 
Q 45.796875 14.203125 45.796875 21.1875 
Q 45.796875 27.640625 41.28125 31.265625 
Q 36.765625 34.90625 28.71875 34.90625 
L 20.21875 34.90625 
L 20.21875 43.015625 
L 29.109375 43.015625 
Q 36.375 43.015625 40.234375 45.921875 
Q 44.09375 48.828125 44.09375 54.296875 
Q 44.09375 59.90625 40.109375 62.90625 
Q 36.140625 65.921875 28.71875 65.921875 
Q 24.65625 65.921875 20.015625 65.03125 
Q 15.375 64.15625 9.8125 62.3125 
L 9.8125 71.09375 
Q 15.4375 72.65625 20.34375 73.4375 
Q 25.25 74.21875 29.59375 74.21875 
Q 40.828125 74.21875 47.359375 69.109375 
Q 53.90625 64.015625 53.90625 55.328125 
Q 53.90625 49.265625 50.4375 45.09375 
Q 46.96875 40.921875 40.578125 39.3125 
z
" id="DejaVuSans-33"/>
      </defs>
      <g transform="translate(413.680195 352.660037)scale(0.1 -0.1)">
       <use xlink:href="#DejaVuSans-33"/>
       <use x="63.623047" xlink:href="#DejaVuSans-30"/>
      </g>
     </g>
    </g>
    <g id="xtick_5">
     <g id="line2d_5">
      <g>
       <use style="stroke:#000000;stroke-width:0.8;" x="495.078414" xlink:href="#me0008d30b4" y="338.0616"/>
      </g>
     </g>
     <g id="text_5">
      <!-- 40 -->
      <defs>
       <path d="M 37.796875 64.3125 
L 12.890625 25.390625 
L 37.796875 25.390625 
z
M 35.203125 72.90625 
L 47.609375 72.90625 
L 47.609375 25.390625 
L 58.015625 25.390625 
L 58.015625 17.1875 
L 47.609375 17.1875 
L 47.609375 0 
L 37.796875 0 
L 37.796875 17.1875 
L 4.890625 17.1875 
L 4.890625 26.703125 
z
" id="DejaVuSans-34"/>
      </defs>
      <g transform="translate(488.715914 352.660037)scale(0.1 -0.1)">
       <use xlink:href="#DejaVuSans-34"/>
       <use x="63.623047" xlink:href="#DejaVuSans-30"/>
      </g>
     </g>
    </g>
    <g id="xtick_6">
     <g id="line2d_6">
      <g>
       <use style="stroke:#000000;stroke-width:0.8;" x="570.114134" xlink:href="#me0008d30b4" y="338.0616"/>
      </g>
     </g>
     <g id="text_6">
      <!-- 50 -->
      <defs>
       <path d="M 10.796875 72.90625 
L 49.515625 72.90625 
L 49.515625 64.59375 
L 19.828125 64.59375 
L 19.828125 46.734375 
Q 21.96875 47.46875 24.109375 47.828125 
Q 26.265625 48.1875 28.421875 48.1875 
Q 40.625 48.1875 47.75 41.5 
Q 54.890625 34.8125 54.890625 23.390625 
Q 54.890625 11.625 47.5625 5.09375 
Q 40.234375 -1.421875 26.90625 -1.421875 
Q 22.3125 -1.421875 17.546875 -0.640625 
Q 12.796875 0.140625 7.71875 1.703125 
L 7.71875 11.625 
Q 12.109375 9.234375 16.796875 8.0625 
Q 21.484375 6.890625 26.703125 6.890625 
Q 35.15625 6.890625 40.078125 11.328125 
Q 45.015625 15.765625 45.015625 23.390625 
Q 45.015625 31 40.078125 35.4375 
Q 35.15625 39.890625 26.703125 39.890625 
Q 22.75 39.890625 18.8125 39.015625 
Q 14.890625 38.140625 10.796875 36.28125 
z
" id="DejaVuSans-35"/>
      </defs>
      <g transform="translate(563.751634 352.660037)scale(0.1 -0.1)">
       <use xlink:href="#DejaVuSans-35"/>
       <use x="63.623047" xlink:href="#DejaVuSans-30"/>
      </g>
     </g>
    </g>
    <g id="xtick_7">
     <g id="line2d_7">
      <g>
       <use style="stroke:#000000;stroke-width:0.8;" x="645.149853" xlink:href="#me0008d30b4" y="338.0616"/>
      </g>
     </g>
     <g id="text_7">
      <!-- 60 -->
      <defs>
       <path d="M 33.015625 40.375 
Q 26.375 40.375 22.484375 35.828125 
Q 18.609375 31.296875 18.609375 23.390625 
Q 18.609375 15.53125 22.484375 10.953125 
Q 26.375 6.390625 33.015625 6.390625 
Q 39.65625 6.390625 43.53125 10.953125 
Q 47.40625 15.53125 47.40625 23.390625 
Q 47.40625 31.296875 43.53125 35.828125 
Q 39.65625 40.375 33.015625 40.375 
z
M 52.59375 71.296875 
L 52.59375 62.3125 
Q 48.875 64.0625 45.09375 64.984375 
Q 41.3125 65.921875 37.59375 65.921875 
Q 27.828125 65.921875 22.671875 59.328125 
Q 17.53125 52.734375 16.796875 39.40625 
Q 19.671875 43.65625 24.015625 45.921875 
Q 28.375 48.1875 33.59375 48.1875 
Q 44.578125 48.1875 50.953125 41.515625 
Q 57.328125 34.859375 57.328125 23.390625 
Q 57.328125 12.15625 50.6875 5.359375 
Q 44.046875 -1.421875 33.015625 -1.421875 
Q 20.359375 -1.421875 13.671875 8.265625 
Q 6.984375 17.96875 6.984375 36.375 
Q 6.984375 53.65625 15.1875 63.9375 
Q 23.390625 74.21875 37.203125 74.21875 
Q 40.921875 74.21875 44.703125 73.484375 
Q 48.484375 72.75 52.59375 71.296875 
z
" id="DejaVuSans-36"/>
      </defs>
      <g transform="translate(638.787353 352.660037)scale(0.1 -0.1)">
       <use xlink:href="#DejaVuSans-36"/>
       <use x="63.623047" xlink:href="#DejaVuSans-30"/>
      </g>
     </g>
    </g>
    <g id="text_8">
     <!-- FKS -->
     <defs>
      <path d="M 9.8125 72.90625 
L 51.703125 72.90625 
L 51.703125 64.59375 
L 19.671875 64.59375 
L 19.671875 43.109375 
L 48.578125 43.109375 
L 48.578125 34.8125 
L 19.671875 34.8125 
L 19.671875 0 
L 9.8125 0 
z
" id="DejaVuSans-46"/>
      <path d="M 9.8125 72.90625 
L 19.671875 72.90625 
L 19.671875 42.09375 
L 52.390625 72.90625 
L 65.09375 72.90625 
L 28.90625 38.921875 
L 67.671875 0 
L 54.6875 0 
L 19.671875 35.109375 
L 19.671875 0 
L 9.8125 0 
z
" id="DejaVuSans-4b"/>
      <path d="M 53.515625 70.515625 
L 53.515625 60.890625 
Q 47.90625 63.578125 42.921875 64.890625 
Q 37.9375 66.21875 33.296875 66.21875 
Q 25.25 66.21875 20.875 63.09375 
Q 16.5 59.96875 16.5 54.203125 
Q 16.5 49.359375 19.40625 46.890625 
Q 22.3125 44.4375 30.421875 42.921875 
L 36.375 41.703125 
Q 47.40625 39.59375 52.65625 34.296875 
Q 57.90625 29 57.90625 20.125 
Q 57.90625 9.515625 50.796875 4.046875 
Q 43.703125 -1.421875 29.984375 -1.421875 
Q 24.8125 -1.421875 18.96875 -0.25 
Q 13.140625 0.921875 6.890625 3.21875 
L 6.890625 13.375 
Q 12.890625 10.015625 18.65625 8.296875 
Q 24.421875 6.59375 29.984375 6.59375 
Q 38.421875 6.59375 43.015625 9.90625 
Q 47.609375 13.234375 47.609375 19.390625 
Q 47.609375 24.75 44.3125 27.78125 
Q 41.015625 30.8125 33.5 32.328125 
L 27.484375 33.5 
Q 16.453125 35.6875 11.515625 40.375 
Q 6.59375 45.0625 6.59375 53.421875 
Q 6.59375 63.09375 13.40625 68.65625 
Q 20.21875 74.21875 32.171875 74.21875 
Q 37.3125 74.21875 42.625 73.28125 
Q 47.953125 72.359375 53.515625 70.515625 
z
" id="DejaVuSans-53"/>
     </defs>
     <g transform="translate(406.962003 366.338162)scale(0.1 -0.1)">
      <use xlink:href="#DejaVuSans-46"/>
      <use x="57.519531" xlink:href="#DejaVuSans-4b"/>
      <use x="123.095703" xlink:href="#DejaVuSans-53"/>
     </g>
    </g>
   </g>
   <g id="matplotlib.axis_2">
    <g id="ytick_1">
     <g id="line2d_8">
      <defs>
       <path d="M 0 0 
L -3.5 0 
" id="m70eaefd836" style="stroke:#000000;stroke-width:0.8;"/>
      </defs>
      <g>
       <use style="stroke:#000000;stroke-width:0.8;" x="172.8" xlink:href="#m70eaefd836" y="310.516942"/>
      </g>
     </g>
     <g id="text_9">
      <!-- 55 -->
      <g transform="translate(153.075 314.316161)scale(0.1 -0.1)">
       <use xlink:href="#DejaVuSans-35"/>
       <use x="63.623047" xlink:href="#DejaVuSans-35"/>
      </g>
     </g>
    </g>
    <g id="ytick_2">
     <g id="line2d_9">
      <g>
       <use style="stroke:#000000;stroke-width:0.8;" x="172.8" xlink:href="#m70eaefd836" y="273.922472"/>
      </g>
     </g>
     <g id="text_10">
      <!-- 60 -->
      <g transform="translate(153.075 277.72169)scale(0.1 -0.1)">
       <use xlink:href="#DejaVuSans-36"/>
       <use x="63.623047" xlink:href="#DejaVuSans-30"/>
      </g>
     </g>
    </g>
    <g id="ytick_3">
     <g id="line2d_10">
      <g>
       <use style="stroke:#000000;stroke-width:0.8;" x="172.8" xlink:href="#m70eaefd836" y="237.328001"/>
      </g>
     </g>
     <g id="text_11">
      <!-- 65 -->
      <g transform="translate(153.075 241.12722)scale(0.1 -0.1)">
       <use xlink:href="#DejaVuSans-36"/>
       <use x="63.623047" xlink:href="#DejaVuSans-35"/>
      </g>
     </g>
    </g>
    <g id="ytick_4">
     <g id="line2d_11">
      <g>
       <use style="stroke:#000000;stroke-width:0.8;" x="172.8" xlink:href="#m70eaefd836" y="200.733531"/>
      </g>
     </g>
     <g id="text_12">
      <!-- 70 -->
      <defs>
       <path d="M 8.203125 72.90625 
L 55.078125 72.90625 
L 55.078125 68.703125 
L 28.609375 0 
L 18.3125 0 
L 43.21875 64.59375 
L 8.203125 64.59375 
z
" id="DejaVuSans-37"/>
      </defs>
      <g transform="translate(153.075 204.532749)scale(0.1 -0.1)">
       <use xlink:href="#DejaVuSans-37"/>
       <use x="63.623047" xlink:href="#DejaVuSans-30"/>
      </g>
     </g>
    </g>
    <g id="ytick_5">
     <g id="line2d_12">
      <g>
       <use style="stroke:#000000;stroke-width:0.8;" x="172.8" xlink:href="#m70eaefd836" y="164.13906"/>
      </g>
     </g>
     <g id="text_13">
      <!-- 75 -->
      <g transform="translate(153.075 167.938279)scale(0.1 -0.1)">
       <use xlink:href="#DejaVuSans-37"/>
       <use x="63.623047" xlink:href="#DejaVuSans-35"/>
      </g>
     </g>
    </g>
    <g id="ytick_6">
     <g id="line2d_13">
      <g>
       <use style="stroke:#000000;stroke-width:0.8;" x="172.8" xlink:href="#m70eaefd836" y="127.54459"/>
      </g>
     </g>
     <g id="text_14">
      <!-- 80 -->
      <defs>
       <path d="M 31.78125 34.625 
Q 24.75 34.625 20.71875 30.859375 
Q 16.703125 27.09375 16.703125 20.515625 
Q 16.703125 13.921875 20.71875 10.15625 
Q 24.75 6.390625 31.78125 6.390625 
Q 38.8125 6.390625 42.859375 10.171875 
Q 46.921875 13.96875 46.921875 20.515625 
Q 46.921875 27.09375 42.890625 30.859375 
Q 38.875 34.625 31.78125 34.625 
z
M 21.921875 38.8125 
Q 15.578125 40.375 12.03125 44.71875 
Q 8.5 49.078125 8.5 55.328125 
Q 8.5 64.0625 14.71875 69.140625 
Q 20.953125 74.21875 31.78125 74.21875 
Q 42.671875 74.21875 48.875 69.140625 
Q 55.078125 64.0625 55.078125 55.328125 
Q 55.078125 49.078125 51.53125 44.71875 
Q 48 40.375 41.703125 38.8125 
Q 48.828125 37.15625 52.796875 32.3125 
Q 56.78125 27.484375 56.78125 20.515625 
Q 56.78125 9.90625 50.3125 4.234375 
Q 43.84375 -1.421875 31.78125 -1.421875 
Q 19.734375 -1.421875 13.25 4.234375 
Q 6.78125 9.90625 6.78125 20.515625 
Q 6.78125 27.484375 10.78125 32.3125 
Q 14.796875 37.15625 21.921875 38.8125 
z
M 18.3125 54.390625 
Q 18.3125 48.734375 21.84375 45.5625 
Q 25.390625 42.390625 31.78125 42.390625 
Q 38.140625 42.390625 41.71875 45.5625 
Q 45.3125 48.734375 45.3125 54.390625 
Q 45.3125 60.0625 41.71875 63.234375 
Q 38.140625 66.40625 31.78125 66.40625 
Q 25.390625 66.40625 21.84375 63.234375 
Q 18.3125 60.0625 18.3125 54.390625 
z
" id="DejaVuSans-38"/>
      </defs>
      <g transform="translate(153.075 131.343809)scale(0.1 -0.1)">
       <use xlink:href="#DejaVuSans-38"/>
       <use x="63.623047" xlink:href="#DejaVuSans-30"/>
      </g>
     </g>
    </g>
    <g id="ytick_7">
     <g id="line2d_14">
      <g>
       <use style="stroke:#000000;stroke-width:0.8;" x="172.8" xlink:href="#m70eaefd836" y="90.950119"/>
      </g>
     </g>
     <g id="text_15">
      <!-- 85 -->
      <g transform="translate(153.075 94.749338)scale(0.1 -0.1)">
       <use xlink:href="#DejaVuSans-38"/>
       <use x="63.623047" xlink:href="#DejaVuSans-35"/>
      </g>
     </g>
    </g>
   </g>
   <g id="line2d_15">
    <path clip-path="url(#p76befff600)" d="M 194.935537 222.104701 
L 202.439109 97.756691 
L 209.942681 230.52143 
L 217.446253 190.194323 
L 224.949825 281.826877 
L 232.453397 162.675281 
L 239.956969 109.686488 
L 247.460541 108.149521 
L 254.964113 158.210756 
L 262.467685 200.587153 
L 269.971256 207.540102 
L 277.474828 116.346682 
L 284.9784 97.756691 
L 292.481972 233.229421 
L 299.985544 127.471401 
L 307.489116 114.151014 
L 314.992688 183.460941 
L 322.49626 164.13906 
L 329.999832 147.817926 
L 337.503404 114.151014 
L 345.006976 178.996415 
L 352.510548 136.400452 
L 360.01412 136.400452 
L 367.517692 127.471401 
L 375.021263 133.472894 
L 382.524835 184.19283 
L 390.028407 210.248093 
L 397.531979 126.739512 
L 405.035551 181.265272 
L 412.539123 112.614046 
L 420.042695 250.575199 
L 427.546267 137.864231 
L 435.049839 173.068111 
L 442.553411 187.925466 
L 450.056983 199.782075 
L 457.560555 197.586406 
L 465.064127 182.729051 
L 472.567699 253.575946 
L 480.07127 120.079318 
L 487.574842 255.039725 
L 495.078414 201.319042 
L 502.581986 198.318296 
L 510.085558 207.979236 
L 517.58913 188.657356 
L 525.092702 308.760408 
L 532.596274 199.050185 
L 540.099846 266.969522 
L 547.603418 122.274986 
L 555.10699 202.782821 
L 562.610562 268.433301 
L 570.114134 281.021799 
L 577.617706 202.782821 
L 585.121277 326.618509 
L 592.624849 194.58566 
L 600.128421 206.515457 
L 607.631993 223.56848 
L 615.135565 129.008369 
L 622.639137 206.954591 
L 630.142709 284.754435 
L 637.646281 215.444508 
" style="fill:none;stroke:#000000;stroke-dasharray:5.55,2.4;stroke-dashoffset:0;stroke-width:1.5;"/>
    <defs>
     <path d="M 0 3 
C 0.795609 3 1.55874 2.683901 2.12132 2.12132 
C 2.683901 1.55874 3 0.795609 3 0 
C 3 -0.795609 2.683901 -1.55874 2.12132 -2.12132 
C 1.55874 -2.683901 0.795609 -3 0 -3 
C -0.795609 -3 -1.55874 -2.683901 -2.12132 -2.12132 
C -2.683901 -1.55874 -3 -0.795609 -3 0 
C -3 0.795609 -2.683901 1.55874 -2.12132 2.12132 
C -1.55874 2.683901 -0.795609 3 0 3 
z
" id="md063b804a2" style="stroke:#000000;"/>
    </defs>
    <g clip-path="url(#p76befff600)">
     <use style="stroke:#000000;" x="194.935537" xlink:href="#md063b804a2" y="222.104701"/>
     <use style="stroke:#000000;" x="202.439109" xlink:href="#md063b804a2" y="97.756691"/>
     <use style="stroke:#000000;" x="209.942681" xlink:href="#md063b804a2" y="230.52143"/>
     <use style="stroke:#000000;" x="217.446253" xlink:href="#md063b804a2" y="190.194323"/>
     <use style="stroke:#000000;" x="224.949825" xlink:href="#md063b804a2" y="281.826877"/>
     <use style="stroke:#000000;" x="232.453397" xlink:href="#md063b804a2" y="162.675281"/>
     <use style="stroke:#000000;" x="239.956969" xlink:href="#md063b804a2" y="109.686488"/>
     <use style="stroke:#000000;" x="247.460541" xlink:href="#md063b804a2" y="108.149521"/>
     <use style="stroke:#000000;" x="254.964113" xlink:href="#md063b804a2" y="158.210756"/>
     <use style="stroke:#000000;" x="262.467685" xlink:href="#md063b804a2" y="200.587153"/>
     <use style="stroke:#000000;" x="269.971256" xlink:href="#md063b804a2" y="207.540102"/>
     <use style="stroke:#000000;" x="277.474828" xlink:href="#md063b804a2" y="116.346682"/>
     <use style="stroke:#000000;" x="284.9784" xlink:href="#md063b804a2" y="97.756691"/>
     <use style="stroke:#000000;" x="292.481972" xlink:href="#md063b804a2" y="233.229421"/>
     <use style="stroke:#000000;" x="299.985544" xlink:href="#md063b804a2" y="127.471401"/>
     <use style="stroke:#000000;" x="307.489116" xlink:href="#md063b804a2" y="114.151014"/>
     <use style="stroke:#000000;" x="314.992688" xlink:href="#md063b804a2" y="183.460941"/>
     <use style="stroke:#000000;" x="322.49626" xlink:href="#md063b804a2" y="164.13906"/>
     <use style="stroke:#000000;" x="329.999832" xlink:href="#md063b804a2" y="147.817926"/>
     <use style="stroke:#000000;" x="337.503404" xlink:href="#md063b804a2" y="114.151014"/>
     <use style="stroke:#000000;" x="345.006976" xlink:href="#md063b804a2" y="178.996415"/>
     <use style="stroke:#000000;" x="352.510548" xlink:href="#md063b804a2" y="136.400452"/>
     <use style="stroke:#000000;" x="360.01412" xlink:href="#md063b804a2" y="136.400452"/>
     <use style="stroke:#000000;" x="367.517692" xlink:href="#md063b804a2" y="127.471401"/>
     <use style="stroke:#000000;" x="375.021263" xlink:href="#md063b804a2" y="133.472894"/>
     <use style="stroke:#000000;" x="382.524835" xlink:href="#md063b804a2" y="184.19283"/>
     <use style="stroke:#000000;" x="390.028407" xlink:href="#md063b804a2" y="210.248093"/>
     <use style="stroke:#000000;" x="397.531979" xlink:href="#md063b804a2" y="126.739512"/>
     <use style="stroke:#000000;" x="405.035551" xlink:href="#md063b804a2" y="181.265272"/>
     <use style="stroke:#000000;" x="412.539123" xlink:href="#md063b804a2" y="112.614046"/>
     <use style="stroke:#000000;" x="420.042695" xlink:href="#md063b804a2" y="250.575199"/>
     <use style="stroke:#000000;" x="427.546267" xlink:href="#md063b804a2" y="137.864231"/>
     <use style="stroke:#000000;" x="435.049839" xlink:href="#md063b804a2" y="173.068111"/>
     <use style="stroke:#000000;" x="442.553411" xlink:href="#md063b804a2" y="187.925466"/>
     <use style="stroke:#000000;" x="450.056983" xlink:href="#md063b804a2" y="199.782075"/>
     <use style="stroke:#000000;" x="457.560555" xlink:href="#md063b804a2" y="197.586406"/>
     <use style="stroke:#000000;" x="465.064127" xlink:href="#md063b804a2" y="182.729051"/>
     <use style="stroke:#000000;" x="472.567699" xlink:href="#md063b804a2" y="253.575946"/>
     <use style="stroke:#000000;" x="480.07127" xlink:href="#md063b804a2" y="120.079318"/>
     <use style="stroke:#000000;" x="487.574842" xlink:href="#md063b804a2" y="255.039725"/>
     <use style="stroke:#000000;" x="495.078414" xlink:href="#md063b804a2" y="201.319042"/>
     <use style="stroke:#000000;" x="502.581986" xlink:href="#md063b804a2" y="198.318296"/>
     <use style="stroke:#000000;" x="510.085558" xlink:href="#md063b804a2" y="207.979236"/>
     <use style="stroke:#000000;" x="517.58913" xlink:href="#md063b804a2" y="188.657356"/>
     <use style="stroke:#000000;" x="525.092702" xlink:href="#md063b804a2" y="308.760408"/>
     <use style="stroke:#000000;" x="532.596274" xlink:href="#md063b804a2" y="199.050185"/>
     <use style="stroke:#000000;" x="540.099846" xlink:href="#md063b804a2" y="266.969522"/>
     <use style="stroke:#000000;" x="547.603418" xlink:href="#md063b804a2" y="122.274986"/>
     <use style="stroke:#000000;" x="555.10699" xlink:href="#md063b804a2" y="202.782821"/>
     <use style="stroke:#000000;" x="562.610562" xlink:href="#md063b804a2" y="268.433301"/>
     <use style="stroke:#000000;" x="570.114134" xlink:href="#md063b804a2" y="281.021799"/>
     <use style="stroke:#000000;" x="577.617706" xlink:href="#md063b804a2" y="202.782821"/>
     <use style="stroke:#000000;" x="585.121277" xlink:href="#md063b804a2" y="326.618509"/>
     <use style="stroke:#000000;" x="592.624849" xlink:href="#md063b804a2" y="194.58566"/>
     <use style="stroke:#000000;" x="600.128421" xlink:href="#md063b804a2" y="206.515457"/>
     <use style="stroke:#000000;" x="607.631993" xlink:href="#md063b804a2" y="223.56848"/>
     <use style="stroke:#000000;" x="615.135565" xlink:href="#md063b804a2" y="129.008369"/>
     <use style="stroke:#000000;" x="622.639137" xlink:href="#md063b804a2" y="206.954591"/>
     <use style="stroke:#000000;" x="630.142709" xlink:href="#md063b804a2" y="284.754435"/>
     <use style="stroke:#000000;" x="637.646281" xlink:href="#md063b804a2" y="215.444508"/>
    </g>
   </g>
   <g id="patch_3">
    <path d="M 172.8 338.0616 
L 172.8 86.3136 
" style="fill:none;stroke:#000000;stroke-linecap:square;stroke-linejoin:miter;stroke-width:0.8;"/>
   </g>
   <g id="patch_4">
    <path d="M 659.781818 338.0616 
L 659.781818 86.3136 
" style="fill:none;stroke:#000000;stroke-linecap:square;stroke-linejoin:miter;stroke-width:0.8;"/>
   </g>
   <g id="patch_5">
    <path d="M 172.8 338.0616 
L 659.781818 338.0616 
" style="fill:none;stroke:#000000;stroke-linecap:square;stroke-linejoin:miter;stroke-width:0.8;"/>
   </g>
   <g id="patch_6">
    <path d="M 172.8 86.3136 
L 659.781818 86.3136 
" style="fill:none;stroke:#000000;stroke-linecap:square;stroke-linejoin:miter;stroke-width:0.8;"/>
   </g>
  </g>
  <g id="axes_2">
   <g id="patch_7">
    <path d="M 757.178182 338.0616 
L 1244.16 338.0616 
L 1244.16 86.3136 
L 757.178182 86.3136 
z
" style="fill:#ffffff;"/>
   </g>
   <g id="matplotlib.axis_3">
    <g id="xtick_8">
     <g id="line2d_16">
      <g>
       <use style="stroke:#000000;stroke-width:0.8;" x="779.313719" xlink:href="#me0008d30b4" y="338.0616"/>
      </g>
     </g>
     <g id="text_16">
      <!-- 0 -->
      <g transform="translate(776.132469 352.660037)scale(0.1 -0.1)">
       <use xlink:href="#DejaVuSans-30"/>
      </g>
     </g>
    </g>
    <g id="xtick_9">
     <g id="line2d_17">
      <g>
       <use style="stroke:#000000;stroke-width:0.8;" x="854.349438" xlink:href="#me0008d30b4" y="338.0616"/>
      </g>
     </g>
     <g id="text_17">
      <!-- 10 -->
      <g transform="translate(847.986938 352.660037)scale(0.1 -0.1)">
       <use xlink:href="#DejaVuSans-31"/>
       <use x="63.623047" xlink:href="#DejaVuSans-30"/>
      </g>
     </g>
    </g>
    <g id="xtick_10">
     <g id="line2d_18">
      <g>
       <use style="stroke:#000000;stroke-width:0.8;" x="929.385158" xlink:href="#me0008d30b4" y="338.0616"/>
      </g>
     </g>
     <g id="text_18">
      <!-- 20 -->
      <g transform="translate(923.022658 352.660037)scale(0.1 -0.1)">
       <use xlink:href="#DejaVuSans-32"/>
       <use x="63.623047" xlink:href="#DejaVuSans-30"/>
      </g>
     </g>
    </g>
    <g id="xtick_11">
     <g id="line2d_19">
      <g>
       <use style="stroke:#000000;stroke-width:0.8;" x="1004.420877" xlink:href="#me0008d30b4" y="338.0616"/>
      </g>
     </g>
     <g id="text_19">
      <!-- 30 -->
      <g transform="translate(998.058377 352.660037)scale(0.1 -0.1)">
       <use xlink:href="#DejaVuSans-33"/>
       <use x="63.623047" xlink:href="#DejaVuSans-30"/>
      </g>
     </g>
    </g>
    <g id="xtick_12">
     <g id="line2d_20">
      <g>
       <use style="stroke:#000000;stroke-width:0.8;" x="1079.456596" xlink:href="#me0008d30b4" y="338.0616"/>
      </g>
     </g>
     <g id="text_20">
      <!-- 40 -->
      <g transform="translate(1073.094096 352.660037)scale(0.1 -0.1)">
       <use xlink:href="#DejaVuSans-34"/>
       <use x="63.623047" xlink:href="#DejaVuSans-30"/>
      </g>
     </g>
    </g>
    <g id="xtick_13">
     <g id="line2d_21">
      <g>
       <use style="stroke:#000000;stroke-width:0.8;" x="1154.492315" xlink:href="#me0008d30b4" y="338.0616"/>
      </g>
     </g>
     <g id="text_21">
      <!-- 50 -->
      <g transform="translate(1148.129815 352.660037)scale(0.1 -0.1)">
       <use xlink:href="#DejaVuSans-35"/>
       <use x="63.623047" xlink:href="#DejaVuSans-30"/>
      </g>
     </g>
    </g>
    <g id="xtick_14">
     <g id="line2d_22">
      <g>
       <use style="stroke:#000000;stroke-width:0.8;" x="1229.528035" xlink:href="#me0008d30b4" y="338.0616"/>
      </g>
     </g>
     <g id="text_22">
      <!-- 60 -->
      <g transform="translate(1223.165535 352.660037)scale(0.1 -0.1)">
       <use xlink:href="#DejaVuSans-36"/>
       <use x="63.623047" xlink:href="#DejaVuSans-30"/>
      </g>
     </g>
    </g>
    <g id="text_23">
     <!-- conjunction -->
     <defs>
      <path d="M 48.78125 52.59375 
L 48.78125 44.1875 
Q 44.96875 46.296875 41.140625 47.34375 
Q 37.3125 48.390625 33.40625 48.390625 
Q 24.65625 48.390625 19.8125 42.84375 
Q 14.984375 37.3125 14.984375 27.296875 
Q 14.984375 17.28125 19.8125 11.734375 
Q 24.65625 6.203125 33.40625 6.203125 
Q 37.3125 6.203125 41.140625 7.25 
Q 44.96875 8.296875 48.78125 10.40625 
L 48.78125 2.09375 
Q 45.015625 0.34375 40.984375 -0.53125 
Q 36.96875 -1.421875 32.421875 -1.421875 
Q 20.0625 -1.421875 12.78125 6.34375 
Q 5.515625 14.109375 5.515625 27.296875 
Q 5.515625 40.671875 12.859375 48.328125 
Q 20.21875 56 33.015625 56 
Q 37.15625 56 41.109375 55.140625 
Q 45.0625 54.296875 48.78125 52.59375 
z
" id="DejaVuSans-63"/>
      <path d="M 30.609375 48.390625 
Q 23.390625 48.390625 19.1875 42.75 
Q 14.984375 37.109375 14.984375 27.296875 
Q 14.984375 17.484375 19.15625 11.84375 
Q 23.34375 6.203125 30.609375 6.203125 
Q 37.796875 6.203125 41.984375 11.859375 
Q 46.1875 17.53125 46.1875 27.296875 
Q 46.1875 37.015625 41.984375 42.703125 
Q 37.796875 48.390625 30.609375 48.390625 
z
M 30.609375 56 
Q 42.328125 56 49.015625 48.375 
Q 55.71875 40.765625 55.71875 27.296875 
Q 55.71875 13.875 49.015625 6.21875 
Q 42.328125 -1.421875 30.609375 -1.421875 
Q 18.84375 -1.421875 12.171875 6.21875 
Q 5.515625 13.875 5.515625 27.296875 
Q 5.515625 40.765625 12.171875 48.375 
Q 18.84375 56 30.609375 56 
z
" id="DejaVuSans-6f"/>
      <path d="M 54.890625 33.015625 
L 54.890625 0 
L 45.90625 0 
L 45.90625 32.71875 
Q 45.90625 40.484375 42.875 44.328125 
Q 39.84375 48.1875 33.796875 48.1875 
Q 26.515625 48.1875 22.3125 43.546875 
Q 18.109375 38.921875 18.109375 30.90625 
L 18.109375 0 
L 9.078125 0 
L 9.078125 54.6875 
L 18.109375 54.6875 
L 18.109375 46.1875 
Q 21.34375 51.125 25.703125 53.5625 
Q 30.078125 56 35.796875 56 
Q 45.21875 56 50.046875 50.171875 
Q 54.890625 44.34375 54.890625 33.015625 
z
" id="DejaVuSans-6e"/>
      <path d="M 9.421875 54.6875 
L 18.40625 54.6875 
L 18.40625 -0.984375 
Q 18.40625 -11.421875 14.421875 -16.109375 
Q 10.453125 -20.796875 1.609375 -20.796875 
L -1.8125 -20.796875 
L -1.8125 -13.1875 
L 0.59375 -13.1875 
Q 5.71875 -13.1875 7.5625 -10.8125 
Q 9.421875 -8.453125 9.421875 -0.984375 
z
M 9.421875 75.984375 
L 18.40625 75.984375 
L 18.40625 64.59375 
L 9.421875 64.59375 
z
" id="DejaVuSans-6a"/>
      <path d="M 8.5 21.578125 
L 8.5 54.6875 
L 17.484375 54.6875 
L 17.484375 21.921875 
Q 17.484375 14.15625 20.5 10.265625 
Q 23.53125 6.390625 29.59375 6.390625 
Q 36.859375 6.390625 41.078125 11.03125 
Q 45.3125 15.671875 45.3125 23.6875 
L 45.3125 54.6875 
L 54.296875 54.6875 
L 54.296875 0 
L 45.3125 0 
L 45.3125 8.40625 
Q 42.046875 3.421875 37.71875 1 
Q 33.40625 -1.421875 27.6875 -1.421875 
Q 18.265625 -1.421875 13.375 4.4375 
Q 8.5 10.296875 8.5 21.578125 
z
M 31.109375 56 
z
" id="DejaVuSans-75"/>
      <path d="M 18.3125 70.21875 
L 18.3125 54.6875 
L 36.8125 54.6875 
L 36.8125 47.703125 
L 18.3125 47.703125 
L 18.3125 18.015625 
Q 18.3125 11.328125 20.140625 9.421875 
Q 21.96875 7.515625 27.59375 7.515625 
L 36.8125 7.515625 
L 36.8125 0 
L 27.59375 0 
Q 17.1875 0 13.234375 3.875 
Q 9.28125 7.765625 9.28125 18.015625 
L 9.28125 47.703125 
L 2.6875 47.703125 
L 2.6875 54.6875 
L 9.28125 54.6875 
L 9.28125 70.21875 
z
" id="DejaVuSans-74"/>
      <path d="M 9.421875 54.6875 
L 18.40625 54.6875 
L 18.40625 0 
L 9.421875 0 
z
M 9.421875 75.984375 
L 18.40625 75.984375 
L 18.40625 64.59375 
L 9.421875 64.59375 
z
" id="DejaVuSans-69"/>
     </defs>
     <g transform="translate(971.638622 366.338162)scale(0.1 -0.1)">
      <use xlink:href="#DejaVuSans-63"/>
      <use x="54.980469" xlink:href="#DejaVuSans-6f"/>
      <use x="116.162109" xlink:href="#DejaVuSans-6e"/>
      <use x="179.541016" xlink:href="#DejaVuSans-6a"/>
      <use x="207.324219" xlink:href="#DejaVuSans-75"/>
      <use x="270.703125" xlink:href="#DejaVuSans-6e"/>
      <use x="334.082031" xlink:href="#DejaVuSans-63"/>
      <use x="389.0625" xlink:href="#DejaVuSans-74"/>
      <use x="428.271484" xlink:href="#DejaVuSans-69"/>
      <use x="456.054688" xlink:href="#DejaVuSans-6f"/>
      <use x="517.236328" xlink:href="#DejaVuSans-6e"/>
     </g>
    </g>
   </g>
   <g id="matplotlib.axis_4">
    <g id="ytick_8">
     <g id="line2d_23">
      <g>
       <use style="stroke:#000000;stroke-width:0.8;" x="757.178182" xlink:href="#m70eaefd836" y="313.724886"/>
      </g>
     </g>
     <g id="text_24">
      <!-- 30 -->
      <g transform="translate(737.453182 317.524104)scale(0.1 -0.1)">
       <use xlink:href="#DejaVuSans-33"/>
       <use x="63.623047" xlink:href="#DejaVuSans-30"/>
      </g>
     </g>
    </g>
    <g id="ytick_9">
     <g id="line2d_24">
      <g>
       <use style="stroke:#000000;stroke-width:0.8;" x="757.178182" xlink:href="#m70eaefd836" y="281.490827"/>
      </g>
     </g>
     <g id="text_25">
      <!-- 40 -->
      <g transform="translate(737.453182 285.290045)scale(0.1 -0.1)">
       <use xlink:href="#DejaVuSans-34"/>
       <use x="63.623047" xlink:href="#DejaVuSans-30"/>
      </g>
     </g>
    </g>
    <g id="ytick_10">
     <g id="line2d_25">
      <g>
       <use style="stroke:#000000;stroke-width:0.8;" x="757.178182" xlink:href="#m70eaefd836" y="249.256768"/>
      </g>
     </g>
     <g id="text_26">
      <!-- 50 -->
      <g transform="translate(737.453182 253.055986)scale(0.1 -0.1)">
       <use xlink:href="#DejaVuSans-35"/>
       <use x="63.623047" xlink:href="#DejaVuSans-30"/>
      </g>
     </g>
    </g>
    <g id="ytick_11">
     <g id="line2d_26">
      <g>
       <use style="stroke:#000000;stroke-width:0.8;" x="757.178182" xlink:href="#m70eaefd836" y="217.022709"/>
      </g>
     </g>
     <g id="text_27">
      <!-- 60 -->
      <g transform="translate(737.453182 220.821928)scale(0.1 -0.1)">
       <use xlink:href="#DejaVuSans-36"/>
       <use x="63.623047" xlink:href="#DejaVuSans-30"/>
      </g>
     </g>
    </g>
    <g id="ytick_12">
     <g id="line2d_27">
      <g>
       <use style="stroke:#000000;stroke-width:0.8;" x="757.178182" xlink:href="#m70eaefd836" y="184.78865"/>
      </g>
     </g>
     <g id="text_28">
      <!-- 70 -->
      <g transform="translate(737.453182 188.587869)scale(0.1 -0.1)">
       <use xlink:href="#DejaVuSans-37"/>
       <use x="63.623047" xlink:href="#DejaVuSans-30"/>
      </g>
     </g>
    </g>
    <g id="ytick_13">
     <g id="line2d_28">
      <g>
       <use style="stroke:#000000;stroke-width:0.8;" x="757.178182" xlink:href="#m70eaefd836" y="152.554591"/>
      </g>
     </g>
     <g id="text_29">
      <!-- 80 -->
      <g transform="translate(737.453182 156.35381)scale(0.1 -0.1)">
       <use xlink:href="#DejaVuSans-38"/>
       <use x="63.623047" xlink:href="#DejaVuSans-30"/>
      </g>
     </g>
    </g>
    <g id="ytick_14">
     <g id="line2d_29">
      <g>
       <use style="stroke:#000000;stroke-width:0.8;" x="757.178182" xlink:href="#m70eaefd836" y="120.320532"/>
      </g>
     </g>
     <g id="text_30">
      <!-- 90 -->
      <defs>
       <path d="M 10.984375 1.515625 
L 10.984375 10.5 
Q 14.703125 8.734375 18.5 7.8125 
Q 22.3125 6.890625 25.984375 6.890625 
Q 35.75 6.890625 40.890625 13.453125 
Q 46.046875 20.015625 46.78125 33.40625 
Q 43.953125 29.203125 39.59375 26.953125 
Q 35.25 24.703125 29.984375 24.703125 
Q 19.046875 24.703125 12.671875 31.3125 
Q 6.296875 37.9375 6.296875 49.421875 
Q 6.296875 60.640625 12.9375 67.421875 
Q 19.578125 74.21875 30.609375 74.21875 
Q 43.265625 74.21875 49.921875 64.515625 
Q 56.59375 54.828125 56.59375 36.375 
Q 56.59375 19.140625 48.40625 8.859375 
Q 40.234375 -1.421875 26.421875 -1.421875 
Q 22.703125 -1.421875 18.890625 -0.6875 
Q 15.09375 0.046875 10.984375 1.515625 
z
M 30.609375 32.421875 
Q 37.25 32.421875 41.125 36.953125 
Q 45.015625 41.5 45.015625 49.421875 
Q 45.015625 57.28125 41.125 61.84375 
Q 37.25 66.40625 30.609375 66.40625 
Q 23.96875 66.40625 20.09375 61.84375 
Q 16.21875 57.28125 16.21875 49.421875 
Q 16.21875 41.5 20.09375 36.953125 
Q 23.96875 32.421875 30.609375 32.421875 
z
" id="DejaVuSans-39"/>
      </defs>
      <g transform="translate(737.453182 124.119751)scale(0.1 -0.1)">
       <use xlink:href="#DejaVuSans-39"/>
       <use x="63.623047" xlink:href="#DejaVuSans-30"/>
      </g>
     </g>
    </g>
    <g id="ytick_15">
     <g id="line2d_30">
      <g>
       <use style="stroke:#000000;stroke-width:0.8;" x="757.178182" xlink:href="#m70eaefd836" y="88.086473"/>
      </g>
     </g>
     <g id="text_31">
      <!-- 100 -->
      <g transform="translate(731.090682 91.885692)scale(0.1 -0.1)">
       <use xlink:href="#DejaVuSans-31"/>
       <use x="63.623047" xlink:href="#DejaVuSans-30"/>
       <use x="127.246094" xlink:href="#DejaVuSans-30"/>
      </g>
     </g>
    </g>
   </g>
   <g id="line2d_31">
    <path clip-path="url(#pc5419afcc5)" d="M 779.313719 258.926985 
L 786.817291 310.50148 
L 794.320863 287.937638 
L 801.824435 275.044015 
L 809.328007 326.618509 
L 816.831579 249.256768 
L 824.335151 304.054668 
L 831.838723 287.937638 
L 839.342294 294.38445 
L 846.845866 268.597203 
L 854.349438 316.948291 
L 861.85301 294.38445 
L 869.356582 304.054668 
L 876.860154 268.597203 
L 884.363726 275.044015 
L 891.867298 307.278074 
L 899.37087 278.267421 
L 906.874442 291.161044 
L 914.378014 297.607856 
L 921.881586 291.161044 
L 929.385158 191.235462 
L 936.88873 233.139738 
L 944.392301 229.916332 
L 951.895873 210.575897 
L 959.399445 204.129085 
L 966.903017 226.692927 
L 974.406589 200.905679 
L 981.910161 233.139738 
L 989.413733 249.256768 
L 996.917305 268.597203 
L 1004.420877 249.256768 
L 1011.924449 258.926985 
L 1019.428021 236.363144 
L 1026.931593 252.480174 
L 1034.435165 229.916332 
L 1041.938737 249.256768 
L 1049.442308 242.809956 
L 1056.94588 229.916332 
L 1064.449452 220.246115 
L 1071.953024 246.033362 
L 1079.456596 120.320532 
L 1086.960168 142.884373 
L 1094.46374 142.884373 
L 1101.967312 133.214156 
L 1109.470884 220.246115 
L 1116.974456 168.67162 
L 1124.478028 142.884373 
L 1131.9816 113.87372 
L 1139.485172 162.224809 
L 1146.988744 149.331185 
L 1154.492315 191.235462 
L 1161.995887 165.448215 
L 1169.499459 188.012056 
L 1177.003031 97.756691 
L 1184.506603 136.437562 
L 1192.010175 168.67162 
L 1199.513747 123.543938 
L 1207.017319 120.320532 
L 1214.520891 171.895026 
L 1222.024463 123.543938 
" style="fill:none;stroke:#000000;stroke-dasharray:5.55,2.4;stroke-dashoffset:0;stroke-width:1.5;"/>
    <g clip-path="url(#pc5419afcc5)">
     <use style="stroke:#000000;" x="779.313719" xlink:href="#md063b804a2" y="258.926985"/>
     <use style="stroke:#000000;" x="786.817291" xlink:href="#md063b804a2" y="310.50148"/>
     <use style="stroke:#000000;" x="794.320863" xlink:href="#md063b804a2" y="287.937638"/>
     <use style="stroke:#000000;" x="801.824435" xlink:href="#md063b804a2" y="275.044015"/>
     <use style="stroke:#000000;" x="809.328007" xlink:href="#md063b804a2" y="326.618509"/>
     <use style="stroke:#000000;" x="816.831579" xlink:href="#md063b804a2" y="249.256768"/>
     <use style="stroke:#000000;" x="824.335151" xlink:href="#md063b804a2" y="304.054668"/>
     <use style="stroke:#000000;" x="831.838723" xlink:href="#md063b804a2" y="287.937638"/>
     <use style="stroke:#000000;" x="839.342294" xlink:href="#md063b804a2" y="294.38445"/>
     <use style="stroke:#000000;" x="846.845866" xlink:href="#md063b804a2" y="268.597203"/>
     <use style="stroke:#000000;" x="854.349438" xlink:href="#md063b804a2" y="316.948291"/>
     <use style="stroke:#000000;" x="861.85301" xlink:href="#md063b804a2" y="294.38445"/>
     <use style="stroke:#000000;" x="869.356582" xlink:href="#md063b804a2" y="304.054668"/>
     <use style="stroke:#000000;" x="876.860154" xlink:href="#md063b804a2" y="268.597203"/>
     <use style="stroke:#000000;" x="884.363726" xlink:href="#md063b804a2" y="275.044015"/>
     <use style="stroke:#000000;" x="891.867298" xlink:href="#md063b804a2" y="307.278074"/>
     <use style="stroke:#000000;" x="899.37087" xlink:href="#md063b804a2" y="278.267421"/>
     <use style="stroke:#000000;" x="906.874442" xlink:href="#md063b804a2" y="291.161044"/>
     <use style="stroke:#000000;" x="914.378014" xlink:href="#md063b804a2" y="297.607856"/>
     <use style="stroke:#000000;" x="921.881586" xlink:href="#md063b804a2" y="291.161044"/>
     <use style="stroke:#000000;" x="929.385158" xlink:href="#md063b804a2" y="191.235462"/>
     <use style="stroke:#000000;" x="936.88873" xlink:href="#md063b804a2" y="233.139738"/>
     <use style="stroke:#000000;" x="944.392301" xlink:href="#md063b804a2" y="229.916332"/>
     <use style="stroke:#000000;" x="951.895873" xlink:href="#md063b804a2" y="210.575897"/>
     <use style="stroke:#000000;" x="959.399445" xlink:href="#md063b804a2" y="204.129085"/>
     <use style="stroke:#000000;" x="966.903017" xlink:href="#md063b804a2" y="226.692927"/>
     <use style="stroke:#000000;" x="974.406589" xlink:href="#md063b804a2" y="200.905679"/>
     <use style="stroke:#000000;" x="981.910161" xlink:href="#md063b804a2" y="233.139738"/>
     <use style="stroke:#000000;" x="989.413733" xlink:href="#md063b804a2" y="249.256768"/>
     <use style="stroke:#000000;" x="996.917305" xlink:href="#md063b804a2" y="268.597203"/>
     <use style="stroke:#000000;" x="1004.420877" xlink:href="#md063b804a2" y="249.256768"/>
     <use style="stroke:#000000;" x="1011.924449" xlink:href="#md063b804a2" y="258.926985"/>
     <use style="stroke:#000000;" x="1019.428021" xlink:href="#md063b804a2" y="236.363144"/>
     <use style="stroke:#000000;" x="1026.931593" xlink:href="#md063b804a2" y="252.480174"/>
     <use style="stroke:#000000;" x="1034.435165" xlink:href="#md063b804a2" y="229.916332"/>
     <use style="stroke:#000000;" x="1041.938737" xlink:href="#md063b804a2" y="249.256768"/>
     <use style="stroke:#000000;" x="1049.442308" xlink:href="#md063b804a2" y="242.809956"/>
     <use style="stroke:#000000;" x="1056.94588" xlink:href="#md063b804a2" y="229.916332"/>
     <use style="stroke:#000000;" x="1064.449452" xlink:href="#md063b804a2" y="220.246115"/>
     <use style="stroke:#000000;" x="1071.953024" xlink:href="#md063b804a2" y="246.033362"/>
     <use style="stroke:#000000;" x="1079.456596" xlink:href="#md063b804a2" y="120.320532"/>
     <use style="stroke:#000000;" x="1086.960168" xlink:href="#md063b804a2" y="142.884373"/>
     <use style="stroke:#000000;" x="1094.46374" xlink:href="#md063b804a2" y="142.884373"/>
     <use style="stroke:#000000;" x="1101.967312" xlink:href="#md063b804a2" y="133.214156"/>
     <use style="stroke:#000000;" x="1109.470884" xlink:href="#md063b804a2" y="220.246115"/>
     <use style="stroke:#000000;" x="1116.974456" xlink:href="#md063b804a2" y="168.67162"/>
     <use style="stroke:#000000;" x="1124.478028" xlink:href="#md063b804a2" y="142.884373"/>
     <use style="stroke:#000000;" x="1131.9816" xlink:href="#md063b804a2" y="113.87372"/>
     <use style="stroke:#000000;" x="1139.485172" xlink:href="#md063b804a2" y="162.224809"/>
     <use style="stroke:#000000;" x="1146.988744" xlink:href="#md063b804a2" y="149.331185"/>
     <use style="stroke:#000000;" x="1154.492315" xlink:href="#md063b804a2" y="191.235462"/>
     <use style="stroke:#000000;" x="1161.995887" xlink:href="#md063b804a2" y="165.448215"/>
     <use style="stroke:#000000;" x="1169.499459" xlink:href="#md063b804a2" y="188.012056"/>
     <use style="stroke:#000000;" x="1177.003031" xlink:href="#md063b804a2" y="97.756691"/>
     <use style="stroke:#000000;" x="1184.506603" xlink:href="#md063b804a2" y="136.437562"/>
     <use style="stroke:#000000;" x="1192.010175" xlink:href="#md063b804a2" y="168.67162"/>
     <use style="stroke:#000000;" x="1199.513747" xlink:href="#md063b804a2" y="123.543938"/>
     <use style="stroke:#000000;" x="1207.017319" xlink:href="#md063b804a2" y="120.320532"/>
     <use style="stroke:#000000;" x="1214.520891" xlink:href="#md063b804a2" y="171.895026"/>
     <use style="stroke:#000000;" x="1222.024463" xlink:href="#md063b804a2" y="123.543938"/>
    </g>
   </g>
   <g id="patch_8">
    <path d="M 757.178182 338.0616 
L 757.178182 86.3136 
" style="fill:none;stroke:#000000;stroke-linecap:square;stroke-linejoin:miter;stroke-width:0.8;"/>
   </g>
   <g id="patch_9">
    <path d="M 1244.16 338.0616 
L 1244.16 86.3136 
" style="fill:none;stroke:#000000;stroke-linecap:square;stroke-linejoin:miter;stroke-width:0.8;"/>
   </g>
   <g id="patch_10">
    <path d="M 757.178182 338.0616 
L 1244.16 338.0616 
" style="fill:none;stroke:#000000;stroke-linecap:square;stroke-linejoin:miter;stroke-width:0.8;"/>
   </g>
   <g id="patch_11">
    <path d="M 757.178182 86.3136 
L 1244.16 86.3136 
" style="fill:none;stroke:#000000;stroke-linecap:square;stroke-linejoin:miter;stroke-width:0.8;"/>
   </g>
  </g>
  <g id="axes_3">
   <g id="patch_12">
    <path d="M 172.8 640.1592 
L 659.781818 640.1592 
L 659.781818 388.4112 
L 172.8 388.4112 
z
" style="fill:#ffffff;"/>
   </g>
   <g id="matplotlib.axis_5">
    <g id="xtick_15">
     <g id="line2d_32">
      <g>
       <use style="stroke:#000000;stroke-width:0.8;" x="194.935537" xlink:href="#me0008d30b4" y="640.1592"/>
      </g>
     </g>
     <g id="text_32">
      <!-- 0 -->
      <g transform="translate(191.754287 654.757637)scale(0.1 -0.1)">
       <use xlink:href="#DejaVuSans-30"/>
      </g>
     </g>
    </g>
    <g id="xtick_16">
     <g id="line2d_33">
      <g>
       <use style="stroke:#000000;stroke-width:0.8;" x="269.971256" xlink:href="#me0008d30b4" y="640.1592"/>
      </g>
     </g>
     <g id="text_33">
      <!-- 10 -->
      <g transform="translate(263.608756 654.757637)scale(0.1 -0.1)">
       <use xlink:href="#DejaVuSans-31"/>
       <use x="63.623047" xlink:href="#DejaVuSans-30"/>
      </g>
     </g>
    </g>
    <g id="xtick_17">
     <g id="line2d_34">
      <g>
       <use style="stroke:#000000;stroke-width:0.8;" x="345.006976" xlink:href="#me0008d30b4" y="640.1592"/>
      </g>
     </g>
     <g id="text_34">
      <!-- 20 -->
      <g transform="translate(338.644476 654.757637)scale(0.1 -0.1)">
       <use xlink:href="#DejaVuSans-32"/>
       <use x="63.623047" xlink:href="#DejaVuSans-30"/>
      </g>
     </g>
    </g>
    <g id="xtick_18">
     <g id="line2d_35">
      <g>
       <use style="stroke:#000000;stroke-width:0.8;" x="420.042695" xlink:href="#me0008d30b4" y="640.1592"/>
      </g>
     </g>
     <g id="text_35">
      <!-- 30 -->
      <g transform="translate(413.680195 654.757637)scale(0.1 -0.1)">
       <use xlink:href="#DejaVuSans-33"/>
       <use x="63.623047" xlink:href="#DejaVuSans-30"/>
      </g>
     </g>
    </g>
    <g id="xtick_19">
     <g id="line2d_36">
      <g>
       <use style="stroke:#000000;stroke-width:0.8;" x="495.078414" xlink:href="#me0008d30b4" y="640.1592"/>
      </g>
     </g>
     <g id="text_36">
      <!-- 40 -->
      <g transform="translate(488.715914 654.757637)scale(0.1 -0.1)">
       <use xlink:href="#DejaVuSans-34"/>
       <use x="63.623047" xlink:href="#DejaVuSans-30"/>
      </g>
     </g>
    </g>
    <g id="xtick_20">
     <g id="line2d_37">
      <g>
       <use style="stroke:#000000;stroke-width:0.8;" x="570.114134" xlink:href="#me0008d30b4" y="640.1592"/>
      </g>
     </g>
     <g id="text_37">
      <!-- 50 -->
      <g transform="translate(563.751634 654.757637)scale(0.1 -0.1)">
       <use xlink:href="#DejaVuSans-35"/>
       <use x="63.623047" xlink:href="#DejaVuSans-30"/>
      </g>
     </g>
    </g>
    <g id="xtick_21">
     <g id="line2d_38">
      <g>
       <use style="stroke:#000000;stroke-width:0.8;" x="645.149853" xlink:href="#me0008d30b4" y="640.1592"/>
      </g>
     </g>
     <g id="text_38">
      <!-- 60 -->
      <g transform="translate(638.787353 654.757637)scale(0.1 -0.1)">
       <use xlink:href="#DejaVuSans-36"/>
       <use x="63.623047" xlink:href="#DejaVuSans-30"/>
      </g>
     </g>
    </g>
    <g id="text_39">
     <!-- wh_word -->
     <defs>
      <path d="M 4.203125 54.6875 
L 13.1875 54.6875 
L 24.421875 12.015625 
L 35.59375 54.6875 
L 46.1875 54.6875 
L 57.421875 12.015625 
L 68.609375 54.6875 
L 77.59375 54.6875 
L 63.28125 0 
L 52.6875 0 
L 40.921875 44.828125 
L 29.109375 0 
L 18.5 0 
z
" id="DejaVuSans-77"/>
      <path d="M 54.890625 33.015625 
L 54.890625 0 
L 45.90625 0 
L 45.90625 32.71875 
Q 45.90625 40.484375 42.875 44.328125 
Q 39.84375 48.1875 33.796875 48.1875 
Q 26.515625 48.1875 22.3125 43.546875 
Q 18.109375 38.921875 18.109375 30.90625 
L 18.109375 0 
L 9.078125 0 
L 9.078125 75.984375 
L 18.109375 75.984375 
L 18.109375 46.1875 
Q 21.34375 51.125 25.703125 53.5625 
Q 30.078125 56 35.796875 56 
Q 45.21875 56 50.046875 50.171875 
Q 54.890625 44.34375 54.890625 33.015625 
z
" id="DejaVuSans-68"/>
      <path d="M 50.984375 -16.609375 
L 50.984375 -23.578125 
L -0.984375 -23.578125 
L -0.984375 -16.609375 
z
" id="DejaVuSans-5f"/>
      <path d="M 41.109375 46.296875 
Q 39.59375 47.171875 37.8125 47.578125 
Q 36.03125 48 33.890625 48 
Q 26.265625 48 22.1875 43.046875 
Q 18.109375 38.09375 18.109375 28.8125 
L 18.109375 0 
L 9.078125 0 
L 9.078125 54.6875 
L 18.109375 54.6875 
L 18.109375 46.1875 
Q 20.953125 51.171875 25.484375 53.578125 
Q 30.03125 56 36.53125 56 
Q 37.453125 56 38.578125 55.875 
Q 39.703125 55.765625 41.0625 55.515625 
z
" id="DejaVuSans-72"/>
      <path d="M 45.40625 46.390625 
L 45.40625 75.984375 
L 54.390625 75.984375 
L 54.390625 0 
L 45.40625 0 
L 45.40625 8.203125 
Q 42.578125 3.328125 38.25 0.953125 
Q 33.9375 -1.421875 27.875 -1.421875 
Q 17.96875 -1.421875 11.734375 6.484375 
Q 5.515625 14.40625 5.515625 27.296875 
Q 5.515625 40.1875 11.734375 48.09375 
Q 17.96875 56 27.875 56 
Q 33.9375 56 38.25 53.625 
Q 42.578125 51.265625 45.40625 46.390625 
z
M 14.796875 27.296875 
Q 14.796875 17.390625 18.875 11.75 
Q 22.953125 6.109375 30.078125 6.109375 
Q 37.203125 6.109375 41.296875 11.75 
Q 45.40625 17.390625 45.40625 27.296875 
Q 45.40625 37.203125 41.296875 42.84375 
Q 37.203125 48.484375 30.078125 48.484375 
Q 22.953125 48.484375 18.875 42.84375 
Q 14.796875 37.203125 14.796875 27.296875 
z
" id="DejaVuSans-64"/>
     </defs>
     <g transform="translate(394.155753 668.435763)scale(0.1 -0.1)">
      <use xlink:href="#DejaVuSans-77"/>
      <use x="81.787109" xlink:href="#DejaVuSans-68"/>
      <use x="145.166016" xlink:href="#DejaVuSans-5f"/>
      <use x="195.166016" xlink:href="#DejaVuSans-77"/>
      <use x="276.953125" xlink:href="#DejaVuSans-6f"/>
      <use x="338.134766" xlink:href="#DejaVuSans-72"/>
      <use x="379.232422" xlink:href="#DejaVuSans-64"/>
     </g>
    </g>
   </g>
   <g id="matplotlib.axis_6">
    <g id="ytick_16">
     <g id="line2d_39">
      <g>
       <use style="stroke:#000000;stroke-width:0.8;" x="172.8" xlink:href="#m70eaefd836" y="611.111354"/>
      </g>
     </g>
     <g id="text_40">
      <!-- 2 -->
      <g transform="translate(159.4375 614.910573)scale(0.1 -0.1)">
       <use xlink:href="#DejaVuSans-32"/>
      </g>
     </g>
    </g>
    <g id="ytick_17">
     <g id="line2d_40">
      <g>
       <use style="stroke:#000000;stroke-width:0.8;" x="172.8" xlink:href="#m70eaefd836" y="575.901843"/>
      </g>
     </g>
     <g id="text_41">
      <!-- 4 -->
      <g transform="translate(159.4375 579.701062)scale(0.1 -0.1)">
       <use xlink:href="#DejaVuSans-34"/>
      </g>
     </g>
    </g>
    <g id="ytick_18">
     <g id="line2d_41">
      <g>
       <use style="stroke:#000000;stroke-width:0.8;" x="172.8" xlink:href="#m70eaefd836" y="540.692333"/>
      </g>
     </g>
     <g id="text_42">
      <!-- 6 -->
      <g transform="translate(159.4375 544.491552)scale(0.1 -0.1)">
       <use xlink:href="#DejaVuSans-36"/>
      </g>
     </g>
    </g>
    <g id="ytick_19">
     <g id="line2d_42">
      <g>
       <use style="stroke:#000000;stroke-width:0.8;" x="172.8" xlink:href="#m70eaefd836" y="505.482822"/>
      </g>
     </g>
     <g id="text_43">
      <!-- 8 -->
      <g transform="translate(159.4375 509.282041)scale(0.1 -0.1)">
       <use xlink:href="#DejaVuSans-38"/>
      </g>
     </g>
    </g>
    <g id="ytick_20">
     <g id="line2d_43">
      <g>
       <use style="stroke:#000000;stroke-width:0.8;" x="172.8" xlink:href="#m70eaefd836" y="470.273312"/>
      </g>
     </g>
     <g id="text_44">
      <!-- 10 -->
      <g transform="translate(153.075 474.072531)scale(0.1 -0.1)">
       <use xlink:href="#DejaVuSans-31"/>
       <use x="63.623047" xlink:href="#DejaVuSans-30"/>
      </g>
     </g>
    </g>
    <g id="ytick_21">
     <g id="line2d_44">
      <g>
       <use style="stroke:#000000;stroke-width:0.8;" x="172.8" xlink:href="#m70eaefd836" y="435.063801"/>
      </g>
     </g>
     <g id="text_45">
      <!-- 12 -->
      <g transform="translate(153.075 438.86302)scale(0.1 -0.1)">
       <use xlink:href="#DejaVuSans-31"/>
       <use x="63.623047" xlink:href="#DejaVuSans-32"/>
      </g>
     </g>
    </g>
    <g id="ytick_22">
     <g id="line2d_45">
      <g>
       <use style="stroke:#000000;stroke-width:0.8;" x="172.8" xlink:href="#m70eaefd836" y="399.854291"/>
      </g>
     </g>
     <g id="text_46">
      <!-- 14 -->
      <g transform="translate(153.075 403.65351)scale(0.1 -0.1)">
       <use xlink:href="#DejaVuSans-31"/>
       <use x="63.623047" xlink:href="#DejaVuSans-34"/>
      </g>
     </g>
    </g>
   </g>
   <g id="line2d_46">
    <path clip-path="url(#pe958a34659)" d="M 194.935537 540.692333 
L 202.439109 575.901843 
L 209.942681 575.901843 
L 217.446253 558.297088 
L 224.949825 558.297088 
L 232.453397 628.716109 
L 239.956969 470.273312 
L 247.460541 540.692333 
L 254.964113 611.111354 
L 262.467685 593.506599 
L 269.971256 593.506599 
L 277.474828 575.901843 
L 284.9784 593.506599 
L 292.481972 558.297088 
L 299.985544 611.111354 
L 307.489116 558.297088 
L 314.992688 575.901843 
L 322.49626 523.087578 
L 329.999832 611.111354 
L 337.503404 575.901843 
L 345.006976 558.297088 
L 352.510548 593.506599 
L 360.01412 487.878067 
L 367.517692 505.482822 
L 375.021263 593.506599 
L 382.524835 540.692333 
L 390.028407 558.297088 
L 397.531979 593.506599 
L 405.035551 540.692333 
L 412.539123 487.878067 
L 420.042695 575.901843 
L 427.546267 435.063801 
L 435.049839 575.901843 
L 442.553411 558.297088 
L 450.056983 487.878067 
L 457.560555 487.878067 
L 465.064127 505.482822 
L 472.567699 505.482822 
L 480.07127 540.692333 
L 487.574842 505.482822 
L 495.078414 470.273312 
L 502.581986 470.273312 
L 510.085558 628.716109 
L 517.58913 593.506599 
L 525.092702 611.111354 
L 532.596274 487.878067 
L 540.099846 593.506599 
L 547.603418 487.878067 
L 555.10699 523.087578 
L 562.610562 558.297088 
L 570.114134 399.854291 
L 577.617706 399.854291 
L 585.121277 593.506599 
L 592.624849 487.878067 
L 600.128421 593.506599 
L 607.631993 505.482822 
L 615.135565 523.087578 
L 622.639137 505.482822 
L 630.142709 452.668557 
L 637.646281 487.878067 
" style="fill:none;stroke:#000000;stroke-dasharray:5.55,2.4;stroke-dashoffset:0;stroke-width:1.5;"/>
    <g clip-path="url(#pe958a34659)">
     <use style="stroke:#000000;" x="194.935537" xlink:href="#md063b804a2" y="540.692333"/>
     <use style="stroke:#000000;" x="202.439109" xlink:href="#md063b804a2" y="575.901843"/>
     <use style="stroke:#000000;" x="209.942681" xlink:href="#md063b804a2" y="575.901843"/>
     <use style="stroke:#000000;" x="217.446253" xlink:href="#md063b804a2" y="558.297088"/>
     <use style="stroke:#000000;" x="224.949825" xlink:href="#md063b804a2" y="558.297088"/>
     <use style="stroke:#000000;" x="232.453397" xlink:href="#md063b804a2" y="628.716109"/>
     <use style="stroke:#000000;" x="239.956969" xlink:href="#md063b804a2" y="470.273312"/>
     <use style="stroke:#000000;" x="247.460541" xlink:href="#md063b804a2" y="540.692333"/>
     <use style="stroke:#000000;" x="254.964113" xlink:href="#md063b804a2" y="611.111354"/>
     <use style="stroke:#000000;" x="262.467685" xlink:href="#md063b804a2" y="593.506599"/>
     <use style="stroke:#000000;" x="269.971256" xlink:href="#md063b804a2" y="593.506599"/>
     <use style="stroke:#000000;" x="277.474828" xlink:href="#md063b804a2" y="575.901843"/>
     <use style="stroke:#000000;" x="284.9784" xlink:href="#md063b804a2" y="593.506599"/>
     <use style="stroke:#000000;" x="292.481972" xlink:href="#md063b804a2" y="558.297088"/>
     <use style="stroke:#000000;" x="299.985544" xlink:href="#md063b804a2" y="611.111354"/>
     <use style="stroke:#000000;" x="307.489116" xlink:href="#md063b804a2" y="558.297088"/>
     <use style="stroke:#000000;" x="314.992688" xlink:href="#md063b804a2" y="575.901843"/>
     <use style="stroke:#000000;" x="322.49626" xlink:href="#md063b804a2" y="523.087578"/>
     <use style="stroke:#000000;" x="329.999832" xlink:href="#md063b804a2" y="611.111354"/>
     <use style="stroke:#000000;" x="337.503404" xlink:href="#md063b804a2" y="575.901843"/>
     <use style="stroke:#000000;" x="345.006976" xlink:href="#md063b804a2" y="558.297088"/>
     <use style="stroke:#000000;" x="352.510548" xlink:href="#md063b804a2" y="593.506599"/>
     <use style="stroke:#000000;" x="360.01412" xlink:href="#md063b804a2" y="487.878067"/>
     <use style="stroke:#000000;" x="367.517692" xlink:href="#md063b804a2" y="505.482822"/>
     <use style="stroke:#000000;" x="375.021263" xlink:href="#md063b804a2" y="593.506599"/>
     <use style="stroke:#000000;" x="382.524835" xlink:href="#md063b804a2" y="540.692333"/>
     <use style="stroke:#000000;" x="390.028407" xlink:href="#md063b804a2" y="558.297088"/>
     <use style="stroke:#000000;" x="397.531979" xlink:href="#md063b804a2" y="593.506599"/>
     <use style="stroke:#000000;" x="405.035551" xlink:href="#md063b804a2" y="540.692333"/>
     <use style="stroke:#000000;" x="412.539123" xlink:href="#md063b804a2" y="487.878067"/>
     <use style="stroke:#000000;" x="420.042695" xlink:href="#md063b804a2" y="575.901843"/>
     <use style="stroke:#000000;" x="427.546267" xlink:href="#md063b804a2" y="435.063801"/>
     <use style="stroke:#000000;" x="435.049839" xlink:href="#md063b804a2" y="575.901843"/>
     <use style="stroke:#000000;" x="442.553411" xlink:href="#md063b804a2" y="558.297088"/>
     <use style="stroke:#000000;" x="450.056983" xlink:href="#md063b804a2" y="487.878067"/>
     <use style="stroke:#000000;" x="457.560555" xlink:href="#md063b804a2" y="487.878067"/>
     <use style="stroke:#000000;" x="465.064127" xlink:href="#md063b804a2" y="505.482822"/>
     <use style="stroke:#000000;" x="472.567699" xlink:href="#md063b804a2" y="505.482822"/>
     <use style="stroke:#000000;" x="480.07127" xlink:href="#md063b804a2" y="540.692333"/>
     <use style="stroke:#000000;" x="487.574842" xlink:href="#md063b804a2" y="505.482822"/>
     <use style="stroke:#000000;" x="495.078414" xlink:href="#md063b804a2" y="470.273312"/>
     <use style="stroke:#000000;" x="502.581986" xlink:href="#md063b804a2" y="470.273312"/>
     <use style="stroke:#000000;" x="510.085558" xlink:href="#md063b804a2" y="628.716109"/>
     <use style="stroke:#000000;" x="517.58913" xlink:href="#md063b804a2" y="593.506599"/>
     <use style="stroke:#000000;" x="525.092702" xlink:href="#md063b804a2" y="611.111354"/>
     <use style="stroke:#000000;" x="532.596274" xlink:href="#md063b804a2" y="487.878067"/>
     <use style="stroke:#000000;" x="540.099846" xlink:href="#md063b804a2" y="593.506599"/>
     <use style="stroke:#000000;" x="547.603418" xlink:href="#md063b804a2" y="487.878067"/>
     <use style="stroke:#000000;" x="555.10699" xlink:href="#md063b804a2" y="523.087578"/>
     <use style="stroke:#000000;" x="562.610562" xlink:href="#md063b804a2" y="558.297088"/>
     <use style="stroke:#000000;" x="570.114134" xlink:href="#md063b804a2" y="399.854291"/>
     <use style="stroke:#000000;" x="577.617706" xlink:href="#md063b804a2" y="399.854291"/>
     <use style="stroke:#000000;" x="585.121277" xlink:href="#md063b804a2" y="593.506599"/>
     <use style="stroke:#000000;" x="592.624849" xlink:href="#md063b804a2" y="487.878067"/>
     <use style="stroke:#000000;" x="600.128421" xlink:href="#md063b804a2" y="593.506599"/>
     <use style="stroke:#000000;" x="607.631993" xlink:href="#md063b804a2" y="505.482822"/>
     <use style="stroke:#000000;" x="615.135565" xlink:href="#md063b804a2" y="523.087578"/>
     <use style="stroke:#000000;" x="622.639137" xlink:href="#md063b804a2" y="505.482822"/>
     <use style="stroke:#000000;" x="630.142709" xlink:href="#md063b804a2" y="452.668557"/>
     <use style="stroke:#000000;" x="637.646281" xlink:href="#md063b804a2" y="487.878067"/>
    </g>
   </g>
   <g id="patch_13">
    <path d="M 172.8 640.1592 
L 172.8 388.4112 
" style="fill:none;stroke:#000000;stroke-linecap:square;stroke-linejoin:miter;stroke-width:0.8;"/>
   </g>
   <g id="patch_14">
    <path d="M 659.781818 640.1592 
L 659.781818 388.4112 
" style="fill:none;stroke:#000000;stroke-linecap:square;stroke-linejoin:miter;stroke-width:0.8;"/>
   </g>
   <g id="patch_15">
    <path d="M 172.8 640.1592 
L 659.781818 640.1592 
" style="fill:none;stroke:#000000;stroke-linecap:square;stroke-linejoin:miter;stroke-width:0.8;"/>
   </g>
   <g id="patch_16">
    <path d="M 172.8 388.4112 
L 659.781818 388.4112 
" style="fill:none;stroke:#000000;stroke-linecap:square;stroke-linejoin:miter;stroke-width:0.8;"/>
   </g>
  </g>
  <g id="axes_4">
   <g id="patch_17">
    <path d="M 757.178182 640.1592 
L 1244.16 640.1592 
L 1244.16 388.4112 
L 757.178182 388.4112 
z
" style="fill:#ffffff;"/>
   </g>
   <g id="matplotlib.axis_7">
    <g id="xtick_22">
     <g id="line2d_47">
      <g>
       <use style="stroke:#000000;stroke-width:0.8;" x="779.313719" xlink:href="#me0008d30b4" y="640.1592"/>
      </g>
     </g>
     <g id="text_47">
      <!-- 0 -->
      <g transform="translate(776.132469 654.757637)scale(0.1 -0.1)">
       <use xlink:href="#DejaVuSans-30"/>
      </g>
     </g>
    </g>
    <g id="xtick_23">
     <g id="line2d_48">
      <g>
       <use style="stroke:#000000;stroke-width:0.8;" x="854.349438" xlink:href="#me0008d30b4" y="640.1592"/>
      </g>
     </g>
     <g id="text_48">
      <!-- 10 -->
      <g transform="translate(847.986938 654.757637)scale(0.1 -0.1)">
       <use xlink:href="#DejaVuSans-31"/>
       <use x="63.623047" xlink:href="#DejaVuSans-30"/>
      </g>
     </g>
    </g>
    <g id="xtick_24">
     <g id="line2d_49">
      <g>
       <use style="stroke:#000000;stroke-width:0.8;" x="929.385158" xlink:href="#me0008d30b4" y="640.1592"/>
      </g>
     </g>
     <g id="text_49">
      <!-- 20 -->
      <g transform="translate(923.022658 654.757637)scale(0.1 -0.1)">
       <use xlink:href="#DejaVuSans-32"/>
       <use x="63.623047" xlink:href="#DejaVuSans-30"/>
      </g>
     </g>
    </g>
    <g id="xtick_25">
     <g id="line2d_50">
      <g>
       <use style="stroke:#000000;stroke-width:0.8;" x="1004.420877" xlink:href="#me0008d30b4" y="640.1592"/>
      </g>
     </g>
     <g id="text_50">
      <!-- 30 -->
      <g transform="translate(998.058377 654.757637)scale(0.1 -0.1)">
       <use xlink:href="#DejaVuSans-33"/>
       <use x="63.623047" xlink:href="#DejaVuSans-30"/>
      </g>
     </g>
    </g>
    <g id="xtick_26">
     <g id="line2d_51">
      <g>
       <use style="stroke:#000000;stroke-width:0.8;" x="1079.456596" xlink:href="#me0008d30b4" y="640.1592"/>
      </g>
     </g>
     <g id="text_51">
      <!-- 40 -->
      <g transform="translate(1073.094096 654.757637)scale(0.1 -0.1)">
       <use xlink:href="#DejaVuSans-34"/>
       <use x="63.623047" xlink:href="#DejaVuSans-30"/>
      </g>
     </g>
    </g>
    <g id="xtick_27">
     <g id="line2d_52">
      <g>
       <use style="stroke:#000000;stroke-width:0.8;" x="1154.492315" xlink:href="#me0008d30b4" y="640.1592"/>
      </g>
     </g>
     <g id="text_52">
      <!-- 50 -->
      <g transform="translate(1148.129815 654.757637)scale(0.1 -0.1)">
       <use xlink:href="#DejaVuSans-35"/>
       <use x="63.623047" xlink:href="#DejaVuSans-30"/>
      </g>
     </g>
    </g>
    <g id="xtick_28">
     <g id="line2d_53">
      <g>
       <use style="stroke:#000000;stroke-width:0.8;" x="1229.528035" xlink:href="#me0008d30b4" y="640.1592"/>
      </g>
     </g>
     <g id="text_53">
      <!-- 60 -->
      <g transform="translate(1223.165535 654.757637)scale(0.1 -0.1)">
       <use xlink:href="#DejaVuSans-36"/>
       <use x="63.623047" xlink:href="#DejaVuSans-30"/>
      </g>
     </g>
    </g>
    <g id="text_54">
     <!-- nonfinite_verb -->
     <defs>
      <path d="M 37.109375 75.984375 
L 37.109375 68.5 
L 28.515625 68.5 
Q 23.6875 68.5 21.796875 66.546875 
Q 19.921875 64.59375 19.921875 59.515625 
L 19.921875 54.6875 
L 34.71875 54.6875 
L 34.71875 47.703125 
L 19.921875 47.703125 
L 19.921875 0 
L 10.890625 0 
L 10.890625 47.703125 
L 2.296875 47.703125 
L 2.296875 54.6875 
L 10.890625 54.6875 
L 10.890625 58.5 
Q 10.890625 67.625 15.140625 71.796875 
Q 19.390625 75.984375 28.609375 75.984375 
z
" id="DejaVuSans-66"/>
      <path d="M 56.203125 29.59375 
L 56.203125 25.203125 
L 14.890625 25.203125 
Q 15.484375 15.921875 20.484375 11.0625 
Q 25.484375 6.203125 34.421875 6.203125 
Q 39.59375 6.203125 44.453125 7.46875 
Q 49.3125 8.734375 54.109375 11.28125 
L 54.109375 2.78125 
Q 49.265625 0.734375 44.1875 -0.34375 
Q 39.109375 -1.421875 33.890625 -1.421875 
Q 20.796875 -1.421875 13.15625 6.1875 
Q 5.515625 13.8125 5.515625 26.8125 
Q 5.515625 40.234375 12.765625 48.109375 
Q 20.015625 56 32.328125 56 
Q 43.359375 56 49.78125 48.890625 
Q 56.203125 41.796875 56.203125 29.59375 
z
M 47.21875 32.234375 
Q 47.125 39.59375 43.09375 43.984375 
Q 39.0625 48.390625 32.421875 48.390625 
Q 24.90625 48.390625 20.390625 44.140625 
Q 15.875 39.890625 15.1875 32.171875 
z
" id="DejaVuSans-65"/>
      <path d="M 2.984375 54.6875 
L 12.5 54.6875 
L 29.59375 8.796875 
L 46.6875 54.6875 
L 56.203125 54.6875 
L 35.6875 0 
L 23.484375 0 
z
" id="DejaVuSans-76"/>
      <path d="M 48.6875 27.296875 
Q 48.6875 37.203125 44.609375 42.84375 
Q 40.53125 48.484375 33.40625 48.484375 
Q 26.265625 48.484375 22.1875 42.84375 
Q 18.109375 37.203125 18.109375 27.296875 
Q 18.109375 17.390625 22.1875 11.75 
Q 26.265625 6.109375 33.40625 6.109375 
Q 40.53125 6.109375 44.609375 11.75 
Q 48.6875 17.390625 48.6875 27.296875 
z
M 18.109375 46.390625 
Q 20.953125 51.265625 25.265625 53.625 
Q 29.59375 56 35.59375 56 
Q 45.5625 56 51.78125 48.09375 
Q 58.015625 40.1875 58.015625 27.296875 
Q 58.015625 14.40625 51.78125 6.484375 
Q 45.5625 -1.421875 35.59375 -1.421875 
Q 29.59375 -1.421875 25.265625 0.953125 
Q 20.953125 3.328125 18.109375 8.203125 
L 18.109375 0 
L 9.078125 0 
L 9.078125 75.984375 
L 18.109375 75.984375 
z
" id="DejaVuSans-62"/>
     </defs>
     <g transform="translate(964.762841 668.435763)scale(0.1 -0.1)">
      <use xlink:href="#DejaVuSans-6e"/>
      <use x="63.378906" xlink:href="#DejaVuSans-6f"/>
      <use x="124.560547" xlink:href="#DejaVuSans-6e"/>
      <use x="187.939453" xlink:href="#DejaVuSans-66"/>
      <use x="223.144531" xlink:href="#DejaVuSans-69"/>
      <use x="250.927734" xlink:href="#DejaVuSans-6e"/>
      <use x="314.306641" xlink:href="#DejaVuSans-69"/>
      <use x="342.089844" xlink:href="#DejaVuSans-74"/>
      <use x="381.298828" xlink:href="#DejaVuSans-65"/>
      <use x="442.822266" xlink:href="#DejaVuSans-5f"/>
      <use x="492.822266" xlink:href="#DejaVuSans-76"/>
      <use x="552.001953" xlink:href="#DejaVuSans-65"/>
      <use x="613.525391" xlink:href="#DejaVuSans-72"/>
      <use x="654.638672" xlink:href="#DejaVuSans-62"/>
     </g>
    </g>
   </g>
   <g id="matplotlib.axis_8">
    <g id="ytick_23">
     <g id="line2d_54">
      <g>
       <use style="stroke:#000000;stroke-width:0.8;" x="757.178182" xlink:href="#m70eaefd836" y="637.632803"/>
      </g>
     </g>
     <g id="text_55">
      <!-- 10 -->
      <g transform="translate(737.453182 641.432022)scale(0.1 -0.1)">
       <use xlink:href="#DejaVuSans-31"/>
       <use x="63.623047" xlink:href="#DejaVuSans-30"/>
      </g>
     </g>
    </g>
    <g id="ytick_24">
     <g id="line2d_55">
      <g>
       <use style="stroke:#000000;stroke-width:0.8;" x="757.178182" xlink:href="#m70eaefd836" y="607.910489"/>
      </g>
     </g>
     <g id="text_56">
      <!-- 20 -->
      <g transform="translate(737.453182 611.709708)scale(0.1 -0.1)">
       <use xlink:href="#DejaVuSans-32"/>
       <use x="63.623047" xlink:href="#DejaVuSans-30"/>
      </g>
     </g>
    </g>
    <g id="ytick_25">
     <g id="line2d_56">
      <g>
       <use style="stroke:#000000;stroke-width:0.8;" x="757.178182" xlink:href="#m70eaefd836" y="578.188175"/>
      </g>
     </g>
     <g id="text_57">
      <!-- 30 -->
      <g transform="translate(737.453182 581.987394)scale(0.1 -0.1)">
       <use xlink:href="#DejaVuSans-33"/>
       <use x="63.623047" xlink:href="#DejaVuSans-30"/>
      </g>
     </g>
    </g>
    <g id="ytick_26">
     <g id="line2d_57">
      <g>
       <use style="stroke:#000000;stroke-width:0.8;" x="757.178182" xlink:href="#m70eaefd836" y="548.465861"/>
      </g>
     </g>
     <g id="text_58">
      <!-- 40 -->
      <g transform="translate(737.453182 552.26508)scale(0.1 -0.1)">
       <use xlink:href="#DejaVuSans-34"/>
       <use x="63.623047" xlink:href="#DejaVuSans-30"/>
      </g>
     </g>
    </g>
    <g id="ytick_27">
     <g id="line2d_58">
      <g>
       <use style="stroke:#000000;stroke-width:0.8;" x="757.178182" xlink:href="#m70eaefd836" y="518.743547"/>
      </g>
     </g>
     <g id="text_59">
      <!-- 50 -->
      <g transform="translate(737.453182 522.542766)scale(0.1 -0.1)">
       <use xlink:href="#DejaVuSans-35"/>
       <use x="63.623047" xlink:href="#DejaVuSans-30"/>
      </g>
     </g>
    </g>
    <g id="ytick_28">
     <g id="line2d_59">
      <g>
       <use style="stroke:#000000;stroke-width:0.8;" x="757.178182" xlink:href="#m70eaefd836" y="489.021233"/>
      </g>
     </g>
     <g id="text_60">
      <!-- 60 -->
      <g transform="translate(737.453182 492.820452)scale(0.1 -0.1)">
       <use xlink:href="#DejaVuSans-36"/>
       <use x="63.623047" xlink:href="#DejaVuSans-30"/>
      </g>
     </g>
    </g>
    <g id="ytick_29">
     <g id="line2d_60">
      <g>
       <use style="stroke:#000000;stroke-width:0.8;" x="757.178182" xlink:href="#m70eaefd836" y="459.298919"/>
      </g>
     </g>
     <g id="text_61">
      <!-- 70 -->
      <g transform="translate(737.453182 463.098138)scale(0.1 -0.1)">
       <use xlink:href="#DejaVuSans-37"/>
       <use x="63.623047" xlink:href="#DejaVuSans-30"/>
      </g>
     </g>
    </g>
    <g id="ytick_30">
     <g id="line2d_61">
      <g>
       <use style="stroke:#000000;stroke-width:0.8;" x="757.178182" xlink:href="#m70eaefd836" y="429.576605"/>
      </g>
     </g>
     <g id="text_62">
      <!-- 80 -->
      <g transform="translate(737.453182 433.375824)scale(0.1 -0.1)">
       <use xlink:href="#DejaVuSans-38"/>
       <use x="63.623047" xlink:href="#DejaVuSans-30"/>
      </g>
     </g>
    </g>
    <g id="ytick_31">
     <g id="line2d_62">
      <g>
       <use style="stroke:#000000;stroke-width:0.8;" x="757.178182" xlink:href="#m70eaefd836" y="399.854291"/>
      </g>
     </g>
     <g id="text_63">
      <!-- 90 -->
      <g transform="translate(737.453182 403.65351)scale(0.1 -0.1)">
       <use xlink:href="#DejaVuSans-39"/>
       <use x="63.623047" xlink:href="#DejaVuSans-30"/>
      </g>
     </g>
    </g>
   </g>
   <g id="line2d_63">
    <path clip-path="url(#p717044f8d0)" d="M 779.313719 524.68801 
L 786.817291 560.354787 
L 794.320863 542.521398 
L 801.824435 598.993795 
L 809.328007 548.465861 
L 816.831579 536.576936 
L 824.335151 584.132638 
L 831.838723 625.743878 
L 839.342294 628.716109 
L 846.845866 521.715779 
L 854.349438 557.382555 
L 861.85301 587.104869 
L 869.356582 551.438093 
L 876.860154 587.104869 
L 884.363726 601.966026 
L 891.867298 491.993464 
L 899.37087 601.966026 
L 906.874442 560.354787 
L 914.378014 560.354787 
L 921.881586 554.410324 
L 929.385158 486.049002 
L 936.88873 560.354787 
L 944.392301 554.410324 
L 951.895873 524.68801 
L 959.399445 512.799084 
L 966.903017 557.382555 
L 974.406589 619.799415 
L 981.910161 483.07677 
L 989.413733 554.410324 
L 996.917305 447.409993 
L 1004.420877 509.826853 
L 1011.924449 447.409993 
L 1019.428021 551.438093 
L 1026.931593 560.354787 
L 1034.435165 524.68801 
L 1041.938737 456.326688 
L 1049.442308 527.660241 
L 1056.94588 569.271481 
L 1064.449452 500.910159 
L 1071.953024 503.88239 
L 1079.456596 607.910489 
L 1086.960168 518.743547 
L 1094.46374 471.187845 
L 1101.967312 610.882721 
L 1109.470884 527.660241 
L 1116.974456 489.021233 
L 1124.478028 563.327018 
L 1131.9816 414.715448 
L 1139.485172 426.604374 
L 1146.988744 509.826853 
L 1154.492315 545.49363 
L 1161.995887 465.243382 
L 1169.499459 533.604704 
L 1177.003031 480.104539 
L 1184.506603 610.882721 
L 1192.010175 509.826853 
L 1199.513747 420.659911 
L 1207.017319 399.854291 
L 1214.520891 584.132638 
L 1222.024463 512.799084 
" style="fill:none;stroke:#000000;stroke-dasharray:5.55,2.4;stroke-dashoffset:0;stroke-width:1.5;"/>
    <g clip-path="url(#p717044f8d0)">
     <use style="stroke:#000000;" x="779.313719" xlink:href="#md063b804a2" y="524.68801"/>
     <use style="stroke:#000000;" x="786.817291" xlink:href="#md063b804a2" y="560.354787"/>
     <use style="stroke:#000000;" x="794.320863" xlink:href="#md063b804a2" y="542.521398"/>
     <use style="stroke:#000000;" x="801.824435" xlink:href="#md063b804a2" y="598.993795"/>
     <use style="stroke:#000000;" x="809.328007" xlink:href="#md063b804a2" y="548.465861"/>
     <use style="stroke:#000000;" x="816.831579" xlink:href="#md063b804a2" y="536.576936"/>
     <use style="stroke:#000000;" x="824.335151" xlink:href="#md063b804a2" y="584.132638"/>
     <use style="stroke:#000000;" x="831.838723" xlink:href="#md063b804a2" y="625.743878"/>
     <use style="stroke:#000000;" x="839.342294" xlink:href="#md063b804a2" y="628.716109"/>
     <use style="stroke:#000000;" x="846.845866" xlink:href="#md063b804a2" y="521.715779"/>
     <use style="stroke:#000000;" x="854.349438" xlink:href="#md063b804a2" y="557.382555"/>
     <use style="stroke:#000000;" x="861.85301" xlink:href="#md063b804a2" y="587.104869"/>
     <use style="stroke:#000000;" x="869.356582" xlink:href="#md063b804a2" y="551.438093"/>
     <use style="stroke:#000000;" x="876.860154" xlink:href="#md063b804a2" y="587.104869"/>
     <use style="stroke:#000000;" x="884.363726" xlink:href="#md063b804a2" y="601.966026"/>
     <use style="stroke:#000000;" x="891.867298" xlink:href="#md063b804a2" y="491.993464"/>
     <use style="stroke:#000000;" x="899.37087" xlink:href="#md063b804a2" y="601.966026"/>
     <use style="stroke:#000000;" x="906.874442" xlink:href="#md063b804a2" y="560.354787"/>
     <use style="stroke:#000000;" x="914.378014" xlink:href="#md063b804a2" y="560.354787"/>
     <use style="stroke:#000000;" x="921.881586" xlink:href="#md063b804a2" y="554.410324"/>
     <use style="stroke:#000000;" x="929.385158" xlink:href="#md063b804a2" y="486.049002"/>
     <use style="stroke:#000000;" x="936.88873" xlink:href="#md063b804a2" y="560.354787"/>
     <use style="stroke:#000000;" x="944.392301" xlink:href="#md063b804a2" y="554.410324"/>
     <use style="stroke:#000000;" x="951.895873" xlink:href="#md063b804a2" y="524.68801"/>
     <use style="stroke:#000000;" x="959.399445" xlink:href="#md063b804a2" y="512.799084"/>
     <use style="stroke:#000000;" x="966.903017" xlink:href="#md063b804a2" y="557.382555"/>
     <use style="stroke:#000000;" x="974.406589" xlink:href="#md063b804a2" y="619.799415"/>
     <use style="stroke:#000000;" x="981.910161" xlink:href="#md063b804a2" y="483.07677"/>
     <use style="stroke:#000000;" x="989.413733" xlink:href="#md063b804a2" y="554.410324"/>
     <use style="stroke:#000000;" x="996.917305" xlink:href="#md063b804a2" y="447.409993"/>
     <use style="stroke:#000000;" x="1004.420877" xlink:href="#md063b804a2" y="509.826853"/>
     <use style="stroke:#000000;" x="1011.924449" xlink:href="#md063b804a2" y="447.409993"/>
     <use style="stroke:#000000;" x="1019.428021" xlink:href="#md063b804a2" y="551.438093"/>
     <use style="stroke:#000000;" x="1026.931593" xlink:href="#md063b804a2" y="560.354787"/>
     <use style="stroke:#000000;" x="1034.435165" xlink:href="#md063b804a2" y="524.68801"/>
     <use style="stroke:#000000;" x="1041.938737" xlink:href="#md063b804a2" y="456.326688"/>
     <use style="stroke:#000000;" x="1049.442308" xlink:href="#md063b804a2" y="527.660241"/>
     <use style="stroke:#000000;" x="1056.94588" xlink:href="#md063b804a2" y="569.271481"/>
     <use style="stroke:#000000;" x="1064.449452" xlink:href="#md063b804a2" y="500.910159"/>
     <use style="stroke:#000000;" x="1071.953024" xlink:href="#md063b804a2" y="503.88239"/>
     <use style="stroke:#000000;" x="1079.456596" xlink:href="#md063b804a2" y="607.910489"/>
     <use style="stroke:#000000;" x="1086.960168" xlink:href="#md063b804a2" y="518.743547"/>
     <use style="stroke:#000000;" x="1094.46374" xlink:href="#md063b804a2" y="471.187845"/>
     <use style="stroke:#000000;" x="1101.967312" xlink:href="#md063b804a2" y="610.882721"/>
     <use style="stroke:#000000;" x="1109.470884" xlink:href="#md063b804a2" y="527.660241"/>
     <use style="stroke:#000000;" x="1116.974456" xlink:href="#md063b804a2" y="489.021233"/>
     <use style="stroke:#000000;" x="1124.478028" xlink:href="#md063b804a2" y="563.327018"/>
     <use style="stroke:#000000;" x="1131.9816" xlink:href="#md063b804a2" y="414.715448"/>
     <use style="stroke:#000000;" x="1139.485172" xlink:href="#md063b804a2" y="426.604374"/>
     <use style="stroke:#000000;" x="1146.988744" xlink:href="#md063b804a2" y="509.826853"/>
     <use style="stroke:#000000;" x="1154.492315" xlink:href="#md063b804a2" y="545.49363"/>
     <use style="stroke:#000000;" x="1161.995887" xlink:href="#md063b804a2" y="465.243382"/>
     <use style="stroke:#000000;" x="1169.499459" xlink:href="#md063b804a2" y="533.604704"/>
     <use style="stroke:#000000;" x="1177.003031" xlink:href="#md063b804a2" y="480.104539"/>
     <use style="stroke:#000000;" x="1184.506603" xlink:href="#md063b804a2" y="610.882721"/>
     <use style="stroke:#000000;" x="1192.010175" xlink:href="#md063b804a2" y="509.826853"/>
     <use style="stroke:#000000;" x="1199.513747" xlink:href="#md063b804a2" y="420.659911"/>
     <use style="stroke:#000000;" x="1207.017319" xlink:href="#md063b804a2" y="399.854291"/>
     <use style="stroke:#000000;" x="1214.520891" xlink:href="#md063b804a2" y="584.132638"/>
     <use style="stroke:#000000;" x="1222.024463" xlink:href="#md063b804a2" y="512.799084"/>
    </g>
   </g>
   <g id="patch_18">
    <path d="M 757.178182 640.1592 
L 757.178182 388.4112 
" style="fill:none;stroke:#000000;stroke-linecap:square;stroke-linejoin:miter;stroke-width:0.8;"/>
   </g>
   <g id="patch_19">
    <path d="M 1244.16 640.1592 
L 1244.16 388.4112 
" style="fill:none;stroke:#000000;stroke-linecap:square;stroke-linejoin:miter;stroke-width:0.8;"/>
   </g>
   <g id="patch_20">
    <path d="M 757.178182 640.1592 
L 1244.16 640.1592 
" style="fill:none;stroke:#000000;stroke-linecap:square;stroke-linejoin:miter;stroke-width:0.8;"/>
   </g>
   <g id="patch_21">
    <path d="M 757.178182 388.4112 
L 1244.16 388.4112 
" style="fill:none;stroke:#000000;stroke-linecap:square;stroke-linejoin:miter;stroke-width:0.8;"/>
   </g>
  </g>
 </g>
 <defs>
  <clipPath id="p76befff600">
   <rect height="251.748" width="486.981818" x="172.8" y="86.3136"/>
  </clipPath>
  <clipPath id="pc5419afcc5">
   <rect height="251.748" width="486.981818" x="757.178182" y="86.3136"/>
  </clipPath>
  <clipPath id="pe958a34659">
   <rect height="251.748" width="486.981818" x="172.8" y="388.4112"/>
  </clipPath>
  <clipPath id="p717044f8d0">
   <rect height="251.748" width="486.981818" x="757.178182" y="388.4112"/>
  </clipPath>
 </defs>
</svg>
