<?xml version="1.0" encoding="utf-8" standalone="no"?>
<!DOCTYPE svg PUBLIC "-//W3C//DTD SVG 1.1//EN"
  "http://www.w3.org/Graphics/SVG/1.1/DTD/svg11.dtd">
<!-- Created with matplotlib (http://matplotlib.org/) -->
<svg height="719.28pt" version="1.1" viewBox="0 0 1382.4 719.28" width="1382.4pt" xmlns="http://www.w3.org/2000/svg" xmlns:xlink="http://www.w3.org/1999/xlink">
 <defs>
  <style type="text/css">
*{stroke-linecap:butt;stroke-linejoin:round;}
  </style>
 </defs>
 <g id="figure_1">
  <g id="patch_1">
   <path d="M 0 719.28 
L 1382.4 719.28 
L 1382.4 0 
L 0 0 
z
" style="fill:#ffffff;"/>
  </g>
  <g id="axes_1">
   <g id="patch_2">
    <path d="M 172.8 338.0616 
L 659.781818 338.0616 
L 659.781818 86.3136 
L 172.8 86.3136 
z
" style="fill:#ffffff;"/>
   </g>
   <g id="matplotlib.axis_1">
    <g id="xtick_1">
     <g id="line2d_1">
      <defs>
       <path d="M 0 0 
L 0 3.5 
" id="m6e19139385" style="stroke:#000000;stroke-width:0.8;"/>
      </defs>
      <g>
       <use style="stroke:#000000;stroke-width:0.8;" x="194.935537" xlink:href="#m6e19139385" y="338.0616"/>
      </g>
     </g>
     <g id="text_1">
      <!-- 0 -->
      <defs>
       <path d="M 31.78125 66.40625 
Q 24.171875 66.40625 20.328125 58.90625 
Q 16.5 51.421875 16.5 36.375 
Q 16.5 21.390625 20.328125 13.890625 
Q 24.171875 6.390625 31.78125 6.390625 
Q 39.453125 6.390625 43.28125 13.890625 
Q 47.125 21.390625 47.125 36.375 
Q 47.125 51.421875 43.28125 58.90625 
Q 39.453125 66.40625 31.78125 66.40625 
z
M 31.78125 74.21875 
Q 44.046875 74.21875 50.515625 64.515625 
Q 56.984375 54.828125 56.984375 36.375 
Q 56.984375 17.96875 50.515625 8.265625 
Q 44.046875 -1.421875 31.78125 -1.421875 
Q 19.53125 -1.421875 13.0625 8.265625 
Q 6.59375 17.96875 6.59375 36.375 
Q 6.59375 54.828125 13.0625 64.515625 
Q 19.53125 74.21875 31.78125 74.21875 
z
" id="DejaVuSans-30"/>
      </defs>
      <g transform="translate(191.754287 352.660037)scale(0.1 -0.1)">
       <use xlink:href="#DejaVuSans-30"/>
      </g>
     </g>
    </g>
    <g id="xtick_2">
     <g id="line2d_2">
      <g>
       <use style="stroke:#000000;stroke-width:0.8;" x="269.971256" xlink:href="#m6e19139385" y="338.0616"/>
      </g>
     </g>
     <g id="text_2">
      <!-- 10 -->
      <defs>
       <path d="M 12.40625 8.296875 
L 28.515625 8.296875 
L 28.515625 63.921875 
L 10.984375 60.40625 
L 10.984375 69.390625 
L 28.421875 72.90625 
L 38.28125 72.90625 
L 38.28125 8.296875 
L 54.390625 8.296875 
L 54.390625 0 
L 12.40625 0 
z
" id="DejaVuSans-31"/>
      </defs>
      <g transform="translate(263.608756 352.660037)scale(0.1 -0.1)">
       <use xlink:href="#DejaVuSans-31"/>
       <use x="63.623047" xlink:href="#DejaVuSans-30"/>
      </g>
     </g>
    </g>
    <g id="xtick_3">
     <g id="line2d_3">
      <g>
       <use style="stroke:#000000;stroke-width:0.8;" x="345.006976" xlink:href="#m6e19139385" y="338.0616"/>
      </g>
     </g>
     <g id="text_3">
      <!-- 20 -->
      <defs>
       <path d="M 19.1875 8.296875 
L 53.609375 8.296875 
L 53.609375 0 
L 7.328125 0 
L 7.328125 8.296875 
Q 12.9375 14.109375 22.625 23.890625 
Q 32.328125 33.6875 34.8125 36.53125 
Q 39.546875 41.84375 41.421875 45.53125 
Q 43.3125 49.21875 43.3125 52.78125 
Q 43.3125 58.59375 39.234375 62.25 
Q 35.15625 65.921875 28.609375 65.921875 
Q 23.96875 65.921875 18.8125 64.3125 
Q 13.671875 62.703125 7.8125 59.421875 
L 7.8125 69.390625 
Q 13.765625 71.78125 18.9375 73 
Q 24.125 74.21875 28.421875 74.21875 
Q 39.75 74.21875 46.484375 68.546875 
Q 53.21875 62.890625 53.21875 53.421875 
Q 53.21875 48.921875 51.53125 44.890625 
Q 49.859375 40.875 45.40625 35.40625 
Q 44.1875 33.984375 37.640625 27.21875 
Q 31.109375 20.453125 19.1875 8.296875 
z
" id="DejaVuSans-32"/>
      </defs>
      <g transform="translate(338.644476 352.660037)scale(0.1 -0.1)">
       <use xlink:href="#DejaVuSans-32"/>
       <use x="63.623047" xlink:href="#DejaVuSans-30"/>
      </g>
     </g>
    </g>
    <g id="xtick_4">
     <g id="line2d_4">
      <g>
       <use style="stroke:#000000;stroke-width:0.8;" x="420.042695" xlink:href="#m6e19139385" y="338.0616"/>
      </g>
     </g>
     <g id="text_4">
      <!-- 30 -->
      <defs>
       <path d="M 40.578125 39.3125 
Q 47.65625 37.796875 51.625 33 
Q 55.609375 28.21875 55.609375 21.1875 
Q 55.609375 10.40625 48.1875 4.484375 
Q 40.765625 -1.421875 27.09375 -1.421875 
Q 22.515625 -1.421875 17.65625 -0.515625 
Q 12.796875 0.390625 7.625 2.203125 
L 7.625 11.71875 
Q 11.71875 9.328125 16.59375 8.109375 
Q 21.484375 6.890625 26.8125 6.890625 
Q 36.078125 6.890625 40.9375 10.546875 
Q 45.796875 14.203125 45.796875 21.1875 
Q 45.796875 27.640625 41.28125 31.265625 
Q 36.765625 34.90625 28.71875 34.90625 
L 20.21875 34.90625 
L 20.21875 43.015625 
L 29.109375 43.015625 
Q 36.375 43.015625 40.234375 45.921875 
Q 44.09375 48.828125 44.09375 54.296875 
Q 44.09375 59.90625 40.109375 62.90625 
Q 36.140625 65.921875 28.71875 65.921875 
Q 24.65625 65.921875 20.015625 65.03125 
Q 15.375 64.15625 9.8125 62.3125 
L 9.8125 71.09375 
Q 15.4375 72.65625 20.34375 73.4375 
Q 25.25 74.21875 29.59375 74.21875 
Q 40.828125 74.21875 47.359375 69.109375 
Q 53.90625 64.015625 53.90625 55.328125 
Q 53.90625 49.265625 50.4375 45.09375 
Q 46.96875 40.921875 40.578125 39.3125 
z
" id="DejaVuSans-33"/>
      </defs>
      <g transform="translate(413.680195 352.660037)scale(0.1 -0.1)">
       <use xlink:href="#DejaVuSans-33"/>
       <use x="63.623047" xlink:href="#DejaVuSans-30"/>
      </g>
     </g>
    </g>
    <g id="xtick_5">
     <g id="line2d_5">
      <g>
       <use style="stroke:#000000;stroke-width:0.8;" x="495.078414" xlink:href="#m6e19139385" y="338.0616"/>
      </g>
     </g>
     <g id="text_5">
      <!-- 40 -->
      <defs>
       <path d="M 37.796875 64.3125 
L 12.890625 25.390625 
L 37.796875 25.390625 
z
M 35.203125 72.90625 
L 47.609375 72.90625 
L 47.609375 25.390625 
L 58.015625 25.390625 
L 58.015625 17.1875 
L 47.609375 17.1875 
L 47.609375 0 
L 37.796875 0 
L 37.796875 17.1875 
L 4.890625 17.1875 
L 4.890625 26.703125 
z
" id="DejaVuSans-34"/>
      </defs>
      <g transform="translate(488.715914 352.660037)scale(0.1 -0.1)">
       <use xlink:href="#DejaVuSans-34"/>
       <use x="63.623047" xlink:href="#DejaVuSans-30"/>
      </g>
     </g>
    </g>
    <g id="xtick_6">
     <g id="line2d_6">
      <g>
       <use style="stroke:#000000;stroke-width:0.8;" x="570.114134" xlink:href="#m6e19139385" y="338.0616"/>
      </g>
     </g>
     <g id="text_6">
      <!-- 50 -->
      <defs>
       <path d="M 10.796875 72.90625 
L 49.515625 72.90625 
L 49.515625 64.59375 
L 19.828125 64.59375 
L 19.828125 46.734375 
Q 21.96875 47.46875 24.109375 47.828125 
Q 26.265625 48.1875 28.421875 48.1875 
Q 40.625 48.1875 47.75 41.5 
Q 54.890625 34.8125 54.890625 23.390625 
Q 54.890625 11.625 47.5625 5.09375 
Q 40.234375 -1.421875 26.90625 -1.421875 
Q 22.3125 -1.421875 17.546875 -0.640625 
Q 12.796875 0.140625 7.71875 1.703125 
L 7.71875 11.625 
Q 12.109375 9.234375 16.796875 8.0625 
Q 21.484375 6.890625 26.703125 6.890625 
Q 35.15625 6.890625 40.078125 11.328125 
Q 45.015625 15.765625 45.015625 23.390625 
Q 45.015625 31 40.078125 35.4375 
Q 35.15625 39.890625 26.703125 39.890625 
Q 22.75 39.890625 18.8125 39.015625 
Q 14.890625 38.140625 10.796875 36.28125 
z
" id="DejaVuSans-35"/>
      </defs>
      <g transform="translate(563.751634 352.660037)scale(0.1 -0.1)">
       <use xlink:href="#DejaVuSans-35"/>
       <use x="63.623047" xlink:href="#DejaVuSans-30"/>
      </g>
     </g>
    </g>
    <g id="xtick_7">
     <g id="line2d_7">
      <g>
       <use style="stroke:#000000;stroke-width:0.8;" x="645.149853" xlink:href="#m6e19139385" y="338.0616"/>
      </g>
     </g>
     <g id="text_7">
      <!-- 60 -->
      <defs>
       <path d="M 33.015625 40.375 
Q 26.375 40.375 22.484375 35.828125 
Q 18.609375 31.296875 18.609375 23.390625 
Q 18.609375 15.53125 22.484375 10.953125 
Q 26.375 6.390625 33.015625 6.390625 
Q 39.65625 6.390625 43.53125 10.953125 
Q 47.40625 15.53125 47.40625 23.390625 
Q 47.40625 31.296875 43.53125 35.828125 
Q 39.65625 40.375 33.015625 40.375 
z
M 52.59375 71.296875 
L 52.59375 62.3125 
Q 48.875 64.0625 45.09375 64.984375 
Q 41.3125 65.921875 37.59375 65.921875 
Q 27.828125 65.921875 22.671875 59.328125 
Q 17.53125 52.734375 16.796875 39.40625 
Q 19.671875 43.65625 24.015625 45.921875 
Q 28.375 48.1875 33.59375 48.1875 
Q 44.578125 48.1875 50.953125 41.515625 
Q 57.328125 34.859375 57.328125 23.390625 
Q 57.328125 12.15625 50.6875 5.359375 
Q 44.046875 -1.421875 33.015625 -1.421875 
Q 20.359375 -1.421875 13.671875 8.265625 
Q 6.984375 17.96875 6.984375 36.375 
Q 6.984375 53.65625 15.1875 63.9375 
Q 23.390625 74.21875 37.203125 74.21875 
Q 40.921875 74.21875 44.703125 73.484375 
Q 48.484375 72.75 52.59375 71.296875 
z
" id="DejaVuSans-36"/>
      </defs>
      <g transform="translate(638.787353 352.660037)scale(0.1 -0.1)">
       <use xlink:href="#DejaVuSans-36"/>
       <use x="63.623047" xlink:href="#DejaVuSans-30"/>
      </g>
     </g>
    </g>
    <g id="text_8">
     <!-- avg -->
     <defs>
      <path d="M 34.28125 27.484375 
Q 23.390625 27.484375 19.1875 25 
Q 14.984375 22.515625 14.984375 16.5 
Q 14.984375 11.71875 18.140625 8.90625 
Q 21.296875 6.109375 26.703125 6.109375 
Q 34.1875 6.109375 38.703125 11.40625 
Q 43.21875 16.703125 43.21875 25.484375 
L 43.21875 27.484375 
z
M 52.203125 31.203125 
L 52.203125 0 
L 43.21875 0 
L 43.21875 8.296875 
Q 40.140625 3.328125 35.546875 0.953125 
Q 30.953125 -1.421875 24.3125 -1.421875 
Q 15.921875 -1.421875 10.953125 3.296875 
Q 6 8.015625 6 15.921875 
Q 6 25.140625 12.171875 29.828125 
Q 18.359375 34.515625 30.609375 34.515625 
L 43.21875 34.515625 
L 43.21875 35.40625 
Q 43.21875 41.609375 39.140625 45 
Q 35.0625 48.390625 27.6875 48.390625 
Q 23 48.390625 18.546875 47.265625 
Q 14.109375 46.140625 10.015625 43.890625 
L 10.015625 52.203125 
Q 14.9375 54.109375 19.578125 55.046875 
Q 24.21875 56 28.609375 56 
Q 40.484375 56 46.34375 49.84375 
Q 52.203125 43.703125 52.203125 31.203125 
z
" id="DejaVuSans-61"/>
      <path d="M 2.984375 54.6875 
L 12.5 54.6875 
L 29.59375 8.796875 
L 46.6875 54.6875 
L 56.203125 54.6875 
L 35.6875 0 
L 23.484375 0 
z
" id="DejaVuSans-76"/>
      <path d="M 45.40625 27.984375 
Q 45.40625 37.75 41.375 43.109375 
Q 37.359375 48.484375 30.078125 48.484375 
Q 22.859375 48.484375 18.828125 43.109375 
Q 14.796875 37.75 14.796875 27.984375 
Q 14.796875 18.265625 18.828125 12.890625 
Q 22.859375 7.515625 30.078125 7.515625 
Q 37.359375 7.515625 41.375 12.890625 
Q 45.40625 18.265625 45.40625 27.984375 
z
M 54.390625 6.78125 
Q 54.390625 -7.171875 48.1875 -13.984375 
Q 42 -20.796875 29.203125 -20.796875 
Q 24.46875 -20.796875 20.265625 -20.09375 
Q 16.0625 -19.390625 12.109375 -17.921875 
L 12.109375 -9.1875 
Q 16.0625 -11.328125 19.921875 -12.34375 
Q 23.78125 -13.375 27.78125 -13.375 
Q 36.625 -13.375 41.015625 -8.765625 
Q 45.40625 -4.15625 45.40625 5.171875 
L 45.40625 9.625 
Q 42.625 4.78125 38.28125 2.390625 
Q 33.9375 0 27.875 0 
Q 17.828125 0 11.671875 7.65625 
Q 5.515625 15.328125 5.515625 27.984375 
Q 5.515625 40.671875 11.671875 48.328125 
Q 17.828125 56 27.875 56 
Q 33.9375 56 38.28125 53.609375 
Q 42.625 51.21875 45.40625 46.390625 
L 45.40625 54.6875 
L 54.390625 54.6875 
z
" id="DejaVuSans-67"/>
     </defs>
     <g transform="translate(407.093253 366.338162)scale(0.1 -0.1)">
      <use xlink:href="#DejaVuSans-61"/>
      <use x="61.279297" xlink:href="#DejaVuSans-76"/>
      <use x="120.458984" xlink:href="#DejaVuSans-67"/>
     </g>
    </g>
   </g>
   <g id="matplotlib.axis_2">
    <g id="ytick_1">
     <g id="line2d_8">
      <defs>
       <path d="M 0 0 
L -3.5 0 
" id="mb281b7f02d" style="stroke:#000000;stroke-width:0.8;"/>
      </defs>
      <g>
       <use style="stroke:#000000;stroke-width:0.8;" x="172.8" xlink:href="#mb281b7f02d" y="327.547224"/>
      </g>
     </g>
     <g id="text_9">
      <!-- 10.0 -->
      <defs>
       <path d="M 10.6875 12.40625 
L 21 12.40625 
L 21 0 
L 10.6875 0 
z
" id="DejaVuSans-2e"/>
      </defs>
      <g transform="translate(143.534375 331.346442)scale(0.1 -0.1)">
       <use xlink:href="#DejaVuSans-31"/>
       <use x="63.623047" xlink:href="#DejaVuSans-30"/>
       <use x="127.246094" xlink:href="#DejaVuSans-2e"/>
       <use x="159.033203" xlink:href="#DejaVuSans-30"/>
      </g>
     </g>
    </g>
    <g id="ytick_2">
     <g id="line2d_9">
      <g>
       <use style="stroke:#000000;stroke-width:0.8;" x="172.8" xlink:href="#mb281b7f02d" y="294.378844"/>
      </g>
     </g>
     <g id="text_10">
      <!-- 12.5 -->
      <g transform="translate(143.534375 298.178063)scale(0.1 -0.1)">
       <use xlink:href="#DejaVuSans-31"/>
       <use x="63.623047" xlink:href="#DejaVuSans-32"/>
       <use x="127.246094" xlink:href="#DejaVuSans-2e"/>
       <use x="159.033203" xlink:href="#DejaVuSans-35"/>
      </g>
     </g>
    </g>
    <g id="ytick_3">
     <g id="line2d_10">
      <g>
       <use style="stroke:#000000;stroke-width:0.8;" x="172.8" xlink:href="#mb281b7f02d" y="261.210465"/>
      </g>
     </g>
     <g id="text_11">
      <!-- 15.0 -->
      <g transform="translate(143.534375 265.009684)scale(0.1 -0.1)">
       <use xlink:href="#DejaVuSans-31"/>
       <use x="63.623047" xlink:href="#DejaVuSans-35"/>
       <use x="127.246094" xlink:href="#DejaVuSans-2e"/>
       <use x="159.033203" xlink:href="#DejaVuSans-30"/>
      </g>
     </g>
    </g>
    <g id="ytick_4">
     <g id="line2d_11">
      <g>
       <use style="stroke:#000000;stroke-width:0.8;" x="172.8" xlink:href="#mb281b7f02d" y="228.042085"/>
      </g>
     </g>
     <g id="text_12">
      <!-- 17.5 -->
      <defs>
       <path d="M 8.203125 72.90625 
L 55.078125 72.90625 
L 55.078125 68.703125 
L 28.609375 0 
L 18.3125 0 
L 43.21875 64.59375 
L 8.203125 64.59375 
z
" id="DejaVuSans-37"/>
      </defs>
      <g transform="translate(143.534375 231.841304)scale(0.1 -0.1)">
       <use xlink:href="#DejaVuSans-31"/>
       <use x="63.623047" xlink:href="#DejaVuSans-37"/>
       <use x="127.246094" xlink:href="#DejaVuSans-2e"/>
       <use x="159.033203" xlink:href="#DejaVuSans-35"/>
      </g>
     </g>
    </g>
    <g id="ytick_5">
     <g id="line2d_12">
      <g>
       <use style="stroke:#000000;stroke-width:0.8;" x="172.8" xlink:href="#mb281b7f02d" y="194.873706"/>
      </g>
     </g>
     <g id="text_13">
      <!-- 20.0 -->
      <g transform="translate(143.534375 198.672925)scale(0.1 -0.1)">
       <use xlink:href="#DejaVuSans-32"/>
       <use x="63.623047" xlink:href="#DejaVuSans-30"/>
       <use x="127.246094" xlink:href="#DejaVuSans-2e"/>
       <use x="159.033203" xlink:href="#DejaVuSans-30"/>
      </g>
     </g>
    </g>
    <g id="ytick_6">
     <g id="line2d_13">
      <g>
       <use style="stroke:#000000;stroke-width:0.8;" x="172.8" xlink:href="#mb281b7f02d" y="161.705326"/>
      </g>
     </g>
     <g id="text_14">
      <!-- 22.5 -->
      <g transform="translate(143.534375 165.504545)scale(0.1 -0.1)">
       <use xlink:href="#DejaVuSans-32"/>
       <use x="63.623047" xlink:href="#DejaVuSans-32"/>
       <use x="127.246094" xlink:href="#DejaVuSans-2e"/>
       <use x="159.033203" xlink:href="#DejaVuSans-35"/>
      </g>
     </g>
    </g>
    <g id="ytick_7">
     <g id="line2d_14">
      <g>
       <use style="stroke:#000000;stroke-width:0.8;" x="172.8" xlink:href="#mb281b7f02d" y="128.536947"/>
      </g>
     </g>
     <g id="text_15">
      <!-- 25.0 -->
      <g transform="translate(143.534375 132.336166)scale(0.1 -0.1)">
       <use xlink:href="#DejaVuSans-32"/>
       <use x="63.623047" xlink:href="#DejaVuSans-35"/>
       <use x="127.246094" xlink:href="#DejaVuSans-2e"/>
       <use x="159.033203" xlink:href="#DejaVuSans-30"/>
      </g>
     </g>
    </g>
    <g id="ytick_8">
     <g id="line2d_15">
      <g>
       <use style="stroke:#000000;stroke-width:0.8;" x="172.8" xlink:href="#mb281b7f02d" y="95.368568"/>
      </g>
     </g>
     <g id="text_16">
      <!-- 27.5 -->
      <g transform="translate(143.534375 99.167786)scale(0.1 -0.1)">
       <use xlink:href="#DejaVuSans-32"/>
       <use x="63.623047" xlink:href="#DejaVuSans-37"/>
       <use x="127.246094" xlink:href="#DejaVuSans-2e"/>
       <use x="159.033203" xlink:href="#DejaVuSans-35"/>
      </g>
     </g>
    </g>
   </g>
   <g id="line2d_16">
    <path clip-path="url(#pa8e02ed39c)" d="M 194.935537 181.606354 
L 202.439109 285.755066 
L 209.942681 275.937225 
L 217.446253 238.257946 
L 224.949825 182.667742 
L 232.453397 254.576789 
L 239.956969 258.955015 
L 247.460541 236.400517 
L 254.964113 295.705579 
L 262.467685 220.479695 
L 269.971256 326.618509 
L 277.474828 260.414424 
L 284.9784 262.802547 
L 292.481972 162.368694 
L 299.985544 239.584681 
L 307.489116 262.006506 
L 314.992688 249.535195 
L 322.49626 284.295657 
L 329.999832 271.558999 
L 337.503404 264.394629 
L 345.006976 258.424321 
L 352.510548 224.06188 
L 360.01412 223.398512 
L 367.517692 247.943113 
L 375.021263 228.9708 
L 382.524835 249.800542 
L 390.028407 202.56877 
L 397.531979 230.297535 
L 405.035551 253.11738 
L 412.539123 267.0481 
L 420.042695 241.04409 
L 427.546267 219.418307 
L 435.049839 269.70157 
L 442.553411 243.166866 
L 450.056983 220.745042 
L 457.560555 210.794528 
L 465.064127 251.392625 
L 472.567699 236.665864 
L 480.07127 253.648074 
L 487.574842 232.818332 
L 495.078414 218.754939 
L 502.581986 223.265839 
L 510.085558 206.681649 
L 517.58913 241.04409 
L 525.092702 247.412419 
L 532.596274 222.337124 
L 540.099846 210.13116 
L 547.603418 249.137175 
L 555.10699 213.846019 
L 562.610562 208.141058 
L 570.114134 184.657845 
L 577.617706 215.305428 
L 585.121277 223.000492 
L 592.624849 230.695556 
L 600.128421 208.671752 
L 607.631993 178.156843 
L 615.135565 237.196558 
L 622.639137 97.756691 
L 630.142709 178.289516 
L 637.646281 192.618256 
" style="fill:none;stroke:#000000;stroke-dasharray:5.55,2.4;stroke-dashoffset:0;stroke-width:1.5;"/>
    <defs>
     <path d="M 0 3 
C 0.795609 3 1.55874 2.683901 2.12132 2.12132 
C 2.683901 1.55874 3 0.795609 3 0 
C 3 -0.795609 2.683901 -1.55874 2.12132 -2.12132 
C 1.55874 -2.683901 0.795609 -3 0 -3 
C -0.795609 -3 -1.55874 -2.683901 -2.12132 -2.12132 
C -2.683901 -1.55874 -3 -0.795609 -3 0 
C -3 0.795609 -2.683901 1.55874 -2.12132 2.12132 
C -1.55874 2.683901 -0.795609 3 0 3 
z
" id="ma17f969f9d" style="stroke:#000000;"/>
    </defs>
    <g clip-path="url(#pa8e02ed39c)">
     <use style="stroke:#000000;" x="194.935537" xlink:href="#ma17f969f9d" y="181.606354"/>
     <use style="stroke:#000000;" x="202.439109" xlink:href="#ma17f969f9d" y="285.755066"/>
     <use style="stroke:#000000;" x="209.942681" xlink:href="#ma17f969f9d" y="275.937225"/>
     <use style="stroke:#000000;" x="217.446253" xlink:href="#ma17f969f9d" y="238.257946"/>
     <use style="stroke:#000000;" x="224.949825" xlink:href="#ma17f969f9d" y="182.667742"/>
     <use style="stroke:#000000;" x="232.453397" xlink:href="#ma17f969f9d" y="254.576789"/>
     <use style="stroke:#000000;" x="239.956969" xlink:href="#ma17f969f9d" y="258.955015"/>
     <use style="stroke:#000000;" x="247.460541" xlink:href="#ma17f969f9d" y="236.400517"/>
     <use style="stroke:#000000;" x="254.964113" xlink:href="#ma17f969f9d" y="295.705579"/>
     <use style="stroke:#000000;" x="262.467685" xlink:href="#ma17f969f9d" y="220.479695"/>
     <use style="stroke:#000000;" x="269.971256" xlink:href="#ma17f969f9d" y="326.618509"/>
     <use style="stroke:#000000;" x="277.474828" xlink:href="#ma17f969f9d" y="260.414424"/>
     <use style="stroke:#000000;" x="284.9784" xlink:href="#ma17f969f9d" y="262.802547"/>
     <use style="stroke:#000000;" x="292.481972" xlink:href="#ma17f969f9d" y="162.368694"/>
     <use style="stroke:#000000;" x="299.985544" xlink:href="#ma17f969f9d" y="239.584681"/>
     <use style="stroke:#000000;" x="307.489116" xlink:href="#ma17f969f9d" y="262.006506"/>
     <use style="stroke:#000000;" x="314.992688" xlink:href="#ma17f969f9d" y="249.535195"/>
     <use style="stroke:#000000;" x="322.49626" xlink:href="#ma17f969f9d" y="284.295657"/>
     <use style="stroke:#000000;" x="329.999832" xlink:href="#ma17f969f9d" y="271.558999"/>
     <use style="stroke:#000000;" x="337.503404" xlink:href="#ma17f969f9d" y="264.394629"/>
     <use style="stroke:#000000;" x="345.006976" xlink:href="#ma17f969f9d" y="258.424321"/>
     <use style="stroke:#000000;" x="352.510548" xlink:href="#ma17f969f9d" y="224.06188"/>
     <use style="stroke:#000000;" x="360.01412" xlink:href="#ma17f969f9d" y="223.398512"/>
     <use style="stroke:#000000;" x="367.517692" xlink:href="#ma17f969f9d" y="247.943113"/>
     <use style="stroke:#000000;" x="375.021263" xlink:href="#ma17f969f9d" y="228.9708"/>
     <use style="stroke:#000000;" x="382.524835" xlink:href="#ma17f969f9d" y="249.800542"/>
     <use style="stroke:#000000;" x="390.028407" xlink:href="#ma17f969f9d" y="202.56877"/>
     <use style="stroke:#000000;" x="397.531979" xlink:href="#ma17f969f9d" y="230.297535"/>
     <use style="stroke:#000000;" x="405.035551" xlink:href="#ma17f969f9d" y="253.11738"/>
     <use style="stroke:#000000;" x="412.539123" xlink:href="#ma17f969f9d" y="267.0481"/>
     <use style="stroke:#000000;" x="420.042695" xlink:href="#ma17f969f9d" y="241.04409"/>
     <use style="stroke:#000000;" x="427.546267" xlink:href="#ma17f969f9d" y="219.418307"/>
     <use style="stroke:#000000;" x="435.049839" xlink:href="#ma17f969f9d" y="269.70157"/>
     <use style="stroke:#000000;" x="442.553411" xlink:href="#ma17f969f9d" y="243.166866"/>
     <use style="stroke:#000000;" x="450.056983" xlink:href="#ma17f969f9d" y="220.745042"/>
     <use style="stroke:#000000;" x="457.560555" xlink:href="#ma17f969f9d" y="210.794528"/>
     <use style="stroke:#000000;" x="465.064127" xlink:href="#ma17f969f9d" y="251.392625"/>
     <use style="stroke:#000000;" x="472.567699" xlink:href="#ma17f969f9d" y="236.665864"/>
     <use style="stroke:#000000;" x="480.07127" xlink:href="#ma17f969f9d" y="253.648074"/>
     <use style="stroke:#000000;" x="487.574842" xlink:href="#ma17f969f9d" y="232.818332"/>
     <use style="stroke:#000000;" x="495.078414" xlink:href="#ma17f969f9d" y="218.754939"/>
     <use style="stroke:#000000;" x="502.581986" xlink:href="#ma17f969f9d" y="223.265839"/>
     <use style="stroke:#000000;" x="510.085558" xlink:href="#ma17f969f9d" y="206.681649"/>
     <use style="stroke:#000000;" x="517.58913" xlink:href="#ma17f969f9d" y="241.04409"/>
     <use style="stroke:#000000;" x="525.092702" xlink:href="#ma17f969f9d" y="247.412419"/>
     <use style="stroke:#000000;" x="532.596274" xlink:href="#ma17f969f9d" y="222.337124"/>
     <use style="stroke:#000000;" x="540.099846" xlink:href="#ma17f969f9d" y="210.13116"/>
     <use style="stroke:#000000;" x="547.603418" xlink:href="#ma17f969f9d" y="249.137175"/>
     <use style="stroke:#000000;" x="555.10699" xlink:href="#ma17f969f9d" y="213.846019"/>
     <use style="stroke:#000000;" x="562.610562" xlink:href="#ma17f969f9d" y="208.141058"/>
     <use style="stroke:#000000;" x="570.114134" xlink:href="#ma17f969f9d" y="184.657845"/>
     <use style="stroke:#000000;" x="577.617706" xlink:href="#ma17f969f9d" y="215.305428"/>
     <use style="stroke:#000000;" x="585.121277" xlink:href="#ma17f969f9d" y="223.000492"/>
     <use style="stroke:#000000;" x="592.624849" xlink:href="#ma17f969f9d" y="230.695556"/>
     <use style="stroke:#000000;" x="600.128421" xlink:href="#ma17f969f9d" y="208.671752"/>
     <use style="stroke:#000000;" x="607.631993" xlink:href="#ma17f969f9d" y="178.156843"/>
     <use style="stroke:#000000;" x="615.135565" xlink:href="#ma17f969f9d" y="237.196558"/>
     <use style="stroke:#000000;" x="622.639137" xlink:href="#ma17f969f9d" y="97.756691"/>
     <use style="stroke:#000000;" x="630.142709" xlink:href="#ma17f969f9d" y="178.289516"/>
     <use style="stroke:#000000;" x="637.646281" xlink:href="#ma17f969f9d" y="192.618256"/>
    </g>
   </g>
   <g id="patch_3">
    <path d="M 172.8 338.0616 
L 172.8 86.3136 
" style="fill:none;stroke:#000000;stroke-linecap:square;stroke-linejoin:miter;stroke-width:0.8;"/>
   </g>
   <g id="patch_4">
    <path d="M 659.781818 338.0616 
L 659.781818 86.3136 
" style="fill:none;stroke:#000000;stroke-linecap:square;stroke-linejoin:miter;stroke-width:0.8;"/>
   </g>
   <g id="patch_5">
    <path d="M 172.8 338.0616 
L 659.781818 338.0616 
" style="fill:none;stroke:#000000;stroke-linecap:square;stroke-linejoin:miter;stroke-width:0.8;"/>
   </g>
   <g id="patch_6">
    <path d="M 172.8 86.3136 
L 659.781818 86.3136 
" style="fill:none;stroke:#000000;stroke-linecap:square;stroke-linejoin:miter;stroke-width:0.8;"/>
   </g>
  </g>
  <g id="axes_2">
   <g id="patch_7">
    <path d="M 757.178182 338.0616 
L 1244.16 338.0616 
L 1244.16 86.3136 
L 757.178182 86.3136 
z
" style="fill:#ffffff;"/>
   </g>
   <g id="matplotlib.axis_3">
    <g id="xtick_8">
     <g id="line2d_17">
      <g>
       <use style="stroke:#000000;stroke-width:0.8;" x="779.313719" xlink:href="#m6e19139385" y="338.0616"/>
      </g>
     </g>
     <g id="text_17">
      <!-- 0 -->
      <g transform="translate(776.132469 352.660037)scale(0.1 -0.1)">
       <use xlink:href="#DejaVuSans-30"/>
      </g>
     </g>
    </g>
    <g id="xtick_9">
     <g id="line2d_18">
      <g>
       <use style="stroke:#000000;stroke-width:0.8;" x="854.349438" xlink:href="#m6e19139385" y="338.0616"/>
      </g>
     </g>
     <g id="text_18">
      <!-- 10 -->
      <g transform="translate(847.986938 352.660037)scale(0.1 -0.1)">
       <use xlink:href="#DejaVuSans-31"/>
       <use x="63.623047" xlink:href="#DejaVuSans-30"/>
      </g>
     </g>
    </g>
    <g id="xtick_10">
     <g id="line2d_19">
      <g>
       <use style="stroke:#000000;stroke-width:0.8;" x="929.385158" xlink:href="#m6e19139385" y="338.0616"/>
      </g>
     </g>
     <g id="text_19">
      <!-- 20 -->
      <g transform="translate(923.022658 352.660037)scale(0.1 -0.1)">
       <use xlink:href="#DejaVuSans-32"/>
       <use x="63.623047" xlink:href="#DejaVuSans-30"/>
      </g>
     </g>
    </g>
    <g id="xtick_11">
     <g id="line2d_20">
      <g>
       <use style="stroke:#000000;stroke-width:0.8;" x="1004.420877" xlink:href="#m6e19139385" y="338.0616"/>
      </g>
     </g>
     <g id="text_20">
      <!-- 30 -->
      <g transform="translate(998.058377 352.660037)scale(0.1 -0.1)">
       <use xlink:href="#DejaVuSans-33"/>
       <use x="63.623047" xlink:href="#DejaVuSans-30"/>
      </g>
     </g>
    </g>
    <g id="xtick_12">
     <g id="line2d_21">
      <g>
       <use style="stroke:#000000;stroke-width:0.8;" x="1079.456596" xlink:href="#m6e19139385" y="338.0616"/>
      </g>
     </g>
     <g id="text_21">
      <!-- 40 -->
      <g transform="translate(1073.094096 352.660037)scale(0.1 -0.1)">
       <use xlink:href="#DejaVuSans-34"/>
       <use x="63.623047" xlink:href="#DejaVuSans-30"/>
      </g>
     </g>
    </g>
    <g id="xtick_13">
     <g id="line2d_22">
      <g>
       <use style="stroke:#000000;stroke-width:0.8;" x="1154.492315" xlink:href="#m6e19139385" y="338.0616"/>
      </g>
     </g>
     <g id="text_22">
      <!-- 50 -->
      <g transform="translate(1148.129815 352.660037)scale(0.1 -0.1)">
       <use xlink:href="#DejaVuSans-35"/>
       <use x="63.623047" xlink:href="#DejaVuSans-30"/>
      </g>
     </g>
    </g>
    <g id="xtick_14">
     <g id="line2d_23">
      <g>
       <use style="stroke:#000000;stroke-width:0.8;" x="1229.528035" xlink:href="#m6e19139385" y="338.0616"/>
      </g>
     </g>
     <g id="text_23">
      <!-- 60 -->
      <g transform="translate(1223.165535 352.660037)scale(0.1 -0.1)">
       <use xlink:href="#DejaVuSans-36"/>
       <use x="63.623047" xlink:href="#DejaVuSans-30"/>
      </g>
     </g>
    </g>
    <g id="text_24">
     <!-- median -->
     <defs>
      <path d="M 52 44.1875 
Q 55.375 50.25 60.0625 53.125 
Q 64.75 56 71.09375 56 
Q 79.640625 56 84.28125 50.015625 
Q 88.921875 44.046875 88.921875 33.015625 
L 88.921875 0 
L 79.890625 0 
L 79.890625 32.71875 
Q 79.890625 40.578125 77.09375 44.375 
Q 74.3125 48.1875 68.609375 48.1875 
Q 61.625 48.1875 57.5625 43.546875 
Q 53.515625 38.921875 53.515625 30.90625 
L 53.515625 0 
L 44.484375 0 
L 44.484375 32.71875 
Q 44.484375 40.625 41.703125 44.40625 
Q 38.921875 48.1875 33.109375 48.1875 
Q 26.21875 48.1875 22.15625 43.53125 
Q 18.109375 38.875 18.109375 30.90625 
L 18.109375 0 
L 9.078125 0 
L 9.078125 54.6875 
L 18.109375 54.6875 
L 18.109375 46.1875 
Q 21.1875 51.21875 25.484375 53.609375 
Q 29.78125 56 35.6875 56 
Q 41.65625 56 45.828125 52.96875 
Q 50 49.953125 52 44.1875 
z
" id="DejaVuSans-6d"/>
      <path d="M 56.203125 29.59375 
L 56.203125 25.203125 
L 14.890625 25.203125 
Q 15.484375 15.921875 20.484375 11.0625 
Q 25.484375 6.203125 34.421875 6.203125 
Q 39.59375 6.203125 44.453125 7.46875 
Q 49.3125 8.734375 54.109375 11.28125 
L 54.109375 2.78125 
Q 49.265625 0.734375 44.1875 -0.34375 
Q 39.109375 -1.421875 33.890625 -1.421875 
Q 20.796875 -1.421875 13.15625 6.1875 
Q 5.515625 13.8125 5.515625 26.8125 
Q 5.515625 40.234375 12.765625 48.109375 
Q 20.015625 56 32.328125 56 
Q 43.359375 56 49.78125 48.890625 
Q 56.203125 41.796875 56.203125 29.59375 
z
M 47.21875 32.234375 
Q 47.125 39.59375 43.09375 43.984375 
Q 39.0625 48.390625 32.421875 48.390625 
Q 24.90625 48.390625 20.390625 44.140625 
Q 15.875 39.890625 15.1875 32.171875 
z
" id="DejaVuSans-65"/>
      <path d="M 45.40625 46.390625 
L 45.40625 75.984375 
L 54.390625 75.984375 
L 54.390625 0 
L 45.40625 0 
L 45.40625 8.203125 
Q 42.578125 3.328125 38.25 0.953125 
Q 33.9375 -1.421875 27.875 -1.421875 
Q 17.96875 -1.421875 11.734375 6.484375 
Q 5.515625 14.40625 5.515625 27.296875 
Q 5.515625 40.1875 11.734375 48.09375 
Q 17.96875 56 27.875 56 
Q 33.9375 56 38.25 53.625 
Q 42.578125 51.265625 45.40625 46.390625 
z
M 14.796875 27.296875 
Q 14.796875 17.390625 18.875 11.75 
Q 22.953125 6.109375 30.078125 6.109375 
Q 37.203125 6.109375 41.296875 11.75 
Q 45.40625 17.390625 45.40625 27.296875 
Q 45.40625 37.203125 41.296875 42.84375 
Q 37.203125 48.484375 30.078125 48.484375 
Q 22.953125 48.484375 18.875 42.84375 
Q 14.796875 37.203125 14.796875 27.296875 
z
" id="DejaVuSans-64"/>
      <path d="M 9.421875 54.6875 
L 18.40625 54.6875 
L 18.40625 0 
L 9.421875 0 
z
M 9.421875 75.984375 
L 18.40625 75.984375 
L 18.40625 64.59375 
L 9.421875 64.59375 
z
" id="DejaVuSans-69"/>
      <path d="M 54.890625 33.015625 
L 54.890625 0 
L 45.90625 0 
L 45.90625 32.71875 
Q 45.90625 40.484375 42.875 44.328125 
Q 39.84375 48.1875 33.796875 48.1875 
Q 26.515625 48.1875 22.3125 43.546875 
Q 18.109375 38.921875 18.109375 30.90625 
L 18.109375 0 
L 9.078125 0 
L 9.078125 54.6875 
L 18.109375 54.6875 
L 18.109375 46.1875 
Q 21.34375 51.125 25.703125 53.5625 
Q 30.078125 56 35.796875 56 
Q 45.21875 56 50.046875 50.171875 
Q 54.890625 44.34375 54.890625 33.015625 
z
" id="DejaVuSans-6e"/>
     </defs>
     <g transform="translate(981.926122 366.338162)scale(0.1 -0.1)">
      <use xlink:href="#DejaVuSans-6d"/>
      <use x="97.412109" xlink:href="#DejaVuSans-65"/>
      <use x="158.935547" xlink:href="#DejaVuSans-64"/>
      <use x="222.412109" xlink:href="#DejaVuSans-69"/>
      <use x="250.195312" xlink:href="#DejaVuSans-61"/>
      <use x="311.474609" xlink:href="#DejaVuSans-6e"/>
     </g>
    </g>
   </g>
   <g id="matplotlib.axis_4">
    <g id="ytick_9">
     <g id="line2d_24">
      <g>
       <use style="stroke:#000000;stroke-width:0.8;" x="757.178182" xlink:href="#mb281b7f02d" y="333.349739"/>
      </g>
     </g>
     <g id="text_25">
      <!-- 7.5 -->
      <g transform="translate(734.275057 337.148958)scale(0.1 -0.1)">
       <use xlink:href="#DejaVuSans-37"/>
       <use x="63.623047" xlink:href="#DejaVuSans-2e"/>
       <use x="95.410156" xlink:href="#DejaVuSans-35"/>
      </g>
     </g>
    </g>
    <g id="ytick_10">
     <g id="line2d_25">
      <g>
       <use style="stroke:#000000;stroke-width:0.8;" x="757.178182" xlink:href="#mb281b7f02d" y="299.693589"/>
      </g>
     </g>
     <g id="text_26">
      <!-- 10.0 -->
      <g transform="translate(727.912557 303.492808)scale(0.1 -0.1)">
       <use xlink:href="#DejaVuSans-31"/>
       <use x="63.623047" xlink:href="#DejaVuSans-30"/>
       <use x="127.246094" xlink:href="#DejaVuSans-2e"/>
       <use x="159.033203" xlink:href="#DejaVuSans-30"/>
      </g>
     </g>
    </g>
    <g id="ytick_11">
     <g id="line2d_26">
      <g>
       <use style="stroke:#000000;stroke-width:0.8;" x="757.178182" xlink:href="#mb281b7f02d" y="266.03744"/>
      </g>
     </g>
     <g id="text_27">
      <!-- 12.5 -->
      <g transform="translate(727.912557 269.836658)scale(0.1 -0.1)">
       <use xlink:href="#DejaVuSans-31"/>
       <use x="63.623047" xlink:href="#DejaVuSans-32"/>
       <use x="127.246094" xlink:href="#DejaVuSans-2e"/>
       <use x="159.033203" xlink:href="#DejaVuSans-35"/>
      </g>
     </g>
    </g>
    <g id="ytick_12">
     <g id="line2d_27">
      <g>
       <use style="stroke:#000000;stroke-width:0.8;" x="757.178182" xlink:href="#mb281b7f02d" y="232.38129"/>
      </g>
     </g>
     <g id="text_28">
      <!-- 15.0 -->
      <g transform="translate(727.912557 236.180509)scale(0.1 -0.1)">
       <use xlink:href="#DejaVuSans-31"/>
       <use x="63.623047" xlink:href="#DejaVuSans-35"/>
       <use x="127.246094" xlink:href="#DejaVuSans-2e"/>
       <use x="159.033203" xlink:href="#DejaVuSans-30"/>
      </g>
     </g>
    </g>
    <g id="ytick_13">
     <g id="line2d_28">
      <g>
       <use style="stroke:#000000;stroke-width:0.8;" x="757.178182" xlink:href="#mb281b7f02d" y="198.72514"/>
      </g>
     </g>
     <g id="text_29">
      <!-- 17.5 -->
      <g transform="translate(727.912557 202.524359)scale(0.1 -0.1)">
       <use xlink:href="#DejaVuSans-31"/>
       <use x="63.623047" xlink:href="#DejaVuSans-37"/>
       <use x="127.246094" xlink:href="#DejaVuSans-2e"/>
       <use x="159.033203" xlink:href="#DejaVuSans-35"/>
      </g>
     </g>
    </g>
    <g id="ytick_14">
     <g id="line2d_29">
      <g>
       <use style="stroke:#000000;stroke-width:0.8;" x="757.178182" xlink:href="#mb281b7f02d" y="165.06899"/>
      </g>
     </g>
     <g id="text_30">
      <!-- 20.0 -->
      <g transform="translate(727.912557 168.868209)scale(0.1 -0.1)">
       <use xlink:href="#DejaVuSans-32"/>
       <use x="63.623047" xlink:href="#DejaVuSans-30"/>
       <use x="127.246094" xlink:href="#DejaVuSans-2e"/>
       <use x="159.033203" xlink:href="#DejaVuSans-30"/>
      </g>
     </g>
    </g>
    <g id="ytick_15">
     <g id="line2d_30">
      <g>
       <use style="stroke:#000000;stroke-width:0.8;" x="757.178182" xlink:href="#mb281b7f02d" y="131.412841"/>
      </g>
     </g>
     <g id="text_31">
      <!-- 22.5 -->
      <g transform="translate(727.912557 135.212059)scale(0.1 -0.1)">
       <use xlink:href="#DejaVuSans-32"/>
       <use x="63.623047" xlink:href="#DejaVuSans-32"/>
       <use x="127.246094" xlink:href="#DejaVuSans-2e"/>
       <use x="159.033203" xlink:href="#DejaVuSans-35"/>
      </g>
     </g>
    </g>
    <g id="ytick_16">
     <g id="line2d_31">
      <g>
       <use style="stroke:#000000;stroke-width:0.8;" x="757.178182" xlink:href="#mb281b7f02d" y="97.756691"/>
      </g>
     </g>
     <g id="text_32">
      <!-- 25.0 -->
      <g transform="translate(727.912557 101.55591)scale(0.1 -0.1)">
       <use xlink:href="#DejaVuSans-32"/>
       <use x="63.623047" xlink:href="#DejaVuSans-35"/>
       <use x="127.246094" xlink:href="#DejaVuSans-2e"/>
       <use x="159.033203" xlink:href="#DejaVuSans-30"/>
      </g>
     </g>
    </g>
   </g>
   <g id="line2d_32">
    <path clip-path="url(#pdd3ea8c667)" d="M 779.313719 151.60653 
L 786.817291 286.231129 
L 794.320863 245.84375 
L 801.824435 218.91883 
L 809.328007 185.26268 
L 816.831579 252.57498 
L 824.335151 245.84375 
L 831.838723 205.45637 
L 839.342294 286.231129 
L 846.845866 218.91883 
L 854.349438 326.618509 
L 861.85301 218.91883 
L 869.356582 259.30621 
L 876.860154 151.60653 
L 884.363726 198.72514 
L 891.867298 232.38129 
L 899.37087 252.57498 
L 906.874442 259.30621 
L 914.378014 259.30621 
L 921.881586 259.30621 
L 929.385158 218.91883 
L 936.88873 225.65006 
L 944.392301 218.91883 
L 951.895873 259.30621 
L 959.399445 205.45637 
L 966.903017 232.38129 
L 974.406589 191.99391 
L 981.910161 205.45637 
L 989.413733 218.91883 
L 996.917305 245.84375 
L 1004.420877 205.45637 
L 1011.924449 191.99391 
L 1019.428021 245.84375 
L 1026.931593 218.91883 
L 1034.435165 212.1876 
L 1041.938737 171.80022 
L 1049.442308 232.38129 
L 1056.94588 205.45637 
L 1064.449452 205.45637 
L 1071.953024 218.91883 
L 1079.456596 198.72514 
L 1086.960168 218.91883 
L 1094.46374 165.06899 
L 1101.967312 232.38129 
L 1109.470884 232.38129 
L 1116.974456 205.45637 
L 1124.478028 218.91883 
L 1131.9816 225.65006 
L 1139.485172 239.11252 
L 1146.988744 212.1876 
L 1154.492315 198.72514 
L 1161.995887 191.99391 
L 1169.499459 205.45637 
L 1177.003031 205.45637 
L 1184.506603 191.99391 
L 1192.010175 178.53145 
L 1199.513747 245.84375 
L 1207.017319 97.756691 
L 1214.520891 165.06899 
L 1222.024463 205.45637 
" style="fill:none;stroke:#000000;stroke-dasharray:5.55,2.4;stroke-dashoffset:0;stroke-width:1.5;"/>
    <g clip-path="url(#pdd3ea8c667)">
     <use style="stroke:#000000;" x="779.313719" xlink:href="#ma17f969f9d" y="151.60653"/>
     <use style="stroke:#000000;" x="786.817291" xlink:href="#ma17f969f9d" y="286.231129"/>
     <use style="stroke:#000000;" x="794.320863" xlink:href="#ma17f969f9d" y="245.84375"/>
     <use style="stroke:#000000;" x="801.824435" xlink:href="#ma17f969f9d" y="218.91883"/>
     <use style="stroke:#000000;" x="809.328007" xlink:href="#ma17f969f9d" y="185.26268"/>
     <use style="stroke:#000000;" x="816.831579" xlink:href="#ma17f969f9d" y="252.57498"/>
     <use style="stroke:#000000;" x="824.335151" xlink:href="#ma17f969f9d" y="245.84375"/>
     <use style="stroke:#000000;" x="831.838723" xlink:href="#ma17f969f9d" y="205.45637"/>
     <use style="stroke:#000000;" x="839.342294" xlink:href="#ma17f969f9d" y="286.231129"/>
     <use style="stroke:#000000;" x="846.845866" xlink:href="#ma17f969f9d" y="218.91883"/>
     <use style="stroke:#000000;" x="854.349438" xlink:href="#ma17f969f9d" y="326.618509"/>
     <use style="stroke:#000000;" x="861.85301" xlink:href="#ma17f969f9d" y="218.91883"/>
     <use style="stroke:#000000;" x="869.356582" xlink:href="#ma17f969f9d" y="259.30621"/>
     <use style="stroke:#000000;" x="876.860154" xlink:href="#ma17f969f9d" y="151.60653"/>
     <use style="stroke:#000000;" x="884.363726" xlink:href="#ma17f969f9d" y="198.72514"/>
     <use style="stroke:#000000;" x="891.867298" xlink:href="#ma17f969f9d" y="232.38129"/>
     <use style="stroke:#000000;" x="899.37087" xlink:href="#ma17f969f9d" y="252.57498"/>
     <use style="stroke:#000000;" x="906.874442" xlink:href="#ma17f969f9d" y="259.30621"/>
     <use style="stroke:#000000;" x="914.378014" xlink:href="#ma17f969f9d" y="259.30621"/>
     <use style="stroke:#000000;" x="921.881586" xlink:href="#ma17f969f9d" y="259.30621"/>
     <use style="stroke:#000000;" x="929.385158" xlink:href="#ma17f969f9d" y="218.91883"/>
     <use style="stroke:#000000;" x="936.88873" xlink:href="#ma17f969f9d" y="225.65006"/>
     <use style="stroke:#000000;" x="944.392301" xlink:href="#ma17f969f9d" y="218.91883"/>
     <use style="stroke:#000000;" x="951.895873" xlink:href="#ma17f969f9d" y="259.30621"/>
     <use style="stroke:#000000;" x="959.399445" xlink:href="#ma17f969f9d" y="205.45637"/>
     <use style="stroke:#000000;" x="966.903017" xlink:href="#ma17f969f9d" y="232.38129"/>
     <use style="stroke:#000000;" x="974.406589" xlink:href="#ma17f969f9d" y="191.99391"/>
     <use style="stroke:#000000;" x="981.910161" xlink:href="#ma17f969f9d" y="205.45637"/>
     <use style="stroke:#000000;" x="989.413733" xlink:href="#ma17f969f9d" y="218.91883"/>
     <use style="stroke:#000000;" x="996.917305" xlink:href="#ma17f969f9d" y="245.84375"/>
     <use style="stroke:#000000;" x="1004.420877" xlink:href="#ma17f969f9d" y="205.45637"/>
     <use style="stroke:#000000;" x="1011.924449" xlink:href="#ma17f969f9d" y="191.99391"/>
     <use style="stroke:#000000;" x="1019.428021" xlink:href="#ma17f969f9d" y="245.84375"/>
     <use style="stroke:#000000;" x="1026.931593" xlink:href="#ma17f969f9d" y="218.91883"/>
     <use style="stroke:#000000;" x="1034.435165" xlink:href="#ma17f969f9d" y="212.1876"/>
     <use style="stroke:#000000;" x="1041.938737" xlink:href="#ma17f969f9d" y="171.80022"/>
     <use style="stroke:#000000;" x="1049.442308" xlink:href="#ma17f969f9d" y="232.38129"/>
     <use style="stroke:#000000;" x="1056.94588" xlink:href="#ma17f969f9d" y="205.45637"/>
     <use style="stroke:#000000;" x="1064.449452" xlink:href="#ma17f969f9d" y="205.45637"/>
     <use style="stroke:#000000;" x="1071.953024" xlink:href="#ma17f969f9d" y="218.91883"/>
     <use style="stroke:#000000;" x="1079.456596" xlink:href="#ma17f969f9d" y="198.72514"/>
     <use style="stroke:#000000;" x="1086.960168" xlink:href="#ma17f969f9d" y="218.91883"/>
     <use style="stroke:#000000;" x="1094.46374" xlink:href="#ma17f969f9d" y="165.06899"/>
     <use style="stroke:#000000;" x="1101.967312" xlink:href="#ma17f969f9d" y="232.38129"/>
     <use style="stroke:#000000;" x="1109.470884" xlink:href="#ma17f969f9d" y="232.38129"/>
     <use style="stroke:#000000;" x="1116.974456" xlink:href="#ma17f969f9d" y="205.45637"/>
     <use style="stroke:#000000;" x="1124.478028" xlink:href="#ma17f969f9d" y="218.91883"/>
     <use style="stroke:#000000;" x="1131.9816" xlink:href="#ma17f969f9d" y="225.65006"/>
     <use style="stroke:#000000;" x="1139.485172" xlink:href="#ma17f969f9d" y="239.11252"/>
     <use style="stroke:#000000;" x="1146.988744" xlink:href="#ma17f969f9d" y="212.1876"/>
     <use style="stroke:#000000;" x="1154.492315" xlink:href="#ma17f969f9d" y="198.72514"/>
     <use style="stroke:#000000;" x="1161.995887" xlink:href="#ma17f969f9d" y="191.99391"/>
     <use style="stroke:#000000;" x="1169.499459" xlink:href="#ma17f969f9d" y="205.45637"/>
     <use style="stroke:#000000;" x="1177.003031" xlink:href="#ma17f969f9d" y="205.45637"/>
     <use style="stroke:#000000;" x="1184.506603" xlink:href="#ma17f969f9d" y="191.99391"/>
     <use style="stroke:#000000;" x="1192.010175" xlink:href="#ma17f969f9d" y="178.53145"/>
     <use style="stroke:#000000;" x="1199.513747" xlink:href="#ma17f969f9d" y="245.84375"/>
     <use style="stroke:#000000;" x="1207.017319" xlink:href="#ma17f969f9d" y="97.756691"/>
     <use style="stroke:#000000;" x="1214.520891" xlink:href="#ma17f969f9d" y="165.06899"/>
     <use style="stroke:#000000;" x="1222.024463" xlink:href="#ma17f969f9d" y="205.45637"/>
    </g>
   </g>
   <g id="patch_8">
    <path d="M 757.178182 338.0616 
L 757.178182 86.3136 
" style="fill:none;stroke:#000000;stroke-linecap:square;stroke-linejoin:miter;stroke-width:0.8;"/>
   </g>
   <g id="patch_9">
    <path d="M 1244.16 338.0616 
L 1244.16 86.3136 
" style="fill:none;stroke:#000000;stroke-linecap:square;stroke-linejoin:miter;stroke-width:0.8;"/>
   </g>
   <g id="patch_10">
    <path d="M 757.178182 338.0616 
L 1244.16 338.0616 
" style="fill:none;stroke:#000000;stroke-linecap:square;stroke-linejoin:miter;stroke-width:0.8;"/>
   </g>
   <g id="patch_11">
    <path d="M 757.178182 86.3136 
L 1244.16 86.3136 
" style="fill:none;stroke:#000000;stroke-linecap:square;stroke-linejoin:miter;stroke-width:0.8;"/>
   </g>
  </g>
  <g id="axes_3">
   <g id="patch_12">
    <path d="M 172.8 640.1592 
L 659.781818 640.1592 
L 659.781818 388.4112 
L 172.8 388.4112 
z
" style="fill:#ffffff;"/>
   </g>
   <g id="matplotlib.axis_5">
    <g id="xtick_15">
     <g id="line2d_33">
      <g>
       <use style="stroke:#000000;stroke-width:0.8;" x="194.935537" xlink:href="#m6e19139385" y="640.1592"/>
      </g>
     </g>
     <g id="text_33">
      <!-- 0 -->
      <g transform="translate(191.754287 654.757637)scale(0.1 -0.1)">
       <use xlink:href="#DejaVuSans-30"/>
      </g>
     </g>
    </g>
    <g id="xtick_16">
     <g id="line2d_34">
      <g>
       <use style="stroke:#000000;stroke-width:0.8;" x="269.971256" xlink:href="#m6e19139385" y="640.1592"/>
      </g>
     </g>
     <g id="text_34">
      <!-- 10 -->
      <g transform="translate(263.608756 654.757637)scale(0.1 -0.1)">
       <use xlink:href="#DejaVuSans-31"/>
       <use x="63.623047" xlink:href="#DejaVuSans-30"/>
      </g>
     </g>
    </g>
    <g id="xtick_17">
     <g id="line2d_35">
      <g>
       <use style="stroke:#000000;stroke-width:0.8;" x="345.006976" xlink:href="#m6e19139385" y="640.1592"/>
      </g>
     </g>
     <g id="text_35">
      <!-- 20 -->
      <g transform="translate(338.644476 654.757637)scale(0.1 -0.1)">
       <use xlink:href="#DejaVuSans-32"/>
       <use x="63.623047" xlink:href="#DejaVuSans-30"/>
      </g>
     </g>
    </g>
    <g id="xtick_18">
     <g id="line2d_36">
      <g>
       <use style="stroke:#000000;stroke-width:0.8;" x="420.042695" xlink:href="#m6e19139385" y="640.1592"/>
      </g>
     </g>
     <g id="text_36">
      <!-- 30 -->
      <g transform="translate(413.680195 654.757637)scale(0.1 -0.1)">
       <use xlink:href="#DejaVuSans-33"/>
       <use x="63.623047" xlink:href="#DejaVuSans-30"/>
      </g>
     </g>
    </g>
    <g id="xtick_19">
     <g id="line2d_37">
      <g>
       <use style="stroke:#000000;stroke-width:0.8;" x="495.078414" xlink:href="#m6e19139385" y="640.1592"/>
      </g>
     </g>
     <g id="text_37">
      <!-- 40 -->
      <g transform="translate(488.715914 654.757637)scale(0.1 -0.1)">
       <use xlink:href="#DejaVuSans-34"/>
       <use x="63.623047" xlink:href="#DejaVuSans-30"/>
      </g>
     </g>
    </g>
    <g id="xtick_20">
     <g id="line2d_38">
      <g>
       <use style="stroke:#000000;stroke-width:0.8;" x="570.114134" xlink:href="#m6e19139385" y="640.1592"/>
      </g>
     </g>
     <g id="text_38">
      <!-- 50 -->
      <g transform="translate(563.751634 654.757637)scale(0.1 -0.1)">
       <use xlink:href="#DejaVuSans-35"/>
       <use x="63.623047" xlink:href="#DejaVuSans-30"/>
      </g>
     </g>
    </g>
    <g id="xtick_21">
     <g id="line2d_39">
      <g>
       <use style="stroke:#000000;stroke-width:0.8;" x="645.149853" xlink:href="#m6e19139385" y="640.1592"/>
      </g>
     </g>
     <g id="text_39">
      <!-- 60 -->
      <g transform="translate(638.787353 654.757637)scale(0.1 -0.1)">
       <use xlink:href="#DejaVuSans-36"/>
       <use x="63.623047" xlink:href="#DejaVuSans-30"/>
      </g>
     </g>
    </g>
    <g id="text_40">
     <!-- std -->
     <defs>
      <path d="M 44.28125 53.078125 
L 44.28125 44.578125 
Q 40.484375 46.53125 36.375 47.5 
Q 32.28125 48.484375 27.875 48.484375 
Q 21.1875 48.484375 17.84375 46.4375 
Q 14.5 44.390625 14.5 40.28125 
Q 14.5 37.15625 16.890625 35.375 
Q 19.28125 33.59375 26.515625 31.984375 
L 29.59375 31.296875 
Q 39.15625 29.25 43.1875 25.515625 
Q 47.21875 21.78125 47.21875 15.09375 
Q 47.21875 7.46875 41.1875 3.015625 
Q 35.15625 -1.421875 24.609375 -1.421875 
Q 20.21875 -1.421875 15.453125 -0.5625 
Q 10.6875 0.296875 5.421875 2 
L 5.421875 11.28125 
Q 10.40625 8.6875 15.234375 7.390625 
Q 20.0625 6.109375 24.8125 6.109375 
Q 31.15625 6.109375 34.5625 8.28125 
Q 37.984375 10.453125 37.984375 14.40625 
Q 37.984375 18.0625 35.515625 20.015625 
Q 33.0625 21.96875 24.703125 23.78125 
L 21.578125 24.515625 
Q 13.234375 26.265625 9.515625 29.90625 
Q 5.8125 33.546875 5.8125 39.890625 
Q 5.8125 47.609375 11.28125 51.796875 
Q 16.75 56 26.8125 56 
Q 31.78125 56 36.171875 55.265625 
Q 40.578125 54.546875 44.28125 53.078125 
z
" id="DejaVuSans-73"/>
      <path d="M 18.3125 70.21875 
L 18.3125 54.6875 
L 36.8125 54.6875 
L 36.8125 47.703125 
L 18.3125 47.703125 
L 18.3125 18.015625 
Q 18.3125 11.328125 20.140625 9.421875 
Q 21.96875 7.515625 27.59375 7.515625 
L 36.8125 7.515625 
L 36.8125 0 
L 27.59375 0 
Q 17.1875 0 13.234375 3.875 
Q 9.28125 7.765625 9.28125 18.015625 
L 9.28125 47.703125 
L 2.6875 47.703125 
L 2.6875 54.6875 
L 9.28125 54.6875 
L 9.28125 70.21875 
z
" id="DejaVuSans-74"/>
     </defs>
     <g transform="translate(408.551847 668.435763)scale(0.1 -0.1)">
      <use xlink:href="#DejaVuSans-73"/>
      <use x="52.099609" xlink:href="#DejaVuSans-74"/>
      <use x="91.308594" xlink:href="#DejaVuSans-64"/>
     </g>
    </g>
   </g>
   <g id="matplotlib.axis_6">
    <g id="ytick_17">
     <g id="line2d_40">
      <g>
       <use style="stroke:#000000;stroke-width:0.8;" x="172.8" xlink:href="#mb281b7f02d" y="626.967404"/>
      </g>
     </g>
     <g id="text_41">
      <!-- 4 -->
      <g transform="translate(159.4375 630.766622)scale(0.1 -0.1)">
       <use xlink:href="#DejaVuSans-34"/>
      </g>
     </g>
    </g>
    <g id="ytick_18">
     <g id="line2d_41">
      <g>
       <use style="stroke:#000000;stroke-width:0.8;" x="172.8" xlink:href="#mb281b7f02d" y="583.249769"/>
      </g>
     </g>
     <g id="text_42">
      <!-- 6 -->
      <g transform="translate(159.4375 587.048988)scale(0.1 -0.1)">
       <use xlink:href="#DejaVuSans-36"/>
      </g>
     </g>
    </g>
    <g id="ytick_19">
     <g id="line2d_42">
      <g>
       <use style="stroke:#000000;stroke-width:0.8;" x="172.8" xlink:href="#mb281b7f02d" y="539.532134"/>
      </g>
     </g>
     <g id="text_43">
      <!-- 8 -->
      <defs>
       <path d="M 31.78125 34.625 
Q 24.75 34.625 20.71875 30.859375 
Q 16.703125 27.09375 16.703125 20.515625 
Q 16.703125 13.921875 20.71875 10.15625 
Q 24.75 6.390625 31.78125 6.390625 
Q 38.8125 6.390625 42.859375 10.171875 
Q 46.921875 13.96875 46.921875 20.515625 
Q 46.921875 27.09375 42.890625 30.859375 
Q 38.875 34.625 31.78125 34.625 
z
M 21.921875 38.8125 
Q 15.578125 40.375 12.03125 44.71875 
Q 8.5 49.078125 8.5 55.328125 
Q 8.5 64.0625 14.71875 69.140625 
Q 20.953125 74.21875 31.78125 74.21875 
Q 42.671875 74.21875 48.875 69.140625 
Q 55.078125 64.0625 55.078125 55.328125 
Q 55.078125 49.078125 51.53125 44.71875 
Q 48 40.375 41.703125 38.8125 
Q 48.828125 37.15625 52.796875 32.3125 
Q 56.78125 27.484375 56.78125 20.515625 
Q 56.78125 9.90625 50.3125 4.234375 
Q 43.84375 -1.421875 31.78125 -1.421875 
Q 19.734375 -1.421875 13.25 4.234375 
Q 6.78125 9.90625 6.78125 20.515625 
Q 6.78125 27.484375 10.78125 32.3125 
Q 14.796875 37.15625 21.921875 38.8125 
z
M 18.3125 54.390625 
Q 18.3125 48.734375 21.84375 45.5625 
Q 25.390625 42.390625 31.78125 42.390625 
Q 38.140625 42.390625 41.71875 45.5625 
Q 45.3125 48.734375 45.3125 54.390625 
Q 45.3125 60.0625 41.71875 63.234375 
Q 38.140625 66.40625 31.78125 66.40625 
Q 25.390625 66.40625 21.84375 63.234375 
Q 18.3125 60.0625 18.3125 54.390625 
z
" id="DejaVuSans-38"/>
      </defs>
      <g transform="translate(159.4375 543.331353)scale(0.1 -0.1)">
       <use xlink:href="#DejaVuSans-38"/>
      </g>
     </g>
    </g>
    <g id="ytick_20">
     <g id="line2d_43">
      <g>
       <use style="stroke:#000000;stroke-width:0.8;" x="172.8" xlink:href="#mb281b7f02d" y="495.814499"/>
      </g>
     </g>
     <g id="text_44">
      <!-- 10 -->
      <g transform="translate(153.075 499.613718)scale(0.1 -0.1)">
       <use xlink:href="#DejaVuSans-31"/>
       <use x="63.623047" xlink:href="#DejaVuSans-30"/>
      </g>
     </g>
    </g>
    <g id="ytick_21">
     <g id="line2d_44">
      <g>
       <use style="stroke:#000000;stroke-width:0.8;" x="172.8" xlink:href="#mb281b7f02d" y="452.096864"/>
      </g>
     </g>
     <g id="text_45">
      <!-- 12 -->
      <g transform="translate(153.075 455.896083)scale(0.1 -0.1)">
       <use xlink:href="#DejaVuSans-31"/>
       <use x="63.623047" xlink:href="#DejaVuSans-32"/>
      </g>
     </g>
    </g>
    <g id="ytick_22">
     <g id="line2d_45">
      <g>
       <use style="stroke:#000000;stroke-width:0.8;" x="172.8" xlink:href="#mb281b7f02d" y="408.37923"/>
      </g>
     </g>
     <g id="text_46">
      <!-- 14 -->
      <g transform="translate(153.075 412.178448)scale(0.1 -0.1)">
       <use xlink:href="#DejaVuSans-31"/>
       <use x="63.623047" xlink:href="#DejaVuSans-34"/>
      </g>
     </g>
    </g>
   </g>
   <g id="line2d_46">
    <path clip-path="url(#p26732f3958)" d="M 194.935537 583.031181 
L 202.439109 566.637068 
L 209.942681 606.638704 
L 217.446253 515.050259 
L 224.949825 543.903898 
L 232.453397 579.315182 
L 239.956969 544.996838 
L 247.460541 588.058709 
L 254.964113 594.834942 
L 262.467685 590.24459 
L 269.971256 568.604361 
L 277.474828 578.878005 
L 284.9784 587.840121 
L 292.481972 502.153556 
L 299.985544 584.779886 
L 307.489116 628.716109 
L 314.992688 555.270483 
L 322.49626 594.179178 
L 329.999832 578.222241 
L 337.503404 556.8006 
L 345.006976 617.568112 
L 352.510548 513.73873 
L 360.01412 566.199891 
L 367.517692 521.826492 
L 375.021263 593.304825 
L 382.524835 551.773072 
L 390.028407 499.093322 
L 397.531979 553.740365 
L 405.035551 574.72483 
L 412.539123 595.05353 
L 420.042695 576.692124 
L 427.546267 609.917526 
L 435.049839 587.840121 
L 442.553411 583.468357 
L 450.056983 547.838485 
L 457.560555 568.385773 
L 465.064127 578.878005 
L 472.567699 598.113765 
L 480.07127 581.282475 
L 487.574842 548.931426 
L 495.078414 534.723194 
L 502.581986 569.91589 
L 510.085558 618.879641 
L 517.58913 556.582012 
L 525.092702 607.07588 
L 532.596274 535.378959 
L 540.099846 493.847206 
L 547.603418 588.495885 
L 555.10699 511.33426 
L 562.610562 473.955682 
L 570.114134 443.571926 
L 577.617706 557.456364 
L 585.121277 568.822949 
L 592.624849 561.390951 
L 600.128421 558.330717 
L 607.631993 485.540855 
L 615.135565 521.607904 
L 622.639137 399.854291 
L 630.142709 504.776614 
L 637.646281 454.282746 
" style="fill:none;stroke:#000000;stroke-dasharray:5.55,2.4;stroke-dashoffset:0;stroke-width:1.5;"/>
    <g clip-path="url(#p26732f3958)">
     <use style="stroke:#000000;" x="194.935537" xlink:href="#ma17f969f9d" y="583.031181"/>
     <use style="stroke:#000000;" x="202.439109" xlink:href="#ma17f969f9d" y="566.637068"/>
     <use style="stroke:#000000;" x="209.942681" xlink:href="#ma17f969f9d" y="606.638704"/>
     <use style="stroke:#000000;" x="217.446253" xlink:href="#ma17f969f9d" y="515.050259"/>
     <use style="stroke:#000000;" x="224.949825" xlink:href="#ma17f969f9d" y="543.903898"/>
     <use style="stroke:#000000;" x="232.453397" xlink:href="#ma17f969f9d" y="579.315182"/>
     <use style="stroke:#000000;" x="239.956969" xlink:href="#ma17f969f9d" y="544.996838"/>
     <use style="stroke:#000000;" x="247.460541" xlink:href="#ma17f969f9d" y="588.058709"/>
     <use style="stroke:#000000;" x="254.964113" xlink:href="#ma17f969f9d" y="594.834942"/>
     <use style="stroke:#000000;" x="262.467685" xlink:href="#ma17f969f9d" y="590.24459"/>
     <use style="stroke:#000000;" x="269.971256" xlink:href="#ma17f969f9d" y="568.604361"/>
     <use style="stroke:#000000;" x="277.474828" xlink:href="#ma17f969f9d" y="578.878005"/>
     <use style="stroke:#000000;" x="284.9784" xlink:href="#ma17f969f9d" y="587.840121"/>
     <use style="stroke:#000000;" x="292.481972" xlink:href="#ma17f969f9d" y="502.153556"/>
     <use style="stroke:#000000;" x="299.985544" xlink:href="#ma17f969f9d" y="584.779886"/>
     <use style="stroke:#000000;" x="307.489116" xlink:href="#ma17f969f9d" y="628.716109"/>
     <use style="stroke:#000000;" x="314.992688" xlink:href="#ma17f969f9d" y="555.270483"/>
     <use style="stroke:#000000;" x="322.49626" xlink:href="#ma17f969f9d" y="594.179178"/>
     <use style="stroke:#000000;" x="329.999832" xlink:href="#ma17f969f9d" y="578.222241"/>
     <use style="stroke:#000000;" x="337.503404" xlink:href="#ma17f969f9d" y="556.8006"/>
     <use style="stroke:#000000;" x="345.006976" xlink:href="#ma17f969f9d" y="617.568112"/>
     <use style="stroke:#000000;" x="352.510548" xlink:href="#ma17f969f9d" y="513.73873"/>
     <use style="stroke:#000000;" x="360.01412" xlink:href="#ma17f969f9d" y="566.199891"/>
     <use style="stroke:#000000;" x="367.517692" xlink:href="#ma17f969f9d" y="521.826492"/>
     <use style="stroke:#000000;" x="375.021263" xlink:href="#ma17f969f9d" y="593.304825"/>
     <use style="stroke:#000000;" x="382.524835" xlink:href="#ma17f969f9d" y="551.773072"/>
     <use style="stroke:#000000;" x="390.028407" xlink:href="#ma17f969f9d" y="499.093322"/>
     <use style="stroke:#000000;" x="397.531979" xlink:href="#ma17f969f9d" y="553.740365"/>
     <use style="stroke:#000000;" x="405.035551" xlink:href="#ma17f969f9d" y="574.72483"/>
     <use style="stroke:#000000;" x="412.539123" xlink:href="#ma17f969f9d" y="595.05353"/>
     <use style="stroke:#000000;" x="420.042695" xlink:href="#ma17f969f9d" y="576.692124"/>
     <use style="stroke:#000000;" x="427.546267" xlink:href="#ma17f969f9d" y="609.917526"/>
     <use style="stroke:#000000;" x="435.049839" xlink:href="#ma17f969f9d" y="587.840121"/>
     <use style="stroke:#000000;" x="442.553411" xlink:href="#ma17f969f9d" y="583.468357"/>
     <use style="stroke:#000000;" x="450.056983" xlink:href="#ma17f969f9d" y="547.838485"/>
     <use style="stroke:#000000;" x="457.560555" xlink:href="#ma17f969f9d" y="568.385773"/>
     <use style="stroke:#000000;" x="465.064127" xlink:href="#ma17f969f9d" y="578.878005"/>
     <use style="stroke:#000000;" x="472.567699" xlink:href="#ma17f969f9d" y="598.113765"/>
     <use style="stroke:#000000;" x="480.07127" xlink:href="#ma17f969f9d" y="581.282475"/>
     <use style="stroke:#000000;" x="487.574842" xlink:href="#ma17f969f9d" y="548.931426"/>
     <use style="stroke:#000000;" x="495.078414" xlink:href="#ma17f969f9d" y="534.723194"/>
     <use style="stroke:#000000;" x="502.581986" xlink:href="#ma17f969f9d" y="569.91589"/>
     <use style="stroke:#000000;" x="510.085558" xlink:href="#ma17f969f9d" y="618.879641"/>
     <use style="stroke:#000000;" x="517.58913" xlink:href="#ma17f969f9d" y="556.582012"/>
     <use style="stroke:#000000;" x="525.092702" xlink:href="#ma17f969f9d" y="607.07588"/>
     <use style="stroke:#000000;" x="532.596274" xlink:href="#ma17f969f9d" y="535.378959"/>
     <use style="stroke:#000000;" x="540.099846" xlink:href="#ma17f969f9d" y="493.847206"/>
     <use style="stroke:#000000;" x="547.603418" xlink:href="#ma17f969f9d" y="588.495885"/>
     <use style="stroke:#000000;" x="555.10699" xlink:href="#ma17f969f9d" y="511.33426"/>
     <use style="stroke:#000000;" x="562.610562" xlink:href="#ma17f969f9d" y="473.955682"/>
     <use style="stroke:#000000;" x="570.114134" xlink:href="#ma17f969f9d" y="443.571926"/>
     <use style="stroke:#000000;" x="577.617706" xlink:href="#ma17f969f9d" y="557.456364"/>
     <use style="stroke:#000000;" x="585.121277" xlink:href="#ma17f969f9d" y="568.822949"/>
     <use style="stroke:#000000;" x="592.624849" xlink:href="#ma17f969f9d" y="561.390951"/>
     <use style="stroke:#000000;" x="600.128421" xlink:href="#ma17f969f9d" y="558.330717"/>
     <use style="stroke:#000000;" x="607.631993" xlink:href="#ma17f969f9d" y="485.540855"/>
     <use style="stroke:#000000;" x="615.135565" xlink:href="#ma17f969f9d" y="521.607904"/>
     <use style="stroke:#000000;" x="622.639137" xlink:href="#ma17f969f9d" y="399.854291"/>
     <use style="stroke:#000000;" x="630.142709" xlink:href="#ma17f969f9d" y="504.776614"/>
     <use style="stroke:#000000;" x="637.646281" xlink:href="#ma17f969f9d" y="454.282746"/>
    </g>
   </g>
   <g id="patch_13">
    <path d="M 172.8 640.1592 
L 172.8 388.4112 
" style="fill:none;stroke:#000000;stroke-linecap:square;stroke-linejoin:miter;stroke-width:0.8;"/>
   </g>
   <g id="patch_14">
    <path d="M 659.781818 640.1592 
L 659.781818 388.4112 
" style="fill:none;stroke:#000000;stroke-linecap:square;stroke-linejoin:miter;stroke-width:0.8;"/>
   </g>
   <g id="patch_15">
    <path d="M 172.8 640.1592 
L 659.781818 640.1592 
" style="fill:none;stroke:#000000;stroke-linecap:square;stroke-linejoin:miter;stroke-width:0.8;"/>
   </g>
   <g id="patch_16">
    <path d="M 172.8 388.4112 
L 659.781818 388.4112 
" style="fill:none;stroke:#000000;stroke-linecap:square;stroke-linejoin:miter;stroke-width:0.8;"/>
   </g>
  </g>
  <g id="axes_4">
   <g id="patch_17">
    <path d="M 757.178182 640.1592 
L 1244.16 640.1592 
L 1244.16 388.4112 
L 757.178182 388.4112 
z
" style="fill:#ffffff;"/>
   </g>
   <g id="matplotlib.axis_7">
    <g id="xtick_22">
     <g id="line2d_47">
      <g>
       <use style="stroke:#000000;stroke-width:0.8;" x="779.313719" xlink:href="#m6e19139385" y="640.1592"/>
      </g>
     </g>
     <g id="text_47">
      <!-- 0 -->
      <g transform="translate(776.132469 654.757637)scale(0.1 -0.1)">
       <use xlink:href="#DejaVuSans-30"/>
      </g>
     </g>
    </g>
    <g id="xtick_23">
     <g id="line2d_48">
      <g>
       <use style="stroke:#000000;stroke-width:0.8;" x="854.349438" xlink:href="#m6e19139385" y="640.1592"/>
      </g>
     </g>
     <g id="text_48">
      <!-- 10 -->
      <g transform="translate(847.986938 654.757637)scale(0.1 -0.1)">
       <use xlink:href="#DejaVuSans-31"/>
       <use x="63.623047" xlink:href="#DejaVuSans-30"/>
      </g>
     </g>
    </g>
    <g id="xtick_24">
     <g id="line2d_49">
      <g>
       <use style="stroke:#000000;stroke-width:0.8;" x="929.385158" xlink:href="#m6e19139385" y="640.1592"/>
      </g>
     </g>
     <g id="text_49">
      <!-- 20 -->
      <g transform="translate(923.022658 654.757637)scale(0.1 -0.1)">
       <use xlink:href="#DejaVuSans-32"/>
       <use x="63.623047" xlink:href="#DejaVuSans-30"/>
      </g>
     </g>
    </g>
    <g id="xtick_25">
     <g id="line2d_50">
      <g>
       <use style="stroke:#000000;stroke-width:0.8;" x="1004.420877" xlink:href="#m6e19139385" y="640.1592"/>
      </g>
     </g>
     <g id="text_50">
      <!-- 30 -->
      <g transform="translate(998.058377 654.757637)scale(0.1 -0.1)">
       <use xlink:href="#DejaVuSans-33"/>
       <use x="63.623047" xlink:href="#DejaVuSans-30"/>
      </g>
     </g>
    </g>
    <g id="xtick_26">
     <g id="line2d_51">
      <g>
       <use style="stroke:#000000;stroke-width:0.8;" x="1079.456596" xlink:href="#m6e19139385" y="640.1592"/>
      </g>
     </g>
     <g id="text_51">
      <!-- 40 -->
      <g transform="translate(1073.094096 654.757637)scale(0.1 -0.1)">
       <use xlink:href="#DejaVuSans-34"/>
       <use x="63.623047" xlink:href="#DejaVuSans-30"/>
      </g>
     </g>
    </g>
    <g id="xtick_27">
     <g id="line2d_52">
      <g>
       <use style="stroke:#000000;stroke-width:0.8;" x="1154.492315" xlink:href="#m6e19139385" y="640.1592"/>
      </g>
     </g>
     <g id="text_52">
      <!-- 50 -->
      <g transform="translate(1148.129815 654.757637)scale(0.1 -0.1)">
       <use xlink:href="#DejaVuSans-35"/>
       <use x="63.623047" xlink:href="#DejaVuSans-30"/>
      </g>
     </g>
    </g>
    <g id="xtick_28">
     <g id="line2d_53">
      <g>
       <use style="stroke:#000000;stroke-width:0.8;" x="1229.528035" xlink:href="#m6e19139385" y="640.1592"/>
      </g>
     </g>
     <g id="text_53">
      <!-- 60 -->
      <g transform="translate(1223.165535 654.757637)scale(0.1 -0.1)">
       <use xlink:href="#DejaVuSans-36"/>
       <use x="63.623047" xlink:href="#DejaVuSans-30"/>
      </g>
     </g>
    </g>
    <g id="text_54">
     <!-- passive_cnt -->
     <defs>
      <path d="M 18.109375 8.203125 
L 18.109375 -20.796875 
L 9.078125 -20.796875 
L 9.078125 54.6875 
L 18.109375 54.6875 
L 18.109375 46.390625 
Q 20.953125 51.265625 25.265625 53.625 
Q 29.59375 56 35.59375 56 
Q 45.5625 56 51.78125 48.09375 
Q 58.015625 40.1875 58.015625 27.296875 
Q 58.015625 14.40625 51.78125 6.484375 
Q 45.5625 -1.421875 35.59375 -1.421875 
Q 29.59375 -1.421875 25.265625 0.953125 
Q 20.953125 3.328125 18.109375 8.203125 
z
M 48.6875 27.296875 
Q 48.6875 37.203125 44.609375 42.84375 
Q 40.53125 48.484375 33.40625 48.484375 
Q 26.265625 48.484375 22.1875 42.84375 
Q 18.109375 37.203125 18.109375 27.296875 
Q 18.109375 17.390625 22.1875 11.75 
Q 26.265625 6.109375 33.40625 6.109375 
Q 40.53125 6.109375 44.609375 11.75 
Q 48.6875 17.390625 48.6875 27.296875 
z
" id="DejaVuSans-70"/>
      <path d="M 50.984375 -16.609375 
L 50.984375 -23.578125 
L -0.984375 -23.578125 
L -0.984375 -16.609375 
z
" id="DejaVuSans-5f"/>
      <path d="M 48.78125 52.59375 
L 48.78125 44.1875 
Q 44.96875 46.296875 41.140625 47.34375 
Q 37.3125 48.390625 33.40625 48.390625 
Q 24.65625 48.390625 19.8125 42.84375 
Q 14.984375 37.3125 14.984375 27.296875 
Q 14.984375 17.28125 19.8125 11.734375 
Q 24.65625 6.203125 33.40625 6.203125 
Q 37.3125 6.203125 41.140625 7.25 
Q 44.96875 8.296875 48.78125 10.40625 
L 48.78125 2.09375 
Q 45.015625 0.34375 40.984375 -0.53125 
Q 36.96875 -1.421875 32.421875 -1.421875 
Q 20.0625 -1.421875 12.78125 6.34375 
Q 5.515625 14.109375 5.515625 27.296875 
Q 5.515625 40.671875 12.859375 48.328125 
Q 20.21875 56 33.015625 56 
Q 37.15625 56 41.109375 55.140625 
Q 45.0625 54.296875 48.78125 52.59375 
z
" id="DejaVuSans-63"/>
     </defs>
     <g transform="translate(971.41831 668.435763)scale(0.1 -0.1)">
      <use xlink:href="#DejaVuSans-70"/>
      <use x="63.476562" xlink:href="#DejaVuSans-61"/>
      <use x="124.755859" xlink:href="#DejaVuSans-73"/>
      <use x="176.855469" xlink:href="#DejaVuSans-73"/>
      <use x="228.955078" xlink:href="#DejaVuSans-69"/>
      <use x="256.738281" xlink:href="#DejaVuSans-76"/>
      <use x="315.917969" xlink:href="#DejaVuSans-65"/>
      <use x="377.441406" xlink:href="#DejaVuSans-5f"/>
      <use x="427.441406" xlink:href="#DejaVuSans-63"/>
      <use x="482.421875" xlink:href="#DejaVuSans-6e"/>
      <use x="545.800781" xlink:href="#DejaVuSans-74"/>
     </g>
    </g>
   </g>
   <g id="matplotlib.axis_8">
    <g id="ytick_23">
     <g id="line2d_54">
      <g>
       <use style="stroke:#000000;stroke-width:0.8;" x="757.178182" xlink:href="#mb281b7f02d" y="628.716109"/>
      </g>
     </g>
     <g id="text_55">
      <!-- 0 -->
      <g transform="translate(743.815682 632.515328)scale(0.1 -0.1)">
       <use xlink:href="#DejaVuSans-30"/>
      </g>
     </g>
    </g>
    <g id="ytick_24">
     <g id="line2d_55">
      <g>
       <use style="stroke:#000000;stroke-width:0.8;" x="757.178182" xlink:href="#mb281b7f02d" y="600.108382"/>
      </g>
     </g>
     <g id="text_56">
      <!-- 2 -->
      <g transform="translate(743.815682 603.907601)scale(0.1 -0.1)">
       <use xlink:href="#DejaVuSans-32"/>
      </g>
     </g>
    </g>
    <g id="ytick_25">
     <g id="line2d_56">
      <g>
       <use style="stroke:#000000;stroke-width:0.8;" x="757.178182" xlink:href="#mb281b7f02d" y="571.500655"/>
      </g>
     </g>
     <g id="text_57">
      <!-- 4 -->
      <g transform="translate(743.815682 575.299873)scale(0.1 -0.1)">
       <use xlink:href="#DejaVuSans-34"/>
      </g>
     </g>
    </g>
    <g id="ytick_26">
     <g id="line2d_57">
      <g>
       <use style="stroke:#000000;stroke-width:0.8;" x="757.178182" xlink:href="#mb281b7f02d" y="542.892927"/>
      </g>
     </g>
     <g id="text_58">
      <!-- 6 -->
      <g transform="translate(743.815682 546.692146)scale(0.1 -0.1)">
       <use xlink:href="#DejaVuSans-36"/>
      </g>
     </g>
    </g>
    <g id="ytick_27">
     <g id="line2d_58">
      <g>
       <use style="stroke:#000000;stroke-width:0.8;" x="757.178182" xlink:href="#mb281b7f02d" y="514.2852"/>
      </g>
     </g>
     <g id="text_59">
      <!-- 8 -->
      <g transform="translate(743.815682 518.084419)scale(0.1 -0.1)">
       <use xlink:href="#DejaVuSans-38"/>
      </g>
     </g>
    </g>
    <g id="ytick_28">
     <g id="line2d_59">
      <g>
       <use style="stroke:#000000;stroke-width:0.8;" x="757.178182" xlink:href="#mb281b7f02d" y="485.677473"/>
      </g>
     </g>
     <g id="text_60">
      <!-- 10 -->
      <g transform="translate(737.453182 489.476691)scale(0.1 -0.1)">
       <use xlink:href="#DejaVuSans-31"/>
       <use x="63.623047" xlink:href="#DejaVuSans-30"/>
      </g>
     </g>
    </g>
    <g id="ytick_29">
     <g id="line2d_60">
      <g>
       <use style="stroke:#000000;stroke-width:0.8;" x="757.178182" xlink:href="#mb281b7f02d" y="457.069745"/>
      </g>
     </g>
     <g id="text_61">
      <!-- 12 -->
      <g transform="translate(737.453182 460.868964)scale(0.1 -0.1)">
       <use xlink:href="#DejaVuSans-31"/>
       <use x="63.623047" xlink:href="#DejaVuSans-32"/>
      </g>
     </g>
    </g>
    <g id="ytick_30">
     <g id="line2d_61">
      <g>
       <use style="stroke:#000000;stroke-width:0.8;" x="757.178182" xlink:href="#mb281b7f02d" y="428.462018"/>
      </g>
     </g>
     <g id="text_62">
      <!-- 14 -->
      <g transform="translate(737.453182 432.261237)scale(0.1 -0.1)">
       <use xlink:href="#DejaVuSans-31"/>
       <use x="63.623047" xlink:href="#DejaVuSans-34"/>
      </g>
     </g>
    </g>
    <g id="ytick_31">
     <g id="line2d_62">
      <g>
       <use style="stroke:#000000;stroke-width:0.8;" x="757.178182" xlink:href="#mb281b7f02d" y="399.854291"/>
      </g>
     </g>
     <g id="text_63">
      <!-- 16 -->
      <g transform="translate(737.453182 403.65351)scale(0.1 -0.1)">
       <use xlink:href="#DejaVuSans-31"/>
       <use x="63.623047" xlink:href="#DejaVuSans-36"/>
      </g>
     </g>
    </g>
   </g>
   <g id="line2d_63">
    <path clip-path="url(#p81d1b2e3e6)" d="M 779.313719 499.981336 
L 786.817291 571.500655 
L 794.320863 442.765882 
L 801.824435 571.500655 
L 809.328007 542.892927 
L 816.831579 542.892927 
L 824.335151 628.716109 
L 831.838723 514.2852 
L 839.342294 585.804518 
L 846.845866 485.677473 
L 854.349438 528.589064 
L 861.85301 557.196791 
L 869.356582 557.196791 
L 876.860154 571.500655 
L 884.363726 557.196791 
L 891.867298 542.892927 
L 899.37087 514.2852 
L 906.874442 528.589064 
L 914.378014 542.892927 
L 921.881586 557.196791 
L 929.385158 414.158155 
L 936.88873 557.196791 
L 944.392301 485.677473 
L 951.895873 514.2852 
L 959.399445 485.677473 
L 966.903017 557.196791 
L 974.406589 571.500655 
L 981.910161 499.981336 
L 989.413733 499.981336 
L 996.917305 471.373609 
L 1004.420877 499.981336 
L 1011.924449 428.462018 
L 1019.428021 514.2852 
L 1026.931593 528.589064 
L 1034.435165 442.765882 
L 1041.938737 485.677473 
L 1049.442308 499.981336 
L 1056.94588 457.069745 
L 1064.449452 557.196791 
L 1071.953024 542.892927 
L 1079.456596 528.589064 
L 1086.960168 471.373609 
L 1094.46374 399.854291 
L 1101.967312 457.069745 
L 1109.470884 499.981336 
L 1116.974456 471.373609 
L 1124.478028 514.2852 
L 1131.9816 457.069745 
L 1139.485172 457.069745 
L 1146.988744 528.589064 
L 1154.492315 485.677473 
L 1161.995887 485.677473 
L 1169.499459 414.158155 
L 1177.003031 471.373609 
L 1184.506603 471.373609 
L 1192.010175 499.981336 
L 1199.513747 485.677473 
L 1207.017319 414.158155 
L 1214.520891 485.677473 
L 1222.024463 428.462018 
" style="fill:none;stroke:#000000;stroke-dasharray:5.55,2.4;stroke-dashoffset:0;stroke-width:1.5;"/>
    <g clip-path="url(#p81d1b2e3e6)">
     <use style="stroke:#000000;" x="779.313719" xlink:href="#ma17f969f9d" y="499.981336"/>
     <use style="stroke:#000000;" x="786.817291" xlink:href="#ma17f969f9d" y="571.500655"/>
     <use style="stroke:#000000;" x="794.320863" xlink:href="#ma17f969f9d" y="442.765882"/>
     <use style="stroke:#000000;" x="801.824435" xlink:href="#ma17f969f9d" y="571.500655"/>
     <use style="stroke:#000000;" x="809.328007" xlink:href="#ma17f969f9d" y="542.892927"/>
     <use style="stroke:#000000;" x="816.831579" xlink:href="#ma17f969f9d" y="542.892927"/>
     <use style="stroke:#000000;" x="824.335151" xlink:href="#ma17f969f9d" y="628.716109"/>
     <use style="stroke:#000000;" x="831.838723" xlink:href="#ma17f969f9d" y="514.2852"/>
     <use style="stroke:#000000;" x="839.342294" xlink:href="#ma17f969f9d" y="585.804518"/>
     <use style="stroke:#000000;" x="846.845866" xlink:href="#ma17f969f9d" y="485.677473"/>
     <use style="stroke:#000000;" x="854.349438" xlink:href="#ma17f969f9d" y="528.589064"/>
     <use style="stroke:#000000;" x="861.85301" xlink:href="#ma17f969f9d" y="557.196791"/>
     <use style="stroke:#000000;" x="869.356582" xlink:href="#ma17f969f9d" y="557.196791"/>
     <use style="stroke:#000000;" x="876.860154" xlink:href="#ma17f969f9d" y="571.500655"/>
     <use style="stroke:#000000;" x="884.363726" xlink:href="#ma17f969f9d" y="557.196791"/>
     <use style="stroke:#000000;" x="891.867298" xlink:href="#ma17f969f9d" y="542.892927"/>
     <use style="stroke:#000000;" x="899.37087" xlink:href="#ma17f969f9d" y="514.2852"/>
     <use style="stroke:#000000;" x="906.874442" xlink:href="#ma17f969f9d" y="528.589064"/>
     <use style="stroke:#000000;" x="914.378014" xlink:href="#ma17f969f9d" y="542.892927"/>
     <use style="stroke:#000000;" x="921.881586" xlink:href="#ma17f969f9d" y="557.196791"/>
     <use style="stroke:#000000;" x="929.385158" xlink:href="#ma17f969f9d" y="414.158155"/>
     <use style="stroke:#000000;" x="936.88873" xlink:href="#ma17f969f9d" y="557.196791"/>
     <use style="stroke:#000000;" x="944.392301" xlink:href="#ma17f969f9d" y="485.677473"/>
     <use style="stroke:#000000;" x="951.895873" xlink:href="#ma17f969f9d" y="514.2852"/>
     <use style="stroke:#000000;" x="959.399445" xlink:href="#ma17f969f9d" y="485.677473"/>
     <use style="stroke:#000000;" x="966.903017" xlink:href="#ma17f969f9d" y="557.196791"/>
     <use style="stroke:#000000;" x="974.406589" xlink:href="#ma17f969f9d" y="571.500655"/>
     <use style="stroke:#000000;" x="981.910161" xlink:href="#ma17f969f9d" y="499.981336"/>
     <use style="stroke:#000000;" x="989.413733" xlink:href="#ma17f969f9d" y="499.981336"/>
     <use style="stroke:#000000;" x="996.917305" xlink:href="#ma17f969f9d" y="471.373609"/>
     <use style="stroke:#000000;" x="1004.420877" xlink:href="#ma17f969f9d" y="499.981336"/>
     <use style="stroke:#000000;" x="1011.924449" xlink:href="#ma17f969f9d" y="428.462018"/>
     <use style="stroke:#000000;" x="1019.428021" xlink:href="#ma17f969f9d" y="514.2852"/>
     <use style="stroke:#000000;" x="1026.931593" xlink:href="#ma17f969f9d" y="528.589064"/>
     <use style="stroke:#000000;" x="1034.435165" xlink:href="#ma17f969f9d" y="442.765882"/>
     <use style="stroke:#000000;" x="1041.938737" xlink:href="#ma17f969f9d" y="485.677473"/>
     <use style="stroke:#000000;" x="1049.442308" xlink:href="#ma17f969f9d" y="499.981336"/>
     <use style="stroke:#000000;" x="1056.94588" xlink:href="#ma17f969f9d" y="457.069745"/>
     <use style="stroke:#000000;" x="1064.449452" xlink:href="#ma17f969f9d" y="557.196791"/>
     <use style="stroke:#000000;" x="1071.953024" xlink:href="#ma17f969f9d" y="542.892927"/>
     <use style="stroke:#000000;" x="1079.456596" xlink:href="#ma17f969f9d" y="528.589064"/>
     <use style="stroke:#000000;" x="1086.960168" xlink:href="#ma17f969f9d" y="471.373609"/>
     <use style="stroke:#000000;" x="1094.46374" xlink:href="#ma17f969f9d" y="399.854291"/>
     <use style="stroke:#000000;" x="1101.967312" xlink:href="#ma17f969f9d" y="457.069745"/>
     <use style="stroke:#000000;" x="1109.470884" xlink:href="#ma17f969f9d" y="499.981336"/>
     <use style="stroke:#000000;" x="1116.974456" xlink:href="#ma17f969f9d" y="471.373609"/>
     <use style="stroke:#000000;" x="1124.478028" xlink:href="#ma17f969f9d" y="514.2852"/>
     <use style="stroke:#000000;" x="1131.9816" xlink:href="#ma17f969f9d" y="457.069745"/>
     <use style="stroke:#000000;" x="1139.485172" xlink:href="#ma17f969f9d" y="457.069745"/>
     <use style="stroke:#000000;" x="1146.988744" xlink:href="#ma17f969f9d" y="528.589064"/>
     <use style="stroke:#000000;" x="1154.492315" xlink:href="#ma17f969f9d" y="485.677473"/>
     <use style="stroke:#000000;" x="1161.995887" xlink:href="#ma17f969f9d" y="485.677473"/>
     <use style="stroke:#000000;" x="1169.499459" xlink:href="#ma17f969f9d" y="414.158155"/>
     <use style="stroke:#000000;" x="1177.003031" xlink:href="#ma17f969f9d" y="471.373609"/>
     <use style="stroke:#000000;" x="1184.506603" xlink:href="#ma17f969f9d" y="471.373609"/>
     <use style="stroke:#000000;" x="1192.010175" xlink:href="#ma17f969f9d" y="499.981336"/>
     <use style="stroke:#000000;" x="1199.513747" xlink:href="#ma17f969f9d" y="485.677473"/>
     <use style="stroke:#000000;" x="1207.017319" xlink:href="#ma17f969f9d" y="414.158155"/>
     <use style="stroke:#000000;" x="1214.520891" xlink:href="#ma17f969f9d" y="485.677473"/>
     <use style="stroke:#000000;" x="1222.024463" xlink:href="#ma17f969f9d" y="428.462018"/>
    </g>
   </g>
   <g id="patch_18">
    <path d="M 757.178182 640.1592 
L 757.178182 388.4112 
" style="fill:none;stroke:#000000;stroke-linecap:square;stroke-linejoin:miter;stroke-width:0.8;"/>
   </g>
   <g id="patch_19">
    <path d="M 1244.16 640.1592 
L 1244.16 388.4112 
" style="fill:none;stroke:#000000;stroke-linecap:square;stroke-linejoin:miter;stroke-width:0.8;"/>
   </g>
   <g id="patch_20">
    <path d="M 757.178182 640.1592 
L 1244.16 640.1592 
" style="fill:none;stroke:#000000;stroke-linecap:square;stroke-linejoin:miter;stroke-width:0.8;"/>
   </g>
   <g id="patch_21">
    <path d="M 757.178182 388.4112 
L 1244.16 388.4112 
" style="fill:none;stroke:#000000;stroke-linecap:square;stroke-linejoin:miter;stroke-width:0.8;"/>
   </g>
  </g>
 </g>
 <defs>
  <clipPath id="pa8e02ed39c">
   <rect height="251.748" width="486.981818" x="172.8" y="86.3136"/>
  </clipPath>
  <clipPath id="pdd3ea8c667">
   <rect height="251.748" width="486.981818" x="757.178182" y="86.3136"/>
  </clipPath>
  <clipPath id="p26732f3958">
   <rect height="251.748" width="486.981818" x="172.8" y="388.4112"/>
  </clipPath>
  <clipPath id="p81d1b2e3e6">
   <rect height="251.748" width="486.981818" x="757.178182" y="388.4112"/>
  </clipPath>
 </defs>
</svg>
