<?xml version="1.0" encoding="utf-8" standalone="no"?>
<!DOCTYPE svg PUBLIC "-//W3C//DTD SVG 1.1//EN"
  "http://www.w3.org/Graphics/SVG/1.1/DTD/svg11.dtd">
<!-- Created with matplotlib (http://matplotlib.org/) -->
<svg height="719.28pt" version="1.1" viewBox="0 0 1382.4 719.28" width="1382.4pt" xmlns="http://www.w3.org/2000/svg" xmlns:xlink="http://www.w3.org/1999/xlink">
 <defs>
  <style type="text/css">
*{stroke-linecap:butt;stroke-linejoin:round;}
  </style>
 </defs>
 <g id="figure_1">
  <g id="patch_1">
   <path d="M 0 719.28 
L 1382.4 719.28 
L 1382.4 0 
L 0 0 
z
" style="fill:#ffffff;"/>
  </g>
  <g id="axes_1">
   <g id="patch_2">
    <path d="M 172.8 338.0616 
L 659.781818 338.0616 
L 659.781818 86.3136 
L 172.8 86.3136 
z
" style="fill:#ffffff;"/>
   </g>
   <g id="matplotlib.axis_1">
    <g id="xtick_1">
     <g id="line2d_1">
      <defs>
       <path d="M 0 0 
L 0 3.5 
" id="mf39af1814c" style="stroke:#000000;stroke-width:0.8;"/>
      </defs>
      <g>
       <use style="stroke:#000000;stroke-width:0.8;" x="194.935537" xlink:href="#mf39af1814c" y="338.0616"/>
      </g>
     </g>
     <g id="text_1">
      <!-- 0 -->
      <defs>
       <path d="M 31.78125 66.40625 
Q 24.171875 66.40625 20.328125 58.90625 
Q 16.5 51.421875 16.5 36.375 
Q 16.5 21.390625 20.328125 13.890625 
Q 24.171875 6.390625 31.78125 6.390625 
Q 39.453125 6.390625 43.28125 13.890625 
Q 47.125 21.390625 47.125 36.375 
Q 47.125 51.421875 43.28125 58.90625 
Q 39.453125 66.40625 31.78125 66.40625 
z
M 31.78125 74.21875 
Q 44.046875 74.21875 50.515625 64.515625 
Q 56.984375 54.828125 56.984375 36.375 
Q 56.984375 17.96875 50.515625 8.265625 
Q 44.046875 -1.421875 31.78125 -1.421875 
Q 19.53125 -1.421875 13.0625 8.265625 
Q 6.59375 17.96875 6.59375 36.375 
Q 6.59375 54.828125 13.0625 64.515625 
Q 19.53125 74.21875 31.78125 74.21875 
z
" id="DejaVuSans-30"/>
      </defs>
      <g transform="translate(191.754287 352.660037)scale(0.1 -0.1)">
       <use xlink:href="#DejaVuSans-30"/>
      </g>
     </g>
    </g>
    <g id="xtick_2">
     <g id="line2d_2">
      <g>
       <use style="stroke:#000000;stroke-width:0.8;" x="269.971256" xlink:href="#mf39af1814c" y="338.0616"/>
      </g>
     </g>
     <g id="text_2">
      <!-- 10 -->
      <defs>
       <path d="M 12.40625 8.296875 
L 28.515625 8.296875 
L 28.515625 63.921875 
L 10.984375 60.40625 
L 10.984375 69.390625 
L 28.421875 72.90625 
L 38.28125 72.90625 
L 38.28125 8.296875 
L 54.390625 8.296875 
L 54.390625 0 
L 12.40625 0 
z
" id="DejaVuSans-31"/>
      </defs>
      <g transform="translate(263.608756 352.660037)scale(0.1 -0.1)">
       <use xlink:href="#DejaVuSans-31"/>
       <use x="63.623047" xlink:href="#DejaVuSans-30"/>
      </g>
     </g>
    </g>
    <g id="xtick_3">
     <g id="line2d_3">
      <g>
       <use style="stroke:#000000;stroke-width:0.8;" x="345.006976" xlink:href="#mf39af1814c" y="338.0616"/>
      </g>
     </g>
     <g id="text_3">
      <!-- 20 -->
      <defs>
       <path d="M 19.1875 8.296875 
L 53.609375 8.296875 
L 53.609375 0 
L 7.328125 0 
L 7.328125 8.296875 
Q 12.9375 14.109375 22.625 23.890625 
Q 32.328125 33.6875 34.8125 36.53125 
Q 39.546875 41.84375 41.421875 45.53125 
Q 43.3125 49.21875 43.3125 52.78125 
Q 43.3125 58.59375 39.234375 62.25 
Q 35.15625 65.921875 28.609375 65.921875 
Q 23.96875 65.921875 18.8125 64.3125 
Q 13.671875 62.703125 7.8125 59.421875 
L 7.8125 69.390625 
Q 13.765625 71.78125 18.9375 73 
Q 24.125 74.21875 28.421875 74.21875 
Q 39.75 74.21875 46.484375 68.546875 
Q 53.21875 62.890625 53.21875 53.421875 
Q 53.21875 48.921875 51.53125 44.890625 
Q 49.859375 40.875 45.40625 35.40625 
Q 44.1875 33.984375 37.640625 27.21875 
Q 31.109375 20.453125 19.1875 8.296875 
z
" id="DejaVuSans-32"/>
      </defs>
      <g transform="translate(338.644476 352.660037)scale(0.1 -0.1)">
       <use xlink:href="#DejaVuSans-32"/>
       <use x="63.623047" xlink:href="#DejaVuSans-30"/>
      </g>
     </g>
    </g>
    <g id="xtick_4">
     <g id="line2d_4">
      <g>
       <use style="stroke:#000000;stroke-width:0.8;" x="420.042695" xlink:href="#mf39af1814c" y="338.0616"/>
      </g>
     </g>
     <g id="text_4">
      <!-- 30 -->
      <defs>
       <path d="M 40.578125 39.3125 
Q 47.65625 37.796875 51.625 33 
Q 55.609375 28.21875 55.609375 21.1875 
Q 55.609375 10.40625 48.1875 4.484375 
Q 40.765625 -1.421875 27.09375 -1.421875 
Q 22.515625 -1.421875 17.65625 -0.515625 
Q 12.796875 0.390625 7.625 2.203125 
L 7.625 11.71875 
Q 11.71875 9.328125 16.59375 8.109375 
Q 21.484375 6.890625 26.8125 6.890625 
Q 36.078125 6.890625 40.9375 10.546875 
Q 45.796875 14.203125 45.796875 21.1875 
Q 45.796875 27.640625 41.28125 31.265625 
Q 36.765625 34.90625 28.71875 34.90625 
L 20.21875 34.90625 
L 20.21875 43.015625 
L 29.109375 43.015625 
Q 36.375 43.015625 40.234375 45.921875 
Q 44.09375 48.828125 44.09375 54.296875 
Q 44.09375 59.90625 40.109375 62.90625 
Q 36.140625 65.921875 28.71875 65.921875 
Q 24.65625 65.921875 20.015625 65.03125 
Q 15.375 64.15625 9.8125 62.3125 
L 9.8125 71.09375 
Q 15.4375 72.65625 20.34375 73.4375 
Q 25.25 74.21875 29.59375 74.21875 
Q 40.828125 74.21875 47.359375 69.109375 
Q 53.90625 64.015625 53.90625 55.328125 
Q 53.90625 49.265625 50.4375 45.09375 
Q 46.96875 40.921875 40.578125 39.3125 
z
" id="DejaVuSans-33"/>
      </defs>
      <g transform="translate(413.680195 352.660037)scale(0.1 -0.1)">
       <use xlink:href="#DejaVuSans-33"/>
       <use x="63.623047" xlink:href="#DejaVuSans-30"/>
      </g>
     </g>
    </g>
    <g id="xtick_5">
     <g id="line2d_5">
      <g>
       <use style="stroke:#000000;stroke-width:0.8;" x="495.078414" xlink:href="#mf39af1814c" y="338.0616"/>
      </g>
     </g>
     <g id="text_5">
      <!-- 40 -->
      <defs>
       <path d="M 37.796875 64.3125 
L 12.890625 25.390625 
L 37.796875 25.390625 
z
M 35.203125 72.90625 
L 47.609375 72.90625 
L 47.609375 25.390625 
L 58.015625 25.390625 
L 58.015625 17.1875 
L 47.609375 17.1875 
L 47.609375 0 
L 37.796875 0 
L 37.796875 17.1875 
L 4.890625 17.1875 
L 4.890625 26.703125 
z
" id="DejaVuSans-34"/>
      </defs>
      <g transform="translate(488.715914 352.660037)scale(0.1 -0.1)">
       <use xlink:href="#DejaVuSans-34"/>
       <use x="63.623047" xlink:href="#DejaVuSans-30"/>
      </g>
     </g>
    </g>
    <g id="xtick_6">
     <g id="line2d_6">
      <g>
       <use style="stroke:#000000;stroke-width:0.8;" x="570.114134" xlink:href="#mf39af1814c" y="338.0616"/>
      </g>
     </g>
     <g id="text_6">
      <!-- 50 -->
      <defs>
       <path d="M 10.796875 72.90625 
L 49.515625 72.90625 
L 49.515625 64.59375 
L 19.828125 64.59375 
L 19.828125 46.734375 
Q 21.96875 47.46875 24.109375 47.828125 
Q 26.265625 48.1875 28.421875 48.1875 
Q 40.625 48.1875 47.75 41.5 
Q 54.890625 34.8125 54.890625 23.390625 
Q 54.890625 11.625 47.5625 5.09375 
Q 40.234375 -1.421875 26.90625 -1.421875 
Q 22.3125 -1.421875 17.546875 -0.640625 
Q 12.796875 0.140625 7.71875 1.703125 
L 7.71875 11.625 
Q 12.109375 9.234375 16.796875 8.0625 
Q 21.484375 6.890625 26.703125 6.890625 
Q 35.15625 6.890625 40.078125 11.328125 
Q 45.015625 15.765625 45.015625 23.390625 
Q 45.015625 31 40.078125 35.4375 
Q 35.15625 39.890625 26.703125 39.890625 
Q 22.75 39.890625 18.8125 39.015625 
Q 14.890625 38.140625 10.796875 36.28125 
z
" id="DejaVuSans-35"/>
      </defs>
      <g transform="translate(563.751634 352.660037)scale(0.1 -0.1)">
       <use xlink:href="#DejaVuSans-35"/>
       <use x="63.623047" xlink:href="#DejaVuSans-30"/>
      </g>
     </g>
    </g>
    <g id="xtick_7">
     <g id="line2d_7">
      <g>
       <use style="stroke:#000000;stroke-width:0.8;" x="645.149853" xlink:href="#mf39af1814c" y="338.0616"/>
      </g>
     </g>
     <g id="text_7">
      <!-- 60 -->
      <defs>
       <path d="M 33.015625 40.375 
Q 26.375 40.375 22.484375 35.828125 
Q 18.609375 31.296875 18.609375 23.390625 
Q 18.609375 15.53125 22.484375 10.953125 
Q 26.375 6.390625 33.015625 6.390625 
Q 39.65625 6.390625 43.53125 10.953125 
Q 47.40625 15.53125 47.40625 23.390625 
Q 47.40625 31.296875 43.53125 35.828125 
Q 39.65625 40.375 33.015625 40.375 
z
M 52.59375 71.296875 
L 52.59375 62.3125 
Q 48.875 64.0625 45.09375 64.984375 
Q 41.3125 65.921875 37.59375 65.921875 
Q 27.828125 65.921875 22.671875 59.328125 
Q 17.53125 52.734375 16.796875 39.40625 
Q 19.671875 43.65625 24.015625 45.921875 
Q 28.375 48.1875 33.59375 48.1875 
Q 44.578125 48.1875 50.953125 41.515625 
Q 57.328125 34.859375 57.328125 23.390625 
Q 57.328125 12.15625 50.6875 5.359375 
Q 44.046875 -1.421875 33.015625 -1.421875 
Q 20.359375 -1.421875 13.671875 8.265625 
Q 6.984375 17.96875 6.984375 36.375 
Q 6.984375 53.65625 15.1875 63.9375 
Q 23.390625 74.21875 37.203125 74.21875 
Q 40.921875 74.21875 44.703125 73.484375 
Q 48.484375 72.75 52.59375 71.296875 
z
" id="DejaVuSans-36"/>
      </defs>
      <g transform="translate(638.787353 352.660037)scale(0.1 -0.1)">
       <use xlink:href="#DejaVuSans-36"/>
       <use x="63.623047" xlink:href="#DejaVuSans-30"/>
      </g>
     </g>
    </g>
    <g id="text_8">
     <!-- vb_dng -->
     <defs>
      <path d="M 2.984375 54.6875 
L 12.5 54.6875 
L 29.59375 8.796875 
L 46.6875 54.6875 
L 56.203125 54.6875 
L 35.6875 0 
L 23.484375 0 
z
" id="DejaVuSans-76"/>
      <path d="M 48.6875 27.296875 
Q 48.6875 37.203125 44.609375 42.84375 
Q 40.53125 48.484375 33.40625 48.484375 
Q 26.265625 48.484375 22.1875 42.84375 
Q 18.109375 37.203125 18.109375 27.296875 
Q 18.109375 17.390625 22.1875 11.75 
Q 26.265625 6.109375 33.40625 6.109375 
Q 40.53125 6.109375 44.609375 11.75 
Q 48.6875 17.390625 48.6875 27.296875 
z
M 18.109375 46.390625 
Q 20.953125 51.265625 25.265625 53.625 
Q 29.59375 56 35.59375 56 
Q 45.5625 56 51.78125 48.09375 
Q 58.015625 40.1875 58.015625 27.296875 
Q 58.015625 14.40625 51.78125 6.484375 
Q 45.5625 -1.421875 35.59375 -1.421875 
Q 29.59375 -1.421875 25.265625 0.953125 
Q 20.953125 3.328125 18.109375 8.203125 
L 18.109375 0 
L 9.078125 0 
L 9.078125 75.984375 
L 18.109375 75.984375 
z
" id="DejaVuSans-62"/>
      <path d="M 50.984375 -16.609375 
L 50.984375 -23.578125 
L -0.984375 -23.578125 
L -0.984375 -16.609375 
z
" id="DejaVuSans-5f"/>
      <path d="M 45.40625 46.390625 
L 45.40625 75.984375 
L 54.390625 75.984375 
L 54.390625 0 
L 45.40625 0 
L 45.40625 8.203125 
Q 42.578125 3.328125 38.25 0.953125 
Q 33.9375 -1.421875 27.875 -1.421875 
Q 17.96875 -1.421875 11.734375 6.484375 
Q 5.515625 14.40625 5.515625 27.296875 
Q 5.515625 40.1875 11.734375 48.09375 
Q 17.96875 56 27.875 56 
Q 33.9375 56 38.25 53.625 
Q 42.578125 51.265625 45.40625 46.390625 
z
M 14.796875 27.296875 
Q 14.796875 17.390625 18.875 11.75 
Q 22.953125 6.109375 30.078125 6.109375 
Q 37.203125 6.109375 41.296875 11.75 
Q 45.40625 17.390625 45.40625 27.296875 
Q 45.40625 37.203125 41.296875 42.84375 
Q 37.203125 48.484375 30.078125 48.484375 
Q 22.953125 48.484375 18.875 42.84375 
Q 14.796875 37.203125 14.796875 27.296875 
z
" id="DejaVuSans-64"/>
      <path d="M 54.890625 33.015625 
L 54.890625 0 
L 45.90625 0 
L 45.90625 32.71875 
Q 45.90625 40.484375 42.875 44.328125 
Q 39.84375 48.1875 33.796875 48.1875 
Q 26.515625 48.1875 22.3125 43.546875 
Q 18.109375 38.921875 18.109375 30.90625 
L 18.109375 0 
L 9.078125 0 
L 9.078125 54.6875 
L 18.109375 54.6875 
L 18.109375 46.1875 
Q 21.34375 51.125 25.703125 53.5625 
Q 30.078125 56 35.796875 56 
Q 45.21875 56 50.046875 50.171875 
Q 54.890625 44.34375 54.890625 33.015625 
z
" id="DejaVuSans-6e"/>
      <path d="M 45.40625 27.984375 
Q 45.40625 37.75 41.375 43.109375 
Q 37.359375 48.484375 30.078125 48.484375 
Q 22.859375 48.484375 18.828125 43.109375 
Q 14.796875 37.75 14.796875 27.984375 
Q 14.796875 18.265625 18.828125 12.890625 
Q 22.859375 7.515625 30.078125 7.515625 
Q 37.359375 7.515625 41.375 12.890625 
Q 45.40625 18.265625 45.40625 27.984375 
z
M 54.390625 6.78125 
Q 54.390625 -7.171875 48.1875 -13.984375 
Q 42 -20.796875 29.203125 -20.796875 
Q 24.46875 -20.796875 20.265625 -20.09375 
Q 16.0625 -19.390625 12.109375 -17.921875 
L 12.109375 -9.1875 
Q 16.0625 -11.328125 19.921875 -12.34375 
Q 23.78125 -13.375 27.78125 -13.375 
Q 36.625 -13.375 41.015625 -8.765625 
Q 45.40625 -4.15625 45.40625 5.171875 
L 45.40625 9.625 
Q 42.625 4.78125 38.28125 2.390625 
Q 33.9375 0 27.875 0 
Q 17.828125 0 11.671875 7.65625 
Q 5.515625 15.328125 5.515625 27.984375 
Q 5.515625 40.671875 11.671875 48.328125 
Q 17.828125 56 27.875 56 
Q 33.9375 56 38.28125 53.609375 
Q 42.625 51.21875 45.40625 46.390625 
L 45.40625 54.6875 
L 54.390625 54.6875 
z
" id="DejaVuSans-67"/>
     </defs>
     <g transform="translate(398.140128 366.338162)scale(0.1 -0.1)">
      <use xlink:href="#DejaVuSans-76"/>
      <use x="59.179688" xlink:href="#DejaVuSans-62"/>
      <use x="122.65625" xlink:href="#DejaVuSans-5f"/>
      <use x="172.65625" xlink:href="#DejaVuSans-64"/>
      <use x="236.132812" xlink:href="#DejaVuSans-6e"/>
      <use x="299.511719" xlink:href="#DejaVuSans-67"/>
     </g>
    </g>
   </g>
   <g id="matplotlib.axis_2">
    <g id="ytick_1">
     <g id="line2d_8">
      <defs>
       <path d="M 0 0 
L -3.5 0 
" id="mc9b3ea6bad" style="stroke:#000000;stroke-width:0.8;"/>
      </defs>
      <g>
       <use style="stroke:#000000;stroke-width:0.8;" x="172.8" xlink:href="#mc9b3ea6bad" y="335.535203"/>
      </g>
     </g>
     <g id="text_9">
      <!-- 10 -->
      <g transform="translate(153.075 339.334422)scale(0.1 -0.1)">
       <use xlink:href="#DejaVuSans-31"/>
       <use x="63.623047" xlink:href="#DejaVuSans-30"/>
      </g>
     </g>
    </g>
    <g id="ytick_2">
     <g id="line2d_9">
      <g>
       <use style="stroke:#000000;stroke-width:0.8;" x="172.8" xlink:href="#mc9b3ea6bad" y="305.812889"/>
      </g>
     </g>
     <g id="text_10">
      <!-- 20 -->
      <g transform="translate(153.075 309.612108)scale(0.1 -0.1)">
       <use xlink:href="#DejaVuSans-32"/>
       <use x="63.623047" xlink:href="#DejaVuSans-30"/>
      </g>
     </g>
    </g>
    <g id="ytick_3">
     <g id="line2d_10">
      <g>
       <use style="stroke:#000000;stroke-width:0.8;" x="172.8" xlink:href="#mc9b3ea6bad" y="276.090575"/>
      </g>
     </g>
     <g id="text_11">
      <!-- 30 -->
      <g transform="translate(153.075 279.889794)scale(0.1 -0.1)">
       <use xlink:href="#DejaVuSans-33"/>
       <use x="63.623047" xlink:href="#DejaVuSans-30"/>
      </g>
     </g>
    </g>
    <g id="ytick_4">
     <g id="line2d_11">
      <g>
       <use style="stroke:#000000;stroke-width:0.8;" x="172.8" xlink:href="#mc9b3ea6bad" y="246.368261"/>
      </g>
     </g>
     <g id="text_12">
      <!-- 40 -->
      <g transform="translate(153.075 250.16748)scale(0.1 -0.1)">
       <use xlink:href="#DejaVuSans-34"/>
       <use x="63.623047" xlink:href="#DejaVuSans-30"/>
      </g>
     </g>
    </g>
    <g id="ytick_5">
     <g id="line2d_12">
      <g>
       <use style="stroke:#000000;stroke-width:0.8;" x="172.8" xlink:href="#mc9b3ea6bad" y="216.645947"/>
      </g>
     </g>
     <g id="text_13">
      <!-- 50 -->
      <g transform="translate(153.075 220.445166)scale(0.1 -0.1)">
       <use xlink:href="#DejaVuSans-35"/>
       <use x="63.623047" xlink:href="#DejaVuSans-30"/>
      </g>
     </g>
    </g>
    <g id="ytick_6">
     <g id="line2d_13">
      <g>
       <use style="stroke:#000000;stroke-width:0.8;" x="172.8" xlink:href="#mc9b3ea6bad" y="186.923633"/>
      </g>
     </g>
     <g id="text_14">
      <!-- 60 -->
      <g transform="translate(153.075 190.722852)scale(0.1 -0.1)">
       <use xlink:href="#DejaVuSans-36"/>
       <use x="63.623047" xlink:href="#DejaVuSans-30"/>
      </g>
     </g>
    </g>
    <g id="ytick_7">
     <g id="line2d_14">
      <g>
       <use style="stroke:#000000;stroke-width:0.8;" x="172.8" xlink:href="#mc9b3ea6bad" y="157.201319"/>
      </g>
     </g>
     <g id="text_15">
      <!-- 70 -->
      <defs>
       <path d="M 8.203125 72.90625 
L 55.078125 72.90625 
L 55.078125 68.703125 
L 28.609375 0 
L 18.3125 0 
L 43.21875 64.59375 
L 8.203125 64.59375 
z
" id="DejaVuSans-37"/>
      </defs>
      <g transform="translate(153.075 161.000538)scale(0.1 -0.1)">
       <use xlink:href="#DejaVuSans-37"/>
       <use x="63.623047" xlink:href="#DejaVuSans-30"/>
      </g>
     </g>
    </g>
    <g id="ytick_8">
     <g id="line2d_15">
      <g>
       <use style="stroke:#000000;stroke-width:0.8;" x="172.8" xlink:href="#mc9b3ea6bad" y="127.479005"/>
      </g>
     </g>
     <g id="text_16">
      <!-- 80 -->
      <defs>
       <path d="M 31.78125 34.625 
Q 24.75 34.625 20.71875 30.859375 
Q 16.703125 27.09375 16.703125 20.515625 
Q 16.703125 13.921875 20.71875 10.15625 
Q 24.75 6.390625 31.78125 6.390625 
Q 38.8125 6.390625 42.859375 10.171875 
Q 46.921875 13.96875 46.921875 20.515625 
Q 46.921875 27.09375 42.890625 30.859375 
Q 38.875 34.625 31.78125 34.625 
z
M 21.921875 38.8125 
Q 15.578125 40.375 12.03125 44.71875 
Q 8.5 49.078125 8.5 55.328125 
Q 8.5 64.0625 14.71875 69.140625 
Q 20.953125 74.21875 31.78125 74.21875 
Q 42.671875 74.21875 48.875 69.140625 
Q 55.078125 64.0625 55.078125 55.328125 
Q 55.078125 49.078125 51.53125 44.71875 
Q 48 40.375 41.703125 38.8125 
Q 48.828125 37.15625 52.796875 32.3125 
Q 56.78125 27.484375 56.78125 20.515625 
Q 56.78125 9.90625 50.3125 4.234375 
Q 43.84375 -1.421875 31.78125 -1.421875 
Q 19.734375 -1.421875 13.25 4.234375 
Q 6.78125 9.90625 6.78125 20.515625 
Q 6.78125 27.484375 10.78125 32.3125 
Q 14.796875 37.15625 21.921875 38.8125 
z
M 18.3125 54.390625 
Q 18.3125 48.734375 21.84375 45.5625 
Q 25.390625 42.390625 31.78125 42.390625 
Q 38.140625 42.390625 41.71875 45.5625 
Q 45.3125 48.734375 45.3125 54.390625 
Q 45.3125 60.0625 41.71875 63.234375 
Q 38.140625 66.40625 31.78125 66.40625 
Q 25.390625 66.40625 21.84375 63.234375 
Q 18.3125 60.0625 18.3125 54.390625 
z
" id="DejaVuSans-38"/>
      </defs>
      <g transform="translate(153.075 131.278224)scale(0.1 -0.1)">
       <use xlink:href="#DejaVuSans-38"/>
       <use x="63.623047" xlink:href="#DejaVuSans-30"/>
      </g>
     </g>
    </g>
    <g id="ytick_9">
     <g id="line2d_16">
      <g>
       <use style="stroke:#000000;stroke-width:0.8;" x="172.8" xlink:href="#mc9b3ea6bad" y="97.756691"/>
      </g>
     </g>
     <g id="text_17">
      <!-- 90 -->
      <defs>
       <path d="M 10.984375 1.515625 
L 10.984375 10.5 
Q 14.703125 8.734375 18.5 7.8125 
Q 22.3125 6.890625 25.984375 6.890625 
Q 35.75 6.890625 40.890625 13.453125 
Q 46.046875 20.015625 46.78125 33.40625 
Q 43.953125 29.203125 39.59375 26.953125 
Q 35.25 24.703125 29.984375 24.703125 
Q 19.046875 24.703125 12.671875 31.3125 
Q 6.296875 37.9375 6.296875 49.421875 
Q 6.296875 60.640625 12.9375 67.421875 
Q 19.578125 74.21875 30.609375 74.21875 
Q 43.265625 74.21875 49.921875 64.515625 
Q 56.59375 54.828125 56.59375 36.375 
Q 56.59375 19.140625 48.40625 8.859375 
Q 40.234375 -1.421875 26.421875 -1.421875 
Q 22.703125 -1.421875 18.890625 -0.6875 
Q 15.09375 0.046875 10.984375 1.515625 
z
M 30.609375 32.421875 
Q 37.25 32.421875 41.125 36.953125 
Q 45.015625 41.5 45.015625 49.421875 
Q 45.015625 57.28125 41.125 61.84375 
Q 37.25 66.40625 30.609375 66.40625 
Q 23.96875 66.40625 20.09375 61.84375 
Q 16.21875 57.28125 16.21875 49.421875 
Q 16.21875 41.5 20.09375 36.953125 
Q 23.96875 32.421875 30.609375 32.421875 
z
" id="DejaVuSans-39"/>
      </defs>
      <g transform="translate(153.075 101.55591)scale(0.1 -0.1)">
       <use xlink:href="#DejaVuSans-39"/>
       <use x="63.623047" xlink:href="#DejaVuSans-30"/>
      </g>
     </g>
    </g>
   </g>
   <g id="line2d_17">
    <path clip-path="url(#p7d91c18092)" d="M 194.935537 222.59041 
L 202.439109 258.257187 
L 209.942681 240.423798 
L 217.446253 296.896195 
L 224.949825 246.368261 
L 232.453397 234.479336 
L 239.956969 282.035038 
L 247.460541 323.646278 
L 254.964113 326.618509 
L 262.467685 219.618179 
L 269.971256 255.284955 
L 277.474828 285.007269 
L 284.9784 249.340493 
L 292.481972 285.007269 
L 299.985544 299.868426 
L 307.489116 189.895864 
L 314.992688 299.868426 
L 322.49626 258.257187 
L 329.999832 258.257187 
L 337.503404 252.312724 
L 345.006976 183.951402 
L 352.510548 258.257187 
L 360.01412 252.312724 
L 367.517692 222.59041 
L 375.021263 210.701484 
L 382.524835 255.284955 
L 390.028407 317.701815 
L 397.531979 180.97917 
L 405.035551 252.312724 
L 412.539123 145.312393 
L 420.042695 207.729253 
L 427.546267 145.312393 
L 435.049839 249.340493 
L 442.553411 258.257187 
L 450.056983 222.59041 
L 457.560555 154.229088 
L 465.064127 225.562641 
L 472.567699 267.173881 
L 480.07127 198.812559 
L 487.574842 201.78479 
L 495.078414 305.812889 
L 502.581986 216.645947 
L 510.085558 169.090245 
L 517.58913 308.785121 
L 525.092702 225.562641 
L 532.596274 186.923633 
L 540.099846 261.229418 
L 547.603418 112.617848 
L 555.10699 124.506774 
L 562.610562 207.729253 
L 570.114134 243.39603 
L 577.617706 163.145782 
L 585.121277 231.507104 
L 592.624849 178.006939 
L 600.128421 308.785121 
L 607.631993 207.729253 
L 615.135565 118.562311 
L 622.639137 97.756691 
L 630.142709 282.035038 
L 637.646281 210.701484 
" style="fill:none;stroke:#000000;stroke-dasharray:5.55,2.4;stroke-dashoffset:0;stroke-width:1.5;"/>
    <defs>
     <path d="M 0 3 
C 0.795609 3 1.55874 2.683901 2.12132 2.12132 
C 2.683901 1.55874 3 0.795609 3 0 
C 3 -0.795609 2.683901 -1.55874 2.12132 -2.12132 
C 1.55874 -2.683901 0.795609 -3 0 -3 
C -0.795609 -3 -1.55874 -2.683901 -2.12132 -2.12132 
C -2.683901 -1.55874 -3 -0.795609 -3 0 
C -3 0.795609 -2.683901 1.55874 -2.12132 2.12132 
C -1.55874 2.683901 -0.795609 3 0 3 
z
" id="m60d03874de" style="stroke:#000000;"/>
    </defs>
    <g clip-path="url(#p7d91c18092)">
     <use style="stroke:#000000;" x="194.935537" xlink:href="#m60d03874de" y="222.59041"/>
     <use style="stroke:#000000;" x="202.439109" xlink:href="#m60d03874de" y="258.257187"/>
     <use style="stroke:#000000;" x="209.942681" xlink:href="#m60d03874de" y="240.423798"/>
     <use style="stroke:#000000;" x="217.446253" xlink:href="#m60d03874de" y="296.896195"/>
     <use style="stroke:#000000;" x="224.949825" xlink:href="#m60d03874de" y="246.368261"/>
     <use style="stroke:#000000;" x="232.453397" xlink:href="#m60d03874de" y="234.479336"/>
     <use style="stroke:#000000;" x="239.956969" xlink:href="#m60d03874de" y="282.035038"/>
     <use style="stroke:#000000;" x="247.460541" xlink:href="#m60d03874de" y="323.646278"/>
     <use style="stroke:#000000;" x="254.964113" xlink:href="#m60d03874de" y="326.618509"/>
     <use style="stroke:#000000;" x="262.467685" xlink:href="#m60d03874de" y="219.618179"/>
     <use style="stroke:#000000;" x="269.971256" xlink:href="#m60d03874de" y="255.284955"/>
     <use style="stroke:#000000;" x="277.474828" xlink:href="#m60d03874de" y="285.007269"/>
     <use style="stroke:#000000;" x="284.9784" xlink:href="#m60d03874de" y="249.340493"/>
     <use style="stroke:#000000;" x="292.481972" xlink:href="#m60d03874de" y="285.007269"/>
     <use style="stroke:#000000;" x="299.985544" xlink:href="#m60d03874de" y="299.868426"/>
     <use style="stroke:#000000;" x="307.489116" xlink:href="#m60d03874de" y="189.895864"/>
     <use style="stroke:#000000;" x="314.992688" xlink:href="#m60d03874de" y="299.868426"/>
     <use style="stroke:#000000;" x="322.49626" xlink:href="#m60d03874de" y="258.257187"/>
     <use style="stroke:#000000;" x="329.999832" xlink:href="#m60d03874de" y="258.257187"/>
     <use style="stroke:#000000;" x="337.503404" xlink:href="#m60d03874de" y="252.312724"/>
     <use style="stroke:#000000;" x="345.006976" xlink:href="#m60d03874de" y="183.951402"/>
     <use style="stroke:#000000;" x="352.510548" xlink:href="#m60d03874de" y="258.257187"/>
     <use style="stroke:#000000;" x="360.01412" xlink:href="#m60d03874de" y="252.312724"/>
     <use style="stroke:#000000;" x="367.517692" xlink:href="#m60d03874de" y="222.59041"/>
     <use style="stroke:#000000;" x="375.021263" xlink:href="#m60d03874de" y="210.701484"/>
     <use style="stroke:#000000;" x="382.524835" xlink:href="#m60d03874de" y="255.284955"/>
     <use style="stroke:#000000;" x="390.028407" xlink:href="#m60d03874de" y="317.701815"/>
     <use style="stroke:#000000;" x="397.531979" xlink:href="#m60d03874de" y="180.97917"/>
     <use style="stroke:#000000;" x="405.035551" xlink:href="#m60d03874de" y="252.312724"/>
     <use style="stroke:#000000;" x="412.539123" xlink:href="#m60d03874de" y="145.312393"/>
     <use style="stroke:#000000;" x="420.042695" xlink:href="#m60d03874de" y="207.729253"/>
     <use style="stroke:#000000;" x="427.546267" xlink:href="#m60d03874de" y="145.312393"/>
     <use style="stroke:#000000;" x="435.049839" xlink:href="#m60d03874de" y="249.340493"/>
     <use style="stroke:#000000;" x="442.553411" xlink:href="#m60d03874de" y="258.257187"/>
     <use style="stroke:#000000;" x="450.056983" xlink:href="#m60d03874de" y="222.59041"/>
     <use style="stroke:#000000;" x="457.560555" xlink:href="#m60d03874de" y="154.229088"/>
     <use style="stroke:#000000;" x="465.064127" xlink:href="#m60d03874de" y="225.562641"/>
     <use style="stroke:#000000;" x="472.567699" xlink:href="#m60d03874de" y="267.173881"/>
     <use style="stroke:#000000;" x="480.07127" xlink:href="#m60d03874de" y="198.812559"/>
     <use style="stroke:#000000;" x="487.574842" xlink:href="#m60d03874de" y="201.78479"/>
     <use style="stroke:#000000;" x="495.078414" xlink:href="#m60d03874de" y="305.812889"/>
     <use style="stroke:#000000;" x="502.581986" xlink:href="#m60d03874de" y="216.645947"/>
     <use style="stroke:#000000;" x="510.085558" xlink:href="#m60d03874de" y="169.090245"/>
     <use style="stroke:#000000;" x="517.58913" xlink:href="#m60d03874de" y="308.785121"/>
     <use style="stroke:#000000;" x="525.092702" xlink:href="#m60d03874de" y="225.562641"/>
     <use style="stroke:#000000;" x="532.596274" xlink:href="#m60d03874de" y="186.923633"/>
     <use style="stroke:#000000;" x="540.099846" xlink:href="#m60d03874de" y="261.229418"/>
     <use style="stroke:#000000;" x="547.603418" xlink:href="#m60d03874de" y="112.617848"/>
     <use style="stroke:#000000;" x="555.10699" xlink:href="#m60d03874de" y="124.506774"/>
     <use style="stroke:#000000;" x="562.610562" xlink:href="#m60d03874de" y="207.729253"/>
     <use style="stroke:#000000;" x="570.114134" xlink:href="#m60d03874de" y="243.39603"/>
     <use style="stroke:#000000;" x="577.617706" xlink:href="#m60d03874de" y="163.145782"/>
     <use style="stroke:#000000;" x="585.121277" xlink:href="#m60d03874de" y="231.507104"/>
     <use style="stroke:#000000;" x="592.624849" xlink:href="#m60d03874de" y="178.006939"/>
     <use style="stroke:#000000;" x="600.128421" xlink:href="#m60d03874de" y="308.785121"/>
     <use style="stroke:#000000;" x="607.631993" xlink:href="#m60d03874de" y="207.729253"/>
     <use style="stroke:#000000;" x="615.135565" xlink:href="#m60d03874de" y="118.562311"/>
     <use style="stroke:#000000;" x="622.639137" xlink:href="#m60d03874de" y="97.756691"/>
     <use style="stroke:#000000;" x="630.142709" xlink:href="#m60d03874de" y="282.035038"/>
     <use style="stroke:#000000;" x="637.646281" xlink:href="#m60d03874de" y="210.701484"/>
    </g>
   </g>
   <g id="patch_3">
    <path d="M 172.8 338.0616 
L 172.8 86.3136 
" style="fill:none;stroke:#000000;stroke-linecap:square;stroke-linejoin:miter;stroke-width:0.8;"/>
   </g>
   <g id="patch_4">
    <path d="M 659.781818 338.0616 
L 659.781818 86.3136 
" style="fill:none;stroke:#000000;stroke-linecap:square;stroke-linejoin:miter;stroke-width:0.8;"/>
   </g>
   <g id="patch_5">
    <path d="M 172.8 338.0616 
L 659.781818 338.0616 
" style="fill:none;stroke:#000000;stroke-linecap:square;stroke-linejoin:miter;stroke-width:0.8;"/>
   </g>
   <g id="patch_6">
    <path d="M 172.8 86.3136 
L 659.781818 86.3136 
" style="fill:none;stroke:#000000;stroke-linecap:square;stroke-linejoin:miter;stroke-width:0.8;"/>
   </g>
  </g>
  <g id="axes_2">
   <g id="patch_7">
    <path d="M 757.178182 338.0616 
L 1244.16 338.0616 
L 1244.16 86.3136 
L 757.178182 86.3136 
z
" style="fill:#ffffff;"/>
   </g>
   <g id="matplotlib.axis_3">
    <g id="xtick_8">
     <g id="line2d_18">
      <g>
       <use style="stroke:#000000;stroke-width:0.8;" x="779.313719" xlink:href="#mf39af1814c" y="338.0616"/>
      </g>
     </g>
     <g id="text_18">
      <!-- 0 -->
      <g transform="translate(776.132469 352.660037)scale(0.1 -0.1)">
       <use xlink:href="#DejaVuSans-30"/>
      </g>
     </g>
    </g>
    <g id="xtick_9">
     <g id="line2d_19">
      <g>
       <use style="stroke:#000000;stroke-width:0.8;" x="854.349438" xlink:href="#mf39af1814c" y="338.0616"/>
      </g>
     </g>
     <g id="text_19">
      <!-- 10 -->
      <g transform="translate(847.986938 352.660037)scale(0.1 -0.1)">
       <use xlink:href="#DejaVuSans-31"/>
       <use x="63.623047" xlink:href="#DejaVuSans-30"/>
      </g>
     </g>
    </g>
    <g id="xtick_10">
     <g id="line2d_20">
      <g>
       <use style="stroke:#000000;stroke-width:0.8;" x="929.385158" xlink:href="#mf39af1814c" y="338.0616"/>
      </g>
     </g>
     <g id="text_20">
      <!-- 20 -->
      <g transform="translate(923.022658 352.660037)scale(0.1 -0.1)">
       <use xlink:href="#DejaVuSans-32"/>
       <use x="63.623047" xlink:href="#DejaVuSans-30"/>
      </g>
     </g>
    </g>
    <g id="xtick_11">
     <g id="line2d_21">
      <g>
       <use style="stroke:#000000;stroke-width:0.8;" x="1004.420877" xlink:href="#mf39af1814c" y="338.0616"/>
      </g>
     </g>
     <g id="text_21">
      <!-- 30 -->
      <g transform="translate(998.058377 352.660037)scale(0.1 -0.1)">
       <use xlink:href="#DejaVuSans-33"/>
       <use x="63.623047" xlink:href="#DejaVuSans-30"/>
      </g>
     </g>
    </g>
    <g id="xtick_12">
     <g id="line2d_22">
      <g>
       <use style="stroke:#000000;stroke-width:0.8;" x="1079.456596" xlink:href="#mf39af1814c" y="338.0616"/>
      </g>
     </g>
     <g id="text_22">
      <!-- 40 -->
      <g transform="translate(1073.094096 352.660037)scale(0.1 -0.1)">
       <use xlink:href="#DejaVuSans-34"/>
       <use x="63.623047" xlink:href="#DejaVuSans-30"/>
      </g>
     </g>
    </g>
    <g id="xtick_13">
     <g id="line2d_23">
      <g>
       <use style="stroke:#000000;stroke-width:0.8;" x="1154.492315" xlink:href="#mf39af1814c" y="338.0616"/>
      </g>
     </g>
     <g id="text_23">
      <!-- 50 -->
      <g transform="translate(1148.129815 352.660037)scale(0.1 -0.1)">
       <use xlink:href="#DejaVuSans-35"/>
       <use x="63.623047" xlink:href="#DejaVuSans-30"/>
      </g>
     </g>
    </g>
    <g id="xtick_14">
     <g id="line2d_24">
      <g>
       <use style="stroke:#000000;stroke-width:0.8;" x="1229.528035" xlink:href="#mf39af1814c" y="338.0616"/>
      </g>
     </g>
     <g id="text_24">
      <!-- 60 -->
      <g transform="translate(1223.165535 352.660037)scale(0.1 -0.1)">
       <use xlink:href="#DejaVuSans-36"/>
       <use x="63.623047" xlink:href="#DejaVuSans-30"/>
      </g>
     </g>
    </g>
    <g id="text_25">
     <!-- jj_total -->
     <defs>
      <path d="M 9.421875 54.6875 
L 18.40625 54.6875 
L 18.40625 -0.984375 
Q 18.40625 -11.421875 14.421875 -16.109375 
Q 10.453125 -20.796875 1.609375 -20.796875 
L -1.8125 -20.796875 
L -1.8125 -13.1875 
L 0.59375 -13.1875 
Q 5.71875 -13.1875 7.5625 -10.8125 
Q 9.421875 -8.453125 9.421875 -0.984375 
z
M 9.421875 75.984375 
L 18.40625 75.984375 
L 18.40625 64.59375 
L 9.421875 64.59375 
z
" id="DejaVuSans-6a"/>
      <path d="M 18.3125 70.21875 
L 18.3125 54.6875 
L 36.8125 54.6875 
L 36.8125 47.703125 
L 18.3125 47.703125 
L 18.3125 18.015625 
Q 18.3125 11.328125 20.140625 9.421875 
Q 21.96875 7.515625 27.59375 7.515625 
L 36.8125 7.515625 
L 36.8125 0 
L 27.59375 0 
Q 17.1875 0 13.234375 3.875 
Q 9.28125 7.765625 9.28125 18.015625 
L 9.28125 47.703125 
L 2.6875 47.703125 
L 2.6875 54.6875 
L 9.28125 54.6875 
L 9.28125 70.21875 
z
" id="DejaVuSans-74"/>
      <path d="M 30.609375 48.390625 
Q 23.390625 48.390625 19.1875 42.75 
Q 14.984375 37.109375 14.984375 27.296875 
Q 14.984375 17.484375 19.15625 11.84375 
Q 23.34375 6.203125 30.609375 6.203125 
Q 37.796875 6.203125 41.984375 11.859375 
Q 46.1875 17.53125 46.1875 27.296875 
Q 46.1875 37.015625 41.984375 42.703125 
Q 37.796875 48.390625 30.609375 48.390625 
z
M 30.609375 56 
Q 42.328125 56 49.015625 48.375 
Q 55.71875 40.765625 55.71875 27.296875 
Q 55.71875 13.875 49.015625 6.21875 
Q 42.328125 -1.421875 30.609375 -1.421875 
Q 18.84375 -1.421875 12.171875 6.21875 
Q 5.515625 13.875 5.515625 27.296875 
Q 5.515625 40.765625 12.171875 48.375 
Q 18.84375 56 30.609375 56 
z
" id="DejaVuSans-6f"/>
      <path d="M 34.28125 27.484375 
Q 23.390625 27.484375 19.1875 25 
Q 14.984375 22.515625 14.984375 16.5 
Q 14.984375 11.71875 18.140625 8.90625 
Q 21.296875 6.109375 26.703125 6.109375 
Q 34.1875 6.109375 38.703125 11.40625 
Q 43.21875 16.703125 43.21875 25.484375 
L 43.21875 27.484375 
z
M 52.203125 31.203125 
L 52.203125 0 
L 43.21875 0 
L 43.21875 8.296875 
Q 40.140625 3.328125 35.546875 0.953125 
Q 30.953125 -1.421875 24.3125 -1.421875 
Q 15.921875 -1.421875 10.953125 3.296875 
Q 6 8.015625 6 15.921875 
Q 6 25.140625 12.171875 29.828125 
Q 18.359375 34.515625 30.609375 34.515625 
L 43.21875 34.515625 
L 43.21875 35.40625 
Q 43.21875 41.609375 39.140625 45 
Q 35.0625 48.390625 27.6875 48.390625 
Q 23 48.390625 18.546875 47.265625 
Q 14.109375 46.140625 10.015625 43.890625 
L 10.015625 52.203125 
Q 14.9375 54.109375 19.578125 55.046875 
Q 24.21875 56 28.609375 56 
Q 40.484375 56 46.34375 49.84375 
Q 52.203125 43.703125 52.203125 31.203125 
z
" id="DejaVuSans-61"/>
      <path d="M 9.421875 75.984375 
L 18.40625 75.984375 
L 18.40625 0 
L 9.421875 0 
z
" id="DejaVuSans-6c"/>
     </defs>
     <g transform="translate(983.958153 366.338162)scale(0.1 -0.1)">
      <use xlink:href="#DejaVuSans-6a"/>
      <use x="27.783203" xlink:href="#DejaVuSans-6a"/>
      <use x="55.566406" xlink:href="#DejaVuSans-5f"/>
      <use x="105.566406" xlink:href="#DejaVuSans-74"/>
      <use x="144.775391" xlink:href="#DejaVuSans-6f"/>
      <use x="205.957031" xlink:href="#DejaVuSans-74"/>
      <use x="245.166016" xlink:href="#DejaVuSans-61"/>
      <use x="306.445312" xlink:href="#DejaVuSans-6c"/>
     </g>
    </g>
   </g>
   <g id="matplotlib.axis_4">
    <g id="ytick_10">
     <g id="line2d_25">
      <g>
       <use style="stroke:#000000;stroke-width:0.8;" x="757.178182" xlink:href="#mc9b3ea6bad" y="321.417104"/>
      </g>
     </g>
     <g id="text_26">
      <!-- 10 -->
      <g transform="translate(737.453182 325.216323)scale(0.1 -0.1)">
       <use xlink:href="#DejaVuSans-31"/>
       <use x="63.623047" xlink:href="#DejaVuSans-30"/>
      </g>
     </g>
    </g>
    <g id="ytick_11">
     <g id="line2d_26">
      <g>
       <use style="stroke:#000000;stroke-width:0.8;" x="757.178182" xlink:href="#mc9b3ea6bad" y="269.403055"/>
      </g>
     </g>
     <g id="text_27">
      <!-- 20 -->
      <g transform="translate(737.453182 273.202273)scale(0.1 -0.1)">
       <use xlink:href="#DejaVuSans-32"/>
       <use x="63.623047" xlink:href="#DejaVuSans-30"/>
      </g>
     </g>
    </g>
    <g id="ytick_12">
     <g id="line2d_27">
      <g>
       <use style="stroke:#000000;stroke-width:0.8;" x="757.178182" xlink:href="#mc9b3ea6bad" y="217.389005"/>
      </g>
     </g>
     <g id="text_28">
      <!-- 30 -->
      <g transform="translate(737.453182 221.188224)scale(0.1 -0.1)">
       <use xlink:href="#DejaVuSans-33"/>
       <use x="63.623047" xlink:href="#DejaVuSans-30"/>
      </g>
     </g>
    </g>
    <g id="ytick_13">
     <g id="line2d_28">
      <g>
       <use style="stroke:#000000;stroke-width:0.8;" x="757.178182" xlink:href="#mc9b3ea6bad" y="165.374955"/>
      </g>
     </g>
     <g id="text_29">
      <!-- 40 -->
      <g transform="translate(737.453182 169.174174)scale(0.1 -0.1)">
       <use xlink:href="#DejaVuSans-34"/>
       <use x="63.623047" xlink:href="#DejaVuSans-30"/>
      </g>
     </g>
    </g>
    <g id="ytick_14">
     <g id="line2d_29">
      <g>
       <use style="stroke:#000000;stroke-width:0.8;" x="757.178182" xlink:href="#mc9b3ea6bad" y="113.360906"/>
      </g>
     </g>
     <g id="text_30">
      <!-- 50 -->
      <g transform="translate(737.453182 117.160125)scale(0.1 -0.1)">
       <use xlink:href="#DejaVuSans-35"/>
       <use x="63.623047" xlink:href="#DejaVuSans-30"/>
      </g>
     </g>
    </g>
   </g>
   <g id="line2d_30">
    <path clip-path="url(#p7c5a137256)" d="M 779.313719 269.403055 
L 786.817291 316.215699 
L 794.320863 253.79884 
L 801.824435 274.60446 
L 809.328007 305.812889 
L 816.831579 300.611484 
L 824.335151 326.618509 
L 831.838723 269.403055 
L 839.342294 248.597435 
L 846.845866 269.403055 
L 854.349438 259.000245 
L 861.85301 300.611484 
L 869.356582 316.215699 
L 876.860154 295.410079 
L 884.363726 243.39603 
L 891.867298 269.403055 
L 899.37087 259.000245 
L 906.874442 243.39603 
L 914.378014 269.403055 
L 921.881586 285.007269 
L 929.385158 227.791815 
L 936.88873 222.59041 
L 944.392301 227.791815 
L 951.895873 232.99322 
L 959.399445 222.59041 
L 966.903017 232.99322 
L 974.406589 206.986195 
L 981.910161 243.39603 
L 989.413733 175.777765 
L 996.917305 253.79884 
L 1004.420877 248.597435 
L 1011.924449 248.597435 
L 1019.428021 264.20165 
L 1026.931593 232.99322 
L 1034.435165 196.583385 
L 1041.938737 259.000245 
L 1049.442308 248.597435 
L 1056.94588 217.389005 
L 1064.449452 259.000245 
L 1071.953024 300.611484 
L 1079.456596 149.77074 
L 1086.960168 149.77074 
L 1094.46374 139.367931 
L 1101.967312 97.756691 
L 1109.470884 212.1876 
L 1116.974456 165.374955 
L 1124.478028 118.562311 
L 1131.9816 134.166526 
L 1139.485172 165.374955 
L 1146.988744 128.965121 
L 1154.492315 139.367931 
L 1161.995887 175.777765 
L 1169.499459 160.17355 
L 1177.003031 149.77074 
L 1184.506603 97.756691 
L 1192.010175 165.374955 
L 1199.513747 227.791815 
L 1207.017319 175.777765 
L 1214.520891 139.367931 
L 1222.024463 108.159501 
" style="fill:none;stroke:#000000;stroke-dasharray:5.55,2.4;stroke-dashoffset:0;stroke-width:1.5;"/>
    <g clip-path="url(#p7c5a137256)">
     <use style="stroke:#000000;" x="779.313719" xlink:href="#m60d03874de" y="269.403055"/>
     <use style="stroke:#000000;" x="786.817291" xlink:href="#m60d03874de" y="316.215699"/>
     <use style="stroke:#000000;" x="794.320863" xlink:href="#m60d03874de" y="253.79884"/>
     <use style="stroke:#000000;" x="801.824435" xlink:href="#m60d03874de" y="274.60446"/>
     <use style="stroke:#000000;" x="809.328007" xlink:href="#m60d03874de" y="305.812889"/>
     <use style="stroke:#000000;" x="816.831579" xlink:href="#m60d03874de" y="300.611484"/>
     <use style="stroke:#000000;" x="824.335151" xlink:href="#m60d03874de" y="326.618509"/>
     <use style="stroke:#000000;" x="831.838723" xlink:href="#m60d03874de" y="269.403055"/>
     <use style="stroke:#000000;" x="839.342294" xlink:href="#m60d03874de" y="248.597435"/>
     <use style="stroke:#000000;" x="846.845866" xlink:href="#m60d03874de" y="269.403055"/>
     <use style="stroke:#000000;" x="854.349438" xlink:href="#m60d03874de" y="259.000245"/>
     <use style="stroke:#000000;" x="861.85301" xlink:href="#m60d03874de" y="300.611484"/>
     <use style="stroke:#000000;" x="869.356582" xlink:href="#m60d03874de" y="316.215699"/>
     <use style="stroke:#000000;" x="876.860154" xlink:href="#m60d03874de" y="295.410079"/>
     <use style="stroke:#000000;" x="884.363726" xlink:href="#m60d03874de" y="243.39603"/>
     <use style="stroke:#000000;" x="891.867298" xlink:href="#m60d03874de" y="269.403055"/>
     <use style="stroke:#000000;" x="899.37087" xlink:href="#m60d03874de" y="259.000245"/>
     <use style="stroke:#000000;" x="906.874442" xlink:href="#m60d03874de" y="243.39603"/>
     <use style="stroke:#000000;" x="914.378014" xlink:href="#m60d03874de" y="269.403055"/>
     <use style="stroke:#000000;" x="921.881586" xlink:href="#m60d03874de" y="285.007269"/>
     <use style="stroke:#000000;" x="929.385158" xlink:href="#m60d03874de" y="227.791815"/>
     <use style="stroke:#000000;" x="936.88873" xlink:href="#m60d03874de" y="222.59041"/>
     <use style="stroke:#000000;" x="944.392301" xlink:href="#m60d03874de" y="227.791815"/>
     <use style="stroke:#000000;" x="951.895873" xlink:href="#m60d03874de" y="232.99322"/>
     <use style="stroke:#000000;" x="959.399445" xlink:href="#m60d03874de" y="222.59041"/>
     <use style="stroke:#000000;" x="966.903017" xlink:href="#m60d03874de" y="232.99322"/>
     <use style="stroke:#000000;" x="974.406589" xlink:href="#m60d03874de" y="206.986195"/>
     <use style="stroke:#000000;" x="981.910161" xlink:href="#m60d03874de" y="243.39603"/>
     <use style="stroke:#000000;" x="989.413733" xlink:href="#m60d03874de" y="175.777765"/>
     <use style="stroke:#000000;" x="996.917305" xlink:href="#m60d03874de" y="253.79884"/>
     <use style="stroke:#000000;" x="1004.420877" xlink:href="#m60d03874de" y="248.597435"/>
     <use style="stroke:#000000;" x="1011.924449" xlink:href="#m60d03874de" y="248.597435"/>
     <use style="stroke:#000000;" x="1019.428021" xlink:href="#m60d03874de" y="264.20165"/>
     <use style="stroke:#000000;" x="1026.931593" xlink:href="#m60d03874de" y="232.99322"/>
     <use style="stroke:#000000;" x="1034.435165" xlink:href="#m60d03874de" y="196.583385"/>
     <use style="stroke:#000000;" x="1041.938737" xlink:href="#m60d03874de" y="259.000245"/>
     <use style="stroke:#000000;" x="1049.442308" xlink:href="#m60d03874de" y="248.597435"/>
     <use style="stroke:#000000;" x="1056.94588" xlink:href="#m60d03874de" y="217.389005"/>
     <use style="stroke:#000000;" x="1064.449452" xlink:href="#m60d03874de" y="259.000245"/>
     <use style="stroke:#000000;" x="1071.953024" xlink:href="#m60d03874de" y="300.611484"/>
     <use style="stroke:#000000;" x="1079.456596" xlink:href="#m60d03874de" y="149.77074"/>
     <use style="stroke:#000000;" x="1086.960168" xlink:href="#m60d03874de" y="149.77074"/>
     <use style="stroke:#000000;" x="1094.46374" xlink:href="#m60d03874de" y="139.367931"/>
     <use style="stroke:#000000;" x="1101.967312" xlink:href="#m60d03874de" y="97.756691"/>
     <use style="stroke:#000000;" x="1109.470884" xlink:href="#m60d03874de" y="212.1876"/>
     <use style="stroke:#000000;" x="1116.974456" xlink:href="#m60d03874de" y="165.374955"/>
     <use style="stroke:#000000;" x="1124.478028" xlink:href="#m60d03874de" y="118.562311"/>
     <use style="stroke:#000000;" x="1131.9816" xlink:href="#m60d03874de" y="134.166526"/>
     <use style="stroke:#000000;" x="1139.485172" xlink:href="#m60d03874de" y="165.374955"/>
     <use style="stroke:#000000;" x="1146.988744" xlink:href="#m60d03874de" y="128.965121"/>
     <use style="stroke:#000000;" x="1154.492315" xlink:href="#m60d03874de" y="139.367931"/>
     <use style="stroke:#000000;" x="1161.995887" xlink:href="#m60d03874de" y="175.777765"/>
     <use style="stroke:#000000;" x="1169.499459" xlink:href="#m60d03874de" y="160.17355"/>
     <use style="stroke:#000000;" x="1177.003031" xlink:href="#m60d03874de" y="149.77074"/>
     <use style="stroke:#000000;" x="1184.506603" xlink:href="#m60d03874de" y="97.756691"/>
     <use style="stroke:#000000;" x="1192.010175" xlink:href="#m60d03874de" y="165.374955"/>
     <use style="stroke:#000000;" x="1199.513747" xlink:href="#m60d03874de" y="227.791815"/>
     <use style="stroke:#000000;" x="1207.017319" xlink:href="#m60d03874de" y="175.777765"/>
     <use style="stroke:#000000;" x="1214.520891" xlink:href="#m60d03874de" y="139.367931"/>
     <use style="stroke:#000000;" x="1222.024463" xlink:href="#m60d03874de" y="108.159501"/>
    </g>
   </g>
   <g id="patch_8">
    <path d="M 757.178182 338.0616 
L 757.178182 86.3136 
" style="fill:none;stroke:#000000;stroke-linecap:square;stroke-linejoin:miter;stroke-width:0.8;"/>
   </g>
   <g id="patch_9">
    <path d="M 1244.16 338.0616 
L 1244.16 86.3136 
" style="fill:none;stroke:#000000;stroke-linecap:square;stroke-linejoin:miter;stroke-width:0.8;"/>
   </g>
   <g id="patch_10">
    <path d="M 757.178182 338.0616 
L 1244.16 338.0616 
" style="fill:none;stroke:#000000;stroke-linecap:square;stroke-linejoin:miter;stroke-width:0.8;"/>
   </g>
   <g id="patch_11">
    <path d="M 757.178182 86.3136 
L 1244.16 86.3136 
" style="fill:none;stroke:#000000;stroke-linecap:square;stroke-linejoin:miter;stroke-width:0.8;"/>
   </g>
  </g>
  <g id="axes_3">
   <g id="patch_12">
    <path d="M 172.8 640.1592 
L 659.781818 640.1592 
L 659.781818 388.4112 
L 172.8 388.4112 
z
" style="fill:#ffffff;"/>
   </g>
   <g id="matplotlib.axis_5">
    <g id="xtick_15">
     <g id="line2d_31">
      <g>
       <use style="stroke:#000000;stroke-width:0.8;" x="194.935537" xlink:href="#mf39af1814c" y="640.1592"/>
      </g>
     </g>
     <g id="text_31">
      <!-- 0 -->
      <g transform="translate(191.754287 654.757637)scale(0.1 -0.1)">
       <use xlink:href="#DejaVuSans-30"/>
      </g>
     </g>
    </g>
    <g id="xtick_16">
     <g id="line2d_32">
      <g>
       <use style="stroke:#000000;stroke-width:0.8;" x="269.971256" xlink:href="#mf39af1814c" y="640.1592"/>
      </g>
     </g>
     <g id="text_32">
      <!-- 10 -->
      <g transform="translate(263.608756 654.757637)scale(0.1 -0.1)">
       <use xlink:href="#DejaVuSans-31"/>
       <use x="63.623047" xlink:href="#DejaVuSans-30"/>
      </g>
     </g>
    </g>
    <g id="xtick_17">
     <g id="line2d_33">
      <g>
       <use style="stroke:#000000;stroke-width:0.8;" x="345.006976" xlink:href="#mf39af1814c" y="640.1592"/>
      </g>
     </g>
     <g id="text_33">
      <!-- 20 -->
      <g transform="translate(338.644476 654.757637)scale(0.1 -0.1)">
       <use xlink:href="#DejaVuSans-32"/>
       <use x="63.623047" xlink:href="#DejaVuSans-30"/>
      </g>
     </g>
    </g>
    <g id="xtick_18">
     <g id="line2d_34">
      <g>
       <use style="stroke:#000000;stroke-width:0.8;" x="420.042695" xlink:href="#mf39af1814c" y="640.1592"/>
      </g>
     </g>
     <g id="text_34">
      <!-- 30 -->
      <g transform="translate(413.680195 654.757637)scale(0.1 -0.1)">
       <use xlink:href="#DejaVuSans-33"/>
       <use x="63.623047" xlink:href="#DejaVuSans-30"/>
      </g>
     </g>
    </g>
    <g id="xtick_19">
     <g id="line2d_35">
      <g>
       <use style="stroke:#000000;stroke-width:0.8;" x="495.078414" xlink:href="#mf39af1814c" y="640.1592"/>
      </g>
     </g>
     <g id="text_35">
      <!-- 40 -->
      <g transform="translate(488.715914 654.757637)scale(0.1 -0.1)">
       <use xlink:href="#DejaVuSans-34"/>
       <use x="63.623047" xlink:href="#DejaVuSans-30"/>
      </g>
     </g>
    </g>
    <g id="xtick_20">
     <g id="line2d_36">
      <g>
       <use style="stroke:#000000;stroke-width:0.8;" x="570.114134" xlink:href="#mf39af1814c" y="640.1592"/>
      </g>
     </g>
     <g id="text_36">
      <!-- 50 -->
      <g transform="translate(563.751634 654.757637)scale(0.1 -0.1)">
       <use xlink:href="#DejaVuSans-35"/>
       <use x="63.623047" xlink:href="#DejaVuSans-30"/>
      </g>
     </g>
    </g>
    <g id="xtick_21">
     <g id="line2d_37">
      <g>
       <use style="stroke:#000000;stroke-width:0.8;" x="645.149853" xlink:href="#mf39af1814c" y="640.1592"/>
      </g>
     </g>
     <g id="text_37">
      <!-- 60 -->
      <g transform="translate(638.787353 654.757637)scale(0.1 -0.1)">
       <use xlink:href="#DejaVuSans-36"/>
       <use x="63.623047" xlink:href="#DejaVuSans-30"/>
      </g>
     </g>
    </g>
    <g id="text_38">
     <!-- rb_total -->
     <defs>
      <path d="M 41.109375 46.296875 
Q 39.59375 47.171875 37.8125 47.578125 
Q 36.03125 48 33.890625 48 
Q 26.265625 48 22.1875 43.046875 
Q 18.109375 38.09375 18.109375 28.8125 
L 18.109375 0 
L 9.078125 0 
L 9.078125 54.6875 
L 18.109375 54.6875 
L 18.109375 46.1875 
Q 20.953125 51.171875 25.484375 53.578125 
Q 30.03125 56 36.53125 56 
Q 37.453125 56 38.578125 55.875 
Q 39.703125 55.765625 41.0625 55.515625 
z
" id="DejaVuSans-72"/>
     </defs>
     <g transform="translate(397.128409 668.435763)scale(0.1 -0.1)">
      <use xlink:href="#DejaVuSans-72"/>
      <use x="41.113281" xlink:href="#DejaVuSans-62"/>
      <use x="104.589844" xlink:href="#DejaVuSans-5f"/>
      <use x="154.589844" xlink:href="#DejaVuSans-74"/>
      <use x="193.798828" xlink:href="#DejaVuSans-6f"/>
      <use x="254.980469" xlink:href="#DejaVuSans-74"/>
      <use x="294.189453" xlink:href="#DejaVuSans-61"/>
      <use x="355.46875" xlink:href="#DejaVuSans-6c"/>
     </g>
    </g>
   </g>
   <g id="matplotlib.axis_6">
    <g id="ytick_15">
     <g id="line2d_38">
      <g>
       <use style="stroke:#000000;stroke-width:0.8;" x="172.8" xlink:href="#mc9b3ea6bad" y="628.716109"/>
      </g>
     </g>
     <g id="text_39">
      <!-- 10 -->
      <g transform="translate(153.075 632.515328)scale(0.1 -0.1)">
       <use xlink:href="#DejaVuSans-31"/>
       <use x="63.623047" xlink:href="#DejaVuSans-30"/>
      </g>
     </g>
    </g>
    <g id="ytick_16">
     <g id="line2d_39">
      <g>
       <use style="stroke:#000000;stroke-width:0.8;" x="172.8" xlink:href="#mc9b3ea6bad" y="599.37485"/>
      </g>
     </g>
     <g id="text_40">
      <!-- 15 -->
      <g transform="translate(153.075 603.174069)scale(0.1 -0.1)">
       <use xlink:href="#DejaVuSans-31"/>
       <use x="63.623047" xlink:href="#DejaVuSans-35"/>
      </g>
     </g>
    </g>
    <g id="ytick_17">
     <g id="line2d_40">
      <g>
       <use style="stroke:#000000;stroke-width:0.8;" x="172.8" xlink:href="#mc9b3ea6bad" y="570.033592"/>
      </g>
     </g>
     <g id="text_41">
      <!-- 20 -->
      <g transform="translate(153.075 573.83281)scale(0.1 -0.1)">
       <use xlink:href="#DejaVuSans-32"/>
       <use x="63.623047" xlink:href="#DejaVuSans-30"/>
      </g>
     </g>
    </g>
    <g id="ytick_18">
     <g id="line2d_41">
      <g>
       <use style="stroke:#000000;stroke-width:0.8;" x="172.8" xlink:href="#mc9b3ea6bad" y="540.692333"/>
      </g>
     </g>
     <g id="text_42">
      <!-- 25 -->
      <g transform="translate(153.075 544.491552)scale(0.1 -0.1)">
       <use xlink:href="#DejaVuSans-32"/>
       <use x="63.623047" xlink:href="#DejaVuSans-35"/>
      </g>
     </g>
    </g>
    <g id="ytick_19">
     <g id="line2d_42">
      <g>
       <use style="stroke:#000000;stroke-width:0.8;" x="172.8" xlink:href="#mc9b3ea6bad" y="511.351074"/>
      </g>
     </g>
     <g id="text_43">
      <!-- 30 -->
      <g transform="translate(153.075 515.150293)scale(0.1 -0.1)">
       <use xlink:href="#DejaVuSans-33"/>
       <use x="63.623047" xlink:href="#DejaVuSans-30"/>
      </g>
     </g>
    </g>
    <g id="ytick_20">
     <g id="line2d_43">
      <g>
       <use style="stroke:#000000;stroke-width:0.8;" x="172.8" xlink:href="#mc9b3ea6bad" y="482.009815"/>
      </g>
     </g>
     <g id="text_44">
      <!-- 35 -->
      <g transform="translate(153.075 485.809034)scale(0.1 -0.1)">
       <use xlink:href="#DejaVuSans-33"/>
       <use x="63.623047" xlink:href="#DejaVuSans-35"/>
      </g>
     </g>
    </g>
    <g id="ytick_21">
     <g id="line2d_44">
      <g>
       <use style="stroke:#000000;stroke-width:0.8;" x="172.8" xlink:href="#mc9b3ea6bad" y="452.668557"/>
      </g>
     </g>
     <g id="text_45">
      <!-- 40 -->
      <g transform="translate(153.075 456.467775)scale(0.1 -0.1)">
       <use xlink:href="#DejaVuSans-34"/>
       <use x="63.623047" xlink:href="#DejaVuSans-30"/>
      </g>
     </g>
    </g>
    <g id="ytick_22">
     <g id="line2d_45">
      <g>
       <use style="stroke:#000000;stroke-width:0.8;" x="172.8" xlink:href="#mc9b3ea6bad" y="423.327298"/>
      </g>
     </g>
     <g id="text_46">
      <!-- 45 -->
      <g transform="translate(153.075 427.126517)scale(0.1 -0.1)">
       <use xlink:href="#DejaVuSans-34"/>
       <use x="63.623047" xlink:href="#DejaVuSans-35"/>
      </g>
     </g>
    </g>
    <g id="ytick_23">
     <g id="line2d_46">
      <g>
       <use style="stroke:#000000;stroke-width:0.8;" x="172.8" xlink:href="#mc9b3ea6bad" y="393.986039"/>
      </g>
     </g>
     <g id="text_47">
      <!-- 50 -->
      <g transform="translate(153.075 397.785258)scale(0.1 -0.1)">
       <use xlink:href="#DejaVuSans-35"/>
       <use x="63.623047" xlink:href="#DejaVuSans-30"/>
      </g>
     </g>
    </g>
   </g>
   <g id="line2d_47">
    <path clip-path="url(#p4e3c8980e9)" d="M 194.935537 593.506599 
L 202.439109 552.428836 
L 209.942681 611.111354 
L 217.446253 570.033592 
L 224.949825 581.770095 
L 232.453397 616.979606 
L 239.956969 611.111354 
L 247.460541 599.37485 
L 254.964113 616.979606 
L 262.467685 575.901843 
L 269.971256 540.692333 
L 277.474828 593.506599 
L 284.9784 616.979606 
L 292.481972 611.111354 
L 299.985544 599.37485 
L 307.489116 622.847857 
L 314.992688 622.847857 
L 322.49626 575.901843 
L 329.999832 570.033592 
L 337.503404 611.111354 
L 345.006976 523.087578 
L 352.510548 552.428836 
L 360.01412 599.37485 
L 367.517692 570.033592 
L 375.021263 581.770095 
L 382.524835 611.111354 
L 390.028407 558.297088 
L 397.531979 593.506599 
L 405.035551 599.37485 
L 412.539123 593.506599 
L 420.042695 570.033592 
L 427.546267 628.716109 
L 435.049839 546.560585 
L 442.553411 546.560585 
L 450.056983 593.506599 
L 457.560555 570.033592 
L 465.064127 552.428836 
L 472.567699 581.770095 
L 480.07127 523.087578 
L 487.574842 540.692333 
L 495.078414 464.40506 
L 502.581986 575.901843 
L 510.085558 546.560585 
L 517.58913 446.800305 
L 525.092702 546.560585 
L 532.596274 399.854291 
L 540.099846 534.824081 
L 547.603418 528.955829 
L 555.10699 464.40506 
L 562.610562 470.273312 
L 570.114134 546.560585 
L 577.617706 546.560585 
L 585.121277 564.16534 
L 592.624849 523.087578 
L 600.128421 493.746319 
L 607.631993 505.482822 
L 615.135565 411.590794 
L 622.639137 511.351074 
L 630.142709 440.932053 
L 637.646281 493.746319 
" style="fill:none;stroke:#000000;stroke-dasharray:5.55,2.4;stroke-dashoffset:0;stroke-width:1.5;"/>
    <g clip-path="url(#p4e3c8980e9)">
     <use style="stroke:#000000;" x="194.935537" xlink:href="#m60d03874de" y="593.506599"/>
     <use style="stroke:#000000;" x="202.439109" xlink:href="#m60d03874de" y="552.428836"/>
     <use style="stroke:#000000;" x="209.942681" xlink:href="#m60d03874de" y="611.111354"/>
     <use style="stroke:#000000;" x="217.446253" xlink:href="#m60d03874de" y="570.033592"/>
     <use style="stroke:#000000;" x="224.949825" xlink:href="#m60d03874de" y="581.770095"/>
     <use style="stroke:#000000;" x="232.453397" xlink:href="#m60d03874de" y="616.979606"/>
     <use style="stroke:#000000;" x="239.956969" xlink:href="#m60d03874de" y="611.111354"/>
     <use style="stroke:#000000;" x="247.460541" xlink:href="#m60d03874de" y="599.37485"/>
     <use style="stroke:#000000;" x="254.964113" xlink:href="#m60d03874de" y="616.979606"/>
     <use style="stroke:#000000;" x="262.467685" xlink:href="#m60d03874de" y="575.901843"/>
     <use style="stroke:#000000;" x="269.971256" xlink:href="#m60d03874de" y="540.692333"/>
     <use style="stroke:#000000;" x="277.474828" xlink:href="#m60d03874de" y="593.506599"/>
     <use style="stroke:#000000;" x="284.9784" xlink:href="#m60d03874de" y="616.979606"/>
     <use style="stroke:#000000;" x="292.481972" xlink:href="#m60d03874de" y="611.111354"/>
     <use style="stroke:#000000;" x="299.985544" xlink:href="#m60d03874de" y="599.37485"/>
     <use style="stroke:#000000;" x="307.489116" xlink:href="#m60d03874de" y="622.847857"/>
     <use style="stroke:#000000;" x="314.992688" xlink:href="#m60d03874de" y="622.847857"/>
     <use style="stroke:#000000;" x="322.49626" xlink:href="#m60d03874de" y="575.901843"/>
     <use style="stroke:#000000;" x="329.999832" xlink:href="#m60d03874de" y="570.033592"/>
     <use style="stroke:#000000;" x="337.503404" xlink:href="#m60d03874de" y="611.111354"/>
     <use style="stroke:#000000;" x="345.006976" xlink:href="#m60d03874de" y="523.087578"/>
     <use style="stroke:#000000;" x="352.510548" xlink:href="#m60d03874de" y="552.428836"/>
     <use style="stroke:#000000;" x="360.01412" xlink:href="#m60d03874de" y="599.37485"/>
     <use style="stroke:#000000;" x="367.517692" xlink:href="#m60d03874de" y="570.033592"/>
     <use style="stroke:#000000;" x="375.021263" xlink:href="#m60d03874de" y="581.770095"/>
     <use style="stroke:#000000;" x="382.524835" xlink:href="#m60d03874de" y="611.111354"/>
     <use style="stroke:#000000;" x="390.028407" xlink:href="#m60d03874de" y="558.297088"/>
     <use style="stroke:#000000;" x="397.531979" xlink:href="#m60d03874de" y="593.506599"/>
     <use style="stroke:#000000;" x="405.035551" xlink:href="#m60d03874de" y="599.37485"/>
     <use style="stroke:#000000;" x="412.539123" xlink:href="#m60d03874de" y="593.506599"/>
     <use style="stroke:#000000;" x="420.042695" xlink:href="#m60d03874de" y="570.033592"/>
     <use style="stroke:#000000;" x="427.546267" xlink:href="#m60d03874de" y="628.716109"/>
     <use style="stroke:#000000;" x="435.049839" xlink:href="#m60d03874de" y="546.560585"/>
     <use style="stroke:#000000;" x="442.553411" xlink:href="#m60d03874de" y="546.560585"/>
     <use style="stroke:#000000;" x="450.056983" xlink:href="#m60d03874de" y="593.506599"/>
     <use style="stroke:#000000;" x="457.560555" xlink:href="#m60d03874de" y="570.033592"/>
     <use style="stroke:#000000;" x="465.064127" xlink:href="#m60d03874de" y="552.428836"/>
     <use style="stroke:#000000;" x="472.567699" xlink:href="#m60d03874de" y="581.770095"/>
     <use style="stroke:#000000;" x="480.07127" xlink:href="#m60d03874de" y="523.087578"/>
     <use style="stroke:#000000;" x="487.574842" xlink:href="#m60d03874de" y="540.692333"/>
     <use style="stroke:#000000;" x="495.078414" xlink:href="#m60d03874de" y="464.40506"/>
     <use style="stroke:#000000;" x="502.581986" xlink:href="#m60d03874de" y="575.901843"/>
     <use style="stroke:#000000;" x="510.085558" xlink:href="#m60d03874de" y="546.560585"/>
     <use style="stroke:#000000;" x="517.58913" xlink:href="#m60d03874de" y="446.800305"/>
     <use style="stroke:#000000;" x="525.092702" xlink:href="#m60d03874de" y="546.560585"/>
     <use style="stroke:#000000;" x="532.596274" xlink:href="#m60d03874de" y="399.854291"/>
     <use style="stroke:#000000;" x="540.099846" xlink:href="#m60d03874de" y="534.824081"/>
     <use style="stroke:#000000;" x="547.603418" xlink:href="#m60d03874de" y="528.955829"/>
     <use style="stroke:#000000;" x="555.10699" xlink:href="#m60d03874de" y="464.40506"/>
     <use style="stroke:#000000;" x="562.610562" xlink:href="#m60d03874de" y="470.273312"/>
     <use style="stroke:#000000;" x="570.114134" xlink:href="#m60d03874de" y="546.560585"/>
     <use style="stroke:#000000;" x="577.617706" xlink:href="#m60d03874de" y="546.560585"/>
     <use style="stroke:#000000;" x="585.121277" xlink:href="#m60d03874de" y="564.16534"/>
     <use style="stroke:#000000;" x="592.624849" xlink:href="#m60d03874de" y="523.087578"/>
     <use style="stroke:#000000;" x="600.128421" xlink:href="#m60d03874de" y="493.746319"/>
     <use style="stroke:#000000;" x="607.631993" xlink:href="#m60d03874de" y="505.482822"/>
     <use style="stroke:#000000;" x="615.135565" xlink:href="#m60d03874de" y="411.590794"/>
     <use style="stroke:#000000;" x="622.639137" xlink:href="#m60d03874de" y="511.351074"/>
     <use style="stroke:#000000;" x="630.142709" xlink:href="#m60d03874de" y="440.932053"/>
     <use style="stroke:#000000;" x="637.646281" xlink:href="#m60d03874de" y="493.746319"/>
    </g>
   </g>
   <g id="patch_13">
    <path d="M 172.8 640.1592 
L 172.8 388.4112 
" style="fill:none;stroke:#000000;stroke-linecap:square;stroke-linejoin:miter;stroke-width:0.8;"/>
   </g>
   <g id="patch_14">
    <path d="M 659.781818 640.1592 
L 659.781818 388.4112 
" style="fill:none;stroke:#000000;stroke-linecap:square;stroke-linejoin:miter;stroke-width:0.8;"/>
   </g>
   <g id="patch_15">
    <path d="M 172.8 640.1592 
L 659.781818 640.1592 
" style="fill:none;stroke:#000000;stroke-linecap:square;stroke-linejoin:miter;stroke-width:0.8;"/>
   </g>
   <g id="patch_16">
    <path d="M 172.8 388.4112 
L 659.781818 388.4112 
" style="fill:none;stroke:#000000;stroke-linecap:square;stroke-linejoin:miter;stroke-width:0.8;"/>
   </g>
  </g>
  <g id="axes_4">
   <g id="patch_17">
    <path d="M 757.178182 640.1592 
L 1244.16 640.1592 
L 1244.16 388.4112 
L 757.178182 388.4112 
z
" style="fill:#ffffff;"/>
   </g>
   <g id="matplotlib.axis_7">
    <g id="xtick_22">
     <g id="line2d_48">
      <g>
       <use style="stroke:#000000;stroke-width:0.8;" x="779.313719" xlink:href="#mf39af1814c" y="640.1592"/>
      </g>
     </g>
     <g id="text_48">
      <!-- 0 -->
      <g transform="translate(776.132469 654.757637)scale(0.1 -0.1)">
       <use xlink:href="#DejaVuSans-30"/>
      </g>
     </g>
    </g>
    <g id="xtick_23">
     <g id="line2d_49">
      <g>
       <use style="stroke:#000000;stroke-width:0.8;" x="854.349438" xlink:href="#mf39af1814c" y="640.1592"/>
      </g>
     </g>
     <g id="text_49">
      <!-- 10 -->
      <g transform="translate(847.986938 654.757637)scale(0.1 -0.1)">
       <use xlink:href="#DejaVuSans-31"/>
       <use x="63.623047" xlink:href="#DejaVuSans-30"/>
      </g>
     </g>
    </g>
    <g id="xtick_24">
     <g id="line2d_50">
      <g>
       <use style="stroke:#000000;stroke-width:0.8;" x="929.385158" xlink:href="#mf39af1814c" y="640.1592"/>
      </g>
     </g>
     <g id="text_50">
      <!-- 20 -->
      <g transform="translate(923.022658 654.757637)scale(0.1 -0.1)">
       <use xlink:href="#DejaVuSans-32"/>
       <use x="63.623047" xlink:href="#DejaVuSans-30"/>
      </g>
     </g>
    </g>
    <g id="xtick_25">
     <g id="line2d_51">
      <g>
       <use style="stroke:#000000;stroke-width:0.8;" x="1004.420877" xlink:href="#mf39af1814c" y="640.1592"/>
      </g>
     </g>
     <g id="text_51">
      <!-- 30 -->
      <g transform="translate(998.058377 654.757637)scale(0.1 -0.1)">
       <use xlink:href="#DejaVuSans-33"/>
       <use x="63.623047" xlink:href="#DejaVuSans-30"/>
      </g>
     </g>
    </g>
    <g id="xtick_26">
     <g id="line2d_52">
      <g>
       <use style="stroke:#000000;stroke-width:0.8;" x="1079.456596" xlink:href="#mf39af1814c" y="640.1592"/>
      </g>
     </g>
     <g id="text_52">
      <!-- 40 -->
      <g transform="translate(1073.094096 654.757637)scale(0.1 -0.1)">
       <use xlink:href="#DejaVuSans-34"/>
       <use x="63.623047" xlink:href="#DejaVuSans-30"/>
      </g>
     </g>
    </g>
    <g id="xtick_27">
     <g id="line2d_53">
      <g>
       <use style="stroke:#000000;stroke-width:0.8;" x="1154.492315" xlink:href="#mf39af1814c" y="640.1592"/>
      </g>
     </g>
     <g id="text_53">
      <!-- 50 -->
      <g transform="translate(1148.129815 654.757637)scale(0.1 -0.1)">
       <use xlink:href="#DejaVuSans-35"/>
       <use x="63.623047" xlink:href="#DejaVuSans-30"/>
      </g>
     </g>
    </g>
    <g id="xtick_28">
     <g id="line2d_54">
      <g>
       <use style="stroke:#000000;stroke-width:0.8;" x="1229.528035" xlink:href="#mf39af1814c" y="640.1592"/>
      </g>
     </g>
     <g id="text_54">
      <!-- 60 -->
      <g transform="translate(1223.165535 654.757637)scale(0.1 -0.1)">
       <use xlink:href="#DejaVuSans-36"/>
       <use x="63.623047" xlink:href="#DejaVuSans-30"/>
      </g>
     </g>
    </g>
    <g id="text_55">
     <!-- jjrb -->
     <g transform="translate(992.661278 668.435763)scale(0.1 -0.1)">
      <use xlink:href="#DejaVuSans-6a"/>
      <use x="27.783203" xlink:href="#DejaVuSans-6a"/>
      <use x="55.566406" xlink:href="#DejaVuSans-72"/>
      <use x="96.679688" xlink:href="#DejaVuSans-62"/>
     </g>
    </g>
   </g>
   <g id="matplotlib.axis_8">
    <g id="ytick_24">
     <g id="line2d_55">
      <g>
       <use style="stroke:#000000;stroke-width:0.8;" x="757.178182" xlink:href="#mc9b3ea6bad" y="635.073382"/>
      </g>
     </g>
     <g id="text_56">
      <!-- 20 -->
      <g transform="translate(737.453182 638.872601)scale(0.1 -0.1)">
       <use xlink:href="#DejaVuSans-32"/>
       <use x="63.623047" xlink:href="#DejaVuSans-30"/>
      </g>
     </g>
    </g>
    <g id="ytick_25">
     <g id="line2d_56">
      <g>
       <use style="stroke:#000000;stroke-width:0.8;" x="757.178182" xlink:href="#mc9b3ea6bad" y="603.287018"/>
      </g>
     </g>
     <g id="text_57">
      <!-- 30 -->
      <g transform="translate(737.453182 607.086237)scale(0.1 -0.1)">
       <use xlink:href="#DejaVuSans-33"/>
       <use x="63.623047" xlink:href="#DejaVuSans-30"/>
      </g>
     </g>
    </g>
    <g id="ytick_26">
     <g id="line2d_57">
      <g>
       <use style="stroke:#000000;stroke-width:0.8;" x="757.178182" xlink:href="#mc9b3ea6bad" y="571.500655"/>
      </g>
     </g>
     <g id="text_58">
      <!-- 40 -->
      <g transform="translate(737.453182 575.299873)scale(0.1 -0.1)">
       <use xlink:href="#DejaVuSans-34"/>
       <use x="63.623047" xlink:href="#DejaVuSans-30"/>
      </g>
     </g>
    </g>
    <g id="ytick_27">
     <g id="line2d_58">
      <g>
       <use style="stroke:#000000;stroke-width:0.8;" x="757.178182" xlink:href="#mc9b3ea6bad" y="539.714291"/>
      </g>
     </g>
     <g id="text_59">
      <!-- 50 -->
      <g transform="translate(737.453182 543.51351)scale(0.1 -0.1)">
       <use xlink:href="#DejaVuSans-35"/>
       <use x="63.623047" xlink:href="#DejaVuSans-30"/>
      </g>
     </g>
    </g>
    <g id="ytick_28">
     <g id="line2d_59">
      <g>
       <use style="stroke:#000000;stroke-width:0.8;" x="757.178182" xlink:href="#mc9b3ea6bad" y="507.927927"/>
      </g>
     </g>
     <g id="text_60">
      <!-- 60 -->
      <g transform="translate(737.453182 511.727146)scale(0.1 -0.1)">
       <use xlink:href="#DejaVuSans-36"/>
       <use x="63.623047" xlink:href="#DejaVuSans-30"/>
      </g>
     </g>
    </g>
    <g id="ytick_29">
     <g id="line2d_60">
      <g>
       <use style="stroke:#000000;stroke-width:0.8;" x="757.178182" xlink:href="#mc9b3ea6bad" y="476.141564"/>
      </g>
     </g>
     <g id="text_61">
      <!-- 70 -->
      <g transform="translate(737.453182 479.940782)scale(0.1 -0.1)">
       <use xlink:href="#DejaVuSans-37"/>
       <use x="63.623047" xlink:href="#DejaVuSans-30"/>
      </g>
     </g>
    </g>
    <g id="ytick_30">
     <g id="line2d_61">
      <g>
       <use style="stroke:#000000;stroke-width:0.8;" x="757.178182" xlink:href="#mc9b3ea6bad" y="444.3552"/>
      </g>
     </g>
     <g id="text_62">
      <!-- 80 -->
      <g transform="translate(737.453182 448.154419)scale(0.1 -0.1)">
       <use xlink:href="#DejaVuSans-38"/>
       <use x="63.623047" xlink:href="#DejaVuSans-30"/>
      </g>
     </g>
    </g>
    <g id="ytick_31">
     <g id="line2d_62">
      <g>
       <use style="stroke:#000000;stroke-width:0.8;" x="757.178182" xlink:href="#mc9b3ea6bad" y="412.568836"/>
      </g>
     </g>
     <g id="text_63">
      <!-- 90 -->
      <g transform="translate(737.453182 416.368055)scale(0.1 -0.1)">
       <use xlink:href="#DejaVuSans-39"/>
       <use x="63.623047" xlink:href="#DejaVuSans-30"/>
      </g>
     </g>
    </g>
   </g>
   <g id="line2d_63">
    <path clip-path="url(#p0dd833c37c)" d="M 779.313719 584.2152 
L 786.817291 590.572473 
L 794.320863 584.2152 
L 801.824435 574.679291 
L 809.328007 600.108382 
L 816.831579 616.001564 
L 824.335151 628.716109 
L 831.838723 587.393836 
L 839.342294 584.2152 
L 846.845866 574.679291 
L 854.349438 549.2502 
L 861.85301 603.287018 
L 869.356582 625.537473 
L 876.860154 609.644291 
L 884.363726 571.500655 
L 891.867298 600.108382 
L 899.37087 593.751109 
L 906.874442 558.786109 
L 914.378014 571.500655 
L 921.881586 603.287018 
L 929.385158 520.642473 
L 936.88873 533.357018 
L 944.392301 561.964745 
L 951.895873 549.2502 
L 959.399445 549.2502 
L 966.903017 571.500655 
L 974.406589 526.999745 
L 981.910161 568.322018 
L 989.413733 530.178382 
L 996.917305 574.679291 
L 1004.420877 558.786109 
L 1011.924449 590.572473 
L 1019.428021 555.607473 
L 1026.931593 536.535655 
L 1034.435165 539.714291 
L 1041.938737 565.143382 
L 1049.442308 549.2502 
L 1056.94588 546.071564 
L 1064.449452 539.714291 
L 1071.953024 574.679291 
L 1079.456596 441.176564 
L 1086.960168 501.570655 
L 1094.46374 479.3202 
L 1101.967312 399.854291 
L 1109.470884 523.821109 
L 1116.974456 415.747473 
L 1124.478028 460.248382 
L 1131.9816 466.605655 
L 1139.485172 450.712473 
L 1146.988744 431.640655 
L 1154.492315 479.3202 
L 1161.995887 501.570655 
L 1169.499459 501.570655 
L 1177.003031 472.962927 
L 1184.506603 425.283382 
L 1192.010175 472.962927 
L 1199.513747 460.248382 
L 1207.017319 482.498836 
L 1214.520891 422.104745 
L 1222.024463 431.640655 
" style="fill:none;stroke:#000000;stroke-dasharray:5.55,2.4;stroke-dashoffset:0;stroke-width:1.5;"/>
    <g clip-path="url(#p0dd833c37c)">
     <use style="stroke:#000000;" x="779.313719" xlink:href="#m60d03874de" y="584.2152"/>
     <use style="stroke:#000000;" x="786.817291" xlink:href="#m60d03874de" y="590.572473"/>
     <use style="stroke:#000000;" x="794.320863" xlink:href="#m60d03874de" y="584.2152"/>
     <use style="stroke:#000000;" x="801.824435" xlink:href="#m60d03874de" y="574.679291"/>
     <use style="stroke:#000000;" x="809.328007" xlink:href="#m60d03874de" y="600.108382"/>
     <use style="stroke:#000000;" x="816.831579" xlink:href="#m60d03874de" y="616.001564"/>
     <use style="stroke:#000000;" x="824.335151" xlink:href="#m60d03874de" y="628.716109"/>
     <use style="stroke:#000000;" x="831.838723" xlink:href="#m60d03874de" y="587.393836"/>
     <use style="stroke:#000000;" x="839.342294" xlink:href="#m60d03874de" y="584.2152"/>
     <use style="stroke:#000000;" x="846.845866" xlink:href="#m60d03874de" y="574.679291"/>
     <use style="stroke:#000000;" x="854.349438" xlink:href="#m60d03874de" y="549.2502"/>
     <use style="stroke:#000000;" x="861.85301" xlink:href="#m60d03874de" y="603.287018"/>
     <use style="stroke:#000000;" x="869.356582" xlink:href="#m60d03874de" y="625.537473"/>
     <use style="stroke:#000000;" x="876.860154" xlink:href="#m60d03874de" y="609.644291"/>
     <use style="stroke:#000000;" x="884.363726" xlink:href="#m60d03874de" y="571.500655"/>
     <use style="stroke:#000000;" x="891.867298" xlink:href="#m60d03874de" y="600.108382"/>
     <use style="stroke:#000000;" x="899.37087" xlink:href="#m60d03874de" y="593.751109"/>
     <use style="stroke:#000000;" x="906.874442" xlink:href="#m60d03874de" y="558.786109"/>
     <use style="stroke:#000000;" x="914.378014" xlink:href="#m60d03874de" y="571.500655"/>
     <use style="stroke:#000000;" x="921.881586" xlink:href="#m60d03874de" y="603.287018"/>
     <use style="stroke:#000000;" x="929.385158" xlink:href="#m60d03874de" y="520.642473"/>
     <use style="stroke:#000000;" x="936.88873" xlink:href="#m60d03874de" y="533.357018"/>
     <use style="stroke:#000000;" x="944.392301" xlink:href="#m60d03874de" y="561.964745"/>
     <use style="stroke:#000000;" x="951.895873" xlink:href="#m60d03874de" y="549.2502"/>
     <use style="stroke:#000000;" x="959.399445" xlink:href="#m60d03874de" y="549.2502"/>
     <use style="stroke:#000000;" x="966.903017" xlink:href="#m60d03874de" y="571.500655"/>
     <use style="stroke:#000000;" x="974.406589" xlink:href="#m60d03874de" y="526.999745"/>
     <use style="stroke:#000000;" x="981.910161" xlink:href="#m60d03874de" y="568.322018"/>
     <use style="stroke:#000000;" x="989.413733" xlink:href="#m60d03874de" y="530.178382"/>
     <use style="stroke:#000000;" x="996.917305" xlink:href="#m60d03874de" y="574.679291"/>
     <use style="stroke:#000000;" x="1004.420877" xlink:href="#m60d03874de" y="558.786109"/>
     <use style="stroke:#000000;" x="1011.924449" xlink:href="#m60d03874de" y="590.572473"/>
     <use style="stroke:#000000;" x="1019.428021" xlink:href="#m60d03874de" y="555.607473"/>
     <use style="stroke:#000000;" x="1026.931593" xlink:href="#m60d03874de" y="536.535655"/>
     <use style="stroke:#000000;" x="1034.435165" xlink:href="#m60d03874de" y="539.714291"/>
     <use style="stroke:#000000;" x="1041.938737" xlink:href="#m60d03874de" y="565.143382"/>
     <use style="stroke:#000000;" x="1049.442308" xlink:href="#m60d03874de" y="549.2502"/>
     <use style="stroke:#000000;" x="1056.94588" xlink:href="#m60d03874de" y="546.071564"/>
     <use style="stroke:#000000;" x="1064.449452" xlink:href="#m60d03874de" y="539.714291"/>
     <use style="stroke:#000000;" x="1071.953024" xlink:href="#m60d03874de" y="574.679291"/>
     <use style="stroke:#000000;" x="1079.456596" xlink:href="#m60d03874de" y="441.176564"/>
     <use style="stroke:#000000;" x="1086.960168" xlink:href="#m60d03874de" y="501.570655"/>
     <use style="stroke:#000000;" x="1094.46374" xlink:href="#m60d03874de" y="479.3202"/>
     <use style="stroke:#000000;" x="1101.967312" xlink:href="#m60d03874de" y="399.854291"/>
     <use style="stroke:#000000;" x="1109.470884" xlink:href="#m60d03874de" y="523.821109"/>
     <use style="stroke:#000000;" x="1116.974456" xlink:href="#m60d03874de" y="415.747473"/>
     <use style="stroke:#000000;" x="1124.478028" xlink:href="#m60d03874de" y="460.248382"/>
     <use style="stroke:#000000;" x="1131.9816" xlink:href="#m60d03874de" y="466.605655"/>
     <use style="stroke:#000000;" x="1139.485172" xlink:href="#m60d03874de" y="450.712473"/>
     <use style="stroke:#000000;" x="1146.988744" xlink:href="#m60d03874de" y="431.640655"/>
     <use style="stroke:#000000;" x="1154.492315" xlink:href="#m60d03874de" y="479.3202"/>
     <use style="stroke:#000000;" x="1161.995887" xlink:href="#m60d03874de" y="501.570655"/>
     <use style="stroke:#000000;" x="1169.499459" xlink:href="#m60d03874de" y="501.570655"/>
     <use style="stroke:#000000;" x="1177.003031" xlink:href="#m60d03874de" y="472.962927"/>
     <use style="stroke:#000000;" x="1184.506603" xlink:href="#m60d03874de" y="425.283382"/>
     <use style="stroke:#000000;" x="1192.010175" xlink:href="#m60d03874de" y="472.962927"/>
     <use style="stroke:#000000;" x="1199.513747" xlink:href="#m60d03874de" y="460.248382"/>
     <use style="stroke:#000000;" x="1207.017319" xlink:href="#m60d03874de" y="482.498836"/>
     <use style="stroke:#000000;" x="1214.520891" xlink:href="#m60d03874de" y="422.104745"/>
     <use style="stroke:#000000;" x="1222.024463" xlink:href="#m60d03874de" y="431.640655"/>
    </g>
   </g>
   <g id="patch_18">
    <path d="M 757.178182 640.1592 
L 757.178182 388.4112 
" style="fill:none;stroke:#000000;stroke-linecap:square;stroke-linejoin:miter;stroke-width:0.8;"/>
   </g>
   <g id="patch_19">
    <path d="M 1244.16 640.1592 
L 1244.16 388.4112 
" style="fill:none;stroke:#000000;stroke-linecap:square;stroke-linejoin:miter;stroke-width:0.8;"/>
   </g>
   <g id="patch_20">
    <path d="M 757.178182 640.1592 
L 1244.16 640.1592 
" style="fill:none;stroke:#000000;stroke-linecap:square;stroke-linejoin:miter;stroke-width:0.8;"/>
   </g>
   <g id="patch_21">
    <path d="M 757.178182 388.4112 
L 1244.16 388.4112 
" style="fill:none;stroke:#000000;stroke-linecap:square;stroke-linejoin:miter;stroke-width:0.8;"/>
   </g>
  </g>
 </g>
 <defs>
  <clipPath id="p7d91c18092">
   <rect height="251.748" width="486.981818" x="172.8" y="86.3136"/>
  </clipPath>
  <clipPath id="p7c5a137256">
   <rect height="251.748" width="486.981818" x="757.178182" y="86.3136"/>
  </clipPath>
  <clipPath id="p4e3c8980e9">
   <rect height="251.748" width="486.981818" x="172.8" y="388.4112"/>
  </clipPath>
  <clipPath id="p0dd833c37c">
   <rect height="251.748" width="486.981818" x="757.178182" y="388.4112"/>
  </clipPath>
 </defs>
</svg>
